<svg xmlns="http://www.w3.org/2000/svg" width="172" height="36" fill="none"><path fill="#7950ED" d="M0 17.99c0 9.02 6.608 16.43 15.11 17.465V.524C6.609 1.559 0 8.969 0 17.989ZM34.303 17.988c0-9.066-6.675-16.522-15.268-17.488v35H34.28V18.472c.022-.161.022-.322.022-.484Z"/><path fill="#000" d="M49.517 18.012c1.849 0 3.112.897 3.789 1.864v-1.68h2.932v11.712h-2.932v-1.702c-.677 1.012-1.985 1.91-3.812 1.91-2.91 0-5.232-2.44-5.232-6.098 0-3.66 2.323-6.006 5.255-6.006Zm.744 2.6c-1.556 0-3.022 1.197-3.022 3.406s1.466 3.497 3.022 3.497c1.601 0 3.045-1.22 3.045-3.451 0-2.232-1.444-3.452-3.045-3.452ZM75.249 23.442c0-1.864-1.015-2.83-2.549-2.83-1.556 0-2.571.966-2.571 2.83v6.466h-2.91v-6.466c0-1.864-1.014-2.83-2.548-2.83-1.579 0-2.594.966-2.594 2.83v6.466h-2.909V18.196h2.91v1.426c.721-.966 1.939-1.587 3.382-1.587 1.782 0 3.248.782 4.037 2.232.745-1.335 2.256-2.232 3.947-2.232 2.752 0 4.714 1.771 4.714 5.016v6.88h-2.91v-6.489ZM87.722 18.012c2.955 0 5.255 2.347 5.255 6.006 0 3.658-2.3 6.098-5.255 6.098-1.804 0-3.09-.92-3.789-1.864V35.5h-2.91V18.196h2.91v1.703c.677-1.013 2.008-1.887 3.79-1.887Zm-.766 2.6c-1.557 0-3.023 1.22-3.023 3.452s1.466 3.451 3.022 3.451c1.58 0 3.045-1.265 3.045-3.497s-1.466-3.406-3.044-3.406ZM95.188 14.26h2.909v15.671h-2.91v-15.67ZM100.735 15.066c0-.966.745-1.726 1.782-1.726 1.015 0 1.782.76 1.782 1.726 0 .967-.767 1.726-1.782 1.726-1.037 0-1.782-.76-1.782-1.726Zm.316 3.13h2.909v11.712h-2.909V18.196ZM111.855 18.012c2.865 0 4.782 1.518 5.413 4.142h-3.135c-.338-.99-1.105-1.634-2.3-1.634-1.624 0-2.707 1.242-2.707 3.544 0 2.278 1.083 3.52 2.707 3.52 1.195 0 1.939-.552 2.3-1.61h3.135c-.631 2.508-2.548 4.142-5.413 4.142-3.315 0-5.683-2.37-5.683-6.052 0-3.682 2.368-6.052 5.683-6.052ZM124.009 18.012c1.849 0 3.112.897 3.789 1.864v-1.68h2.932v11.712h-2.932v-1.702c-.677 1.012-1.985 1.91-3.812 1.91-2.909 0-5.232-2.44-5.232-6.098 0-3.66 2.323-6.006 5.255-6.006Zm.744 2.6c-1.556 0-3.022 1.197-3.022 3.406s1.466 3.497 3.022 3.497c1.601 0 3.045-1.22 3.045-3.451 0-2.232-1.444-3.452-3.045-3.452ZM134.136 20.635h-1.375v-2.44h1.375v-2.899h2.932v2.9h2.571v2.439h-2.593v5.66c0 .783.316 1.128 1.218 1.128h1.353v2.509h-1.827c-2.188 0-3.676-.944-3.676-3.636v-5.661h.022ZM141.512 15.066c0-.966.744-1.726 1.781-1.726 1.015 0 1.782.76 1.782 1.726 0 .967-.767 1.726-1.782 1.726-1.037 0-1.781-.76-1.781-1.726Zm.315 3.13h2.91v11.712h-2.91V18.196ZM152.788 30.116c-3.315 0-5.818-2.37-5.818-6.052 0-3.705 2.593-6.052 5.909-6.052 3.315 0 5.909 2.347 5.909 6.052 0 3.681-2.639 6.052-6 6.052Zm0-2.578c1.534 0 3-1.15 3-3.474 0-2.348-1.421-3.475-2.977-3.475-1.556 0-2.932 1.128-2.932 3.475.045 2.324 1.353 3.474 2.909 3.474ZM169.072 23.442c0-1.887-1.015-2.9-2.548-2.9-1.579 0-2.594 1.013-2.594 2.9v6.466h-2.909V18.197h2.909v1.45c.744-.99 1.985-1.634 3.473-1.634 2.684 0 4.578 1.772 4.578 5.016v6.88h-2.909v-6.466Z"/></svg>