<svg xmlns="http://www.w3.org/2000/svg" width="100" height="27" fill="#040201" fill-rule="evenodd"><path d="M51.415 0l.001 26.862h14.217l5.25-2.364 1.77-5.06L72.64 7.6l-1.914-5.334L65.58 0H51.415zm5.443 18.48l.002-12.95h7.622l1.93.895.776 2.163.014 9.9-.682 1.946-2.074.957H56.86l-.002-2.912zM4.017 0L0 7.76v11.343l4.017 7.76h10.205l5.253-2.426 2.052-5.86-3.115-5.103 3.105-5.123-2.202-6.134L14.187 0H4.017zM5.45 17.738V9.124L7.3 5.53h5.767l1.93.833.5 1.364L12 13.48l3.507 5.747-.4 1.145-2.074.957H7.3l-1.86-3.593zM94.54 0v19.548L91 21.33h-3.926l-3.54-1.783V0h-5.45v22.9l7.644 3.972h6.616L100 22.9V0zM35.975 16.242V10.7h-4.357l-2.273-3.765-4.646 2.9 2.188 3.624-2.22 3.695 4.653 2.88 2.278-3.792zm-3.57-10.7h13.58V0h-13.58zm0 21.33h13.58V21.33h-13.58z"/></svg>