<svg xmlns="http://www.w3.org/2000/svg" width="1304.669" height="208.896" xmlns:v="https://vecta.io/nano"><g transform="translate(-347.665 -894.841)"><linearGradient id="A" gradientUnits="userSpaceOnUse" x1="1099.977" y1="1101.466" x2="1294.785" y2="940.156"><stop offset="0" stop-color="#079185"/><stop offset="1" stop-color="#19f57b"/></linearGradient><path fill="url(#A)" d="M1232.623 1028.488c3.072-14.246-13.549-27.515-35.338-33.799-19.553-5.727-26.817-14.107-31.287-20.392-.698-.699-1.116-1.538-1.676-2.235l-.418 2.235c-1.398 9.496 2.932 19.133 8.38 25.699-5.308-3.632-13.548-8.52-23.884-11.592v81.567h37.014c5.028-21.928 37.711-16.62 43.857-.418 28.493-16.203 9.358-37.153 3.352-41.065zm-15.783 4.471s-3.366-8.541-11.453-16.62l15.364 10.893z"/><linearGradient id="B" gradientUnits="userSpaceOnUse" x1="1027.478" y1="761.675" x2="303.895" y2="1025.604"><stop offset="0" stop-color="#19f57b"/><stop offset="1" stop-color="#079185"/></linearGradient><path fill="url(#B)" d="M422.487 904.58c19.655 0 36.064 6.356 49.233 19.041 13.169 12.712 19.75 28.657 19.75 47.849s-6.581 35.136-19.75 47.848c-13.169 12.699-29.578 19.041-49.233 19.041h-32.545v60.916h-42.277V904.58zm-1.664 94.852c8.341 0 15.059-2.605 20.167-7.802 5.095-5.183 7.645-11.867 7.645-20.023s-2.551-14.881-7.645-20.16c-5.108-5.292-11.825-7.938-20.167-7.938h-30.88v55.923z"/><linearGradient id="C" gradientUnits="userSpaceOnUse" x1="1050.716" y1="825.387" x2="327.134" y2="1089.316"><stop offset="0" stop-color="#19f57b"/><stop offset="1" stop-color="#079185"/></linearGradient><path fill="url(#C)" d="M595.502 945.459c17.057 0 30.499 5.661 40.334 16.968 9.827 11.308 14.745 26.53 14.745 45.625v91.224h-40.612v-84.554c0-11.307-2.087-19.751-6.261-25.302-4.174-5.565-10.803-8.347-19.887-8.347-10.203 0-18.359 3.519-24.477 10.557-6.125 7.052-9.18 16.614-9.18 28.657v78.989h-40.613V894.841h40.613v68.145c12.235-11.676 27.347-17.527 45.338-17.527z"/><linearGradient id="D" gradientUnits="userSpaceOnUse" x1="1082.518" y1="912.57" x2="358.936" y2="1176.499"><stop offset="0" stop-color="#19f57b"/><stop offset="1" stop-color="#079185"/></linearGradient><path fill="url(#D)" d="M802.174 948.801h30.321v150.202h-31.999l-3.328-13.353c-13.736 11.88-29.953 17.8-48.681 17.8-22.629 0-41.397-7.557-56.333-22.67-14.922-15.113-22.383-34.073-22.383-56.879 0-22.615 7.461-41.438 22.383-56.469 14.936-15.017 33.704-22.533 56.333-22.533 19.095 0 35.505 6.125 49.24 18.359zm-79.698 104.59c7.693 7.775 17.432 11.675 29.203 11.675 11.785 0 21.565-3.9 29.354-11.675 7.788-7.802 11.675-17.623 11.675-29.49s-3.887-21.687-11.675-29.489c-7.789-7.775-17.527-11.675-29.203-11.675-7.788 0-14.8 1.8-21.005 5.429-6.22 3.601-11.09 8.525-14.608 14.731-3.52 6.22-5.279 13.217-5.279 21.005-.001 11.866 3.845 21.687 11.538 29.489z"/><linearGradient id="E" gradientUnits="userSpaceOnUse" x1="1086.334" y1="923.035" x2="362.752" y2="1186.964"><stop offset="0" stop-color="#19f57b"/><stop offset="1" stop-color="#079185"/></linearGradient><path fill="url(#E)" d="M863.09 1099.276V894.841h40.606v204.435z"/><path d="M1213.069 944.897h75.592v22.39h-75.592zm0 131.989h75.592v22.39h-75.592z"/><path d="M1259.07 1099.276V944.899h40.606v154.376h-40.606zm-254.957 4.174c-14.841 0-28.33-3.465-40.47-10.421-12.154-6.956-21.702-16.558-28.657-28.794-6.943-12.235-10.421-25.765-10.421-40.606 0-22.438 7.597-41.165 22.805-56.196 15.209-15.017 34.209-22.533 57.029-22.533 19.464 0 36.159 5.62 50.058 16.832 13.913 11.226 22.71 26.107 26.434 44.643h-40.333c-3.342-7.229-8.211-12.931-14.608-17.105s-13.681-6.26-21.837-6.26c-10.939 0-20.079 3.9-27.403 11.675-7.325 7.802-10.98 17.541-10.98 29.216s3.71 21.524 11.13 29.49c7.407 7.966 16.504 11.948 27.253 11.948 8.156 0 15.386-2.168 21.701-6.52 6.301-4.365 11.212-10.625 14.744-18.782h40.879c-3.71 19.096-12.604 34.441-26.693 46.034-14.104 11.595-30.976 17.379-50.631 17.379zm434.169-208.609h40.606v204.435h-30.049l-4.719-12.508c-13.354 11.308-29.026 16.969-47.017 16.969-15.017 0-28.547-3.437-40.606-10.298-12.057-6.848-21.469-16.368-28.234-28.507s-10.148-25.725-10.148-40.756c0-15.017 3.383-28.549 10.148-40.606 6.765-12.044 16.177-21.51 28.234-28.371s25.589-10.298 40.606-10.298c15.209 0 28.93 4.092 41.179 12.249zm-67.327 158.823c7.789 7.788 17.569 11.675 29.354 11.675 11.771 0 21.551-3.928 29.339-11.812s11.689-17.704 11.689-29.489c0-11.771-3.901-21.551-11.689-29.353-7.788-7.775-17.569-11.675-29.339-11.675-11.785 0-21.565 3.9-29.354 11.675-7.788 7.802-11.675 17.623-11.675 29.49s3.887 21.701 11.675 29.489zm281.379-30.035c0 3.887-.273 7.883-.832 11.948h-113.484c1.664 10.203 5.701 18.046 12.098 23.515s14.609 8.211 24.62 8.211c6.861 0 13.067-1.541 18.632-4.597 5.565-3.069 9.916-7.27 13.08-12.657h42.83c-5.565 16.327-15.017 29.298-28.371 38.942s-28.739 14.458-46.171 14.458c-22.26 0-40.797-7.598-55.637-22.806-14.84-15.195-22.246-34.018-22.246-56.469 0-8.893 1.254-17.432 3.751-25.588 2.509-8.157 6.124-15.482 10.844-21.974 4.733-6.479 10.244-12.099 16.558-16.818 6.302-4.747 13.435-8.402 21.415-10.993 7.966-2.592 16.409-3.901 25.316-3.901 15.017 0 28.507 3.533 40.469 10.584 11.962 7.038 21.142 16.586 27.539 28.644s9.589 25.22 9.589 39.501zm-77.597-44.234c-9.084 0-16.736 2.496-22.956 7.515-6.207 5.006-10.421 11.949-12.658 20.856h72.605c-1.856-6.124-4.542-11.253-8.062-15.427-3.533-4.174-7.747-7.379-12.657-9.602-4.924-2.237-10.339-3.342-16.272-3.342zm-390.086-12.109v-22.39h-75.592v.068h-8.286v154.339h8.24 32.404 43.299v-22.349h-43.299V967.286z"/></g></svg>