<?xml version="1.0" encoding="UTF-8" standalone="no"?>
<!-- Created with Inkscape (http://www.inkscape.org/) -->

<svg
   xmlns:dc="http://purl.org/dc/elements/1.1/"
   xmlns:cc="http://creativecommons.org/ns#"
   xmlns:rdf="http://www.w3.org/1999/02/22-rdf-syntax-ns#"
   xmlns:svg="http://www.w3.org/2000/svg"
   xmlns="http://www.w3.org/2000/svg"
   xmlns:sodipodi="http://sodipodi.sourceforge.net/DTD/sodipodi-0.dtd"
   xmlns:inkscape="http://www.inkscape.org/namespaces/inkscape"
   width="1000.007"
   height="972.39502"
   id="svg2971"
   sodipodi:version="0.32"
   inkscape:version="0.91 r13725"
   version="1.0"
   sodipodi:docname="Adidas Classic.svg">
  <defs
     id="defs2973" />
  <sodipodi:namedview
     id="base"
     pagecolor="#ffffff"
     bordercolor="#666666"
     borderopacity="1.0"
     inkscape:pageopacity="0.0"
     inkscape:pageshadow="2"
     inkscape:zoom="0.35355339"
     inkscape:cx="198.13461"
     inkscape:cy="531.04738"
     inkscape:document-units="px"
     inkscape:current-layer="g3003"
     inkscape:window-width="1366"
     inkscape:window-height="705"
     inkscape:window-x="-8"
     inkscape:window-y="-8"
     showgrid="false"
     inkscape:window-maximized="1" />
  <metadata
     id="metadata2976">
    <rdf:RDF>
      <cc:Work
         rdf:about="">
        <dc:format>image/svg+xml</dc:format>
        <dc:type
           rdf:resource="http://purl.org/dc/dcmitype/StillImage" />
        <dc:title />
      </cc:Work>
    </rdf:RDF>
  </metadata>
  <g
     inkscape:label="Ebene 1"
     inkscape:groupmode="layer"
     id="layer1"
     transform="translate(-193.4319,95.223841)">
    <g
       id="g3003"
       style="fill:#000000"
       transform="matrix(1.3792016,0,0,1.3792016,-73.349692,-332.62469)">
      <path
         d="m 864.10811,500.67212 c -4.33261,8.66541 -12.1017,20.76717 -19.27304,27.93867 l -574.90813,0 c -4.18329,-5.67737 -14.19342,-18.67561 -18.52613,-27.93867 l 612.7073,0 m -42.87894,57.22193 c -7.1715,10.01004 -17.92866,19.4224 -29.43282,25.84696 l -470.92248,0 c -9.41249,-6.42456 -18.67555,-15.83692 -27.34104,-25.84696 l 527.69634,0 m -65.1404,53.0385 c -50.94688,37.94869 -106.67468,57.22195 -148.95615,60.06046 0,-15.68739 0,-37.20156 4.33272,-60.06046 l 144.62343,0 M 917.74423,313.16964 c 4.33283,46.46479 -10.75697,103.08899 -39.29328,160.31094 l -211.8554,0 c 7.76904,-13.59589 17.92854,-26.44459 29.28328,-39.44284 61.55454,-72.1622 156.12758,-116.68481 221.8654,-120.8681 M 506.88233,670.99301 C 466.09489,668.1545 410.21766,648.88124 358.82257,610.93255 l 145.96809,0 c 2.83868,22.8589 2.83868,44.37307 2.09167,60.06046 m 50.79743,4.33283 C 541.24531,659.63839 526.90247,638.1241 511.96204,610.93255 l 90.83787,0 c -14.34284,27.19155 -30.03029,48.70584 -45.12015,64.39329 m -108.01933,-201.84526 -212.6024,0 c -28.68569,-57.22195 -42.8791,-113.84615 -38.69577,-160.31094 65.1403,4.18329 160.46031,48.7059 222.0149,120.8681 10.60772,12.99825 21.3648,25.84695 29.28327,39.44284 m 199.75366,0 -183.3192,0 c -2.83868,-16.43458 -2.83868,-32.27133 -2.83868,-50.79762 0,-100.25026 44.37313,-204.0863 94.42355,-250.55111 49.45286,46.46481 94.573,150.30085 94.573,250.55111 0,18.52629 -1.49408,34.36304 -2.83867,50.79762"
         style="fill:#000000;fill-rule:nonzero;stroke:none"
         id="path2425"
         inkscape:connector-curvature="0"
         transform="matrix(1.0000039,0,0,1.0000039,-7.5559102e-4,-0.00342644)" />
      <path
         style="fill:#000000;fill-rule:nonzero;stroke:none"
         d="m 863.36114,877.1711 c 30.03023,0 55.13022,-12.10175 55.13022,-42.13198 0,-17.18152 -12.10175,-28.68568 -31.52431,-33.76541 -20.02021,-4.93029 -45.71784,-4.18328 -45.71784,-17.18152 1.34476,-8.51611 9.26306,-10.75703 21.36498,-10.75703 18.67544,0 19.42245,10.01001 20.16958,16.58377 l 30.77718,0 c -2.24104,-23.60591 -21.51412,-40.18963 -52.29153,-40.18963 -32.27134,0 -50.79741,17.18136 -50.79741,39.44266 0,12.84887 6.42434,24.35298 17.18153,30.03023 7.76893,3.58581 18.52607,6.4245 31.52433,8.66542 13.44634,1.34477 25.69745,2.83869 26.44459,12.10192 0,6.42437 -6.4245,14.34284 -20.76735,14.34284 -20.76722,0 -25.09981,-11.50432 -25.09981,-19.27325 l -32.12197,0 c 0.5976,24.95045 21.36475,42.13198 55.72781,42.13198"
         class="ps00"
         id="path2449"
         inkscape:connector-curvature="0"
         transform="matrix(1.0000039,0,0,1.0000039,-7.5559102e-4,-0.00342644)" />
      <path
         style="fill:#000000;fill-rule:evenodd;stroke:none"
         d="m 728.74785,877.1711 c 13.74508,0 25.84694,-4.33266 35.85702,-10.75698 l 0,7.91829 30.77736,0 0,-123.10919 -30.77736,0 0,9.26305 c -10.01008,-7.17133 -22.11194,-10.75697 -35.85702,-10.75697 -34.96069,0 -64.39334,27.9385 -64.39334,63.79564 0,35.11001 29.43265,63.64616 64.39334,63.64616 z m -34.21369,-63.64616 c 0,-19.42257 16.43453,-35.85714 35.70765,-35.85714 18.67561,0 34.36306,16.43457 34.36306,35.85714 0,18.52612 -15.68745,35.11001 -34.36306,35.11001 -19.27312,0 -35.70765,-16.58389 -35.70765,-35.11001"
         class="ps01"
         id="path2451"
         inkscape:connector-curvature="0"
         transform="matrix(1.0000039,0,0,1.0000039,-7.5559102e-4,-0.00342644)" />
      <path
         style="fill:#000000;fill-rule:evenodd;stroke:none"
         d="m 624.31415,708.94187 0,51.5444 c -10.75714,-7.17133 -22.8589,-10.75697 -36.45468,-10.75697 -35.11005,0 -63.79569,27.9385 -63.79569,63.79564 0,35.11001 28.68564,63.64616 63.79569,63.64616 13.59578,0 26.44455,-4.33266 36.45468,-10.75698 l 0,7.91829 30.03028,0 0,-165.39054 -30.03028,0 z m -70.81772,104.58307 c 0,-19.42257 16.43452,-35.85714 34.96064,-35.85714 19.42257,0 35.85708,16.43457 35.85708,35.85714 0,18.52612 -16.43451,35.11001 -35.85708,35.11001 -18.52612,0 -34.96064,-16.58389 -34.96064,-35.11001"
         class="ps01"
         id="path2453"
         inkscape:connector-curvature="0"
         transform="matrix(1.0000039,0,0,1.0000039,-7.5559102e-4,-0.00342644)" />
      <path
         style="fill:#000000;fill-rule:evenodd;stroke:none"
         d="m 481.18474,874.33241 30.03028,0 0,-123.10919 -30.03028,0 0,123.10919 z m 0,-134.6133 30.03028,0 0,-30.77724 -30.03028,0 0,30.77724"
         class="ps01"
         id="path2455"
         inkscape:connector-curvature="0"
         transform="matrix(1.0000039,0,0,1.0000039,-7.5559102e-4,-0.00342644)" />
      <path
         style="fill:#000000;fill-rule:evenodd;stroke:none"
         d="m 398.86292,877.1711 c 13.59577,0 25.69759,-4.33266 36.45467,-10.75698 l 0,7.91829 30.7773,0 0,-165.39054 -30.7773,0 0,51.5444 c -10.75708,-7.17133 -22.8589,-10.75697 -36.45467,-10.75697 -35.11,0 -64.39327,27.9385 -64.39327,63.79564 0,35.11001 29.28327,63.64616 64.39327,63.64616 z m -35.11,-63.64616 c 0,-19.42257 16.43445,-35.85714 36.45467,-35.85714 18.67555,0 35.11,16.43457 35.11,35.85714 0,18.52612 -16.43445,35.11001 -35.11,35.11001 -20.02022,0 -36.45467,-16.58389 -36.45467,-35.11001"
         class="ps01"
         id="path2457"
         inkscape:connector-curvature="0"
         transform="matrix(1.0000039,0,0,1.0000039,-7.5559102e-4,-0.00342644)" />
      <path
         style="fill:#000000;fill-rule:evenodd;stroke:none"
         d="m 257.07818,877.1711 c 14.34284,0 26.44459,-4.33266 37.20167,-10.75698 l 0,7.91829 30.03029,0 0,-123.10919 -30.03029,0 0,9.26305 c -10.75708,-7.17133 -23.60584,-10.75697 -37.20167,-10.75697 -35.11001,0 -63.64627,27.9385 -63.64627,63.79564 0,35.11001 28.53626,63.64616 63.64627,63.64616 z m -34.363,-63.64616 c 0,-19.42257 16.43446,-35.85714 35.11002,-35.85714 20.0202,0 36.45465,16.43457 36.45465,35.85714 0,18.52612 -16.43445,35.11001 -36.45465,35.11001 -18.67556,0 -35.11002,-16.58389 -35.11002,-35.11001"
         class="ps01"
         id="path2459"
         inkscape:connector-curvature="0"
         transform="matrix(1.0000039,0,0,1.0000039,-7.5559102e-4,-0.00342644)" />
    </g>
  </g>
</svg>
