<?xml version="1.0" encoding="UTF-8" standalone="no"?>
<svg
   xmlns:dc="http://purl.org/dc/elements/1.1/"
   xmlns:cc="http://creativecommons.org/ns#"
   xmlns:rdf="http://www.w3.org/1999/02/22-rdf-syntax-ns#"
   xmlns:svg="http://www.w3.org/2000/svg"
   xmlns="http://www.w3.org/2000/svg"
   id="svg8"
   version="1.1"
   viewBox="0 0 524.66874 255.58751"
   height="966"
   width="1983">
  <defs
     id="defs2">
    <pattern
       id="EMFhbasepattern"
       patternUnits="userSpaceOnUse"
       width="6"
       height="6"
       x="0"
       y="0" />
  </defs>
  <metadata
     id="metadata5">
    <rdf:RDF>
      <cc:Work
         rdf:about="">
        <dc:format>image/svg+xml</dc:format>
        <dc:type
           rdf:resource="http://purl.org/dc/dcmitype/StillImage" />
        <dc:title></dc:title>
      </cc:Work>
    </rdf:RDF>
  </metadata>
  <g
     transform="translate(0,-41.412483)"
     id="layer1">
    <path
       style="fill:#e0234e;fill-opacity:1;fill-rule:evenodd;stroke:none;stroke-width:0.81745428"
       d="m 153.60541,44.155399 c -1.83107,0 -3.53136,0.392387 -5.10086,0.915541 3.33516,2.223454 5.16625,5.166288 6.08182,8.501469 0.0655,0.457764 0.19618,0.784759 0.26167,1.242509 0.0655,0.392386 0.13071,0.784759 0.13071,1.177144 0.2617,5.754822 -1.50414,6.474175 -2.74664,9.874762 -1.89649,4.381541 -1.37334,9.090038 0.91553,12.883009 0.1962,0.457752 0.45777,0.980919 0.78477,1.438696 -2.48507,-16.54516 11.31349,-19.030204 13.8639,-24.196467 0.19619,-4.512325 -3.53136,-7.520537 -6.47416,-9.613208 -2.81203,-1.700287 -5.3625,-2.223455 -7.71674,-2.223455 z m 20.79589,3.727566 c -0.26168,1.504102 -0.0655,1.111728 -0.13068,1.896486 -0.0655,0.523155 -0.0655,1.17713 -0.13069,1.700286 -0.13069,0.523169 -0.2617,1.046323 -0.45779,1.569516 -0.13068,0.523156 -0.32697,1.046324 -0.52316,1.569478 -0.2617,0.523194 -0.45776,0.980946 -0.71935,1.504113 -0.19618,0.261691 -0.32697,0.523156 -0.52316,0.784758 -0.13069,0.196186 -0.26169,0.392374 -0.39237,0.58856 -0.32697,0.457789 -0.65398,0.91554 -0.98094,1.307912 -0.39239,0.392386 -0.71936,0.850138 -1.17716,1.177145 0,0.06548 0,0.06548 0,0.06548 -0.39236,0.326981 -0.78474,0.719354 -1.2425,1.046323 -1.37332,1.046323 -2.9428,1.831081 -4.38153,2.812025 -0.45775,0.32697 -0.91554,0.588573 -1.30791,0.980945 -0.45776,0.326969 -0.85015,0.653938 -1.2425,1.046323 -0.4578,0.392373 -0.78477,0.784758 -1.17716,1.242534 -0.32697,0.392386 -0.71934,0.850139 -0.98091,1.307927 -0.32701,0.457751 -0.65397,0.915529 -0.91557,1.373292 -0.26168,0.523155 -0.45776,0.980944 -0.71935,1.5041 -0.19618,0.523155 -0.39238,0.980945 -0.52316,1.504099 -0.19619,0.588572 -0.32698,1.11174 -0.45777,1.634921 -0.0655,0.26169 -0.0655,0.588547 -0.1307,0.850137 -0.0655,0.26169 -0.0655,0.523155 -0.13068,0.784758 0,0.523155 -0.0655,1.111727 -0.0655,1.634882 0,0.392385 0,0.784758 0.0655,1.177143 0,0.523156 0.0655,1.046312 0.19618,1.634883 0.0655,0.523154 0.19618,1.046322 0.327,1.569516 0.1962,0.523155 0.32698,1.046323 0.52316,1.569478 0.13071,0.327008 0.32697,0.653976 0.45779,0.915541 l -15.04106,-5.820235 c -2.55046,-0.719354 -5.03548,-1.373292 -7.58594,-1.961864 -1.3733,-0.326969 -2.7466,-0.653962 -4.11993,-0.980944 -3.92376,-0.784745 -7.91287,-1.373293 -11.90204,-1.765665 -0.13068,0 -0.19618,-0.06548 -0.32697,-0.06548 -3.92378,-0.392373 -7.78211,-0.58856 -11.70586,-0.58856 -2.87744,0 -5.75487,0.130683 -8.566892,0.32697 -3.989152,0.261691 -7.97831,0.784758 -11.967434,1.438695 -0.980946,0.130695 -1.961891,0.327007 -2.942838,0.523194 -2.027264,0.392347 -3.989125,0.850137 -5.885608,1.307912 -0.980945,0.261691 -1.961891,0.523169 -2.942837,0.784735 -0.980913,0.392371 -1.896452,0.850162 -2.812022,1.242533 -0.71935,0.326969 -1.438698,0.653951 -2.158048,0.980944 -0.130691,0.06548 -0.261688,0.06548 -0.326972,0.130696 -0.653973,0.326969 -1.24254,0.588534 -1.831077,0.91554 -0.19619,0.06548 -0.327003,0.130683 -0.457786,0.196187 -0.719348,0.32697 -1.438696,0.719342 -2.027265,1.046323 -0.457785,0.196187 -0.915538,0.457777 -1.307915,0.653976 -0.19619,0.130683 -0.457787,0.261678 -0.588569,0.326969 -0.588566,0.326969 -1.177133,0.653937 -1.700294,0.980944 -0.588568,0.326969 -1.111729,0.653938 -1.569513,0.980907 -0.457753,0.327007 -0.915536,0.588572 -1.307917,0.915541 -0.06551,0.06548 -0.13069,0.06548 -0.196189,0.130696 -0.392377,0.26169 -0.85013,0.588558 -1.242508,0.915565 0,0 -0.06551,0.06548 -0.13069,0.130693 -0.326972,0.261691 -0.653975,0.523157 -0.980946,0.784722 -0.13069,0.06548 -0.261688,0.196186 -0.392378,0.26169 -0.326971,0.261692 -0.653943,0.588572 -0.980915,0.850162 -0.06551,0.130694 -0.196188,0.196186 -0.261687,0.261691 -0.392378,0.392372 -0.784757,0.719341 -1.177135,1.111727 -0.06551,0 -0.06551,0.06548 -0.13069,0.130682 -0.392378,0.326982 -0.784755,0.719355 -1.177133,1.11174 -0.06551,0.06548 -0.06551,0.130681 -0.130691,0.130681 -0.326971,0.32697 -0.653942,0.653976 -0.980945,1.046323 -0.130689,0.130695 -0.326971,0.261692 -0.457754,0.392373 -0.326971,0.392385 -0.719349,0.784758 -1.111726,1.177144 -0.06551,0.130683 -0.196189,0.196187 -0.261689,0.326969 -0.523162,0.523193 -0.980946,1.046348 -1.504106,1.569515 -0.06551,0.06548 -0.130689,0.13068 -0.196188,0.196187 -1.046353,1.111726 -2.158081,2.223453 -3.335185,3.204388 -1.177133,1.046318 -2.419644,2.027268 -3.662184,2.877408 -1.307917,0.91557 -2.550427,1.70029 -3.92375,2.48504 -1.307917,0.71934 -2.68124,1.37332 -4.119938,1.96189 -1.373324,0.58856 -2.812022,1.11174 -4.250723,1.56949 -2.746645,0.58856 -5.558669,1.70029 -7.978313,1.89648 -0.52316,0 -1.111727,0.1307 -1.634889,0.19618 -0.588565,0.13069 -1.111726,0.26169 -1.634886,0.39239 -0.523161,0.19618 -1.046352,0.39237 -1.569514,0.58855 -0.523161,0.19619 -1.046322,0.45779 -1.569483,0.71937 -0.457784,0.32696 -0.980944,0.58856 -1.43873,0.91553 -0.457755,0.32697 -0.91554,0.71934 -1.307918,1.11173 -0.457753,0.327 -0.9155376,0.78476 -1.307916,1.17712 -0.3923787,0.4578 -0.7847562,0.85017 -1.1117275,1.30791 -0.3269714,0.52317 -0.7193499,0.98096 -0.980946,1.50413 -0.3269713,0.45778 -0.6539426,0.98094 -0.9155387,1.50408 -0.2616879,0.58859 -0.5231601,1.11174 -0.7193499,1.70031 -0.1961888,0.52317 -0.3923776,1.11172 -0.5885665,1.7003 -0.1306896,0.52315 -0.2616878,1.04632 -0.3269712,1.56947 0,0.0655 -0.065496,0.1307 -0.065496,0.19619 -0.1306906,0.5886 -0.1306906,1.37336 -0.1961898,1.76575 -0.065496,0.45775 -0.1306886,0.85012 -0.1306886,1.30791 0,0.26168 0,0.58853 0.065496,0.85012 0.065496,0.4578 0.1306885,0.85016 0.2616879,1.24256 0.1306896,0.39233 0.2616878,0.78471 0.4577539,1.1771 0,0.0655 0,0.0655 0,0.0655 0.1961888,0.3924 0.4577848,0.78477 0.7193499,1.17714 0.2616878,0.39239 0.5231911,0.78476 0.8501624,1.17714 0.3269713,0.32697 0.71935,0.71933 1.1117274,1.04632 0.3923786,0.39237 0.7847572,0.71934 1.2425101,1.04631 1.5695126,1.37334 1.9618906,1.83113 3.9891596,2.87743 0.326969,0.1962 0.653973,0.32699 1.046351,0.52318 0.0655,0 0.13069,0.0655 0.196189,0.0655 0,0.13068 0,0.19619 0.0655,0.32701 0.0655,0.52317 0.196188,1.04631 0.326971,1.56948 0.13069,0.58857 0.327003,1.11175 0.523192,1.56951 0.196189,0.39238 0.326971,0.78475 0.523161,1.17714 0.0655,0.1307 0.130691,0.26169 0.196189,0.32697 0.261688,0.52315 0.523161,0.98096 0.784725,1.4387 0.327003,0.45777 0.653973,0.91553 0.980944,1.37333 0.326973,0.39236 0.719352,0.85014 1.111729,1.2425 0.392378,0.39239 0.784757,0.71938 1.242542,1.11172 0,0 0.06551,0.0655 0.130688,0.0655 0.39238,0.32701 0.784757,0.65399 1.177136,0.91554 0.457754,0.32699 0.915538,0.58856 1.438698,0.85016 0.457785,0.26169 0.980946,0.52315 1.504106,0.71936 0.392378,0.19619 0.850132,0.32699 1.307918,0.45777 0.06551,0.0655 0.130689,0.0655 0.261688,0.13071 0.261687,0.0655 0.588535,0.13067 0.850131,0.19617 -0.196188,3.53137 -0.261688,6.86655 0.261689,8.0437 0.588537,1.30791 3.465964,-2.68123 6.343394,-7.25894 -0.392377,4.51232 -0.653974,9.80935 0,11.37889 0.719349,1.63486 4.643099,-3.46602 8.043687,-9.09005 46.365652,-10.72489 88.676835,21.31907 93.123735,66.57299 -0.85015,-7.06275 -9.54779,-10.9865 -13.53693,-10.00555 -1.9619,4.83928 -5.29709,11.05189 -10.65953,14.91024 0.45777,-4.31613 0.26167,-8.76303 -0.65395,-13.07917 -1.43873,6.01642 -4.25076,11.64049 -8.10912,16.47977 v 0 c -6.212612,0.45775 -12.425232,-2.55046 -15.695037,-7.06275 -0.261689,-0.1962 -0.326972,-0.58858 -0.523161,-0.85016 -0.196191,-0.4578 -0.392378,-0.91553 -0.523162,-1.37333 -0.196188,-0.45775 -0.32697,-0.91554 -0.392377,-1.37328 -0.06551,-0.4578 -0.06551,-0.91556 -0.06551,-1.43871 0,-0.327 0,-0.65396 0,-0.98093 0.06551,-0.45781 0.196188,-0.91558 0.326972,-1.37335 0.130689,-0.45776 0.261687,-0.91553 0.457784,-1.37331 0.261689,-0.45775 0.457754,-0.91553 0.784757,-1.37329 1.111726,-3.13904 1.111726,-5.68945 -0.915538,-7.19355 -0.392379,-0.26169 -0.784757,-0.45779 -1.242541,-0.65398 -0.26169,-0.0655 -0.588568,-0.19619 -0.850132,-0.26168 -0.19619,-0.0655 -0.326971,-0.13071 -0.523161,-0.1962 -0.457785,-0.13069 -0.91557,-0.26169 -1.373324,-0.32697 -0.457785,-0.13068 -0.915538,-0.19619 -1.373322,-0.19619 -0.457755,-0.0655 -0.980947,-0.13069 -1.438701,-0.13069 -0.32697,0 -0.653973,0.0655 -0.980945,0.0655 -0.523159,0 -0.980944,0.0655 -1.438699,0.19619 -0.457784,0.0655 -0.915538,0.13068 -1.373322,0.26167 -0.457755,0.1307 -0.91554,0.26169 -1.373325,0.45781 -0.457753,0.19618 -0.850132,0.39237 -1.307915,0.58855 -0.392347,0.1962 -0.784727,0.45776 -1.24251,0.65395 -15.237247,9.94017 -6.147206,33.22109 4.250722,39.95688 -3.923751,0.71934 -7.912877,1.56952 -9.024606,2.41964 -0.06551,0.0655 -0.130689,0.1307 -0.130689,0.1307 2.812022,1.70027 5.754829,3.13899 8.828415,4.3815 4.185347,1.37332 8.632256,2.61584 10.594146,3.13902 0,0 0,0.0655 0,0.0655 5.427856,1.11173 10.921121,1.50411 16.479761,1.17714 28.97039,-2.02727 52.70909,-24.0657 57.02523,-53.10146 0.1307,0.58858 0.26169,1.11172 0.39238,1.7003 v 0 c 0.19619,1.1771 0.45775,2.41963 0.58854,3.66215 0,0 0,0 0,0.0655 0.13069,0.58857 0.19618,1.17713 0.26168,1.70029 0,0.13069 0,0.19619 0,0.2617 0.0655,0.58856 0.1307,1.17713 0.1307,1.70028 0.0655,0.71936 0.13069,1.4387 0.13069,2.15809 0,0.32697 0,0.65395 0,1.04631 0,0.32701 0.0655,0.71935 0.0655,1.04635 0,0.39239 -0.0655,0.78474 -0.0655,1.17711 0,0.32701 0,0.65397 0,0.91554 0,0.4578 -0.0655,0.85015 -0.0655,1.30793 0,0.26166 0,0.52317 -0.0655,0.85015 0,0.45779 -0.0655,0.91553 -0.0655,1.4387 -0.0655,0.19618 -0.0655,0.39237 -0.0655,0.58858 -0.0655,0.52317 -0.13069,0.98094 -0.1962,1.50411 0,0.1962 0,0.39236 -0.0655,0.58857 -0.0655,0.65394 -0.19617,1.24252 -0.26166,1.89646 0,0 0,0.0655 0,0.0655 v 0.0655 c -0.13069,0.58855 -0.2617,1.2425 -0.3924,1.83106 0,0.0655 0,0.13069 0,0.1962 -0.13067,0.58855 -0.26169,1.17713 -0.39236,1.76567 0,0.0655 -0.0655,0.19619 -0.0655,0.26167 -0.13071,0.58858 -0.2617,1.17714 -0.45776,1.76573 0,0.0655 0,0.13067 0,0.19618 -0.19618,0.65393 -0.39238,1.2425 -0.52318,1.83107 -0.0655,0.0655 -0.0655,0.13069 -0.0655,0.13069 -0.1962,0.65398 -0.39236,1.30792 -0.58854,1.96187 -0.26168,0.65397 -0.45777,1.24253 -0.71934,1.8965 -0.26169,0.65396 -0.4578,1.30792 -0.71938,1.89646 -0.26169,0.65398 -0.52318,1.24255 -0.78474,1.89649 0,0 -0.0655,0 -0.0655,0 -0.2617,0.58856 -0.5232,1.24254 -0.85019,1.83111 0,0 0,0 0,0 0,0 0,0 0,0 -0.0655,0.19617 -0.13067,0.32697 -0.19617,0.45774 -0.0655,0.0655 -0.0655,0.13069 -0.13069,0.1962 -4.25072,8.56684 -10.52875,16.08737 -18.37623,21.97301 v 0 c -0.52316,0.32697 -1.04634,0.71936 -1.56949,1.11172 0,0 0,0 0,0 -0.1307,0.1307 -0.327,0.19621 -0.45779,0.32697 -0.45778,0.32698 -0.91554,0.65394 -1.43868,0.98095 l 0.19617,0.39238 h 0.0655 v 0 c 0.91552,-0.13068 1.83107,-0.26168 2.74662,-0.39238 h 0.0655 c 1.7003,-0.26169 3.4006,-0.58857 5.1009,-0.91554 0.45774,-0.0655 0.98094,-0.19617 1.43868,-0.327 0.32698,-0.0655 0.58858,-0.13068 0.91555,-0.19619 0.45778,-0.0655 0.91554,-0.19618 1.37333,-0.26167 0.39237,-0.13069 0.78475,-0.19621 1.17713,-0.32698 6.53957,-1.56952 12.88299,-3.7276 18.96477,-6.27802 -10.39792,14.19088 -24.32725,25.63518 -40.61082,33.1557 7.52054,-0.52317 15.04106,-1.76568 22.3,-3.85834 26.35454,-7.78214 48.52372,-25.5044 61.79908,-49.3739 -2.68123,15.10646 -8.69765,29.49355 -17.59148,42.04956 6.34339,-4.18536 12.16362,-9.02465 17.4607,-14.5179 14.64866,-15.30263 24.26188,-34.72517 27.53165,-55.5865 2.22346,10.33256 2.87743,20.99212 1.89648,31.52083 47.21582,-65.85364 3.92376,-134.12693 -14.19089,-152.110785 -0.0655,-0.130684 -0.13069,-0.196187 -0.13069,-0.32697 -0.0655,0.06548 -0.0655,0.06548 -0.0655,0.130696 0,-0.06548 0,-0.06548 -0.0655,-0.130696 0,0.784758 -0.0655,1.569479 -0.13069,2.354237 -0.1962,1.504105 -0.39237,2.942806 -0.65397,4.381538 -0.32697,1.4387 -0.71935,2.87738 -1.11173,4.31612 -0.45776,1.37329 -0.98091,2.812 -1.56949,4.18532 -0.58857,1.3079 -1.24253,2.68123 -1.96188,3.98916 -0.71936,1.24253 -1.50411,2.55044 -2.35424,3.72755 -0.85015,1.24255 -1.7657,2.41965 -2.68125,3.53136 -0.98095,1.17715 -2.02726,2.22349 -3.07361,3.26982 -0.65394,0.58857 -1.2425,1.11173 -1.89649,1.63487 -0.52315,0.4578 -0.98091,0.85018 -1.5041,1.30792 -1.17711,0.91555 -2.35424,1.7657 -3.66215,2.55046 -1.24252,0.78474 -2.55042,1.56949 -3.85834,2.22346 -1.37332,0.65396 -2.74665,1.24251 -4.11994,1.83109 -1.37332,0.52314 -2.81202,0.98093 -4.25077,1.37331 -1.43869,0.39236 -2.94278,0.71936 -4.3815,0.98092 -1.50409,0.2617 -3.00821,0.39238 -4.44692,0.52319 -1.04633,0.0655 -2.09266,0.1307 -3.139,0.1307 -1.50412,0 -3.0082,-0.1307 -4.44691,-0.26169 -1.5041,-0.13069 -3.00822,-0.32702 -4.44692,-0.65399 -1.5041,-0.26168 -2.94283,-0.65397 -4.38154,-1.11171 h -0.0655 c 1.43871,-0.13069 2.87743,-0.2617 4.31615,-0.52318 1.50408,-0.26168 2.94279,-0.58855 4.38152,-0.98095 1.43869,-0.39236 2.8774,-0.85015 4.25072,-1.37331 1.4387,-0.52317 2.81203,-1.1771 4.11995,-1.83109 1.37331,-0.65397 2.61583,-1.3733 3.92374,-2.15806 1.24251,-0.85014 2.48504,-1.70027 3.66216,-2.61584 1.17713,-0.91553 2.28884,-1.89645 3.33521,-2.94279 1.11173,-0.98096 2.09265,-2.09268 3.07359,-3.20442 0.98093,-1.17709 1.89648,-2.35423 2.74663,-3.53136 0.1307,-0.1962 0.2617,-0.45776 0.3924,-0.65395 0.65393,-1.04634 1.30788,-2.09267 1.89644,-3.13902 0.71936,-1.30792 1.37334,-2.61584 1.96189,-3.98913 0.58857,-1.37332 1.11173,-2.74665 1.56951,-4.18534 0.45776,-1.37333 0.78474,-2.81202 1.11173,-4.250714 0.2617,-1.504113 0.52315,-2.942843 0.65395,-4.381539 0.13069,-1.504099 0.26168,-3.008212 0.26168,-4.446907 0,-1.046349 -0.0655,-2.092671 -0.13067,-3.138995 -0.1307,-1.504101 -0.32699,-2.942833 -0.52318,-4.38153 -0.26169,-1.504113 -0.58855,-2.942807 -0.98095,-4.381541 -0.45775,-1.373293 -0.91553,-2.812014 -1.43869,-4.185306 -0.5232,-1.37333 -1.17712,-2.746646 -1.83111,-4.054573 -0.71935,-1.307914 -1.43869,-2.615827 -2.22344,-3.858336 -0.85014,-1.24251 -1.70031,-2.419641 -2.61585,-3.596784 -0.98091,-1.111727 -1.96186,-2.223454 -3.00822,-3.335181 -0.52314,-0.523157 -1.11172,-1.111728 -1.70028,-1.634883 -2.94281,-2.28887 -6.01642,-4.446946 -9.09001,-6.408809 -0.45776,-0.261679 -0.85014,-0.457776 -1.30792,-0.653975 -2.15808,-1.373294 -4.18535,-2.092672 -6.2126,-2.74661 z"
       id="path818" />
    <path
       style="fill:#eb2845;fill-opacity:1;fill-rule:nonzero;stroke:none;stroke-width:0.81745428"
       d="m 287.14735,202.4134 c 1.11173,-0.52318 2.15804,-0.85016 3.139,-1.04635 2.41963,-0.39238 3.79297,-0.71935 4.18533,-0.98095 0.65396,-0.39235 1.11172,-0.91554 1.30793,-1.43868 0.26168,-0.91555 0.39234,-2.81205 0.39234,-5.82025 v -5.68945 l 0.0655,-4.64311 -0.19618,-6.93195 v -4.11994 c 0,-2.74662 -0.19618,-5.03549 -0.65395,-6.73578 -0.13069,-0.65393 -0.71934,-1.30791 -1.63489,-1.96187 -1.24253,-0.91551 -3.2698,-1.76567 -6.21261,-2.61582 l -0.0655,-3.13901 c 0.52319,-0.13069 1.04633,-0.26169 1.50412,-0.32699 0.45774,-0.0655 2.22346,-0.52315 5.29704,-1.30792 2.41967,-0.85011 3.98916,-1.50408 4.64314,-1.83107 0.26167,-0.13069 0.58852,-0.32696 1.11173,-0.58856 0.52314,-0.45775 1.11172,-0.85013 1.76566,-1.30792 1.30792,-0.91552 2.87742,-2.55042 4.70851,-4.77389 l 3.466,-0.26168 -0.13069,7.38972 c -0.0655,0.71934 -0.0655,1.3079 -0.0655,1.7657 0,0.39239 0,1.37329 0.0655,3.00822 3.66217,-3.13903 6.93195,-5.29709 9.94017,-6.53958 3.85833,-1.63493 7.58588,-2.41969 11.0519,-2.41969 4.11994,0 7.78209,1.04635 10.8557,3.07361 3.139,2.02728 5.16627,4.38155 6.08184,6.99738 0.9809,2.68121 1.4387,8.10909 1.4387,16.15275 l -0.26169,21.44986 c 0,0.98093 0.19618,1.83108 0.52314,2.48506 0.45782,0.32696 1.70034,0.65394 3.66219,0.98094 l 3.2044,0.58853 c 0.39239,0.58857 0.58858,1.24255 0.58858,2.09267 0,0.52316 0,1.24255 -0.0655,2.15809 l -12.88298,-0.91554 -3.79296,0.13068 h -3.00823 l -8.69764,0.65394 h -2.22346 c -0.0655,-0.58855 -0.0655,-0.98093 -0.0655,-1.30792 0,-0.78475 0.0655,-1.63488 0.13068,-2.55041 0.58856,-0.13069 2.15805,-0.32701 4.57773,-0.65398 0.65395,-0.0655 1.37329,-0.26169 2.22346,-0.45776 0.85013,-0.32701 1.37328,-0.71932 1.50411,-1.04635 0.32697,-0.78473 0.52316,-2.15805 0.52316,-4.25072 0,-3.72757 -0.0655,-6.53957 -0.13069,-8.50148 l 0.0655,-7.58591 c 0,-9.28621 -0.52316,-15.04103 -1.70029,-17.2645 -1.7003,-3.33518 -4.18532,-4.97008 -7.52053,-4.97008 -2.41965,0 -4.97007,0.65395 -7.58591,1.89647 -2.68124,1.24253 -5.36244,3.13902 -8.17447,5.68943 l -0.13068,1.11174 0.13068,4.11994 -0.0655,4.38156 0.26166,10.52867 -0.13068,1.63493 c 0,7.12815 0.2617,11.18269 0.85017,12.09823 0.58853,0.91554 2.74661,1.89648 6.53958,3.00821 0.13069,0.71933 0.19618,1.30792 0.19618,1.63489 0,0.5232 -0.19618,1.30791 -0.45778,2.41964 -1.37332,0.0655 -2.55042,0.0655 -3.46596,0.0655 -0.91554,0 -2.35428,-0.13068 -4.31615,-0.39235 l -6.99735,-0.13068 c -3.53139,0 -8.56688,0.13068 -15.17187,0.45774 -0.19619,-0.45774 -0.26169,-0.91552 -0.26169,-1.37327 0,-0.32701 0,-1.04637 0.0655,-2.09269 z"
       id="path820" />
    <path
       style="fill:#eb2845;fill-opacity:1;fill-rule:nonzero;stroke:none;stroke-width:0.81745428"
       d="m 364.37986,170.95796 c 1.17714,-3.72756 2.15806,-6.21258 3.07362,-7.38972 2.41966,-3.59677 5.03548,-6.40877 7.7821,-8.43605 2.81201,-2.02727 5.29708,-3.33518 7.52052,-3.98916 2.94281,-0.85014 5.23167,-1.24251 7.06277,-1.24251 4.11992,0 7.45511,0.32697 9.94015,0.9809 2.55042,0.58858 4.70852,1.50415 6.40879,2.68126 2.41967,1.70029 4.38155,3.46599 5.88562,5.16628 1.5041,1.76567 2.68126,3.85834 3.59677,6.21261 0.98096,2.35423 1.50412,5.23166 1.63493,8.56686 l -7.32434,-0.13069 c -2.0273,0 -6.4088,-0.19619 -13.27538,-0.58859 -2.55043,-0.13067 -4.25073,-0.26168 -5.23166,-0.26168 -0.32698,0 -2.68121,0.0655 -7.06277,0.0655 h -5.6894 c -0.0655,0.65393 -0.13069,1.17713 -0.13069,1.56948 0,2.35427 0.32696,4.77392 0.85016,7.38975 0.58852,2.55043 1.4387,4.77389 2.55042,6.73577 1.17712,1.9619 2.55042,3.59679 4.25073,4.97011 1.7003,1.43868 3.46599,2.41964 5.23167,3.07359 l 3.79297,1.24249 c 3.40059,0 5.62402,-0.1307 6.80117,-0.32696 2.09267,-0.45776 3.92374,-0.98094 5.49323,-1.6349 1.63491,-0.71934 3.5314,-1.89648 5.82023,-3.53136 1.56951,1.17714 2.87742,2.15805 3.98916,3.13899 -3.85834,4.18534 -7.91288,7.32435 -12.03285,9.22082 -4.11994,1.8965 -8.76303,2.81204 -13.86391,2.81204 -3.46598,0 -6.278,-0.26169 -8.50145,-0.91554 -2.87743,-0.78477 -5.55863,-1.9619 -7.91291,-3.5968 -2.35423,-1.63487 -4.38152,-3.66214 -6.08183,-6.01641 -1.70027,-2.41964 -3.00822,-4.90471 -3.85833,-7.45512 -1.04634,-3.33519 -1.6349,-6.01644 -1.6349,-7.97832 0,-3.85833 0.32698,-7.25894 0.91554,-10.33255 z m 38.19119,-2.81197 c -0.0655,-2.48508 -0.52315,-4.77392 -1.4387,-7.0628 -0.91554,-2.22346 -2.35427,-3.92372 -4.31614,-5.16625 -1.89648,-1.24255 -3.85838,-1.89649 -5.82023,-1.89649 -2.94282,0 -5.55867,1.30792 -7.97828,3.85835 -2.35427,2.61583 -3.66218,6.08183 -3.98916,10.52873 l 14.97566,0.0655 c 0.98094,0 2.35424,-0.0655 4.05453,-0.19618 1.30792,-0.13069 2.22345,-0.19619 2.74665,-0.19619 0.39234,0 0.98092,0 1.76567,0.0655 z"
       id="path822" />
    <path
       style="fill:#eb2845;fill-opacity:1;fill-rule:nonzero;stroke:none;stroke-width:0.81745428"
       d="m 427.68306,187.37235 c 1.30791,-0.26169 2.28886,-0.39237 2.87743,-0.39237 0.32697,0 0.78476,0 1.37329,0.0655 l 0.58857,0.65394 c 2.41964,4.18535 3.92376,6.67039 4.70849,7.58594 1.50412,1.76567 3.00821,3.20438 4.51234,4.31611 0.98093,0.65398 2.55042,1.43871 4.70849,2.15805 1.43871,0.5232 3.00821,0.78476 4.64311,0.78476 2.74664,0 5.10088,-0.85014 7.06276,-2.61584 1.96187,-1.83107 2.94281,-3.72755 2.94281,-5.82022 0,-1.37333 -0.39238,-2.55042 -1.11173,-3.53138 -0.71934,-0.98095 -2.22345,-1.96186 -4.44694,-2.94279 -1.11172,-0.45779 -3.85834,-1.24254 -8.30525,-2.35427 -4.38154,-1.11174 -6.99738,-1.83108 -7.91289,-2.15806 -2.0927,-0.78474 -3.92377,-1.89649 -5.49328,-3.2698 -1.63488,-1.43869 -2.81203,-3.00821 -3.66215,-4.77389 -1.11173,-2.48504 -1.70028,-4.64309 -1.70028,-6.4088 0,-3.33519 0.52314,-6.01643 1.43867,-8.17447 0.98096,-2.09267 2.35428,-3.98914 4.11994,-5.62404 1.24252,-1.24255 3.13904,-2.35426 5.68947,-3.33518 2.55042,-0.98095 5.36243,-1.50414 8.23987,-1.50414 4.18535,0 7.84748,0.26169 10.9865,0.85016 3.13899,0.58857 5.82023,1.4387 7.9783,2.55043 0.32698,0.98093 0.65396,3.3352 1.1771,6.93196 0.4578,3.66219 0.71938,5.82024 0.71938,6.47421 0,0.32697 -0.0655,0.65395 -0.19618,0.98095 -1.17713,0.32697 -2.09267,0.52315 -2.87742,0.52315 -0.39238,0 -1.04634,-0.0655 -1.8965,-0.13067 -0.39237,-0.58859 -0.91555,-1.56952 -1.5695,-2.74666 -2.09264,-3.92376 -4.25073,-6.67037 -6.4742,-8.23988 -2.22343,-1.6349 -4.70848,-2.41966 -7.6513,-2.41966 -3.00821,0 -5.55863,0.91555 -7.58592,2.61585 -1.50411,1.30791 -2.22348,3.00822 -2.22348,5.23167 0,1.43868 0.78477,2.87742 2.35428,4.38153 1.50411,1.5041 4.18533,2.68121 7.9783,3.46596 5.75482,1.24254 10.00555,2.55046 12.68678,3.79298 3.92375,1.83107 6.73576,4.05452 8.30527,6.53957 1.56954,2.48506 2.41965,5.36249 2.41965,8.63225 0,5.10089 -1.96185,9.35162 -5.82022,12.7522 -3.79297,3.33519 -9.35161,5.03548 -16.74136,5.03548 -0.91553,0 -3.46597,-0.19618 -7.5205,-0.65394 -1.83111,-0.1962 -3.98916,-0.65397 -6.4742,-1.30792 -0.65396,-0.19619 -2.22345,-0.78476 -4.83929,-1.89649 -0.45778,-0.26167 -0.78477,-0.58856 -1.04635,-0.91553 -0.1307,-0.39238 -0.45776,-2.22345 -0.85013,-5.49326 -0.65394,-5.36247 -1.04633,-8.56686 -1.11173,-9.6132 z"
       id="path824" />
    <path
       style="fill:#eb2845;fill-opacity:1;fill-rule:nonzero;stroke:none;stroke-width:0.81745428"
       d="m 481.56924,155.98231 c 5.16628,-2.15805 8.89384,-4.31614 11.1827,-6.4088 2.35424,-2.09264 4.7739,-5.55864 7.38973,-10.26714 h 3.72756 c 0.39237,1.17714 0.58857,2.35426 0.58857,3.59678 0,2.28885 -0.0655,4.05456 -0.0655,5.36247 l -0.19619,3.85836 c 0,0.19618 0,0.71934 0.0655,1.50409 l 1.50411,0.0655 c 0.19619,0 2.28886,-0.0655 6.14722,-0.26167 0.32698,0 1.96187,-0.0655 4.90467,-0.13069 0.26169,1.17713 0.4578,2.22346 0.4578,3.13899 0,1.04636 -0.19619,2.22343 -0.52316,3.53137 -1.43873,0.19619 -2.48506,0.2617 -3.26983,0.2617 -0.32696,0 -1.0463,0 -2.09266,-0.13069 h -3.40059 l -1.17709,-0.0655 -3.13902,0.13069 -0.13071,25.11201 c -0.0655,4.83931 0,7.91291 0.2617,9.09003 0.26169,1.24251 0.78475,2.35424 1.56948,3.46596 0.98094,0.4578 2.09266,0.71936 3.33521,0.71936 1.1771,0 2.02726,-0.1307 2.61583,-0.32696 0.58856,-0.2617 1.56948,-0.85014 2.87741,-1.89649 0.26167,-0.26169 0.71933,-0.52317 1.24254,-0.91555 1.04631,0.78476 1.96185,1.63491 2.61582,2.48506 l 0.26169,0.78475 c -1.56948,2.41965 -3.72756,4.31614 -6.53959,5.68943 -2.74661,1.37331 -5.68941,2.02729 -8.82843,2.02729 -4.11993,0 -7.38972,-1.30794 -9.94018,-3.85838 -2.55042,-2.61583 -3.79294,-6.60499 -3.79294,-12.03285 l 0.26169,-11.50966 v -18.7686 l -2.02727,-0.0655 -4.7739,0.0655 -0.85014,-0.19619 c -0.26169,-0.39238 -0.39236,-0.71935 -0.39236,-1.11173 0,-0.26169 0.0655,-1.24251 0.13067,-2.94281 z"
       id="path826" />
  </g>
</svg>
