<?xml version="1.0" standalone="no"?>
<!DOCTYPE svg PUBLIC "-//W3C//DTD SVG 20010904//EN"
 "http://www.w3.org/TR/2001/REC-SVG-20010904/DTD/svg10.dtd">
<svg version="1.0" xmlns="http://www.w3.org/2000/svg"
 width="1000.000000pt" height="1000.000000pt" viewBox="0 0 1000.000000 1000.000000"
 preserveAspectRatio="xMidYMid meet">
<metadata>
Created by potrace 1.11, written by Peter Selinger 2001-2013
</metadata>
<g transform="translate(0.000000,1000.000000) scale(0.100000,-0.100000)"
fill="#000000" stroke="none">
<path d="M5675 9654 c-27 -7 -53 -13 -57 -14 -15 0 -8 -20 7 -20 9 0 18 -7 21
-15 4 -8 11 -15 18 -15 12 -1 92 -98 114 -139 18 -33 52 -120 59 -146 12 -49
9 -193 -4 -240 -19 -65 -36 -105 -45 -105 -5 0 -7 -3 -6 -7 0 -5 -7 -26 -17
-48 -10 -22 -19 -42 -20 -45 -1 -3 -7 -18 -14 -34 -28 -69 -35 -238 -12 -311
17 -54 74 -175 83 -175 7 0 2 39 -6 48 -3 2 -1 13 5 23 5 11 6 19 1 19 -13 0
-7 89 13 199 3 19 15 53 26 77 11 24 24 54 29 66 29 67 120 167 220 242 30 22
60 46 66 51 6 6 26 21 44 35 49 36 106 92 118 115 37 73 -47 226 -188 339
-119 95 -313 138 -455 100z"/>
<path d="M6569 9508 c-1 -44 -8 -113 -11 -128 -50 -193 -141 -302 -363 -433
-11 -7 -22 -14 -25 -17 -3 -3 -25 -20 -50 -39 -25 -19 -61 -54 -80 -78 -19
-24 -40 -49 -46 -56 -18 -21 -74 -140 -74 -157 0 -9 -3 -20 -7 -24 -29 -28
-22 -301 9 -359 18 -34 18 -56 0 -50 -9 3 -23 10 -29 16 -7 5 -13 6 -13 2 0
-4 -7 -2 -15 5 -8 7 -15 10 -15 7 0 -3 -12 0 -27 8 -15 8 -30 12 -35 9 -4 -3
-8 0 -8 5 0 6 -7 11 -15 11 -8 0 -23 4 -33 10 -38 21 -427 166 -427 159 0 -1
-20 4 -45 11 -25 7 -56 14 -70 17 -14 2 -38 8 -55 13 -41 13 -240 57 -295 65
-25 4 -54 9 -65 11 -11 2 -40 7 -65 10 -25 3 -58 7 -75 10 -28 5 -64 9 -175
20 -199 19 -780 23 -780 4 0 -3 -17 -5 -38 -6 -49 -1 -174 -14 -181 -18 -3 -2
-35 -7 -70 -10 -36 -4 -67 -9 -71 -11 -3 -2 -28 -6 -55 -9 -27 -4 -57 -8 -65
-11 -8 -2 -26 -6 -40 -9 -14 -2 -79 -17 -145 -32 -66 -15 -126 -27 -132 -27
-7 0 -13 -3 -13 -6 0 -3 -27 -15 -60 -25 -33 -11 -60 -23 -60 -28 0 -4 -6 -8
-13 -8 -14 0 -337 -161 -382 -190 -16 -11 -37 -23 -45 -27 -18 -8 -166 -121
-211 -160 -36 -32 -145 -141 -275 -274 -106 -110 -268 -249 -288 -249 -3 0
-25 -13 -49 -30 -25 -16 -49 -30 -55 -30 -6 0 -12 -4 -14 -8 -3 -9 -113 -62
-128 -62 -6 0 -10 -5 -10 -12 0 -6 -3 -8 -7 -5 -3 4 -11 3 -17 -2 -10 -8 -121
-47 -121 -42 0 1 -17 -5 -38 -14 -20 -8 -37 -13 -37 -10 0 3 -8 1 -18 -4 -11
-6 -30 -12 -43 -14 -13 -3 -44 -11 -69 -18 -61 -17 -68 -18 -120 -24 -25 -3
-58 -8 -75 -12 -16 -4 -32 -7 -35 -8 -119 -25 -239 -112 -345 -248 -24 -31
-67 -109 -70 -127 0 -3 -3 -9 -6 -15 -15 -25 -37 -111 -45 -175 -9 -79 -4
-135 14 -167 7 -13 10 -23 7 -23 -23 0 83 -127 155 -185 77 -62 109 -85 119
-85 7 0 17 -5 24 -10 7 -6 20 -16 30 -23 9 -7 20 -26 23 -42 10 -61 62 -177
101 -226 26 -35 126 -132 148 -146 46 -29 103 -57 150 -74 l50 -17 2 -114 c3
-144 6 -175 21 -190 17 -17 67 34 145 145 34 49 67 96 74 105 9 14 11 6 7 -38
-9 -86 -11 -274 -5 -322 5 -33 11 -44 26 -46 37 -5 140 113 246 281 32 53 46
66 72 71 18 3 43 9 57 11 28 7 114 21 175 31 47 7 65 8 308 28 30 2 47 0 47
-8 0 -7 3 -7 8 -1 9 12 142 14 142 1 0 -5 6 -3 13 3 8 6 16 8 19 5 4 -3 41 -8
85 -10 80 -5 138 -11 138 -13 0 -1 20 -4 45 -6 25 -3 56 -7 70 -10 14 -3 37
-7 53 -10 76 -14 165 -35 190 -44 15 -6 27 -9 27 -6 0 2 19 -3 43 -11 23 -9
49 -17 57 -19 8 -2 15 -4 15 -5 0 -1 9 -3 20 -5 54 -8 413 -160 435 -185 3 -3
12 -6 20 -8 8 -2 17 -8 18 -13 2 -5 9 -9 15 -9 7 0 39 -17 72 -38 33 -20 72
-43 88 -51 15 -8 27 -18 27 -23 0 -5 4 -7 9 -4 5 3 11 -1 15 -9 3 -8 12 -15
21 -15 8 0 15 -4 15 -9 0 -5 8 -12 18 -15 9 -3 28 -16 42 -29 14 -12 44 -36
68 -54 127 -92 330 -293 458 -453 86 -108 114 -147 114 -159 0 -6 4 -11 8 -11
5 0 17 -16 28 -35 10 -19 22 -35 26 -35 5 0 8 -5 8 -10 0 -6 16 -36 35 -66 19
-30 35 -59 35 -64 0 -6 5 -10 12 -10 6 0 9 -3 6 -6 -4 -3 8 -31 26 -62 41 -73
136 -287 136 -306 0 -8 5 -18 10 -21 6 -3 10 -15 10 -26 0 -10 4 -27 9 -37 5
-9 13 -28 19 -42 11 -26 61 -205 68 -243 2 -12 6 -32 9 -45 3 -12 7 -30 9 -41
2 -10 7 -36 10 -57 4 -22 8 -46 11 -54 2 -8 6 -37 9 -65 l5 -50 -17 35 c-9 19
-21 40 -27 47 -5 6 -21 27 -34 45 -25 34 -109 104 -139 115 -9 4 -19 10 -22
14 -3 3 -36 18 -75 31 -81 28 -173 32 -186 8 -5 -8 -29 -57 -53 -107 -41 -84
-103 -187 -153 -252 -27 -37 -175 -181 -185 -181 -5 0 -7 4 -3 9 6 10 7 231 1
291 -13 141 -29 195 -40 134 -4 -21 -14 -51 -22 -66 -8 -15 -14 -38 -14 -51 0
-14 -7 -30 -15 -37 -8 -7 -15 -19 -15 -27 0 -31 -87 -190 -168 -306 l-54 -78
-75 2 c-122 4 -265 51 -368 122 -90 62 -175 170 -191 242 -12 55 -7 185 7 185
4 0 6 6 6 12 -1 7 11 39 26 71 38 81 45 161 20 218 -19 43 -50 65 -138 100
-75 30 -240 29 -320 -1 -13 -5 -25 -7 -28 -4 -2 2 -10 -2 -17 -11 -7 -8 -18
-15 -26 -15 -18 0 -98 -52 -138 -88 -85 -79 -149 -173 -181 -267 -18 -53 -20
-64 -31 -130 -9 -49 -12 -216 -5 -230 3 -5 6 -19 7 -30 12 -127 68 -288 148
-430 22 -38 44 -71 48 -73 4 -2 8 -8 8 -14 0 -26 154 -196 208 -230 34 -21 35
-30 4 -34 -103 -11 -305 -70 -299 -87 2 -6 46 -32 98 -59 52 -27 99 -52 104
-56 6 -4 19 -9 30 -10 11 -2 22 -8 23 -13 2 -5 10 -9 18 -9 8 0 22 -4 32 -10
19 -10 173 -59 211 -66 13 -3 31 -9 40 -13 9 -5 30 -11 47 -14 17 -3 41 -10
53 -16 11 -7 21 -9 21 -6 0 3 8 1 18 -4 16 -8 45 -15 132 -27 19 -3 46 -7 60
-10 100 -16 383 -22 500 -10 76 8 140 16 170 22 14 3 34 7 45 9 11 2 31 6 45
9 14 3 36 7 50 10 14 2 37 9 51 14 14 6 39 12 55 15 16 3 43 11 59 18 17 6 35
13 40 14 6 1 13 3 18 5 4 1 10 3 15 5 17 5 48 17 64 26 10 5 22 9 28 9 5 0 39
13 75 30 36 16 67 29 69 27 1 -1 9 3 17 9 8 7 39 25 69 42 30 16 71 39 90 51
19 11 42 24 50 28 8 3 17 9 20 12 3 3 33 25 68 49 35 23 69 47 75 52 156 125
284 247 373 355 27 33 51 62 54 65 44 44 180 259 245 388 76 151 153 348 147
375 -1 4 3 7 9 7 5 0 7 5 4 10 -3 5 -3 16 2 22 4 7 8 18 9 23 3 17 13 58 25
105 6 25 13 56 15 70 2 14 7 41 10 60 l6 35 13 -50 c7 -27 16 -72 19 -100 4
-27 10 -63 12 -80 13 -78 18 -333 9 -425 -2 -19 -6 -64 -9 -100 -8 -80 -13
-112 -41 -245 -21 -99 -21 -97 -28 -115 -5 -12 -27 -89 -32 -110 -3 -15 -29
-86 -34 -95 -3 -5 -6 -15 -7 -21 -10 -66 -216 -446 -291 -539 -5 -5 -30 -37
-55 -70 -26 -33 -60 -74 -75 -92 -15 -17 -35 -39 -44 -50 -28 -32 -194 -187
-234 -218 -21 -16 -43 -35 -49 -40 -6 -6 -46 -35 -89 -65 -50 -35 -73 -56 -65
-61 7 -4 15 -6 18 -4 3 2 30 6 60 10 30 3 64 8 75 10 11 3 31 7 45 9 14 2 36
7 50 10 14 3 39 8 55 11 70 13 82 16 130 26 28 7 55 14 60 18 6 3 19 6 30 7
11 0 36 6 56 13 20 6 45 13 55 16 18 3 168 50 259 80 22 8 65 23 95 35 30 12
66 25 80 30 14 4 42 15 64 25 21 9 40 14 42 12 5 -4 -139 -186 -209 -265 -65
-73 -294 -300 -362 -357 -38 -33 -76 -66 -84 -74 -8 -7 -49 -39 -90 -70 -42
-31 -78 -58 -81 -61 -16 -17 -80 -60 -88 -60 -6 0 -12 -3 -14 -7 -11 -25 -260
-174 -467 -279 -46 -24 -86 -46 -89 -48 -4 -5 29 -3 133 8 135 14 165 19 234
31 42 8 92 17 111 20 19 3 46 8 60 11 14 4 34 8 45 10 44 7 262 65 298 79 20
8 40 15 45 16 4 1 17 5 30 10 13 5 29 9 37 9 8 0 17 5 20 10 4 6 10 8 15 5 5
-3 11 -1 15 5 3 5 14 10 24 10 10 0 31 6 47 14 47 23 123 56 127 56 3 0 26 10
53 22 27 12 55 23 62 24 8 1 22 10 31 18 10 9 23 16 29 16 6 0 42 16 79 37 38
20 93 49 123 66 30 16 57 32 60 36 3 4 13 10 22 14 34 12 347 222 405 272 7 5
18 15 25 20 33 26 127 103 163 135 67 59 317 311 370 374 28 32 55 64 60 70
16 18 149 189 160 206 48 76 58 90 68 90 6 0 8 3 4 6 -3 4 4 21 17 38 13 17
47 72 76 121 64 107 59 99 64 94 4 -4 -1 -31 -20 -111 -2 -10 -6 -28 -9 -40
-2 -13 -7 -35 -11 -50 -3 -15 -6 -31 -6 -35 0 -5 -4 -18 -9 -31 -5 -12 -11
-33 -13 -45 -27 -131 -160 -486 -252 -669 -24 -49 -40 -88 -36 -88 4 0 2 -4
-4 -8 -6 -4 -26 -36 -45 -72 -18 -36 -48 -88 -66 -117 -18 -29 -33 -57 -33
-63 0 -5 -4 -10 -10 -10 -5 0 -12 -11 -16 -25 -3 -14 -9 -25 -13 -25 -3 0 -15
-16 -25 -35 -11 -19 -24 -35 -29 -35 -6 0 -7 -3 -4 -7 4 -3 -2 -17 -14 -29
-13 -14 -17 -24 -10 -29 6 -3 11 -2 11 2 0 5 15 17 33 28 17 10 48 30 67 45
91 68 167 126 185 142 11 9 31 26 45 38 161 135 344 321 474 480 33 41 64 77
67 80 12 11 192 266 202 288 5 12 14 22 19 22 4 0 8 5 8 10 0 6 16 36 35 66
19 30 35 56 35 58 0 3 20 38 44 79 25 41 42 78 39 81 -4 3 -1 6 5 6 7 0 12 4
12 10 0 5 24 58 53 117 30 60 55 113 56 118 4 12 15 40 32 80 7 17 13 33 14
38 2 4 4 9 5 12 1 3 3 8 5 13 1 4 6 18 12 32 11 26 43 118 47 135 2 6 8 23 14
38 7 16 12 32 12 36 0 4 9 34 19 67 11 32 22 70 24 84 3 14 8 32 11 40 5 14 8
29 21 95 3 11 6 27 8 35 4 17 17 76 22 105 2 11 4 22 5 25 4 11 7 26 8 48 3
38 19 16 26 -35 4 -27 9 -57 11 -68 2 -11 9 -56 15 -100 7 -44 14 -91 16 -105
9 -55 18 -179 18 -257 1 -46 3 -83 6 -83 3 0 5 -65 5 -145 0 -80 -2 -145 -5
-145 -3 0 -6 -41 -7 -91 -3 -80 -1 -89 12 -75 8 8 15 17 15 21 0 3 5 11 11 18
10 12 141 213 168 258 85 143 211 385 211 405 0 7 4 14 8 16 10 3 126 291 131
321 0 4 7 20 16 37 8 16 16 37 18 47 2 10 17 59 32 108 16 50 30 97 32 105 3
24 11 55 14 55 1 0 3 9 5 20 2 11 10 47 18 79 8 33 13 63 10 68 -3 4 0 8 5 8
6 0 10 3 9 8 -1 4 2 30 7 57 4 28 9 59 10 70 2 11 6 34 9 50 3 17 9 50 12 75
3 25 7 56 9 70 30 192 36 704 10 880 -5 33 -11 88 -21 175 -4 40 -38 234 -54
310 -4 22 -11 54 -15 70 -22 106 -113 430 -135 480 -14 33 -34 100 -32 108 1
4 -3 7 -8 7 -6 0 -10 8 -10 19 0 10 -11 43 -24 74 -14 30 -22 58 -19 61 4 3 1
6 -5 6 -6 0 -14 14 -17 32 -4 18 -11 39 -16 48 -5 8 -34 71 -65 140 -61 139
-177 363 -248 483 -25 43 -46 83 -46 88 0 5 -4 9 -10 9 -5 0 -10 5 -10 11 0 5
-7 20 -15 32 -8 12 -58 87 -112 167 -53 80 -102 151 -110 158 -7 7 -13 17 -13
20 0 4 -10 18 -23 32 -12 14 -34 41 -47 60 -13 19 -29 40 -35 46 -5 6 -32 38
-60 70 -76 89 -158 174 -164 168 -3 -3 -6 -15 -7 -27 -7 -128 -38 -281 -84
-412 -12 -33 -22 -66 -22 -72 -1 -7 -5 -13 -10 -13 -4 0 -8 -7 -8 -15 0 -16
-63 -145 -93 -187 -10 -16 -15 -28 -10 -28 4 0 3 -4 -3 -8 -6 -4 -24 -27 -40
-51 -50 -76 -58 -86 -104 -142 -55 -67 -138 -150 -209 -209 -30 -25 -63 -53
-73 -62 -10 -10 -20 -17 -22 -15 -3 1 -15 -7 -28 -18 -13 -11 -40 -29 -59 -39
-18 -11 -52 -31 -74 -45 -22 -14 -42 -26 -45 -26 -3 -1 -36 -16 -75 -34 -67
-32 -117 -53 -122 -52 -2 0 -23 -8 -48 -19 -25 -11 -45 -17 -45 -15 0 2 -18
-2 -40 -10 -22 -8 -40 -12 -40 -9 0 2 -8 0 -18 -5 -11 -6 -41 -13 -68 -17 -27
-3 -52 -8 -56 -10 -26 -16 -355 -23 -463 -10 -33 4 -71 8 -85 10 -14 1 -34 5
-45 9 -11 4 -36 9 -55 11 -19 3 -53 12 -75 20 -39 14 -40 15 -10 16 17 1 39 3
50 5 11 2 36 6 55 9 48 7 167 34 210 47 70 22 176 61 202 75 14 8 33 14 42 14
9 0 16 3 16 8 0 4 15 13 33 21 42 17 151 83 155 93 2 4 9 8 15 8 7 0 24 10 39
23 16 12 49 38 75 57 53 40 216 201 253 249 14 19 33 42 43 52 9 11 17 21 17
23 0 3 17 31 38 63 21 32 53 85 71 118 18 33 38 66 43 73 6 6 8 12 4 12 -4 0
2 17 13 39 11 21 17 41 14 45 -4 3 -1 6 5 6 7 0 12 7 12 16 0 8 5 25 12 37 7
12 13 27 14 32 2 6 12 41 23 78 11 38 22 83 25 100 3 18 8 43 11 57 17 82 37
360 25 360 -3 0 -5 21 -6 48 -1 91 -38 295 -64 357 -4 11 -20 56 -36 100 -35
102 -149 325 -166 325 -4 0 -8 6 -8 13 0 7 -8 22 -18 33 -10 10 -24 28 -32 40
-46 65 -224 254 -241 254 -3 0 -19 11 -35 25 -26 23 -156 115 -222 157 -94 61
-297 158 -329 158 -2 0 -3 -10 -4 -22z"/>
</g>
</svg>
