<svg xmlns="http://www.w3.org/2000/svg" width="172" height="36" fill="none" viewBox="0 0 172 36"><path fill="#7950ED" d="M0 17.9892C0 27.0095 6.60814 34.4191 15.1108 35.4546V0.523682C6.60814 1.55918 0 8.96878 0 17.9892Z"/><path fill="#7950ED" d="M34.3033 17.9885C34.3033 8.92209 27.6275 1.46647 19.0347 0.5V35.5H34.2807V18.4717C34.3033 18.3106 34.3033 18.1496 34.3033 17.9885Z"/><path fill="#111" d="M49.5166 18.0117C51.366 18.0117 52.629 18.9092 53.3056 19.8756V18.1958H56.2376V29.9085H53.3056V28.2057C52.629 29.2182 51.3209 30.1156 49.4941 30.1156C46.5847 30.1156 44.2617 27.6764 44.2617 24.0176C44.2617 20.3589 46.5847 18.0117 49.5166 18.0117ZM50.2609 20.612C48.7047 20.612 47.2388 21.8086 47.2388 24.0176C47.2388 26.2267 48.7047 27.5153 50.2609 27.5153C51.8622 27.5153 53.3056 26.2957 53.3056 24.0637C53.3056 21.8316 51.8622 20.612 50.2609 20.612Z"/><path fill="#111" d="M75.2485 23.4423C75.2485 21.5784 74.2336 20.6119 72.7 20.6119C71.1438 20.6119 70.1289 21.5784 70.1289 23.4423V29.9084H67.2195V23.4423C67.2195 21.5784 66.2046 20.6119 64.671 20.6119C63.0923 20.6119 62.0774 21.5784 62.0774 23.4423V29.9084H59.168V18.1957H62.0774V19.6224C62.7991 18.656 64.0169 18.0347 65.4604 18.0347C67.2421 18.0347 68.708 18.817 69.4974 20.2668C70.2417 18.9321 71.7527 18.0347 73.4443 18.0347C76.1958 18.0347 78.1579 19.8065 78.1579 23.0511V29.9314H75.2485V23.4423Z"/><path fill="#111" d="M87.7223 18.0117C90.6768 18.0117 92.9772 20.3589 92.9772 24.0176C92.9772 27.6764 90.6768 30.1156 87.7223 30.1156C85.918 30.1156 84.6325 29.1952 83.9333 28.2517V35.5002H81.0239V18.1958H83.9333V19.8986C84.6099 18.8861 85.9406 18.0117 87.7223 18.0117ZM86.9555 20.612C85.3993 20.612 83.9333 21.8316 83.9333 24.0637C83.9333 26.2957 85.3993 27.5153 86.9555 27.5153C88.5342 27.5153 90.0002 26.2497 90.0002 24.0176C90.0002 21.7856 88.5342 20.612 86.9555 20.612Z"/><path fill="#111" d="M95.1875 14.2607H98.0969V29.9314H95.1875V14.2607Z"/><path fill="#111" d="M100.735 15.0662C100.735 14.0997 101.48 13.3403 102.517 13.3403C103.532 13.3403 104.299 14.0997 104.299 15.0662C104.299 16.0326 103.532 16.792 102.517 16.792C101.48 16.792 100.735 16.0326 100.735 15.0662ZM101.051 18.1957H103.96V29.9084H101.051V18.1957Z"/><path fill="#111" d="M111.855 18.0117C114.72 18.0117 116.637 19.5305 117.268 22.1537H114.133C113.795 21.1643 113.028 20.5199 111.833 20.5199C110.209 20.5199 109.126 21.7625 109.126 24.0637C109.126 26.3418 110.209 27.5844 111.833 27.5844C113.028 27.5844 113.772 27.0321 114.133 25.9736H117.268C116.637 28.4818 114.72 30.1156 111.855 30.1156C108.54 30.1156 106.172 27.7455 106.172 24.0637C106.172 20.3819 108.54 18.0117 111.855 18.0117Z"/><path fill="#111" d="M124.009 18.0117C125.858 18.0117 127.121 18.9092 127.798 19.8756V18.1958H130.73V29.9085H127.798V28.2057C127.121 29.2182 125.813 30.1156 123.986 30.1156C121.077 30.1156 118.754 27.6764 118.754 24.0176C118.754 20.3589 121.077 18.0117 124.009 18.0117ZM124.753 20.612C123.197 20.612 121.731 21.8086 121.731 24.0176C121.731 26.2267 123.197 27.5153 124.753 27.5153C126.354 27.5153 127.798 26.2957 127.798 24.0637C127.798 21.8316 126.354 20.612 124.753 20.612Z"/><path fill="#111" d="M134.136 20.635H132.761V18.1958H134.136V15.2964H137.068V18.1958H139.639V20.635H137.046V26.2957C137.046 27.0781 137.362 27.4233 138.264 27.4233H139.617V29.9315H137.79C135.602 29.9315 134.114 28.988 134.114 26.2957V20.635H134.136Z"/><path fill="#111" d="M141.512 15.0662C141.512 14.0997 142.256 13.3403 143.293 13.3403C144.308 13.3403 145.075 14.0997 145.075 15.0662C145.075 16.0326 144.308 16.792 143.293 16.792C142.256 16.792 141.512 16.0326 141.512 15.0662ZM141.827 18.1957H144.737V29.9084H141.827V18.1957Z"/><path fill="#111" d="M152.788 30.1156C149.473 30.1156 146.97 27.7455 146.97 24.0637C146.97 20.3589 149.563 18.0117 152.879 18.0117C156.194 18.0117 158.788 20.3589 158.788 24.0637C158.788 27.7455 156.149 30.1156 152.788 30.1156ZM152.788 27.5384C154.322 27.5384 155.788 26.3878 155.788 24.0637C155.788 21.7165 154.367 20.589 152.811 20.589C151.255 20.589 149.879 21.7165 149.879 24.0637C149.924 26.3878 151.232 27.5384 152.788 27.5384Z"/><path fill="#111" d="M169.072 23.4424C169.072 21.5554 168.057 20.5429 166.524 20.5429C164.945 20.5429 163.93 21.5554 163.93 23.4424V29.9085H161.021V18.1958H163.93V19.6455C164.674 18.656 165.915 18.0117 167.403 18.0117C170.087 18.0117 171.981 19.7836 171.981 23.0282V29.9085H169.072V23.4424Z"/></svg>