<?xml version="1.0" encoding="UTF-8" standalone="no"?>
<!-- Generator: Adobe Illustrator 16.0.0, SVG Export Plug-In . SVG Version: 6.00 Build 0)  -->

<svg
   xmlns:dc="http://purl.org/dc/elements/1.1/"
   xmlns:cc="http://creativecommons.org/ns#"
   xmlns:rdf="http://www.w3.org/1999/02/22-rdf-syntax-ns#"
   xmlns:svg="http://www.w3.org/2000/svg"
   xmlns="http://www.w3.org/2000/svg"
   xmlns:sodipodi="http://sodipodi.sourceforge.net/DTD/sodipodi-0.dtd"
   xmlns:inkscape="http://www.inkscape.org/namespaces/inkscape"
   version="1.1"
   id="Layer_1"
   x="0px"
   y="0px"
   width="365.93307"
   height="313.423"
   viewBox="0 0 365.93307 313.42299"
   enable-background="new 0 0 841.89 595.28"
   xml:space="preserve"
   sodipodi:docname="Accelery-Vertical-couleur.svg"
   inkscape:version="0.92.4 (5da689c313, 2019-01-14)"><metadata
   id="metadata35"><rdf:RDF><cc:Work
       rdf:about=""><dc:format>image/svg+xml</dc:format><dc:type
         rdf:resource="http://purl.org/dc/dcmitype/StillImage" /><dc:title></dc:title></cc:Work></rdf:RDF></metadata><defs
   id="defs33" /><sodipodi:namedview
   pagecolor="#ffffff"
   bordercolor="#666666"
   borderopacity="1"
   objecttolerance="10"
   gridtolerance="10"
   guidetolerance="10"
   inkscape:pageopacity="0"
   inkscape:pageshadow="2"
   inkscape:window-width="3840"
   inkscape:window-height="2004"
   id="namedview31"
   showgrid="false"
   fit-margin-top="50"
   fit-margin-left="50"
   fit-margin-right="50"
   fit-margin-bottom="50"
   inkscape:zoom="1.5858083"
   inkscape:cx="282.72284"
   inkscape:cy="127.19489"
   inkscape:window-x="-16"
   inkscape:window-y="-16"
   inkscape:window-maximized="1"
   inkscape:current-layer="Layer_1" />
<g
   id="g18"
   transform="translate(-222.41104,-136.729)">
	<path
   stroke-miterlimit="10"
   d="m 278.236,392.684 -3.175,6.805 h -2.062 l 12.62,-27.137 11.918,27.137 h -2.021 l -3.01,-6.805 z m 7.3,-15.754 -6.434,13.898 h 12.578 z"
   id="path2"
   inkscape:connector-curvature="0"
   style="fill:#248069;stroke:#248069;stroke-width:0.75;stroke-miterlimit:10" />
	<path
   stroke-miterlimit="10"
   d="m 322.446,399.777 c -2.447,0 -4.715,-0.619 -6.805,-1.856 -2.09,-1.237 -3.739,-2.907 -4.949,-5.011 -1.21,-2.104 -1.814,-4.392 -1.814,-6.866 0,-2.474 0.604,-4.757 1.814,-6.846 1.209,-2.089 2.859,-3.753 4.949,-4.99 2.09,-1.237 4.357,-1.856 6.805,-1.856 1.897,0 3.718,0.393 5.464,1.176 1.746,0.783 3.279,1.891 4.599,3.32 l -1.444,1.278 c -1.1,-1.237 -2.399,-2.199 -3.897,-2.887 -1.499,-0.687 -3.072,-1.031 -4.722,-1.031 -2.117,0 -4.069,0.53 -5.856,1.588 -1.788,1.059 -3.21,2.495 -4.269,4.31 -1.059,1.814 -1.587,3.794 -1.587,5.938 0,2.144 0.529,4.124 1.587,5.938 1.058,1.814 2.481,3.252 4.269,4.31 1.787,1.059 3.739,1.588 5.856,1.588 1.759,0 3.43,-0.385 5.011,-1.154 1.581,-0.77 2.935,-1.842 4.062,-3.218 l 1.485,1.155 c -1.292,1.623 -2.86,2.881 -4.701,3.773 -1.843,0.894 -3.795,1.341 -5.857,1.341 z"
   id="path4"
   inkscape:connector-curvature="0"
   style="fill:#248069;stroke:#248069;stroke-width:0.75;stroke-miterlimit:10" />
	<path
   stroke-miterlimit="10"
   d="m 359.355,399.777 c -2.447,0 -4.715,-0.619 -6.805,-1.856 -2.09,-1.237 -3.739,-2.907 -4.949,-5.011 -1.21,-2.104 -1.814,-4.392 -1.814,-6.866 0,-2.474 0.604,-4.757 1.814,-6.846 1.209,-2.089 2.859,-3.753 4.949,-4.99 2.09,-1.237 4.357,-1.856 6.805,-1.856 1.897,0 3.718,0.393 5.464,1.176 1.746,0.783 3.279,1.891 4.599,3.32 l -1.444,1.278 c -1.1,-1.237 -2.399,-2.199 -3.897,-2.887 -1.499,-0.687 -3.072,-1.031 -4.722,-1.031 -2.117,0 -4.069,0.53 -5.856,1.588 -1.788,1.059 -3.21,2.495 -4.269,4.31 -1.059,1.814 -1.587,3.794 -1.587,5.938 0,2.144 0.529,4.124 1.587,5.938 1.058,1.814 2.481,3.252 4.269,4.31 1.787,1.059 3.739,1.588 5.856,1.588 1.759,0 3.43,-0.385 5.011,-1.154 1.581,-0.77 2.935,-1.842 4.062,-3.218 l 1.485,1.155 c -1.292,1.623 -2.86,2.881 -4.701,3.773 -1.842,0.894 -3.795,1.341 -5.857,1.341 z"
   id="path6"
   inkscape:connector-curvature="0"
   style="fill:#248069;stroke:#248069;stroke-width:0.75;stroke-miterlimit:10" />
	<path
   stroke-miterlimit="10"
   d="m 384.182,399.488 v -26.807 h 17.362 v 1.897 h -15.506 v 10.558 h 12.083 v 1.896 h -12.083 v 10.517 h 15.506 v 1.938 h -17.362 z"
   id="path8"
   inkscape:connector-curvature="0"
   style="fill:#248069;stroke:#248069;stroke-width:0.75;stroke-miterlimit:10" />
	<path
   stroke-miterlimit="10"
   d="m 416.844,399.488 v -26.807 h 1.855 v 24.951 h 15.053 v 1.855 h -16.908 z"
   id="path10"
   inkscape:connector-curvature="0"
   style="fill:#248069;stroke:#248069;stroke-width:0.75;stroke-miterlimit:10" />
	<path
   stroke-miterlimit="10"
   d="m 449.052,399.488 v -26.807 h 17.362 v 1.897 h -15.507 v 10.558 h 12.084 v 1.896 h -12.084 v 10.517 h 15.507 v 1.938 h -17.362 z"
   id="path12"
   inkscape:connector-curvature="0"
   style="fill:#248069;stroke:#248069;stroke-width:0.75;stroke-miterlimit:10" />
	<path
   stroke-miterlimit="10"
   d="m 497.55,399.488 -11.135,-13.527 h 3.3 c 2.034,0 3.684,-0.26 4.948,-0.783 0.935,-0.439 1.746,-1.105 2.434,-2 0.687,-0.893 1.03,-1.877 1.03,-2.949 0,-0.961 -0.288,-1.876 -0.865,-2.742 -0.578,-0.865 -1.402,-1.573 -2.475,-2.123 -1.072,-0.551 -2.31,-0.825 -3.712,-0.825 h -7.506 v 24.95 h -1.855 v -26.807 h 9.361 c 1.265,0 2.447,0.2 3.547,0.599 1.1,0.399 2.062,0.97 2.887,1.712 0.797,0.715 1.408,1.525 1.835,2.433 0.426,0.907 0.64,1.843 0.64,2.804 0,1.514 -0.454,2.867 -1.361,4.062 -0.907,1.196 -1.979,2.056 -3.217,2.578 -0.853,0.385 -1.685,0.625 -2.495,0.721 -0.811,0.098 -1.67,0.145 -2.577,0.145 l 9.691,11.754 h -2.475 z"
   id="path14"
   inkscape:connector-curvature="0"
   style="fill:#248069;stroke:#248069;stroke-width:0.75;stroke-miterlimit:10" />
	<path
   stroke-miterlimit="10"
   d="m 524.852,388.188 10.557,-15.507 h 2.228 l -11.877,17.527 v 9.279 h -1.856 v -9.279 l -11.877,-17.527 h 2.227 z"
   id="path16"
   inkscape:connector-curvature="0"
   style="fill:#248069;stroke:#248069;stroke-width:0.75;stroke-miterlimit:10" />
</g>
<g
   id="g28"
   transform="translate(-222.41104,-136.729)">
	<polygon
   points="472.677,344.837 472.61,212.678 421.73,265.217 421.73,272.783 445.921,282.627 "
   id="polygon20"
   style="fill:#3dbb9c" />
	<polygon
   points="421.265,332.422 472.677,353.516 443.949,287.871 407.335,301.82 "
   id="polygon22"
   style="fill:#248069" />
	<polygon
   points="442.533,284.636 414.137,272.877 379.321,308.719 "
   id="polygon24"
   style="fill:#3dbb9c" />
	<polygon
   points="371.121,311.844 472.61,207.295 422.465,186.729 319.555,290.688 "
   id="polygon26"
   style="fill:#248069" />
</g>
</svg>