<svg id="main" xmlns="http://www.w3.org/2000/svg"  width="180" height="36" viewBox="0 0 180 36"><title>logo-full</title><g id="full"><rect id="underline" x="1" y="31" width="178" height="2"/><g id="ceonics"><path d="M81,17H60a4,4,0,0,1,4-4H81ZM60,25V19H81v4H64v2H81v4H64a4,4,0,0,1-4-4Z"/><path d="M104,17v8a4,4,0,0,1-4,4H87a4,4,0,0,1-4-4h0V17a4,4,0,0,1,4-4h13A4,4,0,0,1,104,17Zm-6,0H89a2,2,0,0,0-2,2v4a2,2,0,0,0,2,2h9a2,2,0,0,0,2-2V19A2,2,0,0,0,98,17Z"/><path d="M106,13h5l12,12V13h4V29h-5L110,17h-4Zm0,16V19h4V29Z"/><path d="M133,29h-4V13h4Z"/><path d="M156,25v4H139a4,4,0,0,1-4-4h0V17a4,4,0,0,1,4-4h17v4H141a2,2,0,0,0-2,2v4a2,2,0,0,0,2,2h15Z"/><path d="M58,25v4H41a4,4,0,0,1-4-4h0V17a4,4,0,0,1,4-4H58v4H43a2,2,0,0,0-2,2v4a2,2,0,0,0,2,2H58Z"/><path d="M179,17H158a4,4,0,0,1,4-4h17Zm-4,6H162a4,4,0,0,1-4-4h17a4,4,0,0,1,4,4h0v2a4,4,0,0,1-4,4H158V25h17Z"/></g><g id="a"><polygon points="27 3 20 10 26.5 10 26.8 13 17 13 1 29 7 29 17 19 27.2 19 28 29 34 29 32 3 27 3"/></g></g></svg>