<?xml version="1.0" encoding="UTF-8"?>
<svg width="512px" height="256px" viewBox="0 0 512 256" version="1.1" xmlns="http://www.w3.org/2000/svg" xmlns:xlink="http://www.w3.org/1999/xlink">
    <!-- Generator: Sketch 50.2 (55047) - http://www.bohemiancoding.com/sketch -->
    <title>Artboard</title>
    <desc>Created with Sketch.</desc>
    <defs>
        <linearGradient x1="17.7452741%" y1="84.4896185%" x2="76.898702%" y2="22.7107947%" id="linearGradient-1">
            <stop stop-color="#E95952" offset="0%"></stop>
            <stop stop-color="#EC735E" offset="9%"></stop>
            <stop stop-color="#F08C6A" offset="21%"></stop>
            <stop stop-color="#F29F72" offset="33%"></stop>
            <stop stop-color="#F4A977" offset="45%"></stop>
            <stop stop-color="#F4AD79" offset="59%"></stop>
            <stop stop-color="#F1B38A" offset="78%"></stop>
            <stop stop-color="#EDBDA3" offset="100%"></stop>
        </linearGradient>
        <linearGradient x1="99.9988381%" y1="49.9987193%" x2="2.99996514%" y2="49.9987193%" id="linearGradient-2">
            <stop stop-color="#DE7B76" offset="0%"></stop>
            <stop stop-color="#E36A64" offset="31%"></stop>
            <stop stop-color="#E85D57" offset="66%"></stop>
            <stop stop-color="#E95952" offset="100%"></stop>
        </linearGradient>
        <linearGradient x1="2.98985685e-14%" y1="49.9959344%" x2="100.001045%" y2="49.9959344%" id="linearGradient-3">
            <stop stop-color="#E95952" offset="0%"></stop>
            <stop stop-color="#EB6859" offset="9%"></stop>
            <stop stop-color="#F0906A" offset="34%"></stop>
            <stop stop-color="#F19A6F" offset="41%"></stop>
            <stop stop-color="#F3A876" offset="56%"></stop>
            <stop stop-color="#F4AD79" offset="69%"></stop>
            <stop stop-color="#F1B38A" offset="83%"></stop>
            <stop stop-color="#EDBDA3" offset="100%"></stop>
        </linearGradient>
        <linearGradient x1="3.24211406e-14%" y1="50.0034177%" x2="99.9990961%" y2="50.0034177%" id="linearGradient-4">
            <stop stop-color="#E95952" offset="0%"></stop>
            <stop stop-color="#ED7A5F" offset="53%"></stop>
            <stop stop-color="#EE8263" offset="58%"></stop>
            <stop stop-color="#F19A6F" offset="73%"></stop>
            <stop stop-color="#F3A876" offset="88%"></stop>
            <stop stop-color="#F4AD79" offset="100%"></stop>
        </linearGradient>
    </defs>
    <g id="Artboard" stroke="none" stroke-width="1" fill="none" fill-rule="evenodd">
        <g id="原图标" transform="translate(28.000000, 28.000000)">
            <g id="图形组">
                <path d="M170.681716,127.571106 C164.992303,121.910063 157.286272,118.742235 149.260295,118.765097 C141.234318,118.78796 133.54646,121.999638 127.889391,127.693002 C120.513743,135.155369 110.449307,139.3417 99.9571106,139.311512 C78.2392777,139.311512 60.5711061,121.641084 60.5711061,99.9187359 C60.5711061,78.1963883 78.2392777,60.5259594 99.9571106,60.5259594 C110.409766,60.4974879 120.439392,64.6519102 127.810384,72.0632054 C130.551914,74.8096859 133.797923,77.001029 137.370203,78.51693 C136.502192,75.5007393 135.431278,72.5466762 134.164786,69.6749436 C123.297968,45.0699774 98.6930023,27.9142212 70.0790068,27.9142212 C34.7404063,27.9142212 5.51918736,54.0993228 0.742663657,88.1264108 C0.325957033,91.7078096 0.0999045311,95.3088259 0.065462754,98.9142212 C0.065462754,99.1106095 0.065462754,99.3069977 0.079006772,99.503386 C0.079006772,99.3069977 0.079006772,99.1106095 0.065462754,98.9142212 C0.065462754,99.248307 0.0519187359,99.5914221 0.0519187359,99.9164786 C0.0519187359,126.604966 10.4356659,151.697517 29.3137698,170.571106 C48.1918736,189.444695 73.2731377,199.837472 99.9571106,199.837472 C126.55977,199.86269 152.068635,189.252283 170.805869,170.367946 C182.587227,158.514664 182.531648,139.355834 170.681716,127.571106 Z" id="Shape" fill="url(#linearGradient-1)" fill-rule="nonzero"></path>
                <path d="M70.0790068,27.9164786 C98.6930023,27.9164786 123.297968,45.0722348 134.164786,69.6772009 C135.431278,72.5489335 136.502192,75.5029967 137.370203,78.5191874 C150.705884,84.1856657 166.186904,79.6041239 174.290878,67.5926714 C182.394851,55.581219 180.847437,39.5108109 170.600451,29.2663657 C151.731377,10.3837472 126.636569,0 99.9571106,0 C73.2776524,0 48.1828442,10.3837472 29.3137698,29.2663657 C13.2528217,45.3295711 3.33860045,65.9006772 0.742663657,88.1286682 C5.51918736,54.1015801 34.7404063,27.9164786 70.0790068,27.9164786 Z" id="Shape" fill="url(#linearGradient-2)" fill-rule="nonzero"></path>
                <path d="M170.681716,127.571106 C170.252822,127.14447 169.812641,126.738149 169.365688,126.343115 C157.361332,115.744565 139.176723,116.33838 127.889391,127.697517 C120.513743,135.159884 110.449307,139.346214 99.9571106,139.316027 C78.2392777,139.316027 60.5711061,121.645598 60.5711061,99.9232506 C60.5711061,78.3205418 78.0474041,60.7268623 99.6027088,60.5349887 L99.4334086,60.5349887 C60.7539503,60.5349887 29.3972912,91.7200903 29.3972912,130.189616 C29.3972912,167.623025 59.0880361,198.153499 96.3250564,199.772009 C97.4446953,199.812641 98.5665914,199.835967 99.6907449,199.841986 L99.9571106,199.841986 C126.560423,199.866011 152.06938,189.25394 170.805869,170.367946 C182.587227,158.514664 182.531648,139.355834 170.681716,127.571106 Z" id="Shape" fill="url(#linearGradient-3)" fill-rule="nonzero"></path>
                <path d="M127.889391,127.693002 C120.513743,135.155369 110.449307,139.3417 99.9571106,139.311512 C79.8916479,139.311512 63.282167,124.225734 60.8713318,104.79684 C63.3386005,141.239278 93.6749436,170.03386 130.742664,170.03386 C148.989847,170.056836 166.520557,162.933542 179.580135,150.189616 C180.07165,137.727124 172.863573,126.240638 161.427807,121.262834 C149.99204,116.285029 136.673432,118.836581 127.887133,127.688488 L127.889391,127.693002 Z" id="Shape" fill="url(#linearGradient-4)" fill-rule="nonzero"></path>
            </g>
        </g>
        <text id="创造者日报" font-family="PingFangSC-Semibold, PingFang SC" font-size="48" font-weight="500" letter-spacing="0.514285564" fill="#000000" fill-opacity="0.7">
            <tspan x="243" y="142">创造者日报</tspan>
        </text>
    </g>
</svg>