<svg width="121" height="35" xmlns="http://www.w3.org/2000/svg">
    <g fill-rule="nonzero" fill="none">
        <path d="M105.955 16.918c0 1.83.604 3.384 1.812 4.675 1.208 1.284 2.67 1.928 4.383 1.928 1.714 0 3.175-.644 4.383-1.928 1.207-1.29 1.811-2.845 1.811-4.675 0-1.824-.604-3.382-1.81-4.668-1.209-1.288-2.67-1.932-4.384-1.932-1.714 0-3.175.644-4.383 1.932-1.208 1.286-1.812 2.844-1.812 4.668zm0 15.846c0 .363-.122.675-.363.934a1.166 1.166 0 0 1-.876.387c-.339 0-.633-.13-.875-.387a1.329 1.329 0 0 1-.365-.934V16.918c0-2.55.848-4.73 2.541-6.533 1.693-1.806 3.738-2.708 6.133-2.708 2.394 0 4.44.902 6.132 2.708 1.693 1.804 2.54 3.984 2.54 6.533 0 2.556-.847 4.734-2.54 6.538-1.693 1.804-3.738 2.706-6.132 2.706-2.395 0-4.44-.902-6.133-2.706-.021-.022-.04-.042-.062-.068v9.376z" fill="#00AFA0"/>
        <path d="M101.008 4.092c0 .47-.167.871-.501 1.21a1.63 1.63 0 0 1-1.197.508c-.467 0-.863-.171-1.197-.508a1.669 1.669 0 0 1-.502-1.21c0-.47.169-.873.502-1.213.334-.336.73-.507 1.197-.507.463 0 .862.17 1.197.507.334.34.5.742.5 1.213z" fill="#FCDE32"/>
        <path d="M97.951 9.59c0-.378.132-.703.4-.972.266-.27.585-.404.959-.404.373 0 .692.134.958.404.268.269.4.594.4.971v16.495c0 .377-.132.7-.4.969a1.3 1.3 0 0 1-.958.404 1.3 1.3 0 0 1-.96-.404 1.324 1.324 0 0 1-.399-.969V9.59zM17.927 9.183c0-.36.123-.67.363-.926a1.15 1.15 0 0 1 .87-.385c.34 0 .63.128.872.385.24.257.36.566.36.926v1.44c1.727-1.833 3.781-2.75 6.164-2.75 1.2 0 2.304.22 3.31.655.187.075.356.192.51.343.234.262.353.574.353.934 0 .361-.12.669-.361.924a1.153 1.153 0 0 1-.87.384c-.196 0-.375-.041-.54-.13a5.796 5.796 0 0 0-2.402-.49c-1.707 0-3.16.638-4.36 1.915-1.202 1.275-1.803 2.82-1.803 4.63V24.9c0 .359-.122.667-.361.923a1.157 1.157 0 0 1-.871.385c-.34 0-.63-.129-.871-.385a1.306 1.306 0 0 1-.363-.923V9.183zM78.964 23.578c.316 0 .584.13.808.385.224.259.335.57.335.932 0 .36-.111.668-.335.926-.224.257-.492.386-.808.386-3.81 0-5.716-2.19-5.716-6.57v-9.2h-1.141c-.314 0-.584-.128-.807-.386a1.357 1.357 0 0 1-.337-.926c0-.361.112-.672.337-.929.223-.259.493-.386.807-.386h1.141V1.24c0-.363.114-.672.338-.928.222-.257.493-.385.806-.385.314 0 .582.128.808.385.224.256.335.565.335.928v6.57h2.301c.314 0 .583.127.808.386.224.257.335.568.335.929 0 .36-.111.669-.335.926-.225.258-.494.386-.808.386h-2.301v9.2c0 2.626 1.144 3.941 3.43 3.941M46.853 15.73c-.238-1.254-.837-2.363-1.79-3.322-1.27-1.277-2.805-1.916-4.607-1.916s-3.339.639-4.607 1.916c-.956.959-1.553 2.068-1.79 3.322h12.794zm-1.385 6.023c.36 0 .665.13.92.385.256.258.383.566.383.925 0 .36-.124.672-.375.933-1.68 1.472-3.662 2.21-5.94 2.21-2.517 0-4.667-.895-6.448-2.684-1.78-1.79-2.67-3.95-2.67-6.484 0-2.529.89-4.69 2.67-6.48 1.78-1.79 3.93-2.685 6.448-2.685 2.516 0 4.666.894 6.444 2.685 1.78 1.79 2.671 3.951 2.671 6.48 0 .362-.128.672-.381.927a1.255 1.255 0 0 1-.92.385H34.06c.236 1.254.833 2.363 1.789 3.324 1.268 1.274 2.805 1.912 4.607 1.912 1.627 0 3.027-.52 4.2-1.554a1.29 1.29 0 0 1 .812-.279zm15.16-11.261c-1.803 0-3.338.64-4.608 1.917-1.27 1.275-1.905 2.82-1.905 4.629 0 1.814.635 3.356 1.905 4.635 1.27 1.274 2.805 1.914 4.607 1.914s3.338-.64 4.608-1.914c1.27-1.28 1.903-2.82 1.903-4.635 0-1.81-.633-3.354-1.903-4.63-1.27-1.276-2.806-1.916-4.608-1.916zm6.51 12.964c-1.822 1.832-3.993 2.75-6.51 2.75-2.518 0-4.668-.895-6.448-2.683-1.78-1.79-2.669-3.951-2.669-6.485 0-2.529.89-4.69 2.67-6.48 1.779-1.79 3.929-2.686 6.446-2.686 2.518 0 4.668.896 6.446 2.686 1.78 1.79 2.67 3.951 2.67 6.48v7.86c0 .36-.127.668-.382.923a1.25 1.25 0 0 1-.92.386c-.359 0-.665-.129-.92-.386a1.259 1.259 0 0 1-.383-.923v-1.442zM82.545 9.183c0-.36.123-.67.363-.926a1.15 1.15 0 0 1 .87-.385c.34 0 .628.128.872.385.24.257.36.566.36.926v1.44c1.727-1.833 3.78-2.75 6.163-2.75 1.2 0 2.304.22 3.311.655.185.075.355.192.509.343.234.262.354.574.354.934 0 .361-.121.669-.362.924a1.154 1.154 0 0 1-.871.384c-.195 0-.376-.041-.54-.13a5.795 5.795 0 0 0-2.401-.49c-1.705 0-3.16.638-4.36 1.915-1.202 1.275-1.804 2.82-1.804 4.63V24.9c0 .359-.12.667-.36.923a1.16 1.16 0 0 1-.87.385c-.339 0-.63-.129-.871-.385a1.306 1.306 0 0 1-.363-.923V9.183zM15.275 21.722c.378 0 .705.127.976.382.27.26.405.567.405.929 0 .358-.145.68-.433.964-1.783 1.472-3.885 2.21-6.303 2.21-2.67 0-4.95-.896-6.838-2.684-1.89-1.79-2.833-3.95-2.833-6.485 0-2.529.944-4.69 2.833-6.48C4.97 8.768 7.25 7.872 9.92 7.872c2.418 0 4.52.737 6.303 2.21.322.273.485.612.485 1.015 0 .359-.134.67-.406.927-.27.256-.596.384-.977.384-.332 0-.626-.101-.879-.296-1.29-1.08-2.8-1.621-4.526-1.621-1.91 0-3.54.64-4.887 1.917-1.347 1.275-2.02 2.82-2.02 4.63 0 1.815.673 3.357 2.02 4.636 1.348 1.275 2.977 1.913 4.887 1.913 1.727 0 3.23-.535 4.507-1.603.242-.175.525-.262.848-.262" fill="#00AFA0"/>
    </g>
</svg>
