<svg xmlns="http://www.w3.org/2000/svg" viewBox="0 0 1224.83 672.18"><defs><style>.cls-1{fill:gray;}</style></defs><g id="Ebene_2" data-name="Ebene 2"><g id="Layer_1" data-name="Layer 1"><path class="cls-1" d="M2.36,668.83A9.12,9.12,0,0,1,0,662.12V592.65a9.12,9.12,0,0,1,2.36-6.71,9.07,9.07,0,0,1,6.71-2.36h25q14.28,0,24.6,5.22a36.57,36.57,0,0,1,15.78,15q5.47,9.82,5.46,23.5t-5.4,23.54A36,36,0,0,1,58.77,666q-10.31,5.22-24.72,5.22h-25A9.07,9.07,0,0,1,2.36,668.83Zm58.28-41.5q0-28.1-28-28.09H19.38v56.29h13.3Q60.64,655.53,60.64,627.33Z"/><path class="cls-1" d="M224.66,663.36a7.52,7.52,0,0,1-2.79,5.9,9.49,9.49,0,0,1-6.41,2.42,8.37,8.37,0,0,1-4.47-1.3,8.2,8.2,0,0,1-3.23-3.91l-6.58-14.67H159.05l-6.59,14.67a8.09,8.09,0,0,1-7.69,5.21,9.7,9.7,0,0,1-6.47-2.42,7.43,7.43,0,0,1-2.85-5.9,9.82,9.82,0,0,1,1-4L170,588.92a9.72,9.72,0,0,1,4.1-4.53,11.68,11.68,0,0,1,5.84-1.55,11.48,11.48,0,0,1,6,1.62,11,11,0,0,1,4.23,4.46l33.55,70.47A10,10,0,0,1,224.66,663.36Zm-59-26.22h29l-14.41-32.31Z"/><path class="cls-1" d="M296.79,669.2a9.29,9.29,0,0,1-2.67-7V599.37H274q-9.19,0-9.2-8t9.2-7.83h59.65q9.18,0,9.19,7.83t-9.19,8H313.51v62.87a9.37,9.37,0,0,1-2.62,7,10.83,10.83,0,0,1-14.1,0Z"/><path class="cls-1" d="M403.23,668.83a9.08,9.08,0,0,1-2.36-6.71V592.65a8.22,8.22,0,0,1,9.06-9.07h44q9.18,0,9.19,7.46t-9.19,7.58H419.75v20.5h31.69q9.19,0,9.19,7.58t-9.19,7.45H419.75v22h34.18q9.18,0,9.19,7.58t-9.19,7.46h-44A9.06,9.06,0,0,1,403.23,668.83Z"/><path class="cls-1" d="M597.76,585.64a9.59,9.59,0,0,1,2.54,6.89v69.71a9.78,9.78,0,0,1-2.54,7,8.75,8.75,0,0,1-6.65,2.68,9,9,0,0,1-7.21-3.23l-41.63-53.32v46.85a10.07,10.07,0,0,1-2.42,7,8.36,8.36,0,0,1-6.53,2.68,8.54,8.54,0,0,1-6.58-2.68,9.87,9.87,0,0,1-2.48-7V592.53a9.51,9.51,0,0,1,2.55-6.89,8.75,8.75,0,0,1,6.64-2.67,8.42,8.42,0,0,1,7.09,3.22l41.62,52.94v-46.6a9.68,9.68,0,0,1,2.48-6.89,8.43,8.43,0,0,1,6.47-2.67A8.78,8.78,0,0,1,597.76,585.64Z"/><path class="cls-1" d="M670.94,669.89a4.45,4.45,0,0,1-1.43-3.42V588.18a5.28,5.28,0,0,1,1.37-3.79,5.6,5.6,0,0,1,7.45,0,5.28,5.28,0,0,1,1.37,3.79v74.31h40.14a5,5,0,0,1,3.48,1.12,4.83,4.83,0,0,1,0,6.46,5.05,5.05,0,0,1-3.48,1.12H674.48A5,5,0,0,1,670.94,669.89Z"/><path class="cls-1" d="M797.31,666.71a35.87,35.87,0,0,1-13.85-15.53q-4.85-10.06-4.85-23.73t4.79-23.92A34.9,34.9,0,0,1,797.19,588q9-5.41,21.31-5.41T839.81,588a35,35,0,0,1,13.79,15.53q4.78,10.13,4.79,23.8t-4.85,23.79a35.81,35.81,0,0,1-13.85,15.59q-9,5.47-21.19,5.47T797.31,666.71Zm42.87-12.61q7.77-9.37,7.77-26.77t-7.7-26.73q-7.71-9.32-21.75-9.32t-21.68,9.39q-7.77,9.39-7.77,26.66T796.82,654q7.77,9.44,21.68,9.44T840.18,654.1Z"/><path class="cls-1" d="M943.57,670.38a5.1,5.1,0,0,1-1.43-3.79v-74.3H915.42a5,5,0,0,1-3.47-1.13,4.8,4.8,0,0,1,0-6.46,5,5,0,0,1,3.47-1.12h63.75a5.05,5.05,0,0,1,3.48,1.12,4.83,4.83,0,0,1,0,6.46,5,5,0,0,1-3.48,1.13H952.46v74.3a5.26,5.26,0,0,1-1.37,3.79,5,5,0,0,1-3.73,1.43A5.14,5.14,0,0,1,943.57,670.38Z"/><path class="cls-1" d="M1052.17,669.39a36.47,36.47,0,0,1-13.6-7.52,5.69,5.69,0,0,1-1.86-4.35,4.8,4.8,0,0,1,1-3,2.91,2.91,0,0,1,2.36-1.31,6,6,0,0,1,3.47,1.36,41.88,41.88,0,0,0,26.35,9q10.69,0,16.4-4.09t5.72-11.68a9.39,9.39,0,0,0-2.73-7,19.8,19.8,0,0,0-7.21-4.29A107.37,107.37,0,0,0,1070,633a116.89,116.89,0,0,1-16.71-5,26,26,0,0,1-10.56-7.45q-4-4.85-4-12.67a22.57,22.57,0,0,1,4-13.24,26.13,26.13,0,0,1,11.3-8.94,41.1,41.1,0,0,1,16.6-3.17,48.06,48.06,0,0,1,16.21,2.67,34.23,34.23,0,0,1,12.62,7.64,6.08,6.08,0,0,1,2,4.35,4.89,4.89,0,0,1-1,3,2.9,2.9,0,0,1-2.36,1.32,7.55,7.55,0,0,1-3.6-1.37,42.11,42.11,0,0,0-11.31-7,35.22,35.22,0,0,0-12.55-2q-10.32,0-16,4.29t-5.72,12q0,6.59,5,9.88c3.35,2.2,8.52,4.12,15.47,5.78q11.31,2.74,17.77,5a26.59,26.59,0,0,1,10.76,6.91q4.27,4.59,4.28,12.29a21.47,21.47,0,0,1-4,12.93,26.17,26.17,0,0,1-11.37,8.69,42.52,42.52,0,0,1-16.78,3.11A56.91,56.91,0,0,1,1052.17,669.39Z"/><path class="cls-1" d="M1169.85,669.82a4.74,4.74,0,0,1-1.44-3.61V588.56a4.74,4.74,0,0,1,1.44-3.61,5.22,5.22,0,0,1,3.78-1.37h46.48a5.05,5.05,0,0,1,3.48,1.12,4.52,4.52,0,0,1,0,6.22,5,5,0,0,1-3.48,1.11h-41.63v30.44h39.14a5,5,0,0,1,3.48,1.13,4.48,4.48,0,0,1,0,6.21,5,5,0,0,1-3.48,1.12h-39.14v31.81h41.63a5.19,5.19,0,0,1,3.48,1.06,3.91,3.91,0,0,1,1.24,3.16,4,4,0,0,1-1.24,3.11,5.05,5.05,0,0,1-3.48,1.12h-46.48A5.22,5.22,0,0,1,1169.85,669.82Z"/><path class="cls-1" d="M698.72,92.15a13.11,13.11,0,0,1-11,14.93A94.63,94.63,0,0,0,645,124.93a13,13,0,0,1-10,2.48,13.2,13.2,0,0,1-8.65-5.51,121,121,0,0,0-99.19-51.81c-66.52,0-120.71,54.19-120.71,120.82a120.94,120.94,0,0,0,6.06,37.74,13,13,0,0,1-8.87,16.77c-45,12.55-76.47,53.76-76.47,100.37a104.06,104.06,0,0,0,97.89,103.84c2.05.11,4.22.21,6.27.21a13.12,13.12,0,0,1,3.14,25.85,9.9,9.9,0,0,1-3.14.44,130.34,130.34,0,0,1-47.26-251.8,150.76,150.76,0,0,1-3.79-33.42c0-81.13,65.87-147,146.88-147A146.84,146.84,0,0,1,640,96.7,120.51,120.51,0,0,1,683.9,81.12,13,13,0,0,1,698.72,92.15Z"/><path class="cls-1" d="M909.09,345.79A130.52,130.52,0,0,1,778.76,476.13l-61.33,1H716a82,82,0,0,1-57.76-23.58A83.25,83.25,0,0,1,640,426.7a81.57,81.57,0,0,1-6.39-31.91V335.3a13.16,13.16,0,0,1,13.2-13.09h31.26L595.1,204l-83,118.22H543.4a13.07,13.07,0,0,1,13.09,13.09v58.95a82.2,82.2,0,0,1-84.37,82.31l-37.64-.87-6.6-.1A13.23,13.23,0,0,1,415,462.17a13.42,13.42,0,0,1,10.06-12.54,17.59,17.59,0,0,1,3.46-.33l44.24,1.08a55.68,55.68,0,0,0,40.56-16,46.78,46.78,0,0,0,5.73-6.6,55.51,55.51,0,0,0,11.14-33.53V348.5H486.83a13.17,13.17,0,0,1-11.57-7.14,13,13,0,0,1,.86-13.52L584.28,173.6a13.26,13.26,0,0,1,21.53,0L714,327.84a13,13,0,0,1,1,13.52,13.33,13.33,0,0,1-11.68,7.14H659.89v46.29a54.78,54.78,0,0,0,10.6,32.66,49.17,49.17,0,0,0,6.16,7.36,56,56,0,0,0,40.35,16l61.54-1a104.21,104.21,0,0,0,104.27-104c0-48.67-34.61-91.5-82.21-101.78a13.11,13.11,0,0,1,5.52-25.63C865.72,231.25,909.09,284.79,909.09,345.79Z"/><rect class="cls-1" x="716.76" y="77.47" width="39.64" height="37.1"/><rect class="cls-1" x="685.88" y="149.85" width="36.26" height="33.93"/><rect class="cls-1" x="746.17" y="164.1" width="46.41" height="43.43"/><rect class="cls-1" x="811.01" y="127.23" width="34.81" height="32.57"/><rect class="cls-1" x="788.97" y="53.26" width="37.71" height="35.29"/><rect class="cls-1" x="864.12" y="81.99" width="29.01" height="27.14"/><rect class="cls-1" x="740.54" width="28.27" height="26.46"/><rect class="cls-1" x="830.53" y="1.92" width="25.62" height="23.98"/></g></g></svg>