<svg xmlns="http://www.w3.org/2000/svg" xmlns:xlink="http://www.w3.org/1999/xlink" viewBox="0 0 254.42 105.81"><defs><style>.cls-1{fill:none;}.cls-2{clip-path:url(#clip-path);}.cls-3{fill:url(#Dégradé_sans_nom_2);}.cls-4{clip-path:url(#clip-path-2);}.cls-5{fill:#243345;}.cls-6{fill:#00a099;}</style><clipPath id="clip-path"><path class="cls-1" d="M47.23,0a7.61,7.61,0,0,0-3.76,1h0L3.85,23.66A7.65,7.65,0,0,0,0,30.3H0V75.51a7.67,7.67,0,0,0,3.85,6.64h0l39.62,22.66a7.62,7.62,0,0,0,3.8,1h0a7.68,7.68,0,0,0,3.8-1h0L90.68,82.15a7.67,7.67,0,0,0,3.85-6.64h0V30.3a7.64,7.64,0,0,0-3.86-6.64h0L51.06,1a7.78,7.78,0,0,0-3.77-1h-.06ZM44.58,102.86,5,80.2a5.42,5.42,0,0,1-2.72-4.69h0V30.3A5.44,5.44,0,0,1,5,25.61H5L44.58,3a5.48,5.48,0,0,1,2.68-.71h0A5.45,5.45,0,0,1,49.94,3h0L89.56,25.61a5.41,5.41,0,0,1,2.72,4.69h0V75.51a5.4,5.4,0,0,1-2.72,4.69h0L49.94,102.86a5.35,5.35,0,0,1-2.68.71h0a5.37,5.37,0,0,1-2.68-.71M36.78,27a1,1,0,0,0-1,1h0V45a6.19,6.19,0,0,0,6.17,6.2H58.72v7.05H47.32a1,1,0,0,0-1,1h0V81.42H37.79V54.62a1,1,0,0,0-1-1h0a1,1,0,0,0-1,1h0V82.43a1,1,0,0,0,1,1H47.33a1,1,0,0,0,1-1h0V60.26H59.68a1,1,0,0,0,1-.91V59.3h0V50.22a1,1,0,0,0-1-1H42A4.17,4.17,0,0,1,37.79,45h0v-16h23v7.5H47.33a1,1,0,0,0-1,1h0v6a1,1,0,0,0,1,1h0a1,1,0,0,0,1-1h0v-5H61.77a1,1,0,0,0,1-1h0V28a1,1,0,0,0-1-1h-25Z"/></clipPath><linearGradient id="Dégradé_sans_nom_2" x1="-170.54" y1="351.69" x2="-170.08" y2="351.69" gradientTransform="matrix(109.42, -189.52, -236.63, -136.62, 101951.56, 15879.02)" gradientUnits="userSpaceOnUse"><stop offset="0" stop-color="#b8e68d"/><stop offset="0.1" stop-color="#a0dd8f"/><stop offset="0.2" stop-color="#85d391"/><stop offset="0.3" stop-color="#6bc993"/><stop offset="0.4" stop-color="#50bf95"/><stop offset="0.5" stop-color="#35b597"/><stop offset="0.6" stop-color="#1bac99"/><stop offset="0.7" stop-color="#00a29b"/><stop offset="0.8" stop-color="#00a5ab"/><stop offset="0.9" stop-color="#00a9bb"/><stop offset="1" stop-color="#00acca"/></linearGradient><clipPath id="clip-path-2"><rect class="cls-1" width="254.42" height="105.81"/></clipPath></defs><title>Fichier 5</title><g id="Calque_2" data-name="Calque 2"><g id="Calque_1-2" data-name="Calque 1"><g id="Groupe_183" data-name="Groupe 183"><g class="cls-2"><g id="Groupe_152" data-name="Groupe 152"><g id="Groupe_151" data-name="Groupe 151"><path id="Tracé_155" data-name="Tracé 155" class="cls-3" d="M0,0H254.42V105.81H0Z"/></g></g></g><g class="cls-4"><g id="Groupe_180" data-name="Groupe 180"><g id="Groupe_153" data-name="Groupe 153"><path id="Tracé_157" data-name="Tracé 157" class="cls-5" d="M135.92,33.88H121a1.12,1.12,0,0,0-1.19,1V57.1a1.08,1.08,0,0,0,1,1.15h1.47a1.11,1.11,0,0,0,1.23-1,.49.49,0,0,0,0-.17V48.5h9.8a1.13,1.13,0,0,0,.89-.4,1.28,1.28,0,0,0,.29-.82V46a1.17,1.17,0,0,0-.38-.93,1.23,1.23,0,0,0-.8-.29h-9.8V37.61h12.44a1.15,1.15,0,0,0,.9-.39,1.2,1.2,0,0,0,.32-.83V35.11a1.13,1.13,0,0,0-1-1.23h-.19"/></g><g id="Groupe_154" data-name="Groupe 154"><path id="Tracé_158" data-name="Tracé 158" class="cls-5" d="M154.29,41.79h-.91a1.12,1.12,0,0,0-1,.4,1.56,1.56,0,0,0-.29.86l0,.32h0a5.37,5.37,0,0,0-1.09-.93,6.06,6.06,0,0,0-1.42-.64,6.37,6.37,0,0,0-1.84-.24,7.82,7.82,0,0,0-3.26.68A7.68,7.68,0,0,0,142,44.06a8.3,8.3,0,0,0-1.65,2.71,9.35,9.35,0,0,0-.58,3.31,9.12,9.12,0,0,0,.59,3.3,8.39,8.39,0,0,0,1.66,2.7,7.79,7.79,0,0,0,2.54,1.82,7.87,7.87,0,0,0,3.24.67,7,7,0,0,0,1.82-.22,5.62,5.62,0,0,0,1.42-.62,5.24,5.24,0,0,0,1-.85V57a1.41,1.41,0,0,0,.29.9,1.22,1.22,0,0,0,1,.4h1a1.44,1.44,0,0,0,.89-.29,1.11,1.11,0,0,0,.44-.89v-14a1.22,1.22,0,0,0-.43-1,1.35,1.35,0,0,0-.9-.33M152,50.12a6.47,6.47,0,0,1-.3,2,4.62,4.62,0,0,1-.84,1.52,3.89,3.89,0,0,1-1.32,1,4.64,4.64,0,0,1-3.62,0,4.2,4.2,0,0,1-1.39-1,4.39,4.39,0,0,1-.9-1.53,5.55,5.55,0,0,1-.32-1.93,6,6,0,0,1,.31-1.93h0a4.59,4.59,0,0,1,.88-1.55,4.13,4.13,0,0,1,1.4-1.05,4.26,4.26,0,0,1,1.83-.38,4,4,0,0,1,1.82.39,4,4,0,0,1,1.34,1,4.63,4.63,0,0,1,.82,1.57,6.77,6.77,0,0,1,.29,2"/></g><g id="Groupe_155" data-name="Groupe 155"><path id="Tracé_159" data-name="Tracé 159" class="cls-5" d="M165.85,36.18a2.42,2.42,0,0,0-.78-.52,2.45,2.45,0,0,0-1.95,0,2.38,2.38,0,0,0-.77.52,2.76,2.76,0,0,0-.53.78,2.45,2.45,0,0,0,0,1.94,2.86,2.86,0,0,0,.53.77,2.38,2.38,0,0,0,.77.52,2.12,2.12,0,0,0,1,.2,2.47,2.47,0,0,0,1.77-.73,2.32,2.32,0,0,0,.52-.78,2.37,2.37,0,0,0,.19-1,2.39,2.39,0,0,0-.71-1.75"/></g><g id="Groupe_156" data-name="Groupe 156"><path id="Tracé_160" data-name="Tracé 160" class="cls-5" d="M164.75,41.79h-1.31a1.13,1.13,0,0,0-1.2,1.18v14.1a1.11,1.11,0,0,0,1,1.19h1.49a1.27,1.27,0,0,0,.85-.3,1.16,1.16,0,0,0,.35-.88V43a1.17,1.17,0,0,0-.35-.86,1.22,1.22,0,0,0-.85-.32"/></g><g id="Groupe_157" data-name="Groupe 157"><path id="Tracé_161" data-name="Tracé 161" class="cls-5" d="M182,42.44a4.81,4.81,0,0,0-1.16-.63,4.57,4.57,0,0,0-3-.05,4.2,4.2,0,0,0-1.14.57,5.25,5.25,0,0,0-.62.53,1.21,1.21,0,0,0-1.21-1h-1.15a1.19,1.19,0,0,0-.82.32,1.13,1.13,0,0,0-.36.87v14a1.12,1.12,0,0,0,1,1.19h1.49a1.11,1.11,0,0,0,1.19-1V48.86a4.41,4.41,0,0,1,.2-1.3,4.24,4.24,0,0,1,.58-1.19,3.31,3.31,0,0,1,.87-.84,2,2,0,0,1,1-.3,2.82,2.82,0,0,1,.7.15,3,3,0,0,1,.67.33l.1,0a1.1,1.1,0,0,0,.35.11.86.86,0,0,0,.5-.08,1,1,0,0,0,.46-.47l.77-1.43a.65.65,0,0,0,.11-.22.93.93,0,0,0,0-.29,1.28,1.28,0,0,0-.62-.94"/></g><g id="Groupe_158" data-name="Groupe 158"><path id="Tracé_162" data-name="Tracé 162" class="cls-5" d="M200.3,43.59a6.56,6.56,0,0,0-4.83-2.07,4.87,4.87,0,0,0-1.51.24,6.45,6.45,0,0,0-1.34.6,6.76,6.76,0,0,0-1.14.85l-.11.1,0-.32a1.26,1.26,0,0,0-.36-.8,1.24,1.24,0,0,0-.85-.34H189a1.23,1.23,0,0,0-.83.32,1.16,1.16,0,0,0-.37.87v14a1.13,1.13,0,0,0,1.05,1.19h1.48a1.22,1.22,0,0,0,.84-.3,1.14,1.14,0,0,0,.34-.89v-8.6a3.05,3.05,0,0,1,.36-1.25,3.74,3.74,0,0,1,.84-1,3.84,3.84,0,0,1,1.14-.71,3.35,3.35,0,0,1,2.58,0,3.44,3.44,0,0,1,1.08.73,3.4,3.4,0,0,1,1,2.39V57a1.38,1.38,0,0,0,.24.88,1.11,1.11,0,0,0,.94.38h1.29a1.23,1.23,0,0,0,.87-.33,1.25,1.25,0,0,0,.38-1V48.58a7.73,7.73,0,0,0-.5-2.74,7,7,0,0,0-1.39-2.25"/></g><g id="Groupe_159" data-name="Groupe 159"><path id="Tracé_163" data-name="Tracé 163" class="cls-5" d="M220.71,43.81a7.94,7.94,0,0,0-2.4-1.7,7.29,7.29,0,0,0-6,.06A8.06,8.06,0,0,0,209.76,44a8.52,8.52,0,0,0-1.69,2.72,9,9,0,0,0,1.69,9.36,7.88,7.88,0,0,0,2.52,1.84,7.37,7.37,0,0,0,3.1.68,8.22,8.22,0,0,0,1.41-.14,10,10,0,0,0,1.43-.36,8,8,0,0,0,1.35-.57,6.47,6.47,0,0,0,1.11-.7,2.32,2.32,0,0,0,.47-.42,1.17,1.17,0,0,0,.28-.76,1.12,1.12,0,0,0-.21-.61l-.65-1.1a1,1,0,0,0-.45-.38,1.35,1.35,0,0,0-1.16.06,2.2,2.2,0,0,0-.58.37,2.24,2.24,0,0,1-.58.43,5.32,5.32,0,0,1-.78.32,5.87,5.87,0,0,1-.83.19,4.36,4.36,0,0,1-2.29-.23h0a4.17,4.17,0,0,1-1.25-.78,4.58,4.58,0,0,1-.94-1.21,5.15,5.15,0,0,1-.39-1h9.07a8.11,8.11,0,0,0,.86,0,2.45,2.45,0,0,0,.83-.27,1.68,1.68,0,0,0,.62-.62,2,2,0,0,0,.23-1v-.36a8,8,0,0,0-.6-3.09,8.18,8.18,0,0,0-1.62-2.52m-1.57,4.61h-7.66a6,6,0,0,1,.41-.93,5.42,5.42,0,0,1,.93-1.25,4,4,0,0,1,1.17-.83,3.12,3.12,0,0,1,2.64,0,4.52,4.52,0,0,1,1.2.83,4.88,4.88,0,0,1,.92,1.24,5.17,5.17,0,0,1,.39.94"/></g><g id="Groupe_160" data-name="Groupe 160"><path id="Tracé_164" data-name="Tracé 164" class="cls-5" d="M232.88,48.05l-.18,0a7.41,7.41,0,0,1-.8-.25,3.49,3.49,0,0,1-.72-.37,1.65,1.65,0,0,1-.47-.48.9.9,0,0,1-.15-.55,1,1,0,0,1,.13-.51,1.46,1.46,0,0,1,.4-.49,2,2,0,0,1,.64-.36,2.55,2.55,0,0,1,.87-.13,2,2,0,0,1,1.19.36,4.6,4.6,0,0,1,1,1,2,2,0,0,1,.14.23,2,2,0,0,0,.18.23.71.71,0,0,0,.35.24,1.07,1.07,0,0,0,.89-.07l.37-.21a4.44,4.44,0,0,0,.38-.27l.3-.21a1.66,1.66,0,0,0,.3-.22.8.8,0,0,0,.26-.58,1.22,1.22,0,0,0,0-.26,1.14,1.14,0,0,0-.15-.34,8.55,8.55,0,0,0-.91-1.34,5.09,5.09,0,0,0-1.13-1,5,5,0,0,0-1.41-.68,6.27,6.27,0,0,0-1.72-.24,7,7,0,0,0-2.22.36,5.61,5.61,0,0,0-1.76,1,4.69,4.69,0,0,0-1.15,1.57,4.82,4.82,0,0,0-.42,2,4.59,4.59,0,0,0,.38,1.86,4.78,4.78,0,0,0,1,1.48,6.14,6.14,0,0,0,1.58,1.1,11,11,0,0,0,2,.74c.42.12.82.24,1.19.38a4.77,4.77,0,0,1,.94.45,1.83,1.83,0,0,1,.58.53,1.09,1.09,0,0,1,.18.61,1,1,0,0,1-.18.58,1.75,1.75,0,0,1-.55.5,2.82,2.82,0,0,1-.82.35,3,3,0,0,1-1.56,0,3.15,3.15,0,0,1-.73-.25,2.51,2.51,0,0,1-.67-.44,1.54,1.54,0,0,1-.4-.61,1.53,1.53,0,0,0-.36-.6.91.91,0,0,0-1-.19l-1.59.64-.1.06a.93.93,0,0,0-.4.6,1.1,1.1,0,0,0,.05.54,4.3,4.3,0,0,0,.89,1.69,5.71,5.71,0,0,0,1.4,1.19,6.76,6.76,0,0,0,1.72.7,7.15,7.15,0,0,0,1.84.24,8.06,8.06,0,0,0,2.38-.34,5.9,5.9,0,0,0,1.93-1,4.59,4.59,0,0,0,1.3-1.6,4.69,4.69,0,0,0,.47-2.12A4.54,4.54,0,0,0,237,50a8.86,8.86,0,0,0-4.09-2"/></g><g id="Groupe_161" data-name="Groupe 161"><path id="Tracé_165" data-name="Tracé 165" class="cls-5" d="M252.87,50a8.82,8.82,0,0,0-4.08-2l-.18,0a8.36,8.36,0,0,1-.81-.25,3.68,3.68,0,0,1-.71-.37,1.65,1.65,0,0,1-.47-.48,1,1,0,0,1-.16-.55,1.11,1.11,0,0,1,.14-.51,1.46,1.46,0,0,1,.4-.49,2,2,0,0,1,.64-.36,2.55,2.55,0,0,1,.87-.13,1.9,1.9,0,0,1,1.19.36,4.55,4.55,0,0,1,1,.94l.14.23a1.08,1.08,0,0,0,.18.24.79.79,0,0,0,.35.24,1.07,1.07,0,0,0,.89-.07,2.71,2.71,0,0,0,.37-.21,4.44,4.44,0,0,0,.38-.27l.3-.21a2.1,2.1,0,0,0,.3-.22.76.76,0,0,0,.25-.58,2.11,2.11,0,0,0,0-.26,1.3,1.3,0,0,0-.15-.34,8.55,8.55,0,0,0-.91-1.34,5.92,5.92,0,0,0-1.13-1.05,4.94,4.94,0,0,0-1.41-.67,5.9,5.9,0,0,0-1.72-.23,6.52,6.52,0,0,0-2.23.36,5.45,5.45,0,0,0-1.75,1,4.69,4.69,0,0,0-1.15,1.57,4.86,4.86,0,0,0-.42,2,4.59,4.59,0,0,0,.38,1.86,4.78,4.78,0,0,0,1,1.48,6.14,6.14,0,0,0,1.58,1.1,10.72,10.72,0,0,0,2,.74c.42.12.81.24,1.19.38a4.27,4.27,0,0,1,.94.45,2,2,0,0,1,.58.52,1,1,0,0,1,.17.62,1,1,0,0,1-.18.58,1.88,1.88,0,0,1-.54.51,3.57,3.57,0,0,1-.83.35,3,3,0,0,1-1.55,0,3.36,3.36,0,0,1-.74-.24,3,3,0,0,1-.66-.45,1.54,1.54,0,0,1-.4-.61,1.61,1.61,0,0,0-.36-.6.89.89,0,0,0-1-.19l-1.6.65-.1,0a.88.88,0,0,0-.39.6,1.15,1.15,0,0,0,.05.55,4.33,4.33,0,0,0,.89,1.68h0a5.71,5.71,0,0,0,1.4,1.19,6.76,6.76,0,0,0,1.72.7,7.13,7.13,0,0,0,1.83.24,8,8,0,0,0,2.38-.34,5.94,5.94,0,0,0,1.94-1,4.71,4.71,0,0,0,1.3-1.6,4.82,4.82,0,0,0,.47-2.11A4.55,4.55,0,0,0,252.87,50"/></g><g id="Groupe_162" data-name="Groupe 162"><path id="Tracé_166" data-name="Tracé 166" class="cls-6" d="M123.76,67.74a2.26,2.26,0,0,0-1.86.84,4.4,4.4,0,0,0,0,4.65,2.3,2.3,0,0,0,1.89.79,5.07,5.07,0,0,0,1-.11c.33-.07.68-.16,1-.27v1.18a6.58,6.58,0,0,1-2.24.37,3.56,3.56,0,0,1-2.83-1.12,4.64,4.64,0,0,1-1-3.19,5.17,5.17,0,0,1,.47-2.29,3.5,3.5,0,0,1,1.39-1.51,4.28,4.28,0,0,1,2.13-.52,5.41,5.41,0,0,1,2.37.54l-.49,1.15a7,7,0,0,0-.9-.36,3.3,3.3,0,0,0-1-.15"/></g><g id="Groupe_163" data-name="Groupe 163"><path id="Tracé_167" data-name="Tracé 167" class="cls-6" d="M133.48,71.89a3.52,3.52,0,0,1-.8,2.43,2.89,2.89,0,0,1-2.22.87,3.1,3.1,0,0,1-1.58-.4,2.72,2.72,0,0,1-1-1.15,3.93,3.93,0,0,1-.36-1.75,3.4,3.4,0,0,1,.79-2.41,2.86,2.86,0,0,1,2.23-.87,2.8,2.8,0,0,1,2.18.89,3.46,3.46,0,0,1,.81,2.39m-4.62,0c0,1.47.54,2.2,1.62,2.2s1.61-.73,1.61-2.2-.54-2.18-1.62-2.18a1.38,1.38,0,0,0-1.23.57,2.84,2.84,0,0,0-.39,1.61"/></g><g id="Groupe_164" data-name="Groupe 164"><path id="Tracé_168" data-name="Tracé 168" class="cls-6" d="M141,75.07H139.6v-3.9a1.66,1.66,0,0,0-.3-1.1,1.13,1.13,0,0,0-.93-.36,1.48,1.48,0,0,0-1.25.51,2.71,2.71,0,0,0-.4,1.69v3.16h-1.34V68.73h1.05l.19.83h.07a1.89,1.89,0,0,1,.81-.7,2.81,2.81,0,0,1,1.18-.25A2,2,0,0,1,141,70.36a1.88,1.88,0,0,1,0,.58Z"/></g><g id="Groupe_165" data-name="Groupe 165"><path id="Tracé_169" data-name="Tracé 169" class="cls-6" d="M145.75,75.19a2.8,2.8,0,0,1-2.19-.84,4.27,4.27,0,0,1,0-4.88,2.94,2.94,0,0,1,2.27-.86,4.3,4.3,0,0,1,1.8.37l-.4,1.09a4.09,4.09,0,0,0-1.42-.33c-1.09,0-1.64.73-1.64,2.18a2.57,2.57,0,0,0,.41,1.6,1.41,1.41,0,0,0,1.2.54,3.38,3.38,0,0,0,1.7-.45v1.18a2.68,2.68,0,0,1-.77.3,4.23,4.23,0,0,1-1,.09"/></g><g id="Groupe_166" data-name="Groupe 166"><path id="Tracé_170" data-name="Tracé 170" class="cls-6" d="M152.12,75.19a3.08,3.08,0,0,1-2.32-.87A3.27,3.27,0,0,1,149,72a3.6,3.6,0,0,1,.77-2.45,2.69,2.69,0,0,1,2.13-.89,2.61,2.61,0,0,1,2,.77,2.87,2.87,0,0,1,.72,2.1v.72h-4.22a2,2,0,0,0,.5,1.42,1.72,1.72,0,0,0,1.32.5,4.68,4.68,0,0,0,1-.11,5.53,5.53,0,0,0,1-.35v1.1a3.91,3.91,0,0,1-1,.33,5.59,5.59,0,0,1-1.15.1m-.25-5.56a1.38,1.38,0,0,0-1,.41,2,2,0,0,0-.46,1.19h2.88a1.7,1.7,0,0,0-.38-1.19,1.29,1.29,0,0,0-1-.41"/></g><g id="Groupe_167" data-name="Groupe 167"><path id="Tracé_171" data-name="Tracé 171" class="cls-6" d="M157.9,75.07l-2.41-6.34h1.43l1.29,3.69a7.53,7.53,0,0,1,.4,1.5h0a8.74,8.74,0,0,1,.4-1.5l1.29-3.69h1.43l-2.42,6.34Z"/></g><g id="Groupe_168" data-name="Groupe 168"><path id="Tracé_172" data-name="Tracé 172" class="cls-6" d="M168.72,71.89a3.52,3.52,0,0,1-.8,2.43,2.89,2.89,0,0,1-2.22.87,3.06,3.06,0,0,1-1.57-.4,2.62,2.62,0,0,1-1-1.16,3.87,3.87,0,0,1-.37-1.74,3.44,3.44,0,0,1,.79-2.41,2.87,2.87,0,0,1,2.23-.87,2.81,2.81,0,0,1,2.19.89,3.47,3.47,0,0,1,.8,2.39m-4.62,0c0,1.47.54,2.2,1.62,2.2s1.61-.73,1.61-2.2-.54-2.18-1.62-2.18a1.39,1.39,0,0,0-1.23.57,2.83,2.83,0,0,0-.38,1.61"/></g><g id="Groupe_169" data-name="Groupe 169"><path id="Tracé_173" data-name="Tracé 173" class="cls-6" d="M170.54,67.05a.69.69,0,0,1,.76-.76.75.75,0,0,1,.55.2.86.86,0,0,1,0,1.1.75.75,0,0,1-.55.2.76.76,0,0,1-.56-.2.73.73,0,0,1-.2-.54m1.43,8h-1.35V68.73H172Z"/></g><g id="Groupe_170" data-name="Groupe 170"><path id="Tracé_174" data-name="Tracé 174" class="cls-6" d="M177.47,68.61a3.79,3.79,0,0,1,.67.06L178,69.93a2.46,2.46,0,0,0-.6-.07,1.69,1.69,0,0,0-1.31.53,1.83,1.83,0,0,0-.5,1.37v3.31h-1.35V68.73h1.06l.17,1.12h.07a2.4,2.4,0,0,1,.83-.9,1.93,1.93,0,0,1,1.09-.34"/></g><g id="Groupe_171" data-name="Groupe 171"><path id="Tracé_175" data-name="Tracé 175" class="cls-6" d="M186.28,68.61a3.79,3.79,0,0,1,.67.06l-.13,1.26a2.46,2.46,0,0,0-.6-.07,1.71,1.71,0,0,0-1.31.53,1.91,1.91,0,0,0-.5,1.37v3.31h-1.35V68.73h1.06l.18,1.12h.07a2.29,2.29,0,0,1,.82-.9,1.93,1.93,0,0,1,1.09-.34"/></g><g id="Groupe_172" data-name="Groupe 172"><path id="Tracé_176" data-name="Tracé 176" class="cls-6" d="M191.24,75.19a3.08,3.08,0,0,1-2.32-.87,3.27,3.27,0,0,1-.83-2.37,3.6,3.6,0,0,1,.77-2.45,2.69,2.69,0,0,1,2.13-.89,2.61,2.61,0,0,1,2,.77,2.87,2.87,0,0,1,.72,2.1v.72h-4.22a2,2,0,0,0,.5,1.42,1.72,1.72,0,0,0,1.32.5,4.68,4.68,0,0,0,1-.11,5.53,5.53,0,0,0,1-.35v1.1a3.91,3.91,0,0,1-1,.33,5.59,5.59,0,0,1-1.15.1M191,69.63a1.38,1.38,0,0,0-1,.41,2,2,0,0,0-.46,1.19h2.88A1.7,1.7,0,0,0,192,70a1.29,1.29,0,0,0-1-.41"/></g><g id="Groupe_173" data-name="Groupe 173"><path id="Tracé_177" data-name="Tracé 177" class="cls-6" d="M199.84,73.27a1.64,1.64,0,0,1-.67,1.42,3.25,3.25,0,0,1-1.94.5,4.61,4.61,0,0,1-2-.38V73.64a5,5,0,0,0,2.08.51c.83,0,1.25-.25,1.25-.75a.65.65,0,0,0-.14-.4,1.45,1.45,0,0,0-.45-.33,7.61,7.61,0,0,0-.88-.39,4.25,4.25,0,0,1-1.49-.85,1.57,1.57,0,0,1-.38-1.1,1.46,1.46,0,0,1,.65-1.27,3.21,3.21,0,0,1,1.79-.45,5.19,5.19,0,0,1,2.12.46l-.44,1a4.67,4.67,0,0,0-1.72-.42c-.72,0-1.07.2-1.07.61a.61.61,0,0,0,.28.5,6.69,6.69,0,0,0,1.21.57,5.48,5.48,0,0,1,1.14.56,1.56,1.56,0,0,1,.53.58,1.63,1.63,0,0,1,.17.79"/></g><g id="Groupe_174" data-name="Groupe 174"><path id="Tracé_178" data-name="Tracé 178" class="cls-6" d="M204.87,75.19a2.23,2.23,0,0,1-1.87-.87h-.08c.05.53.08.86.08,1v2.6h-1.35V68.73h1.09c0,.12.1.4.19.85H203a2.11,2.11,0,0,1,1.89-1,2.21,2.21,0,0,1,1.85.86,3.86,3.86,0,0,1,.67,2.42,3.91,3.91,0,0,1-.68,2.43,2.23,2.23,0,0,1-1.86.87m-.33-5.48a1.43,1.43,0,0,0-1.17.47,2.49,2.49,0,0,0-.37,1.5v.2a2.89,2.89,0,0,0,.37,1.68,1.35,1.35,0,0,0,1.2.52,1.2,1.2,0,0,0,1.07-.57,2.81,2.81,0,0,0,.38-1.63,2.85,2.85,0,0,0-.37-1.62,1.28,1.28,0,0,0-1.1-.55"/></g><g id="Groupe_175" data-name="Groupe 175"><path id="Tracé_179" data-name="Tracé 179" class="cls-6" d="M214.94,71.89a3.42,3.42,0,0,1-.8,2.43,2.86,2.86,0,0,1-2.22.87,3.09,3.09,0,0,1-1.57-.4,2.65,2.65,0,0,1-1-1.15,3.93,3.93,0,0,1-.36-1.75,3.4,3.4,0,0,1,.79-2.41,2.86,2.86,0,0,1,2.23-.87,2.8,2.8,0,0,1,2.18.89,3.37,3.37,0,0,1,.8,2.39m-4.61,0c0,1.47.54,2.2,1.62,2.2s1.61-.73,1.61-2.2-.54-2.18-1.62-2.18a1.38,1.38,0,0,0-1.23.57,2.84,2.84,0,0,0-.39,1.61"/></g><g id="Groupe_176" data-name="Groupe 176"><path id="Tracé_180" data-name="Tracé 180" class="cls-6" d="M222.43,75.07h-1.36v-3.9a1.66,1.66,0,0,0-.3-1.1,1.13,1.13,0,0,0-.93-.36,1.51,1.51,0,0,0-1.26.51,2.78,2.78,0,0,0-.4,1.69v3.16h-1.34V68.73h1.06l.19.83h.07a1.84,1.84,0,0,1,.81-.7,2.8,2.8,0,0,1,1.17-.25,2,2,0,0,1,2.29,1.75,1.88,1.88,0,0,1,0,.58Z"/></g><g id="Groupe_177" data-name="Groupe 177"><path id="Tracé_181" data-name="Tracé 181" class="cls-6" d="M228.92,73.27a1.65,1.65,0,0,1-.68,1.42,3.21,3.21,0,0,1-1.94.5,4.56,4.56,0,0,1-2-.38V73.64a5,5,0,0,0,2.08.51c.83,0,1.24-.25,1.24-.75a.58.58,0,0,0-.13-.4,1.5,1.5,0,0,0-.46-.33,6.79,6.79,0,0,0-.87-.39,4.25,4.25,0,0,1-1.49-.85,1.57,1.57,0,0,1-.38-1.1,1.46,1.46,0,0,1,.65-1.27,3.21,3.21,0,0,1,1.79-.45,5.19,5.19,0,0,1,2.12.46l-.44,1a4.68,4.68,0,0,0-1.73-.42c-.71,0-1.06.2-1.06.61a.6.6,0,0,0,.27.5,6.78,6.78,0,0,0,1.22.57,5.48,5.48,0,0,1,1.14.56,1.56,1.56,0,0,1,.53.58,1.63,1.63,0,0,1,.17.79"/></g><g id="Groupe_178" data-name="Groupe 178"><path id="Tracé_182" data-name="Tracé 182" class="cls-6" d="M234.7,75.07l-.27-.88h-.05a2.6,2.6,0,0,1-.92.79,3,3,0,0,1-1.19.21,2,2,0,0,1-1.46-.51,1.89,1.89,0,0,1-.53-1.43,1.7,1.7,0,0,1,.73-1.48,4.2,4.2,0,0,1,2.22-.54l1.1,0v-.34a1.3,1.3,0,0,0-.28-.91,1.19,1.19,0,0,0-.88-.3,3,3,0,0,0-.94.15,5.69,5.69,0,0,0-.86.34l-.44-1a5.1,5.1,0,0,1,1.13-.41,5.66,5.66,0,0,1,1.16-.14,2.74,2.74,0,0,1,1.83.53,2,2,0,0,1,.61,1.66v4.27Zm-2-.92a1.64,1.64,0,0,0,1.18-.41,1.5,1.5,0,0,0,.45-1.15V72l-.82,0a2.65,2.65,0,0,0-1.38.32,1,1,0,0,0-.44.87.85.85,0,0,0,.26.65,1.07,1.07,0,0,0,.75.23"/></g><g id="Groupe_179" data-name="Groupe 179"><path id="Tracé_183" data-name="Tracé 183" class="cls-6" d="M241.13,68.61a2.22,2.22,0,0,1,1.85.86,4.75,4.75,0,0,1,0,4.85,2.43,2.43,0,0,1-3.73,0h-.1l-.24.76h-1V66.15h1.35v2.12c0,.16,0,.39,0,.7s0,.51,0,.59h.06a2.13,2.13,0,0,1,1.89-1m-.35,1.1a1.39,1.39,0,0,0-1.18.48,2.78,2.78,0,0,0-.36,1.6v.1a3,3,0,0,0,.36,1.68,1.39,1.39,0,0,0,1.2.52,1.22,1.22,0,0,0,1.09-.57,3,3,0,0,0,.37-1.64c0-1.44-.49-2.17-1.48-2.16"/></g></g></g><path id="Tracé_185" data-name="Tracé 185" class="cls-6" d="M246.9,75.07h-1.35V66.14h1.35Z"/><g class="cls-4"><g id="Groupe_182" data-name="Groupe 182"><g id="Groupe_181" data-name="Groupe 181"><path id="Tracé_186" data-name="Tracé 186" class="cls-6" d="M252,75.19a3.08,3.08,0,0,1-2.32-.87A3.27,3.27,0,0,1,248.8,72a3.6,3.6,0,0,1,.77-2.45,2.7,2.7,0,0,1,2.13-.89,2.61,2.61,0,0,1,2,.77,2.93,2.93,0,0,1,.73,2.1v.72h-4.23a2,2,0,0,0,.5,1.42,1.72,1.72,0,0,0,1.32.5,4.57,4.57,0,0,0,1.05-.11,5.3,5.3,0,0,0,1-.35v1.1a3.91,3.91,0,0,1-1,.33,5.53,5.53,0,0,1-1.15.1m-.25-5.56a1.38,1.38,0,0,0-1,.41,2,2,0,0,0-.46,1.19h2.88a1.7,1.7,0,0,0-.38-1.19,1.29,1.29,0,0,0-1-.41"/></g></g></g></g></g></g></svg>