<svg width="88" height="35" viewBox="0 0 88 35" fill="none" xmlns="http://www.w3.org/2000/svg">
<path d="M3.43055 10.5966C5.311 10.5966 6.8611 12.1212 6.8611 14.0271C6.8611 15.9076 5.33641 17.4577 3.43055 17.4577C1.5501 17.4577 0 15.933 0 14.0271C0.0254115 12.1212 1.5501 10.5966 3.43055 10.5966Z" fill="#4A37FF"/>
<path fill-rule="evenodd" clip-rule="evenodd" d="M8.15702 8.36038C8.15702 3.30349 11.3589 0 16.3395 0V0.0254116H22.5145L20.4054 5.59053H16.3395C15.5009 5.59053 14.2812 6.14958 14.2812 8.46203V10.9269H20.4054V16.9495H14.2812L14.2304 34.1022H8.1062L8.15702 16.1363V10.9269V8.36038ZM37.4057 23.9885V10.927H43.479V25.2336C43.479 30.1126 40.023 34.1022 33.5685 34.1022C27.114 34.1022 23.658 30.1126 23.658 25.2336V10.927H29.7314V23.9885C29.7314 24.0065 29.731 24.03 29.7306 24.0587L29.7306 24.0592C29.72 24.7611 29.6635 28.5117 33.5685 28.5117C37.4736 28.5117 37.417 24.7611 37.4064 24.0592L37.4064 24.0587C37.406 24.03 37.4057 24.0065 37.4057 23.9885ZM61.9786 22.3113C60.8351 21.0916 59.2088 20.2276 57.1504 19.7447L54.101 19.1095C53.3641 18.957 52.1698 18.525 52.1698 17.1528C52.1698 16.5175 52.4239 16.0093 52.9321 15.6535C53.4658 15.2215 54.101 15.0182 54.8634 15.0182C57.4808 15.0182 58.2939 16.7716 58.5226 17.8135L58.5989 18.1692L63.4271 16.8224C63.4271 16.8224 63.0713 14.7641 61.9786 13.3411C60.9113 11.9688 58.853 10.2917 54.8634 10.2408C52.5764 10.2408 50.5943 10.9524 49.0442 12.4008C47.4432 13.8747 46.6555 15.5773 46.6555 17.5848C46.6555 20.9391 48.9171 23.3786 52.8305 24.268L55.6511 24.9287C57.7349 25.4369 58.0144 26.3263 58.0144 27.0378C58.0144 28.4609 56.998 29.2741 55.2446 29.2741C53.11 29.2741 51.5853 28.0543 51.1279 26.0214L51.0517 25.6402L46.1472 26.9362C46.1472 26.9362 46.503 29.2741 47.7228 30.7733C48.663 31.9423 50.823 33.9752 55.2954 34.0514C61.14 34.0514 63.7828 30.2651 63.7828 26.7583C63.7066 25.132 63.1221 23.6073 61.9786 22.3113ZM76.7427 10.2663C80.3003 10.2663 82.9939 11.359 84.976 13.5698C86.9581 15.7297 87.9746 18.6266 88 22.1588C88 22.7179 87.9492 23.2769 87.8983 23.7089L87.8729 24.0393H71.0251C71.33 26.8346 74.0745 29.1724 77.1493 29.1216C79.7921 29.1216 81.2405 28.1051 82.0537 26.9362L86.8819 28.7658C85.7892 30.7733 83.9087 32.4251 81.5963 33.3145C80.097 33.8481 78.674 34.1022 77.1747 34.1022H76.946C73.8458 34.1022 70.8218 32.8571 68.611 30.6463C66.324 28.3592 65.1042 25.3607 65.1805 22.1842C65.1805 20.0497 65.6633 18.0676 66.6543 16.238C67.6962 14.3575 69.0684 12.9345 70.8218 11.8926C72.6006 10.7999 74.5827 10.2663 76.7427 10.2663ZM73.0834 16.5429C72.194 17.3052 71.5842 18.2963 71.33 19.516H82.1299C81.9775 18.2709 81.4692 17.2798 80.5544 16.4921C79.5125 15.6789 78.242 15.2469 76.7681 15.2469C75.3196 15.2469 74.0745 15.6789 73.0834 16.5429Z" fill="black"/>
</svg>
