<?xml version="1.0" encoding="UTF-8"?>
<svg width="474px" height="112px" viewBox="0 0 474 112" xmlns="http://www.w3.org/2000/svg" xmlns:xlink="http://www.w3.org/1999/xlink">
    <title>growthmill</title>
    <g id="Site" stroke="none" stroke-width="1" fill="none" fill-rule="evenodd">
        <g id="growthmill" fill="#063E49" fill-rule="nonzero">
            <path d="M1.51244416,92.9297297 C0.604977664,90.2054054 0,87.4810811 0,84.4540541 L0,84.4540541 L55.0529675,84.4540541 L55.0529675,84.4540541 C55.0529675,91.7189189 52.330568,98.6810811 46.885769,103.827027 C41.7434588,108.972973 34.7862157,112 27.5264837,112 C15.7294193,112 5.14231015,104.432432 1.51244416,92.9297297 Z M27.8289726,23.9135135 L55.0529675,23.9135135 L55.0529675,52.0648649 C55.0529675,67.2 42.9534142,79.3081081 27.8289726,79.6108108 C12.4020421,79.6108108 0,67.2 0,51.7621622 C0,36.3243243 12.4020421,23.9135135 27.8289726,23.9135135 Z M101.636248,70.5297297 C96.4939375,65.3837838 93.4690491,58.1189189 93.4690491,50.5513514 C93.1665603,42.9837838 96.1914486,36.0216216 101.636248,30.572973 C106.778558,25.1243243 114.03829,22.4 121.298022,22.4 C128.860243,22.4 135.817486,25.1243243 140.959796,30.572973 C146.404595,35.7189189 149.126994,42.9837838 149.126994,50.5513514 C149.429483,58.1189189 146.404595,65.0810811 140.959796,70.5297297 C135.817486,75.6756757 128.557754,78.7027027 121.298022,78.7027027 C114.03829,79.0054054 106.778558,75.9783784 101.636248,70.5297297 L101.636248,70.5297297 Z M111.31589,40.2594595 C108.593491,42.9837838 107.081047,46.9189189 107.383535,50.8540541 C107.383535,54.7891892 108.593491,58.4216216 111.31589,61.4486486 C114.03829,64.172973 117.668156,65.6864865 121.600511,65.6864865 C125.532865,65.6864865 129.162731,64.172973 131.885131,61.4486486 C134.60753,58.7243243 136.119974,54.7891892 136.119974,50.8540541 C136.119974,46.9189189 134.910019,43.2864865 131.885131,40.2594595 C129.162731,37.5351351 125.532865,36.0216216 121.600511,36.0216216 C117.668156,36.0216216 113.735801,37.5351351 111.31589,40.2594595 Z M241.386088,74.7675676 C237.453733,72.0432432 235.6388,66.8972973 235.6388,59.6324324 L235.6388,37.5351351 L228.681557,37.5351351 L228.681557,24.2162162 L235.6388,24.2162162 L235.6388,13.6216216 L249.250798,9.38378378 L249.250798,24.2162162 L261.047862,24.2162162 L261.047862,37.2324324 L249.250798,37.2324324 L249.250798,59.3297297 C249.250798,60.8432432 249.553287,62.3567568 250.763242,63.2648649 C251.973197,64.172973 253.183153,64.7783784 254.695597,64.7783784 C256.813019,64.7783784 258.93044,64.7783784 261.047862,64.7783784 L261.047862,77.1891892 C258.627951,77.4918919 256.51053,77.4918919 254.090619,77.4918919 C249.553287,78.0972973 245.318443,76.8864865 241.386088,74.7675676 L241.386088,74.7675676 Z M460.388003,77.1891892 L460.388003,0 L474,0 L474,77.1891892 L460.388003,77.1891892 Z M436.491385,77.1891892 L436.491385,0 L450.103382,0 L450.103382,77.1891892 L436.491385,77.1891892 Z M412.594767,77.1891892 L412.594767,24.2162162 L426.206765,24.2162162 L426.206765,77.1891892 L412.594767,77.1891892 Z M389.605616,77.1891892 L389.605616,45.7081081 C389.908105,42.9837838 389.000638,40.2594595 387.185705,38.4432432 C385.673261,36.627027 383.25335,35.7189189 380.530951,35.7189189 C377.808551,35.7189189 375.086152,36.627027 373.271219,38.7459459 C371.456286,41.1675676 370.548819,44.4972973 370.851308,47.5243243 L370.851308,77.1891892 L357.239311,77.1891892 L357.239311,45.7081081 C357.5418,42.9837838 356.634333,40.2594595 354.8194,38.4432432 C353.306956,36.627027 350.887045,35.7189189 348.467135,35.7189189 C345.744735,35.7189189 343.022336,36.627027 341.207403,38.7459459 C339.39247,41.1675676 338.182514,44.4972973 338.485003,47.5243243 L338.485003,77.1891892 L324.873006,77.1891892 L324.873006,24.2162162 L338.485003,24.2162162 L338.485003,29.9675676 C341.81238,25.1243243 347.257179,22.4 353.004467,23.0054054 C358.751755,22.7027027 364.196554,25.7297297 367.221442,30.572973 C370.851308,25.427027 376.598596,22.7027027 382.950862,23.0054054 C388.39566,22.7027027 393.537971,24.8216216 397.470325,29.0594595 C401.100191,33.6 403.217613,39.0486486 402.915124,44.8 L402.915124,77.4918919 L389.605616,77.1891892 Z M304.001276,77.1891892 L304.001276,46.6162162 C304.303765,43.5891892 303.09381,40.8648649 301.278877,38.4432432 C299.161455,36.627027 296.439056,35.4162162 293.716656,35.7189189 C290.691768,35.7189189 287.666879,36.627027 285.246969,39.0486486 C282.827058,41.772973 281.919592,45.4054054 282.22208,48.7351351 L282.22208,77.1891892 L268.610083,77.1891892 L268.610083,3.02702703 L282.22208,3.02702703 L282.22208,30.2702703 C285.851946,25.1243243 291.599234,22.4 297.9515,22.7027027 C303.396299,22.4 308.538609,24.5189189 312.168475,28.4540541 C316.10083,32.9945946 318.218251,38.7459459 317.915763,44.4972973 L317.915763,76.8864865 L304.001276,77.1891892 Z M196.315252,77.1891892 L186.635609,45.1027027 L176.955967,77.1891892 L163.948947,77.1891892 L147.312061,24.2162162 L161.831525,24.2162162 L170.603701,56.6054054 L180.283344,24.2162162 L192.987875,24.2162162 L202.667518,56.9081081 L211.439694,24.2162162 L225.959158,24.2162162 L209.322272,77.1891892 L196.315252,77.1891892 Z M63.2201659,77.1891892 L63.2201659,24.2162162 L76.8321634,24.2162162 L76.8321634,33.2972973 C78.0421187,29.9675676 80.1595405,27.2432432 83.1844288,25.7297297 C86.2093172,23.9135135 89.5366943,23.0054054 92.8640715,23.3081081 L92.8640715,38.4432432 C88.9317167,37.8378378 84.9993618,38.7459459 81.6719847,40.8648649 C78.3446075,43.2864865 76.5296745,47.5243243 76.8321634,51.7621622 L76.8321634,77.1891892 L63.2201659,77.1891892 Z M413.502234,15.4378378 C411.989789,13.9243243 411.082323,11.8054054 411.082323,9.68648649 C411.082323,7.56756757 411.989789,5.44864865 413.502234,3.63243243 C415.014678,2.11891892 417.1321,1.21081081 419.249521,1.21081081 C421.366943,1.21081081 423.786854,2.11891892 425.299298,3.63243243 C426.811742,5.14594595 427.719209,7.26486486 427.719209,9.68648649 C427.719209,11.8054054 426.811742,13.9243243 425.299298,15.4378378 C423.786854,16.9513514 421.669432,17.8594595 419.249521,17.8594595 C417.1321,17.8594595 415.014678,17.2540541 413.502234,15.4378378 L413.502234,15.4378378 Z" id="Union_16"></path>
        </g>
    </g>
</svg>
