<?xml version="1.0" encoding="UTF-8"?>
<svg xmlns="http://www.w3.org/2000/svg" xmlns:xlink="http://www.w3.org/1999/xlink" width="78pt" height="40pt" viewBox="0 0 78 40" version="1.1">
<defs>
<clipPath id="clip1">
  <path d="M 36 2 L 52 2 L 52 39.933594 L 36 39.933594 Z M 36 2 "/>
</clipPath>
<clipPath id="clip2">
  <path d="M 27 2 L 43 2 L 43 39.933594 L 27 39.933594 Z M 27 2 "/>
</clipPath>
<clipPath id="clip3">
  <path d="M 13 2 L 34 2 L 34 39.933594 L 13 39.933594 Z M 13 2 "/>
</clipPath>
<clipPath id="clip4">
  <path d="M 0 2 L 16 2 L 16 39.933594 L 0 39.933594 Z M 0 2 "/>
</clipPath>
<clipPath id="clip5">
  <path d="M 44 12 L 77 12 L 77 39.933594 L 44 39.933594 Z M 44 12 "/>
</clipPath>
<clipPath id="clip6">
  <path d="M 72 37 L 78 37 L 78 39.933594 L 72 39.933594 Z M 72 37 "/>
</clipPath>
</defs>
<g id="surface1">
<g clip-path="url(#clip1)" clip-rule="nonzero">
<path style=" stroke:none;fill-rule:nonzero;fill:rgb(88.627451%,2.352941%,7.45098%);fill-opacity:1;" d="M 50.472656 9.320312 L 43.179688 9.320312 L 44.496094 2.847656 L 51.800781 2.847656 Z M 42.46875 12.6875 L 49.761719 12.6875 L 44.074219 39.828125 L 36.773438 39.828125 Z M 42.46875 12.6875 "/>
</g>
<g clip-path="url(#clip2)" clip-rule="nonzero">
<path style=" stroke:none;fill-rule:nonzero;fill:rgb(88.627451%,2.352941%,7.45098%);fill-opacity:1;" d="M 34.582031 39.828125 L 27.394531 39.828125 L 35.171875 2.847656 L 42.375 2.847656 Z M 34.582031 39.828125 "/>
</g>
<g clip-path="url(#clip3)" clip-rule="nonzero">
<path style=" stroke:none;fill-rule:nonzero;fill:rgb(88.627451%,2.352941%,7.45098%);fill-opacity:1;" d="M 33.046875 2.847656 L 31.8125 8.644531 L 29.789062 8.644531 C 28.730469 8.644531 27.363281 8.835938 26.847656 10.714844 C 26.699219 11.265625 26.597656 11.664062 26.371094 12.6875 L 31.097656 12.6875 L 29.976562 18.035156 L 25.253906 18.035156 L 20.683594 39.828125 L 13.492188 39.828125 L 18.082031 18.035156 L 14.074219 18.035156 L 15.1875 12.6875 L 19.128906 12.6875 L 19.425781 11.28125 C 21.109375 2.847656 26.042969 2.726562 30.242188 2.726562 C 30.707031 2.726562 33.046875 2.847656 33.046875 2.847656 "/>
</g>
<g clip-path="url(#clip4)" clip-rule="nonzero">
<path style=" stroke:none;fill-rule:nonzero;fill:rgb(88.627451%,2.352941%,7.45098%);fill-opacity:1;" d="M 13.859375 9.320312 L 6.566406 9.320312 L 7.894531 2.847656 L 15.1875 2.847656 Z M 5.839844 12.6875 L 13.15625 12.6875 L 7.457031 39.828125 L 0.167969 39.828125 Z M 5.839844 12.6875 "/>
</g>
<g clip-path="url(#clip5)" clip-rule="nonzero">
<path style=" stroke:none;fill-rule:nonzero;fill:rgb(88.627451%,2.352941%,7.45098%);fill-opacity:1;" d="M 59.902344 34.742188 L 61.722656 39.828125 L 70.539062 39.828125 L 65.445312 28.414062 Z M 76.324219 12.6875 L 67.765625 12.6875 L 61.570312 20.769531 L 58.582031 12.6875 L 49.761719 12.6875 L 55.925781 26.304688 L 44.074219 39.828125 L 52.632812 39.828125 Z M 76.324219 12.6875 "/>
</g>
<g clip-path="url(#clip6)" clip-rule="nonzero">
<path style=" stroke:none;fill-rule:nonzero;fill:rgb(88.627451%,2.352941%,7.45098%);fill-opacity:1;" d="M 75.910156 37.621094 L 76.140625 39.191406 L 77.023438 37.621094 L 77.65625 37.621094 L 77.1875 39.828125 L 76.796875 39.828125 L 77.160156 38.039062 L 76.1875 39.828125 L 75.835938 39.828125 L 75.601562 38.039062 L 75.230469 39.828125 L 74.824219 39.828125 L 75.289062 37.621094 Z M 72.984375 37.984375 L 73.0625 37.621094 L 74.921875 37.621094 L 74.84375 37.984375 L 74.128906 37.984375 L 73.738281 39.828125 L 73.304688 39.828125 L 73.691406 37.984375 Z M 72.984375 37.984375 "/>
</g>
</g>
</svg>
