<svg width="100" height="22" viewBox="0 0 100 22" fill="none" xmlns="http://www.w3.org/2000/svg">
<g clip-path="url(#clip0_248_4274)">
<path d="M19.0158 21.0582C19.0158 21.0582 18.9547 21.0582 18.9139 21.0582C16.8554 20.8544 15.2147 19.2137 15.0211 17.1552C15.0109 17.0126 15.0007 16.8699 15.0007 16.7374V1.40063H18.6591V16.3298C18.6591 16.9209 19.1381 17.3896 19.719 17.3896H29.5121C30.093 17.3896 30.5719 16.9107 30.5719 16.3298V1.40063H34.2303V16.7272C34.2303 16.8699 34.2303 17.0126 34.2099 17.1451C34.0163 19.2035 32.3756 20.8442 30.3172 21.048C30.2764 21.048 30.2458 21.048 30.2051 21.048H18.9954L19.0158 21.0582Z" fill="#6C38FF"/>
<path d="M64.425 21.2416C64.425 21.2416 64.3638 21.2416 64.3231 21.2416C62.2238 21.0378 60.5526 19.3665 60.3488 17.2673C60.3386 17.1246 60.3284 16.9819 60.3284 16.8393V5.18125C60.3284 5.02839 60.3284 4.88572 60.3488 4.74306C60.5526 2.65399 62.2238 0.982737 64.3129 0.778926C64.4555 0.758545 64.5982 0.758545 64.7511 0.758545H73.5557C73.5557 0.758545 73.6271 0.758545 73.6576 0.758545C76.246 0.809498 78.5083 2.38904 79.4357 4.8042C79.721 5.52773 79.8637 6.29202 79.8637 7.0767C79.8637 10.5007 77.0817 13.3337 73.6678 13.3948C73.6271 13.3948 73.5965 13.3948 73.5557 13.3948H66.8605V9.65491H73.9022V9.63453C75.176 9.46129 76.1339 8.38109 76.1339 7.0767C76.1339 5.7723 75.1658 4.68191 73.9022 4.51886V4.49848H65.1383C64.5473 4.49848 64.0581 4.97744 64.0581 5.56849V16.4316C64.0581 17.0227 64.5371 17.5118 65.1383 17.5118H74.9926V21.2416H64.4148H64.425Z" fill="#6C38FF"/>
<path d="M83.3994 21.0581V17.3997H94.069C95.3224 17.3997 96.3517 16.3705 96.3517 15.117C96.3517 13.8636 95.3326 12.8343 94.069 12.8343H88.6986C88.0158 12.8343 87.3534 12.7222 86.7216 12.4981C85.0401 11.907 83.6848 10.5517 83.0937 8.88041C82.8695 8.24859 82.7574 7.57601 82.7574 6.89325C82.7574 6.21048 82.8695 5.54809 83.0937 4.91628C83.6848 3.23483 85.0401 1.87949 86.7216 1.28844C87.3534 1.06424 88.026 0.952148 88.6986 0.952148H98.1146V4.61056H88.6986C87.4451 4.61056 86.4159 5.62962 86.4159 6.89325C86.4159 8.15688 87.4349 9.17593 88.6986 9.17593H94.069C94.7518 9.17593 95.4141 9.28803 96.046 9.51222C97.7274 10.1033 99.0828 11.4586 99.6738 13.1299C99.8572 13.6394 99.9693 14.1795 99.9999 14.7298V15.5043C99.9693 16.0342 99.8572 16.5743 99.6738 17.094C99.0828 18.7653 97.7274 20.1206 96.046 20.7116C95.4141 20.9358 94.7416 21.0479 94.069 21.0479H83.3994V21.0581Z" fill="#6C38FF"/>
<path d="M38.0415 21.058C38.0415 21.058 38.0415 4.68181 38.0415 4.61047H41.6999V21.058H38.0415Z" fill="#6C38FF"/>
<path d="M57.4034 4.85513C57.1996 2.80683 55.5691 1.16615 53.5106 0.97253C53.3781 0.962339 53.2252 0.952148 53.0826 0.952148H45.3581C43.3404 0.952148 41.6997 2.59283 41.6997 4.61056H53.7653V21.0581H57.4237V5.28314C57.4237 5.13028 57.4237 4.98761 57.4034 4.84494V4.85513Z" fill="#6C38FF"/>
<path d="M3.65829 17.3998V1.16626H-0.00012207V16.7272C-0.00012207 16.8699 -0.00012207 17.0126 0.0202591 17.1451C0.21388 19.2036 1.85456 20.8442 3.91306 21.048C3.94363 21.048 3.98439 21.048 4.01496 21.048L12.1063 21.0277V17.3896H3.65829V17.3998Z" fill="#6C38FF"/>
</g>
<defs>
<clipPath id="clip0_248_4274">
<rect width="100" height="20.483" fill="white" transform="translate(0 0.758545)"/>
</clipPath>
</defs>
</svg>
