<?xml version="1.0" encoding="utf-8"?>
<!-- Generator: Adobe Illustrator 21.0.2, SVG Export Plug-In . SVG Version: 6.00 Build 0)  -->
<svg version="1.1" id="Layer_1" xmlns="http://www.w3.org/2000/svg" xmlns:xlink="http://www.w3.org/1999/xlink" x="0px" y="0px"
	 viewBox="0 0 1024 865" style="enable-background:new 0 0 1024 865;" xml:space="preserve">
<style type="text/css">
	.st0{fill:#FF6600;}
</style>
<g>
	<path class="st0" d="M322.4,629.6c0-16.7-4.4-29.8-41.1-29.8c-36.8,0-41.3,13.1-41.3,29.8V661c0,16.8,4.4,29.9,41.3,29.9
		c36.7,0,41.1-13.1,41.1-29.9V629.6z M308.6,659.2c0,12.3-1.6,20.8-27.3,20.8c-25.6,0-27.4-8.5-27.4-20.8v-27.6
		c0-12.3,1.8-20.8,27.4-20.8c25.6,0,27.3,8.5,27.3,20.8V659.2z"/>
	<path class="st0" d="M525.5,599.8c-15.8,0-24.5,4.6-28.7,11.4v-27.4h-13.8v105.9h13.8v-55.6c0-15.8,6.8-22.5,26.2-22.5
		c23.9,0,26.4,7.4,26.4,21.7v56.4H563v-58.9C563,613.3,558.1,599.8,525.5,599.8z"/>
	<rect x="623.9" y="600.9" class="st0" width="13.8" height="88.8"/>
	<path class="st0" d="M431.1,687.9v-10.7c-5.3,1.3-11.8,2.6-19,2.6c-10.5,0-17.5-3.9-17.5-14.2V612h23v-11.1h-36.9v65.4
		c0,18.4,13.6,24.5,29.7,24.5C417.5,690.8,426.4,689.4,431.1,687.9z"/>
	<path class="st0" d="M176.6,631.5v58.2h13.8v-60.1c0-16.7-4.4-29.8-41.1-29.8c-36.8,0-41.3,13.1-41.3,29.8v60.1h13.8v-58.2
		c0-12.3,1.8-20.8,27.5-20.8C174.9,610.7,176.6,619.2,176.6,631.5z"/>
	<path class="st0" d="M738.5,599.8c-36.8,0-41.3,13.1-41.3,29.8v60.1H711v-58.2c0-12.3,1.9-20.8,27.5-20.8
		c25.6,0,27.3,8.5,27.3,20.8v58.2h13.8v-60.1C779.6,612.9,775.1,599.8,738.5,599.8z"/>
	<path class="st0" d="M880,641.6v11.1h22.1v6.5c0,12.3-1.7,20.8-27.3,20.8c-25.6,0-27.5-8.5-27.5-20.8v-27.6
		c0-12.3,1.9-20.8,27.5-20.8c19.6,0,25.2,4.9,26.7,12.8h14.1c-1.4-13.7-8.8-23.6-40.8-23.6c-36.8,0-41.3,13.1-41.3,29.8V661
		c0,16.8,4.4,29.9,41.3,29.9c36.7,0,41.1-13.1,41.1-29.9l0.1-19.4H880z"/>
	<path class="st0" d="M318.5,308.6c185.3,0,211.1,139.8,416.2,139.8c0-179.4-108.6-270.5-108.6-270.5s-44.9,9.1-90.9,78.2
		c30.1-30,57.2-52.9,84.3-61.7c73.4,80.3,74.5,216.2,74.5,216.2c-96.9,0-156.5-237.4-357.2-237.4c0,0-78.1,109.4-78,269
		c33.2,0,125.4-12.1,197.6-88.8c-56.1,41.3-138.8,66.1-178.9,65C282.5,388.3,294.8,336,318.5,308.6z"/>
	<path class="st0" d="M690.3,177.4c13.2,0,23.9-10.7,23.9-23.9c0-13.2-10.7-23.9-23.9-23.9c-13.2,0-23.9,10.7-23.9,23.9
		C666.5,166.7,677.2,177.4,690.3,177.4z"/>
	<path class="st0" d="M643.9,115.2c4.7,0,8.5-3.8,8.5-8.5c0-4.7-3.8-8.5-8.5-8.5c-4.7,0-8.5,3.8-8.5,8.5
		C635.4,111.4,639.2,115.2,643.9,115.2z"/>
	<path class="st0" d="M744.8,165.9c6.9,0,12.4-5.5,12.4-12.4c0-6.9-5.6-12.4-12.4-12.4c-6.9,0-12.4,5.6-12.4,12.4
		C732.3,160.4,737.9,165.9,744.8,165.9z"/>
</g>
</svg>
