<?xml version="1.0" encoding="UTF-8"?><svg id="a" xmlns="http://www.w3.org/2000/svg" viewBox="0 0 1920 1080"><defs><style>.b{fill:#0c0c0c;}</style></defs><path class="b" d="M713.05,603.25c-25.53,0-37.95-17.25-37.95-42.55v-74.75h25.07v67.16c0,21.39,7.36,31.05,22.31,31.05s22.54-10.58,22.54-29.44v-68.77h25.07v115h-24.38v-22.54h-.46c-4.83,15.87-15.64,24.84-32.2,24.84Z"/><path class="b" d="M828.94,603.25c-23.92,0-40.71-14.95-40.71-35.88,0-23.69,20.7-32.43,46.23-35.19l29.21-2.99v-3.45c0-15.41-8.74-23.46-23.23-23.46s-22.31,7.13-23,20.01h-25.07c.92-22.31,18.86-38.64,48.53-38.64s47.84,15.64,47.84,46.69v70.61h-24.15v-22.54h-.69c-4.83,15.87-17.71,24.84-34.96,24.84Zm6.44-18.63c17.94,0,28.29-12.19,28.29-34.04v-3.91l-25.07,2.76c-15.18,1.61-23.92,7.13-23.92,18.17s9.66,17.02,20.7,17.02Z"/><path class="b" d="M914.09,442.25h25.07v158.7h-25.07v-158.7Z"/><path class="b" d="M964.99,467.78v-25.53h26.68v25.53h-26.68Zm.69,133.17v-115h25.07v115h-25.07Z"/><path class="b" d="M1027.46,600.95v-96.37h-19.09v-18.63h19.09v-18.63c0-16.79,9.2-25.07,27.14-25.07h24.38v18.63h-14.26c-8.74,0-12.19,2.76-12.19,12.42v12.65h27.37v18.63h-27.37v96.37h-25.07Z"/><path class="b" d="M1124.27,640.05l17.71-52.44h-20.7l-35.19-101.66h25.3l32.89,94.99,31.97-94.99h25.07l-52.21,154.1h-24.84Z"/><path class="b" d="M1208.67,600.95v-17.94l57.5-78.43h-56.12v-18.63h86.71v17.94l-57.5,78.43h59.8v18.63h-90.39Z"/><path class="b" d="M1359.12,603.25c-34.27,0-54.28-28.06-54.28-59.8s19.55-59.8,53.82-59.8,56.81,27.83,53.36,67.85h-82.11c1.15,20.93,13.34,33.12,30.82,33.12,14.95,0,21.39-10.12,24.15-19.32h25.07c-4.83,22.77-22.77,37.95-50.83,37.95Zm-28.98-70.38h56.81c-1.61-18.63-11.5-30.59-28.29-30.59s-26.91,11.96-28.52,30.59Z"/><path d="M592.21,603.16v-.48c39.97-4.62,65.83-38.63,65.83-81.08,0-45.31-30.59-81.65-75.21-81.65s-75.21,36.34-75.21,81.65,29.03,79.75,71.78,81.56v23.4h80.48v-23.4h-67.67Zm-57.22-81.56c0-36.57,19.78-60.26,47.84-60.26s48.07,23.69,48.07,60.26-20.2,60.26-48.07,60.26-47.84-23.92-47.84-60.26Z"/></svg>