<svg xmlns="http://www.w3.org/2000/svg" viewBox="0 0 100 24"><path d="M37.8 14.1c.3 1 1.2 1.8 2.8 1.8 1.8 0 2.6-1 2.6-2.1v-.2c0-1.3-1-1.7-2.7-2-2.1-.3-4-1.1-4-3.4V8c0-2 1.3-3.4 4-3.4 2.4 0 3.8 1.2 4.1 2.8l-1.5.5c-.2-1-.9-1.8-2.6-1.8-1.7 0-2.4.9-2.4 2v.1c0 1.3 1 1.7 2.7 2 2 .3 4 .8 4 3.3v.5c0 2-1.5 3.5-4.3 3.5-2.4 0-3.9-1.2-4.4-2.7l1.7-.7zM51.6 17.4c-2.8 0-4.5-1.7-4.5-4.6V9.1c0-2.8 1.7-4.6 4.5-4.6 2.2 0 3.8 1.1 4.2 2.8l-1.6.5c-.3-1-1.1-1.8-2.7-1.8-1.8 0-2.8 1.1-2.8 3.3v3.2c0 2.2 1 3.3 2.8 3.3 1.6 0 2.4-.7 2.7-1.8l1.5.5c-.4 1.7-1.8 2.9-4.1 2.9M58.2 14.2v-13l1.7-.2v12.4c0 1.8.1 2.4.6 3.4l-1.4.7c-.6-1-.9-1.9-.9-3.3M66.5 16c1.3 0 2.4-.6 3.1-1.6v-2.7h-3c-1.6 0-2.5.5-2.5 2.1-.1 1.6 1 2.2 2.4 2.2zm4.7-2.7c0 1.8.1 2.4.6 3.4l-1.4.7c-.3-.4-.5-.9-.6-1.3-.8.8-2.1 1.3-3.4 1.3-2.5 0-4.1-1.1-4.1-3.6 0-2.8 1.7-3.5 4.2-3.5h3V8.9c0-2-.8-2.8-2.6-2.8-1.5 0-2.4.7-2.7 1.8l-1.5-.5c.4-1.5 2-2.8 4.2-2.8 2.8 0 4.3 1.3 4.3 4v4.7zM76 15.3c.8.4 1.8.5 2.8.5 1.8 0 2.8-1.1 2.8-3.3V9.2c0-2.1-.7-3.2-2.5-3.2-1.2 0-2.4 1-3 1.9v7.4zM74.3 1.2L76 1v5c.9-.9 2-1.5 3.2-1.5 2.6 0 4 1.6 4 4.4v3.9c0 2.8-1.7 4.6-4.4 4.6-1.9 0-3.3-.4-4.4-1.2v-15zM86.2 14.2v-13l1.7-.2v12.4c0 1.8.1 2.4.6 3.4l-1.4.7c-.7-1-.9-1.9-.9-3.3M98.2 10.1v-.8c0-2.2-1-3.3-2.8-3.3-1.8 0-2.8 1.1-2.8 3.3v.8h5.6zm-7.3-1c0-2.8 1.7-4.6 4.5-4.6s4.5 1.7 4.5 4.6v2.5h-7.3v1c0 2.2 1 3.3 2.8 3.3 1.6 0 2.4-.8 2.7-1.8l1.5.5c-.5 1.6-1.9 2.8-4.2 2.8-2.8 0-4.5-1.7-4.5-4.6V9.1zM22.6 0H4.1l-.8.8v9.4H0V12h3.3v7.3l.8.8h7.3v3.3h1.7v-3.3h9.4l.8-.8V.8l-.7-.8zM11.5 18.4H5V12h6.5v6.4zm10.2 0h-8.6v-7.3l-.8-.8H5V1.7h16.8v16.7z"></path></svg>
