<svg width="117" height="31" xmlns="http://www.w3.org/2000/svg" role="img" aria-labelledby="logo-title">
						<title id="logo-title">Sitepen Logo</title>
						<g fill="none" fill-rule="evenodd">
							<g fill="#1adddf" class="logo">
								<path d="M18 11.4l-5.6.6L6 18.4c-1.2 1.2-2.6.7-2.4 1l6.2-.5 6.7-6.8c.5-.4 1-.7 1.6-.8z" opacity=".4"></path>
								<path d="M14.5 1L1 14.4C-.4 15.8-.4 17.8 1 19 2 20.4 4 20.4 5.4 19L19 5.6c1.3-1.3 1.3-3.3 0-4.6C18-.4 16-.4 14.6 1zM3 25.5c-1.3 1.3-1.3 3.3 0 4.6C4 31.4 6 31.4 7.4 30L21 16.6c1.3-1.3 1.3-3.3 0-4.6-1.2-1.3-3.2-1.3-4.5 0L3 25.4z"></path>
							</g>
							<g fill="#333" class="logoType">
								<path d="M37 23c1 .5 2.3 1 3.8 1 3.3 0 5-1.7 5-4 0-2-1-3.2-3.4-4-2-.8-2.7-1.3-2.7-2.4 0-1 .8-2 2.3-2 1.4 0 2.3.6 3 1l.4-1.8c-.7-.5-2-.8-3.3-.8-3 0-4.6 1.7-4.6 4 0 1.5 1 2.8 3.6 3.7 2 .7 2.6 1.3 2.6 2.5 0 1-1 2-2.7 2-1.4 0-2.7-.5-3.4-1L37 23zM50.6 24V10.5h-2.3V24h2.3zm-1-19c-1 0-1.6.7-1.6 1.5S48.6 8 49.4 8c1 0 1.5-.7 1.5-1.5 0-1-.7-1.5-1.5-1.5zM55 7.7v2.6h-2V12h2v7.4c0 1.8.4 3 1 3.6.6.6 1.5 1 2.7 1 1 0 1.7-.3 2.2-.4l-.2-1.6-1.5.2c-1.3 0-1.8-1-1.8-2.7V12H61v-1.7h-3.5V7l-2.4.7zM74 17.3v-1c0-2.5-1-6.3-5.5-6.3-4 0-6.5 3-6.5 7 0 4.4 2.5 7 6.8 7 2.2 0 3.7-.5 4.6-.8l-.5-1.7c-1 .4-2 .7-4 .7-2.4 0-4.6-1.4-4.7-5H74zm-9.6-1.7c.2-1.7 1.3-4 4-4s3.4 2.5 3.4 4h-7.4zM76 29.3h2.4V22c1 1.2 2.6 2 4.5 2 3.3 0 6-2.3 6-7.3 0-4-2.2-6.7-5.7-6.7-2.3 0-4 .8-5 2.4l-.2-2.2h-2v19.1zM78.5 16c0-.4 0-.7.2-1 .5-2 2.2-3.3 4-3.3 2.7 0 4.2 2.4 4.2 5 0 3.3-1.6 5.5-4.3 5.5-2 0-3.5-1.2-4-3V16zM103 17.3v-1c0-2.5-1-6.3-5.5-6.3-4 0-6.5 3-6.5 7 0 4.4 2.5 7 6.8 7 2.2 0 3.7-.5 4.6-.8l-.5-1.7c-1 .4-2 .7-4 .7-2.4 0-4.6-1.4-4.7-5h9.7zm-9.6-1.7c.2-1.7 1.3-4 4-4s3.4 2.5 3.4 4h-7.4zM105 23.7h2.4v-8.3c0-.4 0-.8.2-1 .5-1.5 1.8-2.7 3.5-2.7 2.5 0 3.3 2 3.3 4v8h2.3v-8.2c0-4.5-2.8-5.5-4.7-5.5-2.4 0-4 1-4.7 2.2l-.2-2h-2V23.6z"></path>
							</g>
						</g>
					</svg>