<?xml version="1.0" encoding="UTF-8"?>
<svg xmlns="http://www.w3.org/2000/svg" xmlns:xlink="http://www.w3.org/1999/xlink" width="206px" height="150px" viewBox="0 0 206 150" version="1.1">
<defs>
<linearGradient id="linear0" gradientUnits="userSpaceOnUse" x1="-51.0516" y1="1009.4677" x2="63.1564" y2="885.4277" gradientTransform="matrix(0.465562,0,0,-0.465626,130.113034,508.506744)">
<stop offset="0" style="stop-color:rgb(0.392157%,52.54902%,96.078431%);stop-opacity:1;"/>
<stop offset="0.132" style="stop-color:rgb(0.392157%,52.54902%,96.078431%);stop-opacity:1;"/>
<stop offset="0.315" style="stop-color:rgb(20.784314%,76.078431%,69.019608%);stop-opacity:1;"/>
<stop offset="0.667" style="stop-color:rgb(66.666667%,84.705882%,14.509804%);stop-opacity:1;"/>
<stop offset="1" style="stop-color:rgb(99.607843%,84.313725%,0%);stop-opacity:1;"/>
</linearGradient>
<linearGradient id="linear1" gradientUnits="userSpaceOnUse" x1="-143.1823" y1="895.2856" x2="-142.2443" y2="973.1306" gradientTransform="matrix(0.465562,0,0,-0.465626,130.113034,508.506744)">
<stop offset="0" style="stop-color:rgb(100%,49.803922%,0%);stop-opacity:1;"/>
<stop offset="1" style="stop-color:rgb(99.607843%,0.784314%,0.392157%);stop-opacity:1;"/>
</linearGradient>
<linearGradient id="linear2" gradientUnits="userSpaceOnUse" x1="-28.1606" y1="1057.6093" x2="97.9244" y2="1055.1892" gradientTransform="matrix(0.465562,0,0,-0.465626,130.113034,508.506744)">
<stop offset="0" style="stop-color:rgb(0.392157%,52.54902%,96.078431%);stop-opacity:1;"/>
<stop offset="0.198" style="stop-color:rgb(0.392157%,52.54902%,96.078431%);stop-opacity:1;"/>
<stop offset="1" style="stop-color:rgb(19.215686%,33.72549%,99.215686%);stop-opacity:1;"/>
</linearGradient>
<linearGradient id="linear3" gradientUnits="userSpaceOnUse" x1="117.2051" y1="993.1558" x2="128.8271" y2="1016.0868" gradientTransform="matrix(0.465562,0,0,-0.465626,130.113034,508.506744)">
<stop offset="0" style="stop-color:rgb(51.764706%,20.392157%,83.529412%);stop-opacity:1;"/>
<stop offset="0.854" style="stop-color:rgb(19.215686%,33.72549%,99.215686%);stop-opacity:1;"/>
<stop offset="1" style="stop-color:rgb(19.215686%,33.72549%,99.215686%);stop-opacity:1;"/>
</linearGradient>
<linearGradient id="linear4" gradientUnits="userSpaceOnUse" x1="91.6399" y1="987.6484" x2="-5.1671" y2="983.0624" gradientTransform="matrix(0.465562,0,0,-0.465626,130.113034,508.506744)">
<stop offset="0" style="stop-color:rgb(51.764706%,20.392157%,83.529412%);stop-opacity:1;"/>
<stop offset="1" style="stop-color:rgb(99.607843%,0.784314%,0.392157%);stop-opacity:1;"/>
</linearGradient>
</defs>
<g id="surface1">
<path style=" stroke:none;fill-rule:nonzero;fill:url(#linear0);" d="M 112.773438 13.542969 C 106.414062 18.601562 100.316406 25.3125 96.773438 32.652344 C 89.496094 47.742188 93.535156 61.605469 96.644531 70.609375 C 100.886719 82.863281 109.488281 89.058594 119.730469 93.570312 C 134.335938 100.011719 152.710938 100.449219 169.382812 96.136719 C 175.253906 94.625 184.386719 91.457031 186.375 88.511719 C 188.535156 85.324219 188.867188 79.152344 184.234375 76.449219 C 179.722656 73.800781 179.285156 75.820312 165.8125 78.8125 C 156.445312 80.890625 146.222656 81.257812 133.933594 75.953125 C 126.183594 72.605469 120.949219 67.476562 119.152344 60.457031 C 114.011719 40.332031 125.121094 32.875 127.28125 31.503906 Z M 112.773438 13.542969 "/>
<path style=" stroke:none;fill-rule:nonzero;fill:url(#linear1);" d="M 128.085938 37.238281 C 122.296875 36.46875 105.339844 34.671875 87.582031 31.515625 C 60.109375 26.648438 27.816406 19.875 17.5 19.15625 C -2.339844 17.773438 -5.648438 43.546875 10.195312 47.96875 C 19.164062 50.460938 43.859375 47.835938 49.851562 59.691406 C 51.683594 63.292969 56.515625 76.910156 61.988281 93.761719 C 64.136719 100.367188 81.601562 99.328125 78.351562 85.25 C 76.496094 77.214844 72.277344 55.507812 72.277344 55.507812 C 72.277344 55.507812 122.367188 60.824219 126.441406 61.167969 Z M 128.085938 37.238281 "/>
<path style=" stroke:none;fill-rule:nonzero;fill:url(#linear2);" d="M 154.457031 23.964844 C 160.816406 24.132812 171.886719 25.773438 176.875 29.105469 L 204.664062 34.589844 C 204.925781 19.15625 196.464844 10.859375 186.988281 6.074219 C 179.792969 2.445312 169.703125 -0.519531 154.542969 0.128906 C 140.054688 0.742188 124.824219 3.921875 112.675781 13.601562 L 127.199219 31.613281 C 134.050781 27.285156 142.65625 23.660156 154.457031 23.964844 Z M 154.457031 23.964844 "/>
<path style=" stroke:none;fill-rule:nonzero;fill:url(#linear3);" d="M 176.425781 28.824219 C 176.425781 28.824219 177.890625 29.757812 178.527344 30.347656 C 181.550781 33.113281 182.558594 36.421875 173.375 37.933594 L 180.644531 60.398438 C 197.171875 55.96875 204.464844 46.21875 204.664062 34.304688 Z M 176.425781 28.824219 "/>
<path style=" stroke:none;fill-rule:nonzero;fill:url(#linear4);" d="M 173.648438 37.898438 C 165.507812 39.246094 149.71875 40.121094 127.957031 37.238281 L 126.324219 61.167969 C 161.667969 64.226562 174.097656 62.136719 180.914062 60.316406 Z M 173.648438 37.898438 "/>
<path style=" stroke:none;fill-rule:nonzero;fill:rgb(98.823529%,0.392157%,1.176471%);fill-opacity:1;" d="M 0 124.34375 C 0 124.769531 0.332031 125.089844 0.734375 125.089844 L 7.398438 125.089844 L 7.398438 142.898438 L 11.792969 142.910156 L 11.792969 125.089844 L 18.457031 125.089844 C 18.859375 125.089844 19.1875 124.757812 19.1875 124.34375 L 19.1875 121.589844 C 19.1875 121.164062 18.859375 120.847656 18.457031 120.847656 L 0.734375 120.847656 C 0.332031 120.847656 0 121.175781 0 121.589844 Z M 0 124.34375 "/>
<path style=" stroke:none;fill-rule:nonzero;fill:rgb(98.823529%,0.392157%,1.176471%);fill-opacity:1;" d="M 15.632812 134.78125 C 15.632812 139.472656 19.566406 143.121094 24.433594 143.121094 C 29.339844 143.121094 33.273438 139.472656 33.273438 134.78125 C 33.273438 130.050781 29.339844 126.339844 24.433594 126.339844 C 19.566406 126.339844 15.632812 130.050781 15.632812 134.78125 Z M 20.5 134.742188 C 20.5 132.535156 22.203125 130.703125 24.433594 130.703125 C 26.703125 130.703125 28.40625 132.523438 28.40625 134.742188 C 28.40625 136.964844 26.703125 138.75 24.433594 138.75 C 22.203125 138.75 20.5 136.964844 20.5 134.742188 Z M 36.144531 138.183594 C 36.144531 141.800781 38.910156 143.265625 41.710938 143.265625 C 43.613281 143.265625 45.550781 143.003906 46.792969 142.058594 C 48.8125 140.511719 47.121094 137.378906 44.355469 138.925781 C 43.542969 139.386719 42.195312 139.152344 41.945312 139.058594 C 41.390625 138.832031 40.421875 138.644531 40.480469 137.082031 L 40.480469 130.253906 L 44.558594 130.253906 C 47.675781 130.253906 47.640625 126.316406 44.558594 126.316406 L 40.480469 126.316406 L 40.480469 120.917969 L 36.144531 120.90625 L 36.144531 126.316406 L 34.007812 126.316406 L 34.007812 130.253906 L 36.144531 130.253906 Z M 48.433594 134.707031 C 48.433594 139.824219 52.332031 143.109375 56.527344 143.109375 C 58.691406 143.109375 60.957031 142.199219 61.714844 140.960938 L 61.714844 143.132812 L 65.746094 143.121094 L 65.746094 128.410156 C 65.746094 125.527344 61.796875 125.667969 61.796875 128.257812 C 61.03125 127.015625 58.726562 126.351562 56.550781 126.351562 C 52.367188 126.339844 48.433594 129.566406 48.433594 134.707031 Z M 53.300781 134.742188 C 53.300781 132.535156 55.003906 130.703125 57.273438 130.703125 C 59.539062 130.703125 61.242188 132.523438 61.242188 134.742188 C 61.242188 136.964844 59.539062 138.785156 57.273438 138.785156 C 55.003906 138.785156 53.300781 136.964844 53.300781 134.742188 Z M 74.097656 142.921875 L 74.097656 122.796875 C 74.097656 120.242188 69.550781 120.328125 69.550781 122.796875 L 69.550781 142.910156 Z M 78.03125 120.597656 C 77.59375 120.597656 77.300781 120.929688 77.300781 121.320312 L 77.300781 142.164062 C 77.300781 142.589844 77.59375 142.910156 78.03125 142.910156 L 92.777344 142.910156 L 92.789062 138.417969 L 82.296875 138.417969 L 82.296875 134.152344 L 90.523438 134.152344 C 90.960938 134.152344 91.253906 133.796875 91.253906 133.410156 L 91.253906 130.535156 C 91.253906 130.113281 90.960938 129.792969 90.523438 129.792969 L 82.296875 129.792969 L 82.296875 125.101562 L 91.773438 125.101562 C 92.210938 125.101562 92.542969 124.769531 92.542969 124.355469 L 92.542969 121.355469 C 92.542969 120.929688 92.210938 120.609375 91.773438 120.609375 L 78.03125 120.609375 Z M 107.644531 142.261719 C 107.644531 142.648438 108.011719 142.910156 108.375 142.910156 L 111.246094 142.910156 C 111.613281 142.910156 111.980469 142.648438 111.980469 142.261719 L 111.980469 133.457031 C 111.980469 129.578125 109.746094 126.082031 105.445312 126.082031 C 102.917969 126.082031 100.472656 126.824219 99.503906 127.960938 C 99.503906 125.621094 95.6875 125.527344 95.6875 127.757812 L 95.6875 142.921875 L 99.988281 142.933594 L 99.988281 133.988281 C 99.988281 128.46875 107.632812 129.34375 107.632812 133.988281 Z M 142.832031 125.941406 C 140.457031 125.941406 138.519531 127.347656 137.621094 128.753906 L 137.621094 127.699219 C 137.621094 125.738281 134.003906 125.527344 134.003906 127.773438 L 134.003906 142.863281 L 138.246094 142.921875 L 138.246094 135.226562 C 138.246094 132.914062 139.808594 130.359375 141.472656 130.085938 L 143.199219 129.804688 C 145.949219 129.792969 145.515625 125.941406 142.832031 125.941406 Z M 154.199219 145.996094 C 152 145.996094 149.898438 145.875 148.773438 145.25 C 146.070312 143.75 144.472656 147.046875 146.164062 148.015625 C 148.433594 149.328125 149.566406 149.976562 153.84375 149.976562 C 159.316406 149.976562 162.28125 146.953125 162.28125 142.519531 L 162.28125 127.773438 C 162.28125 125.820312 158.5 125.597656 158.5 127.523438 L 158.5 128.527344 C 157.695312 127.285156 155.402344 126.589844 153.207031 126.589844 C 149.011719 126.589844 145.207031 129.78125 145.207031 134.828125 C 145.207031 139.871094 148.976562 143.003906 153.40625 143.003906 C 155.546875 143.003906 157.269531 142.09375 158.003906 140.984375 L 158.003906 142.34375 C 157.992188 144.46875 156.773438 145.996094 154.199219 145.996094 Z M 150.0625 134.828125 C 150.0625 132.617188 151.765625 130.878906 153.996094 130.878906 C 156.265625 130.878906 157.96875 132.605469 157.96875 134.828125 C 157.96875 137.070312 156.265625 138.761719 153.996094 138.761719 C 151.765625 138.773438 150.0625 137.070312 150.0625 134.828125 Z M 150.0625 134.828125 "/>
<path style=" stroke:none;fill-rule:nonzero;fill:rgb(98.823529%,0.392157%,1.176471%);fill-opacity:1;" d="M 168.035156 124.355469 C 169.453125 124.355469 170.632812 123.140625 170.632812 121.722656 C 170.632812 120.265625 169.453125 119.050781 168.035156 119.050781 C 166.582031 119.050781 165.410156 120.265625 165.410156 121.722656 C 165.410156 123.152344 166.582031 124.355469 168.035156 124.355469 Z M 169.546875 142.910156 C 169.914062 142.910156 170.1875 142.601562 170.1875 142.25 L 170.1875 128.585938 C 170.1875 125.703125 165.835938 125.703125 165.835938 128.585938 L 165.835938 142.25 C 165.835938 142.613281 166.144531 142.910156 166.5 142.910156 Z M 169.546875 142.910156 "/>
<path style=" stroke:none;fill-rule:nonzero;fill:rgb(98.823529%,0.392157%,1.176471%);fill-opacity:1;" d="M 181.492188 126.058594 C 176.402344 126.058594 172.726562 129.96875 172.726562 134.828125 C 172.726562 139.683594 176.328125 143.429688 181.566406 143.429688 C 185.203125 143.429688 187.355469 142.355469 188.714844 140.605469 C 189.539062 139.164062 187.589844 137.414062 185.855469 138.417969 C 184.316406 139.460938 183.265625 139.316406 181.671875 139.316406 C 179.734375 139.316406 178.03125 138.003906 177.796875 135.949219 L 188.652344 135.949219 C 189.339844 135.949219 189.503906 135.582031 189.503906 135.167969 L 189.503906 134.257812 C 189.492188 130.039062 186.726562 126.058594 181.492188 126.058594 Z M 185.15625 132.902344 L 177.878906 132.902344 C 178.351562 131.082031 179.851562 129.96875 181.515625 129.96875 C 183.125 129.96875 184.71875 130.914062 185.15625 132.902344 Z M 185.15625 132.902344 "/>
<path style=" stroke:none;fill-rule:nonzero;fill:rgb(98.823529%,0.392157%,1.176471%);fill-opacity:1;" d="M 198.355469 125.941406 C 193.886719 125.941406 191.125 128.304688 191.125 131.316406 C 191.125 133.988281 192.957031 135.652344 195.695312 136.1875 L 198.460938 136.765625 C 200.054688 137.070312 200.882812 137.402344 200.882812 138.21875 C 200.882812 138.925781 200.128906 139.601562 198.566406 139.601562 C 196.902344 139.601562 195.1875 139.292969 194.113281 138.382812 C 191.738281 137.15625 189.621094 139.753906 192 141.539062 C 193.378906 142.484375 195.566406 143.371094 198.402344 143.371094 C 203 143.371094 206.011719 140.972656 206.011719 137.792969 C 206.011719 134.707031 203.660156 133.359375 200.789062 132.816406 L 198.128906 132.308594 C 196.710938 132.039062 196.191406 131.601562 196.191406 130.949219 C 196.191406 130.277344 197.054688 129.734375 198.378906 129.734375 C 199.796875 129.734375 200.988281 129.875 202.03125 130.558594 C 204.109375 131.765625 206.25 129.203125 204.308594 127.582031 C 203.246094 126.648438 201.710938 125.941406 198.355469 125.941406 Z M 198.355469 125.941406 "/>
<path style=" stroke:none;fill-rule:nonzero;fill:rgb(98.823529%,0.392157%,1.176471%);fill-opacity:1;" d="M 123.347656 126.058594 C 118.253906 126.058594 114.578125 129.96875 114.578125 134.828125 C 114.578125 139.683594 118.183594 143.429688 123.417969 143.429688 C 127.058594 143.429688 129.207031 142.355469 130.566406 140.605469 C 131.394531 139.164062 129.445312 137.414062 127.707031 138.417969 C 126.171875 139.460938 125.121094 139.316406 123.523438 139.316406 C 121.585938 139.316406 119.886719 138.003906 119.648438 135.949219 L 130.507812 135.949219 C 131.191406 135.949219 131.359375 135.582031 131.359375 135.167969 L 131.359375 134.257812 C 131.359375 130.039062 128.582031 126.058594 123.347656 126.058594 Z M 127.023438 132.902344 L 119.742188 132.902344 C 120.214844 131.082031 121.714844 129.96875 123.382812 129.96875 C 124.976562 129.96875 126.574219 130.914062 127.023438 132.902344 Z M 127.023438 132.902344 "/>
</g>
</svg>
