<svg width="198" height="24" viewBox="0 0 198 24" fill="none" xmlns="http://www.w3.org/2000/svg">
<path d="M148.562 6.86737C148.084 6.9849 147.75 7.40965 147.75 7.89783V21.3725C147.75 21.9601 148.224 22.4347 148.805 22.4347H149.977C150.563 22.4347 151.036 21.9601 151.036 21.3725V19.9667C151.847 20.1384 152.586 20.2199 153.258 20.2199C155.498 20.2199 157.161 19.5599 158.283 18.3394C159.374 17.1506 159.978 15.3788 159.978 13.0012C159.978 10.7954 159.37 9.15903 158.256 8.06063C157.148 6.96223 155.503 6.35656 153.29 6.35656C151.541 6.35656 149.963 6.52836 148.562 6.86737ZM50.5048 19.4288C50.6265 19.8899 51.0411 20.2199 51.5279 20.2199H52.3887C52.9701 20.2199 53.4434 19.7453 53.4434 19.1622V7.4188C53.4434 6.83118 52.9701 6.35656 52.3887 6.35656H51.2169C50.6309 6.35656 50.1577 6.83118 50.1577 7.4188V16.0613C49.1256 16.7122 48.0574 17.0512 46.9442 17.0512C46.2861 17.0512 45.7768 16.9246 45.4478 16.5675C45.0917 16.1833 44.97 15.5913 44.97 14.8229V7.4188C44.97 6.83118 44.4968 6.35656 43.9153 6.35656H42.7435C42.1576 6.35656 41.6843 6.83118 41.6843 7.4188V14.7867C41.6843 16.5767 42.1621 17.9056 43.0139 18.8006C43.8793 19.7092 45.1593 20.2199 46.89 20.2199C48.1791 20.2199 49.3825 19.9577 50.5048 19.4288ZM74.3834 19.1622V7.4188C74.3834 6.83118 73.9102 6.35656 73.3243 6.35656H72.157C71.5711 6.35656 71.0978 6.83118 71.0978 7.4188V19.1622C71.0978 19.7453 71.5711 20.2199 72.157 20.2199H73.3243C73.9102 20.2199 74.3834 19.7453 74.3834 19.1622ZM80.414 7.19279C80.3103 6.71365 79.8822 6.35656 79.3774 6.35656H78.5435C77.9576 6.35656 77.4844 6.83118 77.4844 7.4188V19.1622C77.4844 19.7453 77.9576 20.2199 78.5435 20.2199H79.7154C80.2968 20.2199 80.7701 19.7453 80.7701 19.1622V10.5151C81.7887 9.86873 82.8163 9.52968 83.8619 9.52968C84.7183 9.52968 85.3493 9.6518 85.6918 10.0767C85.8901 10.3298 85.9622 10.6687 85.9622 11.0845V19.1622C85.9622 19.7453 86.4355 20.2199 87.0169 20.2199H88.1888C88.7747 20.2199 89.2479 19.7453 89.2479 19.1622V11.1207C89.2479 9.52061 88.7341 8.34088 87.8102 7.54081C86.9448 6.79046 85.6557 6.35656 83.916 6.35656C82.7667 6.35656 81.5994 6.63229 80.414 7.19279ZM95.0666 9.48448H97.4194C98.0053 9.48448 98.4785 9.00993 98.4785 8.42683V7.4188C98.4785 6.83118 98.0053 6.35656 97.4194 6.35656H94.8548L94.7466 5.39832C94.688 4.86494 94.2373 4.45809 93.6964 4.45809H92.8717C92.2903 4.45809 91.817 4.93264 91.817 5.51574V15.9981C91.817 17.3768 92.1821 18.3938 92.7996 19.0808C93.4576 19.8086 94.4176 20.2199 95.7246 20.2199H97.4194C98.0053 20.2199 98.4785 19.7453 98.4785 19.1622V18.1542C98.4785 17.5666 98.0053 17.092 97.4194 17.092H95.7021C95.5534 17.092 95.4227 17.0828 95.3325 16.997C95.2289 16.9066 95.1703 16.771 95.1297 16.6037C95.0801 16.3913 95.0666 16.1337 95.0666 15.8399V9.48448ZM59.2531 7.19279C59.1449 6.71365 58.7213 6.35656 58.2165 6.35656H57.3826C56.7967 6.35656 56.3235 6.83118 56.3235 7.4188V19.1622C56.3235 19.7453 56.7967 20.2199 57.3826 20.2199H58.5545C59.1359 20.2199 59.6092 19.7453 59.6092 19.1622C59.6092 19.1622 59.6092 11.6858 59.6092 10.5151C60.6278 9.86873 61.6554 9.52968 62.701 9.52968C63.5574 9.52968 64.1839 9.6518 64.5264 10.0767C64.7292 10.3298 64.7968 10.6687 64.7968 11.0845V19.1622C64.7968 19.7453 65.2746 20.2199 65.856 20.2199H67.0279C67.6093 20.2199 68.0826 19.7453 68.0826 19.1622V11.1207C68.0826 9.52061 67.5732 8.34088 66.6493 7.54081C65.7839 6.79046 64.4948 6.35656 62.7551 6.35656C61.6058 6.35656 60.4385 6.63229 59.2531 7.19279ZM103.355 14.6059H111.098C111.662 14.6059 112.126 14.1674 112.158 13.6024C112.171 13.3086 112.18 13.0238 112.18 12.7526C112.18 10.6507 111.653 9.0913 110.706 8.04262C109.724 6.95326 108.277 6.35656 106.316 6.35656C104.203 6.35656 102.639 6.9849 101.584 8.13302C100.556 9.25402 99.9839 10.9173 99.9839 13.1548C99.9839 15.5008 100.628 17.2411 101.805 18.4118C102.981 19.5825 104.725 20.2199 107.074 20.2199C108.538 20.2199 109.841 20.012 110.977 19.6006C111.4 19.447 111.68 19.0491 111.68 18.6016V17.5936C111.68 17.2501 111.509 16.9246 111.229 16.7257C110.945 16.5269 110.585 16.4816 110.265 16.5991C109.336 16.9336 108.272 17.092 107.074 17.092C105.785 17.092 104.802 16.8433 104.153 16.2331C103.734 15.8308 103.477 15.2839 103.355 14.6059ZM141.841 19.4288C141.963 19.8899 142.378 20.2199 142.865 20.2199H143.725C144.307 20.2199 144.78 19.7453 144.78 19.1622V7.4188C144.78 6.83118 144.307 6.35656 143.725 6.35656H142.554C141.968 6.35656 141.494 6.83118 141.494 7.4188C141.494 7.4188 141.494 14.8861 141.494 16.0613C140.462 16.7122 139.39 17.0512 138.281 17.0512C137.623 17.0512 137.113 16.9246 136.784 16.5675C136.428 16.1833 136.307 15.5913 136.307 14.8229V7.4188C136.307 6.83118 135.833 6.35656 135.248 6.35656H134.08C133.494 6.35656 133.021 6.83118 133.021 7.4188V14.7867C133.021 16.5767 133.499 17.9056 134.351 18.8006C135.216 19.7092 136.496 20.2199 138.227 20.2199C139.516 20.2199 140.719 19.9577 141.841 19.4288ZM126.918 7.22899C126.828 6.73177 126.391 6.35656 125.877 6.35656H125.039C124.458 6.35656 123.984 6.83118 123.984 7.4188V19.1622C123.984 19.7453 124.458 20.2199 125.039 20.2199H126.211C126.797 20.2199 127.27 19.7453 127.27 19.1622C127.27 19.1622 127.27 11.7716 127.27 10.7907C128.068 9.89574 128.947 9.41668 129.947 9.41668C130.529 9.41668 131.002 8.94213 131.002 8.35903V7.4188C131.002 6.83118 130.529 6.35656 129.947 6.35656C128.879 6.35656 127.865 6.64589 126.918 7.22899ZM117.611 7.22899C117.521 6.73177 117.088 6.35656 116.575 6.35656H115.736C115.15 6.35656 114.677 6.83118 114.677 7.4188V19.1622C114.677 19.7453 115.15 20.2199 115.736 20.2199H116.908C117.489 20.2199 117.963 19.7453 117.963 19.1622V10.7907C118.761 9.89574 119.644 9.41668 120.644 9.41668C121.226 9.41668 121.699 8.94213 121.699 8.35903V7.4188C121.699 6.83118 121.226 6.35656 120.644 6.35656C119.572 6.35656 118.562 6.64589 117.611 7.22899ZM174.595 14.6059H182.338C182.901 14.6059 183.366 14.1674 183.393 13.6024C183.411 13.3086 183.42 13.0238 183.42 12.7526C183.42 10.6507 182.892 9.0913 181.941 8.04262C180.963 6.95326 179.512 6.35656 177.556 6.35656C175.442 6.35656 173.878 6.9849 172.823 8.13302C171.791 9.25402 171.223 10.9173 171.223 13.1548C171.223 15.5008 171.868 17.2411 173.044 18.4118C174.221 19.5825 175.965 20.2199 178.313 20.2199C179.778 20.2199 181.08 20.012 182.216 19.6006C182.635 19.447 182.915 19.0491 182.915 18.6016V17.5936C182.915 17.2501 182.748 16.9246 182.469 16.7257C182.185 16.5269 181.824 16.4816 181.5 16.5991C180.571 16.9336 179.507 17.092 178.313 17.092C177.024 17.092 176.037 16.8433 175.392 16.2331C174.969 15.8308 174.716 15.2839 174.595 14.6059ZM165.95 9.48448H168.303C168.889 9.48448 169.362 9.00993 169.362 8.42683V7.4188C169.362 6.83118 168.889 6.35656 168.303 6.35656H165.738L165.63 5.39832C165.571 4.86494 165.121 4.45809 164.58 4.45809H163.755C163.174 4.45809 162.696 4.93264 162.696 5.51574V15.9981C162.696 17.3768 163.061 18.3938 163.683 19.0808C164.341 19.8086 165.301 20.2199 166.608 20.2199H168.303C168.889 20.2199 169.362 19.7453 169.362 19.1622V18.1542C169.362 17.5666 168.889 17.092 168.303 17.092H166.586C166.437 17.092 166.306 17.0828 166.211 16.997C166.112 16.9066 166.054 16.771 166.013 16.6037C165.964 16.3913 165.95 16.1337 165.95 15.8399V9.48448ZM197.306 19.4514C197.721 19.2978 198 18.9 198 18.457V5.20392C198 4.62082 197.527 4.14609 196.941 4.14609H195.769C195.188 4.14609 194.714 4.62082 194.714 5.20392V6.61417C193.881 6.44241 193.051 6.35656 192.236 6.35656C190.041 6.35656 188.413 6.97127 187.318 8.08323C186.228 9.19067 185.624 10.836 185.624 13.0554C185.624 15.4104 186.205 17.1642 187.26 18.3394C188.346 19.5599 189.959 20.2199 192.136 20.2199C194.214 20.2199 195.94 19.9577 197.306 19.4514ZM150.739 17.1598L150.752 17.1642C150.752 17.1732 150.752 17.1868 150.748 17.2004C150.748 17.2184 150.743 17.2321 150.739 17.2502L150.702 17.2412L150.671 17.2276L150.739 17.1598ZM194.714 9.8099V16.8252C193.912 16.9743 193.092 17.0512 192.244 17.0512C191.176 17.0512 190.356 16.7801 189.82 16.1427C189.229 15.4421 188.99 14.3753 188.99 12.9786C188.99 11.7898 189.216 10.8857 189.775 10.2935C190.32 9.71946 191.158 9.48448 192.244 9.48448C193.092 9.48448 193.917 9.59293 194.714 9.8099ZM151.036 16.6535V9.66529C151.807 9.57488 152.55 9.52968 153.267 9.52968C154.434 9.52968 155.327 9.7648 155.908 10.3479C156.49 10.9265 156.724 11.8169 156.724 12.9786C156.724 14.3437 156.476 15.3834 155.863 16.0659C155.286 16.7123 154.398 16.9834 153.244 16.9834C152.559 16.9834 151.82 16.8705 151.036 16.6535ZM180.075 11.4372H174.662C174.793 10.9173 175.005 10.497 175.325 10.1761C175.83 9.66984 176.587 9.46188 177.556 9.46188C178.403 9.46188 179.061 9.65617 179.494 10.1353C179.787 10.4608 179.972 10.8993 180.075 11.4372ZM108.836 11.4372H103.423C103.554 10.9173 103.765 10.497 104.085 10.1761C104.595 9.66984 105.347 9.46188 106.316 9.46188C107.168 9.46188 107.826 9.65617 108.259 10.1353C108.552 10.4608 108.737 10.8993 108.836 11.4372ZM74.4961 2.62742C74.4961 2.0398 74.0229 1.56519 73.4369 1.56519H72.0443C71.4584 1.56519 70.9851 2.0398 70.9851 2.62742V3.96988C70.9851 4.55298 71.4584 5.02753 72.0443 5.02753H73.4369C74.0229 5.02753 74.4961 4.55298 74.4961 3.96988V2.62742Z" fill="#262338"/>
<path fill-rule="evenodd" clip-rule="evenodd" d="M16.2298 14.1855C16.4809 15.0446 16.9037 15.5223 17.5613 16.2727C17.9922 16.7668 18.4947 17.1953 19.0522 17.5438L19.2033 17.6381L19.3565 17.7242L19.5096 17.8083L19.6669 17.8862L19.8261 17.9621L19.9896 18.0338L20.155 18.1015L20.3224 18.1651L20.492 18.2245L20.7044 18.2901L20.878 18.3393L21.0945 18.3926L21.2721 18.4316L21.4947 18.4726L21.6764 18.4992L21.9011 18.5259L22.087 18.5443L22.2729 18.5546L22.4607 18.5607H22.6894L22.8957 18.5546L23.1142 18.5423L23.3287 18.5218L23.5308 18.4972L23.7432 18.4623L23.9005 18.4336L24.1088 18.3885L24.3151 18.3372L24.505 18.2839L24.7051 18.2204L24.9033 18.1507L25.087 18.0789L25.3158 17.9805L25.5384 17.8759L25.7099 17.7878L25.9264 17.6689L26.1224 17.552L26.3267 17.4167L26.5084 17.2896L26.68 17.1625L26.8413 17.0313L26.9802 16.9144L27.1395 16.7709L27.1905 16.7217L27.3152 16.6007L27.4152 16.4982L27.5602 16.3424L27.6072 16.2891C28.3934 15.3952 28.9469 14.2901 29.1716 13.0702C29.2451 12.6725 29.2838 12.2624 29.2838 11.8442C29.2838 8.13531 26.2858 5.12557 22.5914 5.12557C19.3278 5.12557 16.6076 7.47721 16.0173 10.5813C14.9942 9.02923 13.5238 7.79908 11.7899 7.07534C13.6198 2.91133 17.7696 0 22.5914 0C29.1021 0 34.3895 5.30805 34.3895 11.8442C34.3895 15.4854 32.7475 18.7473 30.1681 20.9205L29.9578 21.0928L29.8536 21.1748C29.7168 21.2834 29.578 21.388 29.435 21.4905L29.245 21.6238L29.0388 21.7632L28.8775 21.8657C28.7876 21.9231 28.6957 21.9785 28.6038 22.0338L28.3996 22.1527L28.13 22.3024L27.938 22.4029L27.7052 22.5197L27.4458 22.6407L27.162 22.7658L26.9128 22.8662L26.6453 22.9687L26.341 23.0753L26.0816 23.1594L25.8876 23.2188L25.6099 23.2968L25.2933 23.3747L25.0237 23.4341L24.8236 23.4751L24.5336 23.5284L24.2068 23.5776L23.9311 23.6125L23.7228 23.633L23.4246 23.6597L23.0898 23.6781L22.8059 23.6863L22.6629 23.6884L22.3504 23.6863L22.0094 23.674L21.8093 23.6617L21.5151 23.6392L21.221 23.6084L21.0434 23.5858L20.8147 23.5531L20.4674 23.4956L20.3592 23.4751L20.0672 23.4157L19.7486 23.3419L19.624 23.309L19.3381 23.2312L19.093 23.1573L18.9071 23.0979L18.6294 23.0015L18.5865 22.9872L18.3067 22.8826L18.0821 22.7904L17.8983 22.7125L17.6287 22.5894L17.4081 22.4849L17.2304 22.3947L16.9711 22.2573L16.7567 22.1384L16.5871 22.0379L16.338 21.8862L16.0541 21.7017L15.8049 21.5315L15.6845 21.4454C13.4237 19.8011 11.7204 17.3839 11.0485 14.573H11.0364C10.7627 13.9231 10.2746 13.386 9.66192 13.0518L9.47804 12.9595L9.34741 12.9041L9.21668 12.8529L9.07986 12.8098L8.94305 12.7709L8.80204 12.7402L8.65915 12.7135L8.51415 12.695L8.36707 12.6827L8.22008 12.6786L8.07299 12.6807L7.92192 12.691L7.77892 12.7053L7.63183 12.7299L7.49502 12.7586L7.35412 12.7935L7.21929 12.8365L7.08457 12.8837L6.95594 12.937L6.8272 12.9985L6.70464 13.062L6.58219 13.1338L6.46571 13.2076L6.35134 13.2896L6.26358 13.3573C5.87351 13.671 5.55897 14.0789 5.35883 14.5464L5.34656 14.573C5.19135 14.9441 5.10564 15.3501 5.10564 15.7765C5.10564 17.4864 6.48822 18.8744 8.19146 18.8744C9.31062 18.8744 10.2889 18.2778 10.8321 17.3819C11.5878 18.9954 12.6619 20.4285 13.9751 21.5992C12.4924 23.0836 10.4482 24 8.19146 24C3.66991 24 0 20.3157 0 15.7765C0 15.3685 0.0285278 14.9667 0.0877532 14.573L0.126544 14.3229L0.159252 14.1527C0.177632 14.0646 0.196069 13.9744 0.216491 13.8862L0.261365 13.7058C0.63714 12.2583 1.39478 10.9646 2.41999 9.94156L2.51802 9.84726C2.59358 9.7755 2.66917 9.70373 2.74677 9.63403L2.91839 9.48642C2.98374 9.42901 3.05313 9.37364 3.12052 9.31828L3.3064 9.17683L3.33901 9.15225L3.53107 9.01485L3.74955 8.86724L3.9456 8.74426L4.17845 8.60686L4.41937 8.47567L4.66239 8.35469L4.9769 8.21118L5.14443 8.14145L5.44259 8.02873L5.61411 7.96927L5.92254 7.87291L6.09815 7.82371L6.41266 7.74783L6.59236 7.70888L6.91505 7.65147L7.09883 7.62479L7.4297 7.5879L7.61558 7.57354L7.95044 7.55717L8.1404 7.55306H8.22616L8.43248 7.55717L8.67141 7.56743L8.91034 7.5838L9.14518 7.60842L9.37802 7.63916L9.61087 7.67605L9.8477 7.7212L10.0765 7.77245L10.199 7.80113L10.4216 7.86265L10.6523 7.93027L10.7708 7.96927L10.9853 8.0451L11.1997 8.12509L11.3242 8.17634L11.41 8.21323L11.5326 8.26654L11.7389 8.36289L11.8593 8.42236L11.941 8.46335L12.0595 8.52692L12.2678 8.6438C12.3393 8.6848 12.4087 8.72578 12.4781 8.76884L12.6293 8.86519C12.711 8.9185 12.7926 8.97181 12.8723 9.02922L13.0459 9.15225L13.0683 9.17067C13.8342 9.74064 14.4979 10.4439 15.0268 11.2455L15.0861 11.3378C15.3046 11.6781 15.5007 12.0369 15.6681 12.4121C15.9193 12.9718 16.1093 13.5664 16.2298 14.1855Z" fill="url(#paint0_radial_4_3256)"/>
<path fill-rule="evenodd" clip-rule="evenodd" d="M0.00195336 15.5923C0.000648639 15.6535 0 15.7149 0 15.7765C0 20.3157 3.66991 23.9999 8.19146 23.9999C10.4482 23.9999 12.4924 23.0835 13.9751 21.5991C12.6619 20.4285 11.5878 18.9953 10.8321 17.3818C10.2889 18.2777 9.31062 18.8744 8.19146 18.8744C6.77083 18.8744 5.57328 17.9087 5.21498 16.5961L0.00195336 15.5923Z" fill="url(#paint1_linear_4_3256)" fill-opacity="0.5"/>
<path fill-rule="evenodd" clip-rule="evenodd" d="M17.1437 1.33777C14.7732 2.58039 12.8743 4.60794 11.79 7.07532C13.5239 7.79905 14.9943 9.02921 16.0174 10.5812C16.4951 8.0693 18.3676 6.05011 20.7942 5.37117L17.1437 1.33777Z" fill="url(#paint2_linear_4_3256)" fill-opacity="0.5"/>
<defs>
<radialGradient id="paint0_radial_4_3256" cx="0" cy="0" r="1" gradientUnits="userSpaceOnUse" gradientTransform="translate(8.24936 16.3594) rotate(-14.796) scale(27.759 42.5189)">
<stop stop-color="#AA33FF"/>
<stop offset="0.9999" stop-color="#4700AB"/>
<stop offset="1" stop-color="#13272C"/>
</radialGradient>
<linearGradient id="paint1_linear_4_3256" x1="12.5053" y1="19.3044" x2="6.7723" y2="21.1261" gradientUnits="userSpaceOnUse">
<stop stop-color="#380063"/>
<stop offset="1" stop-opacity="0"/>
</linearGradient>
<linearGradient id="paint2_linear_4_3256" x1="14.8501" y1="9.65215" x2="19.2834" y2="5.60615" gradientUnits="userSpaceOnUse">
<stop stop-color="#380063"/>
<stop offset="1" stop-opacity="0"/>
</linearGradient>
</defs>
</svg>
