<svg xmlns="http://www.w3.org/2000/svg" width="125" height="144" xmlns:v="https://vecta.io/nano"><path d="M62.5 0L0 36v72l62.5 36 62.5-36V36z" fill="#00a6a6"/><path d="M62.499 135.742L7.31 103.871V40.128L62.499 8.257l55.189 31.871v63.742z" fill="none" stroke="#fff" stroke-opacity=".81" paint-order="stroke fill markers" stroke-width="5"/><path d="M62.5 24.123c-26.406 0-47.865 21.466-47.865 47.877s21.46 47.875 47.865 47.875S110.363 98.411 110.363 72 88.905 24.123 62.5 24.123zm0 5c7.537 0 14.611 1.946 20.76 5.352v2.141V69H41.738V36.615v-2.141c6.149-3.406 13.224-5.352 20.762-5.352zm-26.762 9.375V69v3 3 30.5C25.922 97.648 19.635 85.573 19.635 72s6.287-25.65 16.104-33.502zm53.521 0C99.076 46.35 105.363 58.426 105.363 72s-6.287 25.649-16.104 33.5V75v-3-3zM41.738 75H83.26v33.094 1.432c-6.148 3.406-13.223 5.35-20.76 5.35s-14.613-1.943-20.762-5.35v-1.432z" fill="#fff" fill-opacity=".81" paint-order="stroke fill markers"/></svg>