<?xml version="1.0" encoding="UTF-8" standalone="no"?>


<svg
   version="1.1"
   id="svg2"
   width="395.20001"
   height="68.879997"
   viewBox="0 0 395.20001 68.879997"
   sodipodi:docname="WHK_Logo_Horizontal_DkGrey.eps"
   xmlns:inkscape="http://www.inkscape.org/namespaces/inkscape"
   xmlns:sodipodi="http://sodipodi.sourceforge.net/DTD/sodipodi-0.dtd"
   xmlns="http://www.w3.org/2000/svg"
   xmlns:svg="http://www.w3.org/2000/svg">
  <defs
     id="defs6" />
  <sodipodi:namedview
     id="namedview4"
     pagecolor="#ffffff"
     bordercolor="#000000"
     borderopacity="0.25"
     inkscape:showpageshadow="2"
     inkscape:pageopacity="0.0"
     inkscape:pagecheckerboard="0"
     inkscape:deskcolor="#d1d1d1" />
  <g
     id="g8"
     inkscape:groupmode="layer"
     inkscape:label="ink_ext_XXXXXX"
     transform="matrix(1.3333333,0,0,-1.3333333,0,68.88)">
    <g
       id="g10"
       transform="scale(0.1)">
      <path
         d="m 1369.49,111.832 36.75,33.559 h 22.13 l -33.43,-30.129 39.45,-47.0393 h -22.25 L 1382.4,104.145 1369.49,92.4492 V 68.2227 h -17.7 v 77.1683 h 17.7 v -33.559"
         style="fill:#343535;fill-opacity:1;fill-rule:nonzero;stroke:none"
         id="path12" />
      <path
         d="m 1521.01,101.195 h -29.62 V 82.7617 h 52.12 v -14.539 h -69.7 v 77.1683 h 66.87 v -14.653 h -49.29 v -15.011 h 29.62 v -14.532"
         style="fill:#343535;fill-opacity:1;fill-rule:nonzero;stroke:none"
         id="path14" />
      <path
         d="M 1662.2,145.391 V 68.2227 h -15.24 l -40.81,47.7423 h -0.12 V 68.2227 h -17.7 v 77.1683 h 15.11 l 40.94,-47.8597 h 0.12 v 47.8597 h 17.7"
         style="fill:#343535;fill-opacity:1;fill-rule:nonzero;stroke:none"
         id="path16" />
      <path
         d="m 1705.19,145.391 h 75.71 v -14.653 h -29.01 V 68.2227 h -17.57 v 62.5153 h -29.13 v 14.653"
         style="fill:#343535;fill-opacity:1;fill-rule:nonzero;stroke:none"
         id="path18" />
      <path
         d="M 1895.66,145.391 V 95.9922 c 0,-19.2578 -15.49,-30.1289 -36.75,-30.1289 -20.66,0 -36.51,10.8711 -36.51,30.1289 v 49.3988 h 17.7 V 95.9922 c 0,-10.1602 8.48,-15.5977 18.81,-15.5977 10.94,0 19.05,5.4375 19.05,15.5977 v 49.3988 h 17.7"
         style="fill:#343535;fill-opacity:1;fill-rule:nonzero;stroke:none"
         id="path20" />
      <path
         d="m 2024.94,81.6914 c -9.23,-8.2656 -23.24,-15.8281 -40.81,-15.8281 -26.68,0 -44.25,18.3125 -44.25,41.0037 0,22.215 17.7,40.887 43.63,40.887 14.75,0 29.25,-5.555 38.84,-13.469 l -11.06,-11.109 c -7.38,6.14 -17.7,9.926 -26.3,9.926 -16.23,0 -26.67,-11.934 -26.67,-26.352 0,-14.5352 10.69,-26.3555 27.29,-26.3555 10.93,0 21.13,5.5547 28.14,12.293 l 11.19,-10.9961"
         style="fill:#343535;fill-opacity:1;fill-rule:nonzero;stroke:none"
         id="path22" />
      <path
         d="m 2085.62,111.832 36.74,33.559 h 22.13 l -33.43,-30.129 39.46,-47.0393 h -22.26 l -29.74,35.9223 -12.9,-11.6958 V 68.2227 h -17.7 v 77.1683 h 17.7 v -33.559"
         style="fill:#343535;fill-opacity:1;fill-rule:nonzero;stroke:none"
         id="path24" />
      <path
         d="m 2259.13,145.391 -31.83,-41.95 V 68.2227 h -17.7 v 35.2183 l -31.96,41.95 h 21.88 l 19.54,-26.821 19.42,26.821 h 20.65"
         style="fill:#343535;fill-opacity:1;fill-rule:nonzero;stroke:none"
         id="path26" />
      <path
         d="m 1157.56,253.82 v 146.809 h 31.67 V 253.82 h -31.67"
         style="fill:#343535;fill-opacity:1;fill-rule:nonzero;stroke:none"
         id="path28" />
      <path
         d="m 1306.56,251.723 c -12.24,0 -24.25,2.234 -36.05,6.711 -11.79,4.472 -22.28,10.695 -31.46,18.664 l 18.14,22.023 c 8.88,-7.551 17.43,-13.039 25.66,-16.465 8.23,-3.426 16.94,-5.136 26.11,-5.136 6.41,0 11.94,0.734 16.6,2.199 4.67,1.472 8.27,3.601 10.82,6.398 2.55,2.793 3.82,6.082 3.82,9.86 0,5.031 -1.89,8.945 -5.68,11.742 -3.79,2.797 -10.27,4.894 -19.44,6.293 l -30.37,5.035 c -12.96,2.23 -22.86,6.672 -29.71,13.316 -6.85,6.641 -10.26,15.274 -10.26,25.903 0,9.086 2.47,16.949 7.42,23.589 4.95,6.641 11.91,11.747 20.86,15.313 8.96,3.566 19.63,5.348 32.01,5.348 11.07,0 22.24,-1.782 33.54,-5.348 11.28,-3.566 21.15,-8.633 29.6,-15.207 l -17.04,-22.438 c -16.03,11.743 -32.12,17.618 -48.29,17.618 -5.67,0 -10.63,-0.703 -14.85,-2.098 -4.23,-1.402 -7.46,-3.324 -9.72,-5.77 -2.26,-2.445 -3.39,-5.277 -3.39,-8.492 0,-4.754 1.71,-8.32 5.14,-10.695 3.42,-2.383 8.99,-4.27 16.71,-5.664 l 28.83,-4.406 c 15.3,-2.375 26.77,-7.024 34.42,-13.946 7.64,-6.922 11.46,-16.043 11.46,-27.371 0,-9.508 -2.66,-17.758 -7.97,-24.746 -5.32,-6.992 -12.82,-12.445 -22.5,-16.359 -9.69,-3.91 -21.16,-5.871 -34.41,-5.871"
         style="fill:#343535;fill-opacity:1;fill-rule:nonzero;stroke:none"
         id="path30" />
      <path
         d="m 1425.19,253.82 v 146.809 h 31.68 v -65.645 l 66.85,65.645 h 38.67 l -74.28,-69.84 77.77,-76.969 h -42.38 l -66.63,68.16 v -68.16 h -31.68"
         style="fill:#343535;fill-opacity:1;fill-rule:nonzero;stroke:none"
         id="path32" />
      <path
         d="m 1611.55,253.82 v 146.809 h 117.53 v -26.426 h -85.86 v -33.558 h 56.59 V 315.27 h -56.59 v -35.024 h 86.74 V 253.82 h -118.41"
         style="fill:#343535;fill-opacity:1;fill-rule:nonzero;stroke:none"
         id="path34" />
      <path
         d="m 1830.9,253.82 v 56.207 l -62.48,90.602 h 36.49 l 42.82,-63.758 42.82,63.758 h 34.73 l -62.7,-90.813 V 253.82 h -31.68"
         style="fill:#343535;fill-opacity:1;fill-rule:nonzero;stroke:none"
         id="path36" />
      <path
         d="m 2299.14,279.406 c 6.84,0 13.18,1.223 19,3.668 5.82,2.446 10.92,5.805 15.3,10.071 4.36,4.261 7.78,9.332 10.26,15.203 2.48,5.871 3.72,12.164 3.72,18.875 0,6.992 -1.24,13.351 -3.72,19.086 -2.48,5.73 -5.9,10.73 -10.26,14.996 -4.38,4.261 -9.48,7.621 -15.3,10.066 -5.82,2.445 -12.09,3.672 -18.78,3.672 -7,0 -13.44,-1.227 -19.34,-3.672 -5.9,-2.445 -11.03,-5.805 -15.4,-10.066 -4.37,-4.266 -7.8,-9.266 -10.27,-14.996 -2.48,-5.735 -3.71,-11.954 -3.71,-18.664 0,-6.997 1.23,-13.426 3.71,-19.297 2.47,-5.871 5.9,-10.942 10.27,-15.203 4.37,-4.266 9.5,-7.625 15.4,-10.071 5.9,-2.445 12.27,-3.668 19.12,-3.668 z m 0,-27.894 c -11.37,0 -21.96,1.922 -31.79,5.765 -9.83,3.844 -18.43,9.231 -25.78,16.153 -7.36,6.922 -13.11,14.957 -17.26,24.117 -4.15,9.156 -6.22,19.051 -6.22,29.676 0,10.625 2.07,20.519 6.22,29.679 4.15,9.157 9.9,17.196 17.26,24.118 7.35,6.921 15.95,12.3 25.78,16.148 9.83,3.844 20.42,5.766 31.79,5.766 11.21,0 21.73,-1.922 31.57,-5.766 9.83,-3.848 18.42,-9.227 25.77,-16.148 7.35,-6.922 13.07,-14.961 17.15,-24.118 4.08,-9.16 6.12,-19.054 6.12,-29.679 0,-10.625 -2.04,-20.52 -6.12,-29.676 -4.08,-9.16 -9.8,-17.195 -17.15,-24.117 -7.35,-6.922 -15.94,-12.309 -25.77,-16.153 -9.84,-3.843 -20.36,-5.765 -31.57,-5.765"
         style="fill:#343535;fill-opacity:1;fill-rule:nonzero;stroke:none"
         id="path38" />
      <path
         d="m 2493.82,251.723 c -13.7,0 -25.64,2.656 -35.83,7.968 -10.2,5.313 -18.03,12.899 -23.49,22.758 -5.46,9.856 -8.19,21.496 -8.19,34.918 v 83.262 h 31.46 v -83.262 c 0,-7.691 1.49,-14.367 4.48,-20.027 2.98,-5.664 7.2,-10 12.67,-13.004 5.46,-3.008 11.76,-4.512 18.9,-4.512 7.57,0 14.01,1.504 19.33,4.512 5.31,3.004 9.43,7.34 12.34,13.004 2.91,5.66 4.37,12.336 4.37,20.027 v 83.262 h 31.68 v -83.262 c 0,-13.285 -2.77,-24.855 -8.3,-34.711 -5.54,-9.855 -13.37,-17.48 -23.49,-22.859 -10.12,-5.387 -22.1,-8.074 -35.93,-8.074"
         style="fill:#343535;fill-opacity:1;fill-rule:nonzero;stroke:none"
         id="path40" />
      <path
         d="m 2676.46,251.723 c -12.23,0 -24.25,2.234 -36.05,6.711 -11.79,4.472 -22.28,10.695 -31.46,18.664 l 18.14,22.023 c 8.88,-7.551 17.44,-13.039 25.67,-16.465 8.23,-3.426 16.93,-5.136 26.1,-5.136 6.41,0 11.94,0.734 16.61,2.199 4.66,1.472 8.26,3.601 10.81,6.398 2.55,2.793 3.83,6.082 3.83,9.86 0,5.031 -1.9,8.945 -5.69,11.742 -3.79,2.797 -10.26,4.894 -19.44,6.293 l -30.37,5.035 c -12.96,2.23 -22.86,6.672 -29.71,13.316 -6.85,6.641 -10.26,15.274 -10.26,25.903 0,9.086 2.47,16.949 7.42,23.589 4.95,6.641 11.91,11.747 20.87,15.313 8.95,3.566 19.62,5.348 32,5.348 11.07,0 22.25,-1.782 33.54,-5.348 11.28,-3.566 21.15,-8.633 29.6,-15.207 l -17.04,-22.438 c -16.02,11.743 -32.12,17.618 -48.28,17.618 -5.68,0 -10.64,-0.703 -14.86,-2.098 -4.22,-1.402 -7.46,-3.324 -9.72,-5.77 -2.26,-2.445 -3.38,-5.277 -3.38,-8.492 0,-4.754 1.7,-8.32 5.13,-10.695 3.42,-2.383 8.99,-4.27 16.71,-5.664 l 28.84,-4.406 c 15.29,-2.375 26.76,-7.024 34.41,-13.946 7.64,-6.922 11.47,-16.043 11.47,-27.371 0,-9.508 -2.67,-17.758 -7.98,-24.746 -5.32,-6.992 -12.81,-12.445 -22.5,-16.359 -9.69,-3.91 -21.16,-5.871 -34.41,-5.871"
         style="fill:#343535;fill-opacity:1;fill-rule:nonzero;stroke:none"
         id="path42" />
      <path
         d="m 2790.95,253.82 v 146.809 h 117.54 v -26.426 h -85.86 v -33.558 h 56.58 V 315.27 h -56.58 v -35.024 h 86.73 V 253.82 h -118.41"
         style="fill:#343535;fill-opacity:1;fill-rule:nonzero;stroke:none"
         id="path44" />
      <path
         d="m 1068.09,399.109 0.03,-56.093 h -78.182 v 56.093 H 959.309 V 253.012 h 30.629 v 57.883 l 78.152,-0.004 v -57.879 h 30.63 v 146.097 h -30.63"
         style="fill:#343535;fill-opacity:1;fill-rule:nonzero;stroke:none"
         id="path46" />
      <path
         d="m 2146.08,399.109 0.04,-56.093 h -78.19 v 56.093 H 2037.3 V 253.012 h 30.63 v 57.883 l 78.15,-0.004 v -57.879 h 30.63 v 146.097 h -30.63"
         style="fill:#343535;fill-opacity:1;fill-rule:nonzero;stroke:none"
         id="path48" />
      <path
         d="m 879.602,401.063 -29.922,-90.848 -31.641,90.848 h -23.238 l -31.637,-91.122 -29.809,90.762 -0.117,0.36 h -31.675 l 50.136,-147.458 0.117,-0.351 h 21.512 l 32.809,94.484 33.09,-94.484 h 21.511 l 49.735,147.125 0.23,0.684 h -31.101"
         style="fill:#343535;fill-opacity:1;fill-rule:nonzero;stroke:none"
         id="path50" />
      <path
         d="M 428.555,516.566 428.672,313.641 460.367,261.762 268.426,408.758 76.4805,261.762 108.301,313.641 V 516.566 H 0 V 0 H 108.301 V 154.398 L 268.426,279.641 428.555,154.395 V 0 H 536.852 V 516.566 H 428.555"
         style="fill:#343535;fill-opacity:1;fill-rule:nonzero;stroke:none"
         id="path52" />
      <path
         d="m 2962,387.582 c 0,5.973 -4.98,10.949 -11.95,10.949 -6.96,0 -11.94,-4.976 -11.94,-10.949 0,-5.969 4.98,-10.945 11.94,-10.945 5.98,0 11.95,4.976 11.95,10.945 z m -25.88,0 c 0,6.969 5.97,12.941 13.93,12.941 7.97,0 13.94,-5.972 13.94,-12.941 0,-6.965 -5.97,-12.937 -13.94,-12.937 -7.96,0 -13.93,5.972 -13.93,12.937"
         style="fill:#343535;fill-opacity:1;fill-rule:nonzero;stroke:none"
         id="path54" />
      <path
         d="m 2947.36,392.082 v -3.379 h 4.61 c 0.99,0 1.8,0.711 1.8,1.695 0,0.434 -0.16,0.829 -0.46,1.129 -0.45,0.493 -1.03,0.555 -1.54,0.555 z m -2.82,-10.496 v 12.875 h 7.14 c 1.83,0 3.03,-0.527 3.86,-1.395 0.67,-0.707 1.07,-1.632 1.07,-2.668 0,-1.644 -1.03,-2.933 -2.61,-3.628 l 3.02,-5.184 h -3.23 l -2.61,4.738 h -3.82 v -4.738 h -2.82"
         style="fill:#343535;fill-opacity:1;fill-rule:nonzero;stroke:none"
         id="path56" />
    </g>
  </g>
</svg>
