<?xml version="1.0" encoding="UTF-8" standalone="no"?>
<!-- Created with Inkscape (http://www.inkscape.org/) -->

<svg
   version="1.1"
   id="svg2"
   width="288"
   height="288"
   viewBox="0 0 288 288"
   sodipodi:docname="WHK_Logo_Logotype_RevGrey.eps"
   xmlns:inkscape="http://www.inkscape.org/namespaces/inkscape"
   xmlns:sodipodi="http://sodipodi.sourceforge.net/DTD/sodipodi-0.dtd"
   xmlns="http://www.w3.org/2000/svg"
   xmlns:svg="http://www.w3.org/2000/svg">
  <defs
     id="defs6" />
  <sodipodi:namedview
     id="namedview4"
     pagecolor="#ffffff"
     bordercolor="#000000"
     borderopacity="0.25"
     inkscape:showpageshadow="2"
     inkscape:pageopacity="0.0"
     inkscape:pagecheckerboard="0"
     inkscape:deskcolor="#d1d1d1" />
  <g
     id="g8"
     inkscape:groupmode="layer"
     inkscape:label="ink_ext_XXXXXX"
     transform="matrix(1.3333333,0,0,-1.3333333,0,288)">
    <g
       id="g10"
       transform="scale(0.1)">
      <path
         d="m 729.297,924.039 29.558,27 h 17.805 l -26.894,-24.238 31.738,-37.84 h -17.899 l -23.925,28.898 -10.383,-9.41 v -19.488 h -14.238 v 62.078 h 14.238 v -27"
         style="fill:#000000;fill-opacity:1;fill-rule:nonzero;stroke:none"
         id="path12" />
      <path
         d="M 851.184,915.488 H 827.355 V 900.66 h 41.922 v -11.699 h -56.062 v 62.078 h 53.789 V 939.25 h -39.649 v -12.07 h 23.829 v -11.692"
         style="fill:#000000;fill-opacity:1;fill-rule:nonzero;stroke:none"
         id="path14" />
      <path
         d="m 964.758,951.039 v -62.078 h -12.262 l -32.828,38.41 h -0.098 v -38.41 h -14.238 v 62.078 h 12.156 l 32.934,-38.5 h 0.098 v 38.5 h 14.238"
         style="fill:#000000;fill-opacity:1;fill-rule:nonzero;stroke:none"
         id="path16" />
      <path
         d="m 999.336,951.039 h 60.904 V 939.25 h -23.34 v -50.289 h -14.13 v 50.289 h -23.434 v 11.789"
         style="fill:#000000;fill-opacity:1;fill-rule:nonzero;stroke:none"
         id="path18" />
      <path
         d="m 1152.56,951.039 v -39.738 c 0,-15.492 -12.46,-24.242 -29.56,-24.242 -16.62,0 -29.37,8.75 -29.37,24.242 v 39.738 h 14.23 v -39.738 c 0,-8.172 6.83,-12.551 15.14,-12.551 8.8,0 15.32,4.379 15.32,12.551 v 39.738 h 14.24"
         style="fill:#000000;fill-opacity:1;fill-rule:nonzero;stroke:none"
         id="path20" />
      <path
         d="m 1256.55,899.801 c -7.42,-6.653 -18.69,-12.742 -32.83,-12.742 -21.45,0 -35.59,14.742 -35.59,32.992 0,17.871 14.23,32.89 35.09,32.89 11.87,0 23.54,-4.472 31.25,-10.839 l -8.89,-8.93 c -5.94,4.937 -14.24,7.976 -21.17,7.976 -13.05,0 -21.45,-9.597 -21.45,-21.187 0,-11.699 8.6,-21.211 21.95,-21.211 8.8,0 17,4.469 22.64,9.891 l 9,-8.84"
         style="fill:#000000;fill-opacity:1;fill-rule:nonzero;stroke:none"
         id="path22" />
      <path
         d="m 1305.36,924.039 29.56,27 h 17.8 l -26.89,-24.238 31.74,-37.84 h -17.9 l -23.93,28.898 -10.38,-9.41 v -19.488 h -14.24 v 62.078 h 14.24 v -27"
         style="fill:#000000;fill-opacity:1;fill-rule:nonzero;stroke:none"
         id="path24" />
      <path
         d="m 1444.94,951.039 -25.6,-33.75 v -28.328 h -14.24 v 28.328 l -25.72,33.75 h 17.61 l 15.72,-21.578 15.62,21.578 h 16.61"
         style="fill:#000000;fill-opacity:1;fill-rule:nonzero;stroke:none"
         id="path26" />
      <path
         d="m 558.813,1047.87 v 118.09 h 25.48 v -118.09 h -25.48"
         style="fill:#000000;fill-opacity:1;fill-rule:nonzero;stroke:none"
         id="path28" />
      <path
         d="m 678.676,1046.18 c -9.848,0 -19.512,1.8 -29,5.4 -9.488,3.6 -17.926,8.6 -25.309,15.01 l 14.59,17.72 c 7.145,-6.07 14.027,-10.49 20.648,-13.24 6.618,-2.76 13.622,-4.14 21,-4.14 5.153,0 9.606,0.59 13.356,1.77 3.75,1.18 6.648,2.9 8.699,5.15 2.051,2.25 3.078,4.89 3.078,7.93 0,4.05 -1.527,7.19 -4.57,9.45 -3.051,2.24 -8.262,3.93 -15.645,5.06 l -24.425,4.05 c -10.426,1.79 -18.395,5.37 -23.899,10.71 -5.511,5.34 -8.258,12.29 -8.258,20.83 0,7.31 1.989,13.64 5.973,18.98 3.981,5.35 9.574,9.45 16.781,12.32 7.207,2.87 15.789,4.3 25.746,4.3 8.903,0 17.895,-1.43 26.977,-4.3 9.078,-2.87 17.016,-6.95 23.812,-12.23 l -13.707,-18.05 c -12.886,9.44 -25.832,14.17 -38.839,14.17 -4.567,0 -8.551,-0.57 -11.95,-1.69 -3.398,-1.13 -6.004,-2.67 -7.82,-4.64 -1.816,-1.97 -2.723,-4.25 -2.723,-6.83 0,-3.83 1.375,-6.69 4.129,-8.6 2.754,-1.92 7.231,-3.44 13.446,-4.56 l 23.195,-3.54 c 12.305,-1.92 21.527,-5.66 27.68,-11.22 6.148,-5.57 9.226,-12.91 9.226,-22.02 0,-7.65 -2.14,-14.28 -6.414,-19.91 -4.277,-5.62 -10.308,-10.01 -18.101,-13.16 -7.793,-3.14 -17.02,-4.72 -27.676,-4.72"
         style="fill:#000000;fill-opacity:1;fill-rule:nonzero;stroke:none"
         id="path30" />
      <path
         d="m 774.102,1047.87 v 118.09 h 25.484 v -52.8 l 53.777,52.8 h 31.106 l -59.754,-56.18 62.562,-61.91 h -34.089 l -53.602,54.83 v -54.83 h -25.484"
         style="fill:#000000;fill-opacity:1;fill-rule:nonzero;stroke:none"
         id="path32" />
      <path
         d="m 924.012,1047.87 v 118.09 h 94.548 v -21.25 h -69.068 v -27 h 45.52 v -20.41 h -45.52 v -28.17 h 69.768 v -21.26 h -95.248"
         style="fill:#000000;fill-opacity:1;fill-rule:nonzero;stroke:none"
         id="path34" />
      <path
         d="m 1100.47,1047.87 v 45.21 l -50.26,72.88 h 29.34 l 34.45,-51.28 34.44,51.28 h 27.95 l -50.44,-73.05 v -45.04 h -25.48"
         style="fill:#000000;fill-opacity:1;fill-rule:nonzero;stroke:none"
         id="path36" />
      <path
         d="m 1477.12,1068.45 c 5.51,0 10.6,0.98 15.29,2.95 4.68,1.97 8.79,4.67 12.3,8.1 3.52,3.43 6.27,7.51 8.26,12.23 1.99,4.72 2.99,9.79 2.99,15.19 0,5.62 -1,10.74 -2.99,15.35 -1.99,4.61 -4.74,8.63 -8.26,12.06 -3.51,3.43 -7.62,6.13 -12.3,8.1 -4.69,1.96 -9.72,2.95 -15.11,2.95 -5.63,0 -10.81,-0.99 -15.55,-2.95 -4.75,-1.97 -8.88,-4.67 -12.4,-8.1 -3.51,-3.43 -6.26,-7.45 -8.26,-12.06 -1.99,-4.61 -2.98,-9.62 -2.98,-15.02 0,-5.62 0.99,-10.8 2.98,-15.52 2,-4.72 4.75,-8.8 8.26,-12.23 3.52,-3.43 7.65,-6.13 12.4,-8.1 4.74,-1.97 9.86,-2.95 15.37,-2.95 z m 0,-22.44 c -9.14,0 -17.66,1.55 -25.57,4.64 -7.91,3.09 -14.82,7.42 -20.74,12.99 -5.91,5.57 -10.54,12.04 -13.88,19.4 -3.34,7.37 -5.01,15.33 -5.01,23.88 0,8.54 1.67,16.5 5.01,23.87 3.34,7.36 7.97,13.83 13.88,19.4 5.92,5.57 12.83,9.9 20.74,12.99 7.91,3.09 16.43,4.64 25.57,4.64 9.02,0 17.49,-1.55 25.4,-4.64 7.91,-3.09 14.82,-7.42 20.73,-12.99 5.92,-5.57 10.52,-12.04 13.8,-19.4 3.28,-7.37 4.92,-15.33 4.92,-23.87 0,-8.55 -1.64,-16.51 -4.92,-23.88 -3.28,-7.36 -7.88,-13.83 -13.8,-19.4 -5.91,-5.57 -12.82,-9.9 -20.73,-12.99 -7.91,-3.09 -16.38,-4.64 -25.4,-4.64"
         style="fill:#000000;fill-opacity:1;fill-rule:nonzero;stroke:none"
         id="path38" />
      <path
         d="m 1633.73,1046.18 c -11.02,0 -20.63,2.14 -28.83,6.41 -8.2,4.27 -14.5,10.38 -18.89,18.31 -4.39,7.93 -6.59,17.29 -6.59,28.09 v 66.97 h 25.31 v -66.97 c 0,-6.19 1.2,-11.56 3.6,-16.12 2.4,-4.55 5.8,-8.04 10.19,-10.46 4.4,-2.41 9.46,-3.62 15.21,-3.62 6.09,0 11.27,1.21 15.55,3.62 4.27,2.42 7.58,5.91 9.93,10.46 2.34,4.56 3.51,9.93 3.51,16.12 v 66.97 h 25.48 v -66.97 c 0,-10.69 -2.22,-20 -6.68,-27.92 -4.45,-7.93 -10.74,-14.07 -18.89,-18.39 -8.14,-4.34 -17.77,-6.5 -28.9,-6.5"
         style="fill:#000000;fill-opacity:1;fill-rule:nonzero;stroke:none"
         id="path40" />
      <path
         d="m 1780.65,1046.18 c -9.84,0 -19.51,1.8 -29,5.4 -9.49,3.6 -17.92,8.6 -25.3,15.01 l 14.58,17.72 c 7.15,-6.07 14.03,-10.49 20.65,-13.24 6.62,-2.76 13.62,-4.14 21,-4.14 5.16,0 9.61,0.59 13.36,1.77 3.75,1.18 6.65,2.9 8.7,5.15 2.05,2.25 3.07,4.89 3.07,7.93 0,4.05 -1.52,7.19 -4.57,9.45 -3.04,2.24 -8.26,3.93 -15.64,5.06 l -24.43,4.05 c -10.42,1.79 -18.39,5.37 -23.89,10.71 -5.51,5.34 -8.26,12.29 -8.26,20.83 0,7.31 1.99,13.64 5.97,18.98 3.98,5.35 9.58,9.45 16.78,12.32 7.21,2.87 15.79,4.3 25.75,4.3 8.9,0 17.89,-1.43 26.98,-4.3 9.07,-2.87 17.01,-6.95 23.81,-12.23 l -13.71,-18.05 c -12.89,9.44 -25.83,14.17 -38.84,14.17 -4.57,0 -8.55,-0.57 -11.95,-1.69 -3.4,-1.13 -6,-2.67 -7.82,-4.64 -1.82,-1.97 -2.72,-4.25 -2.72,-6.83 0,-3.83 1.37,-6.69 4.13,-8.6 2.75,-1.92 7.23,-3.44 13.44,-4.56 l 23.2,-3.54 c 12.3,-1.92 21.53,-5.66 27.68,-11.22 6.15,-5.57 9.22,-12.91 9.22,-22.02 0,-7.65 -2.14,-14.28 -6.41,-19.91 -4.28,-5.62 -10.31,-10.01 -18.1,-13.16 -7.8,-3.14 -17.02,-4.72 -27.68,-4.72"
         style="fill:#000000;fill-opacity:1;fill-rule:nonzero;stroke:none"
         id="path42" />
      <path
         d="m 1872.75,1047.87 v 118.09 h 94.55 v -21.25 h -69.07 v -27 h 45.52 v -20.41 h -45.52 v -28.17 H 1968 v -21.26 h -95.25"
         style="fill:#000000;fill-opacity:1;fill-rule:nonzero;stroke:none"
         id="path44" />
      <path
         d="m 486.844,1164.74 0.027,-45.12 h -62.894 v 45.12 h -24.641 v -117.52 h 24.641 v 46.56 h 62.867 v -46.56 h 24.636 v 117.52 h -24.636"
         style="fill:#000000;fill-opacity:1;fill-rule:nonzero;stroke:none"
         id="path46" />
      <path
         d="m 1354,1164.74 0.03,-45.12 h -62.9 v 45.12 h -24.63 v -117.52 h 24.63 v 46.56 H 1354 v -46.56 h 24.64 v 117.52 H 1354"
         style="fill:#000000;fill-opacity:1;fill-rule:nonzero;stroke:none"
         id="path48" />
      <path
         d="m 335.219,1166.31 -24.071,-73.08 -25.453,73.08 h -18.691 l -25.449,-73.3 -23.977,73.01 -0.098,0.29 H 192 l 40.332,-118.61 0.094,-0.29 h 17.304 l 26.391,76.01 26.621,-76.01 h 17.301 l 40.008,118.35 0.187,0.55 h -25.019"
         style="fill:#000000;fill-opacity:1;fill-rule:nonzero;stroke:none"
         id="path50" />
      <path
         d="m 2010.58,1155.34 c 0,4.81 -4.01,8.82 -9.63,8.82 -5.61,0 -9.62,-4.01 -9.62,-8.82 0,-4.82 4.01,-8.83 9.62,-8.83 4.82,0 9.63,4.01 9.63,8.83 z m -20.86,0 c 0,5.61 4.81,10.43 11.23,10.43 6.42,0 11.23,-4.82 11.23,-10.43 0,-5.62 -4.81,-10.43 -11.23,-10.43 -6.42,0 -11.23,4.81 -11.23,10.43"
         style="fill:#000000;fill-opacity:1;fill-rule:nonzero;stroke:none"
         id="path52" />
      <path
         d="m 1998.78,1158.96 v -2.72 h 3.72 c 0.79,0 1.45,0.57 1.45,1.37 0,0.35 -0.13,0.67 -0.37,0.91 -0.36,0.4 -0.83,0.44 -1.24,0.44 z m -2.27,-8.46 v 10.38 h 5.75 c 1.48,0 2.45,-0.42 3.12,-1.12 0.53,-0.57 0.85,-1.32 0.85,-2.15 0,-1.33 -0.82,-2.37 -2.09,-2.93 l 2.43,-4.18 h -2.61 l -2.1,3.82 h -3.08 v -3.82 h -2.27"
         style="fill:#000000;fill-opacity:1;fill-rule:nonzero;stroke:none"
         id="path54" />
    </g>
  </g>
</svg>
