<?xml version="1.0" encoding="UTF-8"?>
<svg width="100px" height="36px" viewBox="0 0 100 36" version="1.1" xmlns="http://www.w3.org/2000/svg" xmlns:xlink="http://www.w3.org/1999/xlink">
    <title>Yanrongyun</title>
    <defs>Yanrongyun Logo</defs>
    <g id="logo" stroke="none" stroke-width="1" fill="none" fill-rule="evenodd">
        <g id="A4" transform="translate(-483.000000, -34.000000)">
            <g id="Group" transform="translate(483.000000, 34.000000)">
                <polygon id="Fill-1" fill="#FBC700" points="17 9.52197163 9 5 9 14"></polygon>
                <polygon id="Fill-2" fill="#E87E00" points="27 5 19 9.52197163 27 14"></polygon>
                <polygon id="Fill-3" fill="#F4A100" points="17.9620727 0 10 4.48408705 17.9399817 9 26 4.48149958"></polygon>
                <polygon id="Fill-4" fill="#8EC31F" points="28 25 36 20.5186482 28.0042934 16"></polygon>
                <polygon id="Fill-5" fill="#4A9726" points="19 31.4922705 27 36 26.9650995 27"></polygon>
                <polygon id="Fill-6" fill="#59AF2F" points="28 36 36 31.2954192 35.9867105 22 28.0045184 26.6002497"></polygon>
                <polygon id="Fill-7" fill="#08828C" points="0 20.5186482 8 25 7.99570657 16"></polygon>
                <polygon id="Fill-8" fill="#27B6B6" points="9 36 17 31.4922705 9.03517015 27"></polygon>
                <polygon id="Fill-9" fill="#00A7B4" points="0 31.2954192 8 36 7.99521595 26.6002497 0.0132890365 22"></polygon>
                <path d="M52.8262602,28.4392799 L51.5102743,25.3486052 L51.4900193,25.3486052 L50.1537784,28.4392799 L52.8262602,28.4392799 Z M51.1110459,24 L51.978487,24 L55,31 L53.8833347,31 L53.1747044,29.2698624 L49.8144343,29.2698624 L49.1166653,31 L48,31 L51.1110459,24 Z" id="Fill-10" fill="#4A4747"></path>
                <polygon id="Fill-11" fill="#4A4747" points="56 24 57.2308946 24 61.0420942 29.7538353 61.0619427 29.7538353 61.0619427 24 62 24 62 31 60.8079394 31 56.9576182 25.2455827 56.9380573 25.2455827 56.9380573 31 56 31"></polygon>
                <g id="Group-56" transform="translate(41.000000, 5.000000)">
                    <path d="M40.0349028,22.3451468 C40.0349028,20.8891468 39.0568749,19.6953596 37.5456516,19.6953596 C36.0360749,19.6953596 35.0569493,20.8891468 35.0569493,22.3451468 C35.0569493,23.8022532 36.0360749,24.9957638 37.5456516,24.9957638 C39.0568749,24.9957638 40.0349028,23.8022532 40.0349028,22.3451468 M34.1063633,22.3451468 C34.1063633,20.3721894 35.5327912,18.8498064 37.5456516,18.8498064 C39.5596098,18.8498064 40.9863121,20.3721894 40.9863121,22.3451468 C40.9863121,24.3186574 39.5596098,25.8410404 37.5456516,25.8410404 C35.5327912,25.8410404 34.1063633,24.3186574 34.1063633,22.3451468" id="Fill-12" fill="#4A4747"></path>
                    <polygon id="Fill-14" fill="#4A4747" points="43.7210581 19.0192213 44.8961186 19.0192213 48.530793 24.4877957 48.5500023 24.4877957 48.5500023 19.0192213 49.444607 19.0192213 49.444607 25.6721787 48.3076907 25.6721787 44.6348721 20.2030511 44.6162116 20.2030511 44.6162116 25.6721787 43.7210581 25.6721787"></polygon>
                    <path d="M58.3850553,21.9510532 L58.3850553,25.2300957 C57.742367,25.6245213 56.688874,25.8408191 55.8867484,25.8408191 C53.6494135,25.8408191 52.3536088,24.2343511 52.3536088,22.3452021 C52.3536088,20.3722447 53.7803112,18.8498617 55.7937205,18.8498617 C57.005553,18.8498617 57.742367,19.1790106 58.2541577,19.7147766 L57.6213484,20.4010106 C57.0799205,19.8743723 56.4553437,19.6954149 55.7937205,19.6954149 C54.2833205,19.6954149 53.3047437,20.8892021 53.3047437,22.3452021 C53.3047437,23.8490532 54.4142181,24.9958191 55.8678135,24.9958191 C56.4923902,24.9958191 57.0892507,24.8732872 57.4907251,24.6473085 L57.4907251,22.7966064 L56.0264274,22.7966064 L56.0264274,21.9510532 L58.3850553,21.9510532 Z" id="Fill-16" fill="#4A4747"></path>
                    <path d="M29.7358902,22.6368447 C30.7334019,22.523717 31.3579786,21.7249085 31.3579786,20.8796319 C31.3579786,20.0432064 30.9293367,19.0192489 29.2416623,19.0192489 L26.9203553,19.0192489 L26.9203553,25.6722064 L27.8130391,25.6722064 L27.8130391,19.8130787 L27.8155088,19.8130787 L27.8155088,19.8086532 L28.989746,19.8086532 C29.6982949,19.8086532 30.4071181,19.9776532 30.4071181,20.8796319 C30.4071181,21.7816106 29.6982949,21.9511638 28.989746,21.9511638 L28.3209879,21.9511638 L28.3209879,22.7400149 L28.812746,22.7400149 L30.4908158,25.6722064 L31.6096205,25.6722064 L29.7358902,22.6368447 Z" id="Fill-18" fill="#4A4747"></path>
                    <polygon id="Fill-20" fill="#4A4747" points="3.92017953 22.2195447 6.01536558 19.0193319 4.92482605 19.0193319 3.35597488 21.352417"></polygon>
                    <polygon id="Fill-22" fill="#4A4747" points="3.63799488 22.649817 3.0718693 21.778817 3.06994837 21.781583 1.27058558 19.0192213 0.124064651 19.0192213 2.62209721 22.8337532 2.62209721 25.6721787 3.25079023 25.6721787 3.51752512 25.6721787 3.62674372 25.6721787 3.62674372 22.666966"></polygon>
                    <path d="M57.297013,2.28141702 L57.297013,2.18737447 L57.297013,1.39409787 L57.297013,1.04641702 C57.297013,0.922225532 57.1952037,0.824034043 57.0739107,0.824034043 L45.4037107,0.824034043 L45.0016874,2.50297021 L57.0739107,2.50297021 C57.1952037,2.50297021 57.297013,2.40505532 57.297013,2.28141702" id="Fill-24" fill="#4C4948"></path>
                    <path d="M44.7394256,8.08328936 L47.952593,8.08328936 L44.3209372,14.9149277 L44.3258767,14.9149277 C43.837686,15.8824596 44.3513977,16.5769915 45.4084581,16.571183 L58.2819837,16.571183 C58.4035512,16.5548638 58.574514,16.3283319 58.516886,16.1358213 L57.0108767,11.4218 C56.9955093,11.2995447 56.8860163,11.2096511 56.7639,11.225417 L55.0943372,11.5338213 C55.0943372,11.549034 55.6804953,13.4149489 56.1406953,14.8709489 L46.6705093,14.8709489 L50.2695093,8.12422553 L50.292286,8.08328936 L58.7441047,8.08328936 C58.8664953,8.08328936 58.9691279,7.98537447 58.9691279,7.86145957 L58.9691279,7.76714043 L58.9691279,6.97469362 L58.9691279,6.62618298 C58.9691279,6.50226809 58.8664953,6.40435319 58.7441047,6.40435319 L43.7325837,6.40435319 L43.3308349,8.08328936 L44.7394256,8.08218298 L44.7394256,8.08328936 Z" id="Fill-26" fill="#4C4948"></path>
                    <path d="M5.01746977,12.5535468 L4.87010698,12.4202277 C4.84925116,12.4016957 4.83882326,12.3723766 4.84568372,12.344717 C5.17992558,10.9423766 5.24468837,9.41307872 5.26060465,8.22233404 L3.79466047,8.09924894 L3.79466047,8.10118511 L3.74993023,8.09869574 C3.63385116,8.09095106 3.53396279,8.1797383 3.52655349,8.2964617 L3.52435814,8.33407872 L3.52216279,8.33518511 L3.5207907,8.33518511 C3.52024186,8.35841915 3.5194186,8.3813766 3.51886977,8.40488723 L3.51804651,8.41927021 L3.51804651,8.41844043 C3.42090233,11.5179723 3.22002791,14.1832489 0.361683721,15.4636106 L0.361683721,15.4752277 L0.249995349,15.5269511 C0.140776744,15.5795043 0.0927534884,15.7111638 0.14544186,15.8220787 L0.745869767,17.0731213 C1.60123256,16.7489511 2.31691628,16.3174617 2.91350233,15.7769936 L2.93929767,15.7617809 L2.93737674,15.754866 C3.42474419,15.3081638 3.83280465,14.7889936 4.15716744,14.1857383 C4.16814419,14.1649936 4.18762791,14.1508872 4.21013023,14.1470149 C4.23427907,14.1439723 4.2554093,14.1497809 4.27187442,14.1655468 L4.28586977,14.1779936 L4.28586977,14.163334 L6.48862791,16.1835894 C6.58083256,16.2649085 6.72243256,16.2582702 6.80530698,16.165334 L7.76906512,15.0819085 L5.01554884,12.5549298 C5.01637209,12.5543766 5.01637209,12.5543766 5.01746977,12.5535468" id="Fill-28" fill="#4C4948"></path>
                    <path d="M1.00289023,12.1283915 L1.08960651,12.3670936 C1.13323907,12.4766255 1.27182047,12.5554553 1.37939256,12.5117532 L2.57530884,11.9076681 L1.51989488,9.04822128 L0.270466977,9.52562553 C0.163169302,9.56628511 0.109383256,9.68632766 0.149448372,9.79475319 L1.00289023,12.1283915 Z" id="Fill-30" fill="#4C4948"></path>
                    <path d="M3.32847814,4.17665106 L3.49998977,4.36141702 C3.58176651,4.44494894 3.74010605,4.46486383 3.82215721,4.38326809 L4.8457386,3.25365106 L2.37816651,0.597502128 L1.25661767,1.62892766 C1.17319442,1.70886383 1.1699014,1.8408 1.2481107,1.92405532 L3.32847814,4.17665106 Z" id="Fill-32" fill="#4C4948"></path>
                    <path d="M13.53342,4.28159149 L15.6239409,2.03978298 L15.7965502,1.85501702 C15.873113,1.76650638 15.88162,1.60608085 15.795727,1.52946383 L14.6091409,0.575485106 L12.144313,3.2346766 L13.2406153,4.29320851 C13.3248619,4.37148511 13.456034,4.36622979 13.53342,4.28159149" id="Fill-34" fill="#4C4948"></path>
                    <path d="M6.48335907,12.3763319 L6.62633116,12.4568213 L6.62797767,12.4537787 L6.63264279,12.4568213 C6.73829395,12.5049489 6.86288,12.4579277 6.91117767,12.3517149 L6.97127535,12.2225447 L6.97539163,12.2203319 L8.00089395,9.75475745 C8.04507535,9.64992766 7.99622884,9.52711915 7.89057767,9.48175745 L6.66118233,8.95511915 L5.46554047,11.8029489 L6.48198698,12.3749489 L6.48335907,12.3763319 Z" id="Fill-36" fill="#4C4948"></path>
                    <path d="M8.62108,9.79472553 L9.47397302,12.1283638 L9.56096372,12.367066 C9.60514512,12.4765979 9.74400093,12.5554277 9.85020093,12.5117255 L11.046666,11.9076404 L9.99125209,9.04819362 L8.7420986,9.52559787 C8.63397767,9.56625745 8.58101488,9.6863 8.62108,9.79472553" id="Fill-38" fill="#4C4948"></path>
                    <path d="M14.9545516,12.3763319 L15.0972493,12.4568213 L15.0994447,12.4537787 L15.1038353,12.4568213 C15.2103098,12.5049489 15.3348958,12.4579277 15.3831935,12.3517149 L15.4430167,12.2225447 L15.447133,12.2203319 L16.4723609,9.75475745 C16.5165423,9.64992766 16.4682447,9.52711915 16.3620447,9.48175745 L15.1326493,8.95511915 L13.9361842,11.8029489 L14.9526307,12.3749489 L14.9545516,12.3763319 Z" id="Fill-40" fill="#4C4948"></path>
                    <path d="M0.660141395,8.27549574 C0.659866977,8.27770851 0.658769302,8.28019787 0.658494884,8.28324043 L0.670020465,8.31449574 C4.50227628,7.69104894 7.02692744,6.31083617 8.38749488,4.09751702 C8.40066698,4.07621915 8.42371814,4.06211277 8.44841581,4.06211277 L8.45088558,4.06211277 C8.47503442,4.06211277 8.49808558,4.07400638 8.51208093,4.09502766 C10.0669367,6.37860213 12.7115088,7.86779362 16.1612251,8.40272979 L16.5097367,7.06981489 L16.5388251,6.95972979 C16.564346,6.84107021 16.4916251,6.72019787 16.3730763,6.69392128 L15.9073879,6.59241064 L15.905467,6.59130426 C15.8719879,6.58466596 15.8404298,6.57636809 15.8074995,6.57055957 L15.2029553,6.43807021 C12.4812716,5.77672979 10.3998065,4.3066234 9.25493209,2.19149574 C9.24587628,2.17434681 9.24340651,2.15415532 9.24889488,2.13534681 C9.39625767,1.59045319 9.49889023,1.0306234 9.5691414,0.378687234 L9.40558791,0.356559574 L9.40558791,0.356006383 L8.08261581,0.180091489 L8.05709488,0.177048936 L8.03349488,0.174006383 C7.90259721,0.152708511 7.77993209,0.242878723 7.75880186,0.374261702 L7.64464372,1.06464468 C7.07028558,3.7802617 5.11944372,5.56070851 1.82587163,6.37915532 L0.489727442,6.67124043 C0.371178605,6.69751702 0.298732093,6.81783617 0.323978605,6.93621915 L0.660141395,8.27549574 Z" id="Fill-42" fill="#4C4948"></path>
                    <path d="M13.3037591,11.4923872 C13.2996428,11.480217 13.2985451,11.4680468 13.3010149,11.4561532 C13.4363033,10.6230468 13.4991451,9.66021702 13.4933823,8.52700426 L13.4942056,8.51206809 C13.4972242,8.38981277 13.4020009,8.28940851 13.2826288,8.28608936 L13.1563963,8.28138723 L11.7955544,8.16466383 C11.7354567,12.6092809 11.1180149,14.4184936 7.86011721,15.562217 L8.43584744,16.6998553 L8.43804279,16.6990255 L8.53052186,16.8959617 C8.63150791,17.1183447 8.98742884,16.9352383 8.98742884,16.9352383 C10.689373,16.2481745 11.860866,15.2491106 12.5603591,13.8890894 C12.5729823,13.8630894 12.5982288,13.8481532 12.6259451,13.8481532 C12.6539358,13.8481532 12.6794567,13.8630894 12.69208,13.8877064 C13.4601777,15.3378979 14.5213544,16.4138553 15.707666,16.9568128 C15.7287963,16.9628979 16.0076056,17.0303872 16.1283498,16.8024723 L16.1283498,16.8016426 L16.78668,15.5539191 C15.1977963,14.8079404 13.9313544,13.3314723 13.3037591,11.4923872" id="Fill-44" fill="#4C4948"></path>
                    <path d="M27.915754,12.4078085 L27.868554,12.4078085 L27.6166377,12.4078085 C27.6012702,12.4078085 27.5859028,12.4011702 27.5762981,12.3881702 C27.5677912,12.3768298 27.5658702,12.3621702 27.5677912,12.3477872 L27.8221772,11.2057234 L27.8262935,11.1863617 L27.8334284,11.1537234 C27.8551074,11.0555319 27.7947353,10.957617 27.6953958,10.9346596 L26.5494237,10.6760426 L26.4196237,11.2604894 L26.1677074,12.3685319 C26.1627679,12.3914894 26.1419121,12.4078085 26.1188609,12.4078085 L25.7700749,12.4078085 C25.7456516,12.4078085 25.7261679,12.3920426 25.7204051,12.3685319 L25.2958795,10.6669149 L24.1564935,10.9534681 C24.0577028,10.9783617 23.9992516,11.0784894 24.023126,11.1764043 L24.3159307,12.3541489 C24.3170284,12.3663191 24.3164795,12.3790426 24.3085214,12.3887234 C24.2986423,12.4011702 24.2851958,12.4078085 24.269554,12.4078085 L23.8348749,12.4078085 L23.5736284,13.726617 L25.0269493,13.726617 C25.0546656,13.726617 25.0771679,13.7495745 25.0771679,13.7777872 L25.0771679,16.4123617 L25.0815586,16.4134681 L25.0815586,16.8015319 C25.0815586,16.9201915 25.1751353,17.0200426 25.2934098,17.0200426 L26.6737353,17.0200426 L26.6737353,17.0153404 L26.6849865,17.0200426 L26.6849865,13.7777872 C26.6849865,13.7495745 26.70694,13.726617 26.7352051,13.726617 L27.868554,13.726617 L27.868554,13.7230213 L28.1385819,13.7230213 L28.1385819,12.633234 C28.1385819,12.5082128 28.0381447,12.4078085 27.915754,12.4078085" id="Fill-46" fill="#4C4948"></path>
                    <path d="M27.9838098,6.12524043 C27.9838098,6.26658085 27.8658098,6.35370851 27.7563167,6.35370851 L24.1455167,6.35370851 C24.0121493,6.35370851 23.9191214,6.25938936 23.9191214,6.12524043 L23.9191214,4.61558085 C23.9191214,4.50687872 24.0055633,4.38711277 24.1455167,4.38711277 L27.7563167,4.38711277 C27.8740423,4.38711277 27.9838098,4.49885745 27.9838098,4.61558085 L27.9838098,6.12524043 Z M22.8952656,3.01519787 C22.4364377,3.01519787 22.0646005,3.39109149 22.0646005,3.8521766 L22.0646005,6.90579362 C22.0646005,7.35996383 22.4446702,7.74332553 22.8952656,7.74332553 L29.00794,7.74332553 C29.4656702,7.74332553 29.8383307,7.36770851 29.8383307,6.90579362 L29.8383307,3.8521766 C29.8383307,3.38251702 29.4736284,3.01519787 29.00794,3.01519787 L22.8952656,3.01519787 Z" id="Fill-48" fill="#4C4948"></path>
                    <path d="M29.8886591,2.02575957 L30.4545102,2.02575957 L30.4545102,0.807078723 C30.4545102,0.682610638 30.3548963,0.58303617 30.2322312,0.58303617 L29.8886591,0.58303617 L27.5975381,0.58303617 L21.7351335,0.58303617 L21.3235056,2.02575957 L27.9916033,2.02575957 L29.8886591,2.02575957 Z" id="Fill-50" fill="#4C4948"></path>
                    <path d="M29.6595195,8.60826809 L22.2436312,8.60826809 C21.7930358,8.60826809 21.4126916,8.98360851 21.4126916,9.42726809 L21.4126916,14.140183 L21.4126916,16.3167149 L21.4126916,16.7960553 C21.4126916,16.9191404 21.5117567,17.0200979 21.6355195,17.0200979 L23.0685335,17.0200979 L23.0685335,17.0129064 L23.2142498,17.0129064 L23.2142498,10.5463745 C23.2142498,10.2780766 23.4398219,10.0515447 23.7051847,10.0515447 L28.2144312,10.0515447 C28.4677195,10.0515447 28.6880777,10.2819489 28.6880777,10.5463745 L28.6883521,17.0129064 L28.8346172,17.0129064 L28.8346172,17.0200979 L30.2676312,17.0200979 C30.3908451,17.0200979 30.4899102,16.9191404 30.4899102,16.7960553 L30.4899102,9.42726809 C30.4899102,8.97558723 30.1175242,8.60826809 29.6595195,8.60826809" id="Fill-52" fill="#4C4948"></path>
                    <path d="M35.3159181,9.8979234 L35.3159181,4.51785957 C35.3159181,4.4899234 35.3386949,4.46724255 35.36696,4.46724255 L35.930067,4.46724255 C36.0675507,4.46724255 36.1921367,4.60166809 36.1921367,4.74909362 L36.1921367,9.66751915 C36.1921367,9.81439149 36.0675507,9.94881702 35.930067,9.94881702 L35.36696,9.94881702 C35.3386949,9.94881702 35.3159181,9.92613617 35.3159181,9.8979234 Z M33.5673228,9.8979234 C33.5673228,9.92613617 33.544546,9.94881702 33.517653,9.94881702 L32.953174,9.94881702 C32.8165135,9.94881702 32.6908298,9.81439149 32.6908298,9.66751915 L32.6908298,4.74909362 C32.6908298,4.59724255 32.8357228,4.46724255 32.953174,4.46724255 L33.517653,4.46724255 C33.544546,4.46724255 33.5673228,4.4899234 33.5673228,4.51785957 L33.5673228,9.8979234 Z M37.7788251,13.0121149 C37.7640065,12.8904128 37.6545135,12.8007957 37.5312995,12.8160085 L36.1095367,12.9980085 L36.1114577,13.0074128 L36.1095367,13.0074128 L36.3131553,14.4437745 C36.3131553,14.4681149 36.2969647,14.4891362 36.2736391,14.4938383 L35.4278809,14.6351787 C35.4130623,14.6384979 35.3985181,14.6340723 35.387267,14.6246681 C35.3760158,14.6147106 35.3686065,14.6000511 35.3686065,14.5853915 L35.3686065,11.5140723 C35.3686065,11.4853064 35.3916577,11.4631787 35.4188251,11.4631787 L36.8463507,11.4631787 C37.3641786,11.4631787 37.7121414,11.0911574 37.7121414,10.5371362 L37.7121414,3.80811489 C37.7121414,3.33458298 37.3156065,2.93545532 36.8463507,2.93545532 L35.4188251,2.93545532 C35.3916577,2.93545532 35.3686065,2.91249787 35.3686065,2.8845617 L35.3686065,0.236987234 L35.1685553,0.236987234 L33.9454716,0.236987234 L33.7360902,0.236987234 C33.6117786,0.236987234 33.5121647,0.337114894 33.5121647,0.4602 L33.5121647,2.88926383 C33.5099693,2.91471064 33.4902112,2.93545532 33.4641414,2.93545532 L32.0196019,2.93545532 C31.5423879,2.93545532 31.1546344,3.3265617 31.1546344,3.80811489 L31.1546344,10.5725404 C31.1546344,11.0552 31.550346,11.4631787 32.0196019,11.4631787 L33.4641414,11.4631787 C33.4921321,11.4631787 33.5140856,11.4853064 33.5140856,11.5140723 L33.5140856,14.9228383 C33.5140856,14.9471787 33.4962484,14.9687532 33.4718251,14.9726255 L31.1444809,15.3927745 L31.1444809,16.8354979 L31.1444809,16.8673064 L31.1444809,16.876434 C31.1702763,16.9978596 31.2860809,17.0742 31.4060019,17.0493064 L34.0214856,16.5459021 L36.4841181,16.0806681 C36.48796,16.0795617 36.4907042,16.0795617 36.4948205,16.0795617 C36.5044251,16.0795617 36.5143042,16.0828809 36.5222623,16.0886894 C36.5244577,16.0892426 36.5244577,16.0906255 36.5250065,16.0911787 L36.6679786,17.0537319 L38.0900158,16.8714553 C38.2124065,16.855966 38.2955553,16.7409021 38.2804623,16.6194766 L37.7788251,13.0121149 Z" id="Fill-54" fill="#4C4948"></path>
                </g>
            </g>
        </g>
    </g>
</svg>
