<svg width="153" height="140" viewBox="0 0 153 140" fill="none" xmlns="http://www.w3.org/2000/svg">
<path d="M21.0015 26.9382C21.0015 20.2594 26.4157 14.8452 33.0944 14.8452H119.76C126.439 14.8452 131.853 20.2594 131.853 26.9382V113.604C131.853 120.283 126.439 125.697 119.76 125.697H33.0944C26.4157 125.697 21.0015 120.283 21.0015 113.604V26.9382Z" fill="#F44238"/>
<path d="M88.3707 45.0776H100.739C101.226 45.0776 101.621 45.4752 101.621 45.9667V57.913C101.625 58.4045 101.236 58.8069 100.748 58.8117C100.746 58.8117 100.741 58.8117 100.739 58.8117H97.2398C96.7523 58.8117 96.3579 58.4142 96.3579 57.9226V54.2337L59.07 90.1592H66.7394C67.2269 90.1592 67.6212 90.5567 67.6212 91.0483V94.5758C67.6212 95.0673 67.2269 95.4649 66.7394 95.4649H52.1153C51.6277 95.4649 51.2334 95.0673 51.2334 94.5758V90.1761L92.5627 50.3785H88.3707C87.8832 50.3785 87.4889 49.9809 87.4889 49.4894V45.9667C87.4889 45.4752 87.8832 45.0776 88.3707 45.0776ZM56.4913 50.2436H79.9868C80.4744 50.2436 80.8687 49.846 80.8687 49.3545V45.9667C80.8687 45.4776 80.4768 45.08 79.9916 45.0776H52.1153C51.6277 45.0776 51.2334 45.4752 51.2334 45.9667V58.0576C51.2334 58.5491 51.6277 58.9467 52.1153 58.9467H55.6142C56.0993 58.9442 56.4913 58.5467 56.4913 58.0576V50.2436ZM96.3579 90.1592H75.1042C74.6166 90.1592 74.2223 90.5567 74.2223 91.0483V94.5758C74.2223 95.0673 74.6166 95.4649 75.1042 95.4649H100.739C101.226 95.4649 101.621 95.0673 101.621 94.5758V82.1067C101.618 81.6151 101.226 81.22 100.739 81.2176H97.2398C96.7523 81.2176 96.3579 81.6151 96.3579 82.1067V90.1592Z" fill="white"/>
</svg>
