<svg id="b6bdd2b4-52ab-488a-9a30-1e6d1d7dd2d4" data-name="Layer 1" xmlns="http://www.w3.org/2000/svg" viewBox="0 0 611.8 144"><defs><style>.a737459c-e8c7-4afa-8008-f6cfd15ccda2{fill:#e00;}</style></defs><path d="M579.3,92.3c0,11.9,7.2,17.7,20.2,17.7a53.39,53.39,0,0,0,11.9-1.7V94.5a25.27,25.27,0,0,1-7.7,1.2c-5.4,0-7.4-1.7-7.4-6.7V67.8h15.6V53.6H596.3v-18l-17,3.7V53.6H568V67.8h11.2l.1,24.5Zm-53,.3c0-3.7,3.7-5.5,9.3-5.5a38.35,38.35,0,0,1,10.1,1.3v7.2a20.82,20.82,0,0,1-10.6,2.6c-5.5,0-8.8-2.1-8.8-5.6m5.2,17.6a26.69,26.69,0,0,0,15.4-4.3v3.4h16.8V73.6c0-13.6-9.1-21-24.4-21-8.5,0-16.9,2-26,6.1l6.1,12.5c6.5-2.7,12-4.4,16.8-4.4,7,0,10.6,2.7,10.6,8.3v2.7a48.92,48.92,0,0,0-12.6-1.6c-14.3,0-22.9,6-22.9,16.7,0,9.8,7.8,17.3,20.2,17.3m-92.4-.9h18.1V80.4h30.3v28.8h18.1V35.6H487.5V63.9H457.2V35.6H439.1ZM370.2,81.4c0-8,6.3-14.1,14.6-14.1a17.72,17.72,0,0,1,11.8,4.3V91.1a16.62,16.62,0,0,1-11.8,4.5c-8.2-.1-14.6-6.2-14.6-14.2m26.6,27.9h16.8V31.9l-17,3.7V56.5a28.14,28.14,0,0,0-14.2-3.7c-16.2,0-28.9,12.5-28.9,28.5a28.25,28.25,0,0,0,27.9,28.6h.5a25.46,25.46,0,0,0,14.9-4.8ZM319.6,66.5c5.4,0,9.9,3.5,11.7,8.8H308.1a11.56,11.56,0,0,1,11.5-8.8m-28.7,15c0,16.2,13.2,28.8,30.3,28.8,9.4,0,16.2-2.5,23.2-8.4l-11.3-10c-2.6,2.7-6.5,4.2-11.1,4.2a14.37,14.37,0,0,1-13.7-8.8h39.6V83.1c0-17.7-11.9-30.4-28.1-30.4a28.58,28.58,0,0,0-29,28.1,1.48,1.48,0,0,1,.1.7M261.6,51.1c6,0,9.4,3.8,9.4,8.3s-3.4,8.3-9.4,8.3H243.7V51.1Zm-36,58.1h18.1V82.4h13.8l13.9,26.8h20.2L275.4,79.7A22.32,22.32,0,0,0,289.3,59c0-13.2-10.4-23.5-26-23.5H225.6v73.7Z" transform="translate(-0.1)"/><path class="a737459c-e8c7-4afa-8008-f6cfd15ccda2" d="M127.1,83c12.5,0,30.6-2.6,30.6-17.5a19.53,19.53,0,0,0-.3-3.4L150,29.7c-1.7-7.1-3.2-10.4-15.7-16.6C124.6,8.1,103.5,0,97.2,0c-5.9,0-7.6,7.5-14.5,7.5C76,7.5,71.1,1.9,64.8,1.9c-6,0-9.9,4.1-12.9,12.5,0,0-8.4,23.7-9.5,27.2a6.15,6.15,0,0,0-.2,1.9c-.1,9.2,36.2,39.4,84.9,39.5m32.5-11.4c1.7,8.2,1.7,9.1,1.7,10.1,0,14-15.7,21.8-36.4,21.8-46.8,0-87.7-27.4-87.7-45.5a18.35,18.35,0,0,1,1.5-7.3C21.9,51.5.1,54.5.1,73.7.1,105.2,74.7,144,133.7,144c45.3,0,56.7-20.5,56.7-36.7,0-12.7-11-27.1-30.8-35.7" transform="translate(-0.1)"/><path d="M159.6,71.6c1.7,8.2,1.7,9.1,1.7,10.1,0,14-15.7,21.8-36.4,21.8-46.8,0-87.7-27.4-87.7-45.5a18.35,18.35,0,0,1,1.5-7.3l3.7-9.1a6.15,6.15,0,0,0-.2,1.9c0,9.2,36.3,39.4,84.9,39.4,12.5,0,30.6-2.6,30.6-17.5a19.53,19.53,0,0,0-.3-3.4Z" transform="translate(-0.1)"/></svg>