<svg height="50" viewBox="0 0 39.687499 13.229167" width="150" xmlns="http://www.w3.org/2000/svg"><g transform="translate(0 -283.77082)"><path d="m37.315145 290.96473v.9101h-.944438v-.9101z" fill="#e61284"/><path d="m6.7776366 290.2672 1.8932244-1.06494v-2.12989l-1.8932244 1.06494z" fill="#7b124c"/><path d="m4.0675155 293.99272-1.8932241-1.06494v-2.1299l1.8932241 1.06495z" fill="#b31ce7"/><path d="m4.064231 291.45881-1.8931791-1.06495v-2.12988l1.8931791 1.06494z" fill="#b31ce7"/><path d="m4.064231 288.9473-1.8931791-1.06495v-2.12989l1.8931791 1.06495z" fill="#e61284"/><path d="m6.3878508 295.30002-1.8932242-1.06495v-2.12989l1.8932242 1.06494z" fill="#e61284"/><path d="m10.802824 285.47081-1.8931795 1.06495-1.8931791-1.06495z" fill="#58168b"/><path d="m6.3878508 292.7718-1.8932242-1.06494v-2.1299l1.8932242 1.06495z" fill="#e61284"/><path d="m6.3878508 290.24358-1.8932242-1.06494v-2.1299l1.8932242 1.06495z" fill="#e61284"/><path d="m8.4780121 286.70195-1.8931788-1.06494-1.8932243 1.06494 1.8932243 1.06494z" fill="#5b1096"/><path d="m2.446176 285.47081 1.8931791 1.06495 1.8932241-1.06495z" fill="#5b1096"/><path d="m9.0979721 294.01634 1.8932239-1.06494v-2.12989l-1.8932239 1.06494z" fill="#5b1096"/><path d="m9.1012564 291.48244 1.8931796-1.06496v-2.12988l-1.8931796 1.06495z" fill="#5b1096"/><path d="m9.1012564 288.97092 1.8931796-1.06495v-2.12989l-1.8931796 1.06495z" fill="#7b124c"/><path d="m6.7776366 295.32364 1.8932244-1.06495v-2.12989l-1.8932244 1.06495z" fill="#7b124c"/><path d="m6.7776366 292.79542 1.8932244-1.06494v-2.12989l-1.8932244 1.06494z" fill="#7b124c"/><g fill="#080c1d"><path d="m18.460246 287.97465v.97096h-1.037144v2.9349h-1.224718v-2.9349h-1.026116v-.97096z"/><path d="m20.750995 291.88051-.739253-1.40125v1.40125h-1.224719v-3.90586h1.820528q.474449 0 .810962.17103.336526.1655.502028.45788.171024.28688.171024.65098 0 .39169-.220675.69511-.215153.30343-.623388.43583l.849571 1.49503zm-.739253-2.21773h.485478q.176531 0 .264804-.0772.08827-.0828.08827-.25378 0-.15446-.09379-.24273-.08826-.0883-.259283-.0883h-.485478z"/><path d="m23.707541 287.97465v3.90586h-1.224718v-3.90586z"/><path d="m25.4854 290.9537h1.180576v.92681h-2.405294v-3.90586h1.224718z"/><path d="m28.954655 287.90845q.551679 0 1.009565.2593.457886.25376.72269.71166.270325.45788.270325 1.03162 0 .57375-.270325 1.03164-.264804.45788-.728211.71718-.457886.25928-1.004044.25928-.551679 0-1.015086-.25928-.457886-.2593-.728211-.71718-.270312-.45789-.270312-1.03164 0-.57374.270312-1.03162.270325-.4579.728211-.71166.463407-.2593 1.015086-.2593zm0 1.13094q-.369627 0-.568229.23722-.198603.23171-.198603.63442 0 .39721.198603.63443.198602.23171.568229.23171.364105 0 .562708-.23171.198603-.23722.198603-.63443 0-.40271-.198603-.63442-.198603-.23722-.562708-.23722z"/><path d="m35.139534 291.88051h-1.224718l-1.29644-1.96396v1.96396h-1.224719v-3.90586h1.224719l1.29644 1.99707v-1.99707h1.224718z"/></g></g></svg>