<svg xmlns="http://www.w3.org/2000/svg" viewBox="0 0 578.98 263.23"><defs><style>.cls-1{fill:#231f20;}.cls-2{fill:#fc544c;}</style></defs><title>CL centred logo</title><g id="Layer_2" data-name="Layer 2"><g id="Layer_1-2" data-name="Layer 1"><path class="cls-1" d="M14.31,228.33a15.57,15.57,0,0,1,2.75-5.18,11.92,11.92,0,0,1,4.46-3.37A15.39,15.39,0,0,1,28,218.53a13.92,13.92,0,0,1,5.88,1.23,14.6,14.6,0,0,1,5,4A2.21,2.21,0,0,0,42,224l6.6-5.85a2.19,2.19,0,0,0,.15-3.14,25.22,25.22,0,0,0-9.49-6.53A31.14,31.14,0,0,0,28,206.46a29.27,29.27,0,0,0-11.33,2.13,26.39,26.39,0,0,0-8.88,6,26.89,26.89,0,0,0-5.74,9,30.58,30.58,0,0,0-2,11.22,31,31,0,0,0,2,11.34,27.24,27.24,0,0,0,5.68,9h0a25,25,0,0,0,8.91,6A30.36,30.36,0,0,0,28,263.23a30.26,30.26,0,0,0,11.13-2.08h0a23.76,23.76,0,0,0,9.37-6.67,2.2,2.2,0,0,0-.15-3.05l-6.16-5.85a2.21,2.21,0,0,0-3.31.31,12.32,12.32,0,0,1-4.58,3.94,14.18,14.18,0,0,1-6.3,1.32,14,14,0,0,1-6-1.23,13,13,0,0,1-4.52-3.43,16.78,16.78,0,0,1-3-5.22,18.65,18.65,0,0,1-1.09-6.43,21.31,21.31,0,0,1,1-6.51Z"/><path class="cls-1" d="M89.27,207.13a9.78,9.78,0,0,0-2.2-.55h0a16.27,16.27,0,0,0-2-.12,22.07,22.07,0,0,0-11.71,3.26,19.92,19.92,0,0,0-3,2.39c0-.72-.06-1.45-.06-2.16a2.21,2.21,0,0,0-2.21-2.21H60.2A2.22,2.22,0,0,0,58,210q0,2.53.22,5.58t.2,6.23v38a2.21,2.21,0,0,0,2.21,2.21h8.3a2.21,2.21,0,0,0,2.21-2.21V235.48c0-5.47,1.1-9.52,3.06-12.3a8.44,8.44,0,0,1,3.59-3,13.93,13.93,0,0,1,5.71-1.05,13.18,13.18,0,0,1,3.83.55,2.21,2.21,0,0,0,2.84-2l.53-8.41A2.21,2.21,0,0,0,89.27,207.13Z"/><path class="cls-1" d="M142.35,214.38a26.9,26.9,0,0,0-9.15-5.85,32.73,32.73,0,0,0-22.89,0,26.89,26.89,0,0,0-9.15,5.85,27.36,27.36,0,0,0-6,9,31.24,31.24,0,0,0,0,23,27.24,27.24,0,0,0,6,9,26.77,26.77,0,0,0,9.15,5.86h0a32.58,32.58,0,0,0,22.9,0h0a26.81,26.81,0,0,0,9.15-5.86,27.35,27.35,0,0,0,6-9,31.21,31.21,0,0,0,0-23A27.41,27.41,0,0,0,142.35,214.38Zm-20.6,36.77a15.55,15.55,0,0,1-6.39-1.24,14.67,14.67,0,0,1-4.87-3.43,14.82,14.82,0,0,1-3.1-5.1,20.11,20.11,0,0,1,0-13.06,14.63,14.63,0,0,1,8-8.53,17,17,0,0,1,12.79,0,14.59,14.59,0,0,1,4.86,3.43,14.78,14.78,0,0,1,3.11,5.1,20.18,20.18,0,0,1,0,13.06,14.92,14.92,0,0,1-3.1,5.1,14.74,14.74,0,0,1-4.87,3.43A15.57,15.57,0,0,1,121.75,251.14Z"/><path class="cls-1" d="M232.58,207.74h-8.94a2.2,2.2,0,0,0-2.12,1.58l-9.42,32-11-32.07a2.2,2.2,0,0,0-2.09-1.5h-8.72a2.21,2.21,0,0,0-2.09,1.5l-10.76,32-9.5-32a2.21,2.21,0,0,0-2.12-1.58h-9.15a2.21,2.21,0,0,0-1.79.91,2.24,2.24,0,0,0-.32,2l16.18,49.79a2.22,2.22,0,0,0,2.1,1.52h8.51a2.23,2.23,0,0,0,2.1-1.52l10.68-32.59,12.07,32.67a2.2,2.2,0,0,0,2.07,1.44h8.19a2.2,2.2,0,0,0,2.1-1.53l16.07-49.79a2.21,2.21,0,0,0-2.1-2.89Z"/><path class="cls-1" d="M295.89,177.1h-8.3a2.19,2.19,0,0,0-2.21,2.2v32.84a25.85,25.85,0,0,0-4.95-3.21,24.34,24.34,0,0,0-10.93-2.47A30.32,30.32,0,0,0,258,208.59a26.19,26.19,0,0,0-9,6,27.42,27.42,0,0,0-5.78,9,31.55,31.55,0,0,0,0,22.49,28,28,0,0,0,5.71,9,26.33,26.33,0,0,0,8.66,6,26.8,26.8,0,0,0,10.66,2.15A25.26,25.26,0,0,0,281.08,260a24.32,24.32,0,0,0,4.3-3.15v2.89a2.2,2.2,0,0,0,2.21,2.21h8.3a2.21,2.21,0,0,0,2.21-2.21V179.3a2.19,2.19,0,0,0-2.21-2.2Zm-26,74a15.53,15.53,0,0,1-6.39-1.24h0a14.58,14.58,0,0,1-8-8.53,20.14,20.14,0,0,1,0-13.06,14.57,14.57,0,0,1,8-8.53,16.93,16.93,0,0,1,12.79,0,14.61,14.61,0,0,1,4.87,3.43h0a14.69,14.69,0,0,1,3.11,5.1,20.14,20.14,0,0,1,0,13.06,14.76,14.76,0,0,1-3.11,5.1h0a14.65,14.65,0,0,1-4.87,3.43A15.57,15.57,0,0,1,269.92,251.14Z"/><path class="cls-1" d="M324.62,177.1h-8.3a2.19,2.19,0,0,0-2.21,2.2v80.44a2.21,2.21,0,0,0,2.21,2.21h8.3a2.21,2.21,0,0,0,2.21-2.21V179.3a2.19,2.19,0,0,0-2.21-2.2Z"/><path class="cls-1" d="M352.39,207.74h-8.31a2.21,2.21,0,0,0-1.56.65,2.23,2.23,0,0,0-.65,1.56v49.79a2.22,2.22,0,0,0,2.21,2.21h8.31a2.21,2.21,0,0,0,2.2-2.21V210a2.21,2.21,0,0,0-2.2-2.21Z"/><path class="cls-1" d="M351.44,182.83a8.54,8.54,0,0,0-6.42,0,8.31,8.31,0,1,0,9.13,13.57h0a8.44,8.44,0,0,0,0-11.71A8.28,8.28,0,0,0,351.44,182.83Z"/><path class="cls-1" d="M411.49,212.85h0a18,18,0,0,0-6.71-4.73,24.09,24.09,0,0,0-9.31-1.66,22,22,0,0,0-6.38.9,21.49,21.49,0,0,0-5.32,2.37h0a19.51,19.51,0,0,0-3.06,2.39c0-.72-.06-1.45-.06-2.16a2.21,2.21,0,0,0-2.21-2.21h-7.88a2.21,2.21,0,0,0-2.2,2.21c0,1.69.07,3.55.22,5.58s.21,4,.21,6.23v38a2.21,2.21,0,0,0,2.2,2.21h8.3a2.22,2.22,0,0,0,2.21-2.21V235.48a29.23,29.23,0,0,1,.83-7.22,15.62,15.62,0,0,1,2.41-5.31,10.21,10.21,0,0,1,4-3.25,14,14,0,0,1,6-1.17,11,11,0,0,1,4.23.74,6.35,6.35,0,0,1,2.64,2h0c1.46,1.91,2.32,4.68,2.32,8.56v29.9a2.2,2.2,0,0,0,.65,1.56,2.22,2.22,0,0,0,1.56.65h8.3a2.25,2.25,0,0,0,1.56-.65,2.22,2.22,0,0,0,.64-1.56V229a31,31,0,0,0-1.21-8.87A18.82,18.82,0,0,0,411.49,212.85Z"/><path class="cls-1" d="M454.16,232.67l22.41-21.12a2.21,2.21,0,0,0-1.51-3.81H463.25a2.2,2.2,0,0,0-1.53.62l-18.93,18.3V179.3a2.19,2.19,0,0,0-2.21-2.2h-8.3a2.21,2.21,0,0,0-2.21,2.2v80.44a2.22,2.22,0,0,0,2.21,2.21h8.3a2.2,2.2,0,0,0,2.21-2.21V239.13l20.88,22.13a2.21,2.21,0,0,0,1.6.69h12.24a2.2,2.2,0,0,0,1.58-3.75Z"/><path class="cls-1" d="M529,214a22.88,22.88,0,0,0-8.28-5.64,27.58,27.58,0,0,0-10.4-1.92,29,29,0,0,0-11,2.08,26.08,26.08,0,0,0-8.82,5.87,26.73,26.73,0,0,0-5.8,9,30.68,30.68,0,0,0-2.07,11.4,31.8,31.8,0,0,0,1.88,11h0a26.86,26.86,0,0,0,5.46,9,26,26,0,0,0,8.66,6.1A27.88,27.88,0,0,0,510,263.23a33.24,33.24,0,0,0,13.21-2.47A21.58,21.58,0,0,0,528,258a34.64,34.64,0,0,0,4.22-4,2.22,2.22,0,0,0-.26-3.24l-6.29-4.9a2.2,2.2,0,0,0-2.94.2,18.43,18.43,0,0,1-2.2,2,17.23,17.23,0,0,1-2.44,1.42,17.7,17.7,0,0,1-8.15,1.67,13,13,0,0,1-5.38-1.08,13.79,13.79,0,0,1-4.31-3,15.56,15.56,0,0,1-3-4.48,15.34,15.34,0,0,1-1-3H533.9a2.21,2.21,0,0,0,2.21-2.21v-2.66A35.11,35.11,0,0,0,534.27,223,25,25,0,0,0,529,214Zm-6.47,14.14h-26.1a13.1,13.1,0,0,1,3.87-6.37c2.39-2.13,5.48-3.25,9.69-3.27a16.26,16.26,0,0,1,5.44.84,10.53,10.53,0,0,1,3.88,2.37A11.34,11.34,0,0,1,522.49,228.17Z"/><path class="cls-1" d="M577.56,207.13a9.83,9.83,0,0,0-2.2-.55h0a16.29,16.29,0,0,0-2-.12,22,22,0,0,0-6.38.9,21.6,21.6,0,0,0-5.32,2.37,19.63,19.63,0,0,0-3.06,2.39c0-.73-.06-1.45-.06-2.17a2.21,2.21,0,0,0-2.21-2.21h-7.87a2.21,2.21,0,0,0-2.21,2.21q0,2.53.21,5.58t.21,6.23v38a2.22,2.22,0,0,0,.64,1.56,2.25,2.25,0,0,0,1.56.65h8.3a2.21,2.21,0,0,0,2.21-2.21V235.48c0-5.47,1.1-9.52,3.06-12.3a8.52,8.52,0,0,1,3.6-3,14,14,0,0,1,5.72-1.05,13.19,13.19,0,0,1,3.83.55,2.22,2.22,0,0,0,2.84-2l.53-8.41A2.2,2.2,0,0,0,577.56,207.13Z"/><path class="cls-2" d="M349.32,94l53.94-4.71a5.84,5.84,0,0,0,5.33-5.82l0-.51-.75-8.57A5.85,5.85,0,0,0,402,69l-.51,0-41.26,3.61,17.51-37.54a5.84,5.84,0,0,0-2.83-7.76l-7.8-3.64a5.79,5.79,0,0,0-2.46-.55,5.85,5.85,0,0,0-5.3,3.37L336.47,75.65,300.69,100.7V60l27.08-46.9a5.84,5.84,0,0,0-2.13-8L318.17.79a5.83,5.83,0,0,0-8,2.13l-20.7,35.86L268.79,2.92A5.84,5.84,0,0,0,263.72,0a5.76,5.76,0,0,0-2.91.79l-7.45,4.3a5.83,5.83,0,0,0-2.14,8L278.29,60V100.7L242.52,75.65,219.63,26.56a5.86,5.86,0,0,0-5.3-3.37,5.8,5.8,0,0,0-2.46.55l-7.79,3.64a5.83,5.83,0,0,0-2.83,7.76l17.5,37.54-41.26-3.62L177,69a5.84,5.84,0,0,0-5.82,5.33l-.75,8.57,0,.51a5.84,5.84,0,0,0,5.33,5.82L229.67,94l52.62,36.84.58.41.13.09.61.31h0a11.88,11.88,0,0,0,11.78,0h0l.58-.29.14-.09.59-.42Z"/></g></g></svg>
