<?xml version="1.0" encoding="iso-8859-1"?>
<!-- Generator: Adobe Illustrator 19.0.0, SVG Export Plug-In . SVG Version: 6.00 Build 0)  -->
<svg xmlns="http://www.w3.org/2000/svg" xmlns:xlink="http://www.w3.org/1999/xlink" version="1.1" id="Capa_1" x="0px" y="0px" viewBox="0 0 512.014 512.014" style="enable-background:new 0 0 512.014 512.014;" xml:space="preserve" width="512px" height="512px">
<g transform="translate(-1)">
	<g>
		<g>
			<path d="M487.41,308.415l0.018-40.233c1.873-0.123,3.73-0.423,5.546-0.896c8.431-2.369,15.179-8.697,18.083-16.958     c1.5-4.237,2.149-8.728,1.908-13.217c-1.375-18.505-16.989-32.7-35.542-32.308h-0.62     C451.127,104.384,360.657,34.136,257.007,34.136S62.888,104.384,37.211,204.803h-0.62c-18.552-0.391-34.167,13.803-35.541,32.308     c-0.242,4.483,0.407,8.969,1.908,13.2c2.898,8.269,9.648,14.605,18.083,16.975c1.823,0.475,3.687,0.776,5.567,0.9v40.229     C11.55,312.243,1.009,325.8,1.009,341.336c0,15.537,10.541,29.093,25.599,32.922v52.412     c0.034,28.268,22.941,51.174,51.209,51.208h358.383c28.268-0.034,51.175-22.941,51.209-51.208v-52.412     c15.058-3.828,25.599-17.384,25.6-32.92C513.008,325.801,502.468,312.245,487.41,308.415z M257.007,51.203     c94.187,0.206,176.785,62.928,202.275,153.6H54.732C80.223,114.131,162.82,51.409,257.007,51.203z M25.799,250.895     c-3.163-0.83-5.7-3.189-6.758-6.284c-0.752-2.115-1.072-4.359-0.942-6.6c1.007-9.382,9.06-16.411,18.492-16.141h440.833     c9.432-0.27,17.485,6.76,18.492,16.142c0.129,2.246-0.191,4.496-0.942,6.617c-1.064,3.087-3.6,5.438-6.758,6.267     c-3.016,0.801-6.215,0.568-9.083-0.663c-0.237-0.098-0.491-0.159-0.722-0.27c-0.862-0.416-1.681-0.916-2.446-1.491     c-0.114-0.084-0.245-0.138-0.357-0.226c-0.073-0.057-0.156-0.096-0.23-0.153c-1.533-1.173-3.142-2.243-4.817-3.201     c-0.446-0.258-0.898-0.502-1.353-0.743c-1.74-0.942-3.542-1.763-5.393-2.46l-0.019-0.008c-7.584-2.807-15.798-3.456-23.729-1.877     c-12.015,2.372-22.386,9.893-28.375,20.575c-4.327,7.668-12.385,12.476-21.188,12.642h-0.054     c-1.449-0.036-2.894-0.186-4.319-0.45c-8.054-1.044-15.21-5.656-19.489-12.558c-1.015-1.623-2.13-3.181-3.34-4.665     c-1.083-1.317-2.239-2.573-3.464-3.759c-0.107-0.105-0.2-0.229-0.308-0.332c-8.023-7.729-18.696-12.101-29.836-12.222     c-0.136-0.003-0.267-0.028-0.403-0.029l-0.081,0.008c-0.37-0.002-0.731-0.057-1.103-0.049     c-14.927,0.218-28.605,8.382-35.883,21.417c-4.434,7.942-21.384,12.692-35.217,12.692c-2.301-0.015-4.6-0.152-6.886-0.409     c-0.284-0.029-0.568-0.069-0.853-0.102c-7.674-0.72-15.112-3.038-21.835-6.806c-2.291-1.304-4.228-3.15-5.642-5.375     c-7.278-13.035-20.956-21.198-35.883-21.416c-0.367-0.009-0.742-0.017-1.108-0.017c-1.016,0-2.007,0.124-3.009,0.193     c-0.675,0.047-1.359,0.052-2.028,0.13c-1.322,0.153-2.612,0.413-3.903,0.683c-0.547,0.115-1.106,0.186-1.647,0.321     c-1.273,0.318-2.508,0.742-3.742,1.173c-0.541,0.188-1.098,0.333-1.631,0.542c-1.126,0.444-2.205,0.99-3.29,1.527     c-0.602,0.297-1.224,0.548-1.811,0.872c-0.947,0.525-1.841,1.145-2.749,1.741c-0.666,0.435-1.357,0.825-2,1.298     c-0.786,0.58-1.511,1.25-2.261,1.883c-0.695,0.586-1.42,1.128-2.082,1.759c-0.677,0.646-1.282,1.379-1.922,2.071     c-0.658,0.711-1.35,1.379-1.967,2.139c-0.814,1.002-1.538,2.1-2.276,3.183c-0.362,0.53-0.771,1.009-1.114,1.558l-0.02,0.028     c-1.119,1.742-2.419,3.362-3.878,4.831c-0.319,0.344-0.639,0.685-0.974,1.004c-1.328,1.23-2.776,2.321-4.324,3.258l-0.004-0.004     c-0.541,0.333-1.091,0.624-1.643,0.912c-1.442,0.753-2.951,1.368-4.509,1.836l-0.223,0.068c-0.441,0.123-0.892,0.236-1.405,0.351     c-1.755,0.406-3.545,0.634-5.346,0.681l-0.175,0.01c-0.711,0.011-1.423-0.02-2.131-0.092c-0.254-0.016-0.489-0.089-0.741-0.112     c-0.072-0.014-0.13-0.06-0.203-0.071c-7.591-1.099-14.244-5.658-18.008-12.342c-5.989-10.683-16.36-18.203-28.375-20.575     c-3.26-0.646-6.583-0.919-9.905-0.813c-9.82-0.056-19.372,3.208-27.103,9.263C34.85,251.071,30.181,252.05,25.799,250.895z      M356.909,309.701c-1.601-1.601-3.772-2.499-6.035-2.498H231.407v-21.067c0.579,0.185,1.173,0.304,1.756,0.474     c1.655,0.483,3.299,0.968,4.949,1.338c0.129,0.029,0.256,0.045,0.386,0.073c6.079,1.346,12.282,2.054,18.508,2.115     c0.171,0,0.388-0.02,0.562-0.022c0.262,0.003,0.765,0.022,0.897,0.022c14.167,0,40.675-4.517,50.116-21.442     c4.215-7.505,12.032-12.276,20.634-12.593c1.461,0.061,2.915,0.235,4.349,0.521c0.661,0.109,1.352,0.116,1.998,0.273     c4.405,1.11,8.461,3.305,11.799,6.386c0.063,0.058,0.14,0.093,0.202,0.152c1.774,1.669,3.323,3.56,4.61,5.628     c8.13,13.429,22.84,21.465,38.533,21.05c0.146-0.004,0.286-0.033,0.432-0.038c15.267,0.085,29.387-8.093,36.91-21.379     c4.41-7.856,12.75-12.685,21.758-12.6h0.009c1.461,0.062,2.914,0.245,4.345,0.547c0.683,0.14,1.335,0.367,2,0.559     c1.038,0.297,2.056,0.658,3.05,1.081c0.53,0.227,1.058,0.457,1.571,0.719c1.51,0.751,2.944,1.644,4.284,2.669     c1.65,1.301,3.426,2.434,5.3,3.383l-0.025,42.15h-68.267c-2.264-0.001-4.435,0.897-6.035,2.498     c-1.601,1.601-2.499,3.772-2.498,6.035v59.733c0,9.426-7.641,17.067-17.067,17.067s-17.067-7.641-17.067-17.067v-59.733     C359.409,313.473,358.51,311.302,356.909,309.701z M342.341,324.27v34.133H231.407V324.27H342.341z M171.674,307.203     c-4.713,0-8.533,3.82-8.533,8.533c0,9.426-7.641,17.067-17.067,17.067c-9.426,0-17.067-7.641-17.067-17.067v-25.832     c2.648-0.302,5.261-0.852,7.806-1.643l0.094-0.025c0.058-0.017,0.892-0.275,0.958-0.3l0.076-0.029     c1.348-0.444,2.668-0.947,3.966-1.521l0.15-0.058c0.508-0.217,1.017-0.442,1.467-0.667c0.136-0.068,0.282-0.151,0.418-0.221     c0.951-0.48,1.873-1.004,2.789-1.554c0.257-0.153,0.472-0.271,0.752-0.442l1.283-0.792c0.135-0.092,0.295-0.233,0.43-0.328     c0.801-0.556,1.564-1.165,2.33-1.776c0.275-0.22,0.482-0.352,0.782-0.596c0.458-0.358,0.9-0.717,1.333-1.108     c0.125-0.114,0.251-0.248,0.375-0.365c0.324-0.3,0.634-0.614,0.951-0.923c0.618-0.625,1.258-1.297,1.999-2.096     c0.35-0.367,0.708-0.733,1.05-1.15l0.102-0.139c1.356-1.617,2.6-3.325,3.723-5.111c5.05-8.191,14.021-13.139,23.643-13.041     c8.887,0.1,17.047,4.931,21.409,12.675c1.064,1.85,2.338,3.571,3.797,5.129c0.659,0.731,1.4,1.38,2.128,2.052     c0.526,0.483,0.954,1.006,1.524,1.47v123.733c0,9.426-7.641,17.067-17.067,17.067s-17.067-7.641-17.067-17.067l0-34.142v-51.2     C180.207,311.024,176.387,307.203,171.674,307.203z M111.941,288.304v18.899H43.674v-41.542c2.405-1.035,4.665-2.376,6.725-3.992     c4.383-3.42,9.732-5.371,15.287-5.577c1.645-0.003,3.287,0.145,4.905,0.443c7.139,1.351,13.307,5.806,16.834,12.158     C92.705,278.196,101.511,285.239,111.941,288.304z M35.141,358.403c-9.421-0.012-17.054-7.646-17.067-17.067     c0.013-9.409,7.63-17.038,17.039-17.064l0.028,0.006l77.884-0.008c0.332,1.142,0.724,2.266,1.175,3.367     c0.204,0.544,0.343,1.113,0.574,1.644c0.809,1.871,1.784,3.666,2.914,5.363c0.252,0.377,0.567,0.7,0.833,1.066     c0.921,1.288,1.93,2.511,3.021,3.66c0.499,0.518,1.047,0.973,1.579,1.46c0.97,0.9,1.992,1.744,3.06,2.526     c0.633,0.457,1.281,0.875,1.946,1.289c1.103,0.684,2.245,1.304,3.419,1.858c0.702,0.333,1.394,0.666,2.121,0.952     c1.319,0.502,2.668,0.922,4.039,1.256c0.661,0.168,1.296,0.385,1.972,0.514c8.04,1.604,16.389,0.203,23.465-3.937v13.117H35.141z      M470.341,426.67c-0.022,18.847-15.295,34.12-34.142,34.142H77.816c-18.847-0.022-34.12-15.295-34.142-34.142v-51.2     l119.467,0.009v25.6c0,18.851,15.282,34.133,34.133,34.133s34.133-15.282,34.133-34.133V375.47h110.933     c0,18.851,15.282,34.133,34.133,34.133s34.133-15.282,34.133-34.133h59.733V426.67z M478.874,358.403h-68.267V324.27h68.267     c9.426,0,17.067,7.641,17.067,17.067S488.3,358.403,478.874,358.403z" fill="#FFFFFF"/>
			<path d="M208.308,79.311l-17.067,17.067c-2.18,2.15-3.041,5.304-2.255,8.264c0.786,2.96,3.097,5.271,6.057,6.057     c2.96,0.786,6.114-0.075,8.264-2.255l17.067-17.067c3.293-3.339,3.275-8.709-0.041-12.025     C217.017,76.037,211.646,76.018,208.308,79.311z" fill="#FFFFFF"/>
			<path d="M419.141,443.745c2.263,0,4.433-0.899,6.033-2.5l17.067-17.067c3.32-3.334,3.315-8.727-0.013-12.054     c-3.327-3.327-8.72-3.333-12.054-0.012l-17.067,17.067c-1.601,1.6-2.5,3.77-2.5,6.033c0,2.263,0.899,4.433,2.5,6.033     C414.707,442.845,416.878,443.745,419.141,443.745z" fill="#FFFFFF"/>
			<path d="M105.908,403.578l-17.067,17.067c-2.18,2.15-3.041,5.304-2.255,8.264s3.097,5.271,6.057,6.057s6.113-0.075,8.264-2.255     l17.067-17.067c3.293-3.339,3.275-8.709-0.041-12.025S109.246,400.285,105.908,403.578z" fill="#FFFFFF"/>
			<path d="M250.974,147.578l-17.067,17.067c-2.18,2.15-3.041,5.304-2.255,8.264c0.786,2.96,3.097,5.271,6.057,6.057     s6.114-0.075,8.264-2.255l17.067-17.067c3.293-3.339,3.275-8.709-0.041-12.025C259.684,144.303,254.313,144.285,250.974,147.578z     " fill="#FFFFFF"/>
			<path d="M297.174,96.378c-3.339-3.293-8.709-3.275-12.025,0.041c-3.316,3.316-3.334,8.687-0.041,12.025l17.067,17.067     c3.339,3.293,8.709,3.275,12.025-0.041c3.316-3.316,3.334-8.687,0.041-12.025L297.174,96.378z" fill="#FFFFFF"/>
			<path d="M143.574,130.511c-3.339-3.293-8.709-3.275-12.025,0.041c-3.316,3.316-3.334,8.687-0.041,12.025l17.067,17.067     c3.339,3.293,8.709,3.275,12.025-0.041c3.316-3.316,3.334-8.687,0.041-12.025L143.574,130.511z" fill="#FFFFFF"/>
			<path d="M288.64,403.578c-3.339-3.293-8.709-3.275-12.025,0.041c-3.316,3.316-3.334,8.687-0.041,12.025l17.067,17.067     c3.339,3.293,8.709,3.275,12.025-0.041s3.334-8.687,0.041-12.025L288.64,403.578z" fill="#FFFFFF"/>
			<path d="M365.44,139.045c-3.339-3.293-8.709-3.275-12.025,0.041c-3.316,3.316-3.334,8.687-0.041,12.025l17.067,17.067     c3.339,3.293,8.709,3.275,12.025-0.041c3.316-3.316,3.334-8.687,0.041-12.025L365.44,139.045z" fill="#FFFFFF"/>
		</g>
	</g>
</g>
<g>
</g>
<g>
</g>
<g>
</g>
<g>
</g>
<g>
</g>
<g>
</g>
<g>
</g>
<g>
</g>
<g>
</g>
<g>
</g>
<g>
</g>
<g>
</g>
<g>
</g>
<g>
</g>
<g>
</g>
</svg>
