<?xml version="1.0" encoding="UTF-8" standalone="no"?>
<!-- Created with Inkscape (http://www.inkscape.org/) -->

<svg
   xmlns:dc="http://purl.org/dc/elements/1.1/"
   xmlns:cc="http://creativecommons.org/ns#"
   xmlns:rdf="http://www.w3.org/1999/02/22-rdf-syntax-ns#"
   xmlns:svg="http://www.w3.org/2000/svg"
   xmlns="http://www.w3.org/2000/svg"
   xmlns:sodipodi="http://sodipodi.sourceforge.net/DTD/sodipodi-0.dtd"
   xmlns:inkscape="http://www.inkscape.org/namespaces/inkscape"
   width="550"
   height="400"
   viewBox="0 0 145.52081 105.83332"
   version="1.1"
   id="svg8"
   inkscape:version="0.92.3 (2405546, 2018-03-11)"
   sodipodi:docname="support final.svg">
  <defs
     id="defs2" />
  <sodipodi:namedview
     id="base"
     pagecolor="#ffffff"
     bordercolor="#666666"
     borderopacity="1.0"
     inkscape:pageopacity="0.0"
     inkscape:pageshadow="2"
     inkscape:zoom="1.009145"
     inkscape:cx="205.84988"
     inkscape:cy="319.75367"
     inkscape:document-units="mm"
     inkscape:current-layer="layer1"
     showgrid="false"
     units="px"
     inkscape:pagecheckerboard="true"
     inkscape:window-width="1680"
     inkscape:window-height="987"
     inkscape:window-x="-8"
     inkscape:window-y="-8"
     inkscape:window-maximized="1"
     showguides="true"
     inkscape:guide-bbox="true" />
  <metadata
     id="metadata5">
    <rdf:RDF>
      <cc:Work
         rdf:about="">
        <dc:format>image/svg+xml</dc:format>
        <dc:type
           rdf:resource="http://purl.org/dc/dcmitype/StillImage" />
        <dc:title></dc:title>
      </cc:Work>
    </rdf:RDF>
  </metadata>
  <g
     inkscape:label="Layer 1"
     inkscape:groupmode="layer"
     id="layer1"
     transform="translate(0,-191.16666)">
    <g
       id="Scene/Home"
       transform="matrix(0.20198894,0,0,0.20198894,-19.826721,158.00735)"
       style="fill:none;fill-rule:evenodd;stroke:none;stroke-width:1">
      <g
         transform="translate(468.5932,176.01698)"
         id="Clock">
        <circle
           r="53"
           cy="53"
           cx="53"
           id="Clock-Frame"
           style="fill:#f2f2f2" />
        <circle
           r="3"
           cy="11"
           cx="53"
           id="Time"
           style="fill:#000000;fill-opacity:0.1" />
        <circle
           r="3"
           cy="53"
           cx="11"
           id="circle3064"
           style="fill:#000000;fill-opacity:0.1" />
        <circle
           r="3"
           cy="53"
           cx="95"
           id="circle3066"
           style="fill:#000000;fill-opacity:0.1" />
        <circle
           r="3"
           cy="95"
           cx="53"
           id="circle3068"
           style="fill:#000000;fill-opacity:0.1" />
        <polygon
           points="55,52 51,52 53,17 "
           id="Hand"
           style="fill:#afb9c5" />
        <polygon
           points="64.213203,74.213203 60.213203,74.213203 62.213203,50.213203 "
           transform="rotate(135,62.213203,62.213203)"
           id="polygon3071"
           style="fill:#afb9c5" />
        <circle
           r="4"
           cy="53"
           cx="53"
           id="circle3073"
           style="fill:#c5cfd6" />
      </g>
      <g
         transform="translate(114.66303,317.88437)"
         id="Background-Shape-2-7"
         style="opacity:0.34588916">
        <path
           transform="matrix(-1,0,0,1,473,0)"
           id="Background-Shape-4"
           d="M 0.20634055,172.38486 C 7.1011245,95.336156 377.03564,-53.375955 445.71269,19.603052 514.38974,92.58206 448.36528,229.54457 304.44354,264.61718 160.5218,299.68979 -6.6884434,249.43356 0.20634055,172.38486 Z"
           inkscape:connector-curvature="0"
           style="fill:#f2f2f2" />
        <path
           id="path3077"
           d="M 244.14437,222.44768 C 250.32043,156.99179 581.6922,30.655038 643.21021,92.65356 704.72822,154.65208 689.15682,285.05879 560.23778,314.85435 431.31875,344.6499 237.96831,287.90357 244.14437,222.44768 Z"
           inkscape:connector-curvature="0"
           style="fill:#dde3e9" />
      </g>
      <g
         transform="translate(115)"
         id="g3094"
         style="opacity:0.7" />
      <g
         transform="translate(111.30013,385.99103)"
         id="Big-Leaf-Plant">
        <g
           transform="translate(22)"
           id="Big-Ass-Leaf">
          <path
             id="leaf"
             d="m 25.257954,1.1730931 c 2.864577,-0.34997166 5.92195,-0.22643311 8.585923,0.904273 5.664665,2.4046422 7.274855,9.0967779 7.197175,14.5361519 -0.08375,5.854523 -1.327001,12.249142 3.124064,16.966273 2.046066,2.168664 4.591213,3.828324 6.600313,6.036809 2.146756,2.360064 3.8312,5.060447 5.078405,7.960229 2.290017,5.32635 3.413997,11.590068 1.319902,17.177445 -1.843814,4.919357 -6.482642,9.359498 -5.480304,14.953283 1.045527,5.835359 6.928778,10.296541 10.607012,14.642968 4.162722,4.918793 7.995458,11.205465 8.62509,17.655945 0.603754,6.18185 -2.087127,12.43391 -6.216765,17.10689 -8.251028,9.33738 -20.653603,13.91487 -33.159205,13.88651 -5.309538,-0.0123 -11.321013,-0.2521 -15.903002,-3.10536 -1.41613,-0.88192 -2.163229,-1.87135 -3.005079,-3.2468 -0.754808,-1.23339 -1.751904,-2.03565 -2.9060231,-2.90839 -2.5355951,-1.91693 -4.3667445,-4.50048 -5.5353381,-7.39249 -4.53790159,-11.23281 -0.910955,-25.12917 5.44108,-35.103984 C 11.136354,88.879607 12.368645,86.605463 11.637436,83.788622 10.874398,80.848181 8.9990145,78.196063 7.3402592,75.668504 5.7011454,73.170487 3.8298786,70.787414 2.5487576,68.08651 1.2069929,65.257121 0.82916271,62.294276 1.0662375,59.197745 1.5118033,53.381115 4.0227324,48.01348 7.5776615,43.335625 11.001716,38.829827 15.022128,34.518476 15.031136,28.614524 15.041029,22.357138 10.857732,16.790807 12.639878,10.428979 13.377803,7.7946614 14.859954,5.0918356 17.24855,3.512523 19.539258,1.9978462 22.563854,1.5022372 25.257954,1.1730931 Z"
             inkscape:connector-curvature="0"
             style="fill:#dde3e9" />
          <path
             id="middle-thing"
             d="m 23.38616,11.176431 c 0.05372,-0.840391 1.050589,-1.3444258 1.835348,-1.12513 1.032958,0.288796 1.013093,1.253971 0.985821,2.113865 -0.0836,2.643112 0.298967,5.211786 0.934327,7.776354 1.320526,5.332023 3.761037,10.244605 5.694534,15.366436 1.931811,5.117543 2.838644,10.401251 1.705362,15.816342 -1.068346,5.105675 -2.746751,10.079018 -3.840101,15.191138 -0.963699,4.505677 -1.98912,9.257166 -0.52153,13.75137 1.412182,4.325998 4.534324,7.849051 6.782537,11.758488 4.654059,8.092783 6.718809,17.070756 6.994978,26.309886 0.127987,4.2903 0.01273,8.62005 -0.982568,12.8279 -0.572861,2.42289 -1.34269,5.69731 -3.418944,7.37008 -0.957414,0.7714 -2.594896,1.03814 -3.400704,-0.10421 -0.756537,-1.07145 -0.09285,-2.73015 0.147326,-3.87213 1.040129,-4.94349 1.24938,-9.99553 1.000358,-15.01512 -0.241013,-4.86214 -0.815475,-9.71615 -2.345722,-14.35969 -1.420275,-4.30927 -3.577935,-8.179835 -6.117371,-11.949532 -2.587667,-3.841584 -5.277774,-7.691365 -6.346989,-12.243247 -1.086354,-4.623097 -0.2038,-9.327246 0.976295,-13.862052 1.247979,-4.796545 2.882637,-9.455491 4.572581,-14.122077 1.646909,-4.547239 2.230657,-8.849736 1.321495,-13.608951 C 27.567185,29.79353 22.759802,20.968117 23.38616,11.176431 Z"
             inkscape:connector-curvature="0"
             style="fill:#c5cfd6" />
        </g>
        <g
           transform="translate(32,11)"
           id="g3111">
          <path
             id="path3107"
             d="m 90.892332,1.5822735 c 3.544849,1.0763313 7.065551,2.8129454 9.592478,5.5360062 5.3731,5.7906783 3.72448,14.5426293 0.75833,20.9349653 -3.192704,6.880146 -8.030873,13.79582 -5.303506,21.689966 1.253562,3.629129 3.361537,6.915929 4.550696,10.572919 1.27049,3.907864 1.81886,7.977693 1.74899,12.055875 -0.12934,7.490399 -2.12178,15.482756 -7.531222,21.001138 -4.762797,4.858567 -12.550578,7.696367 -14.331595,14.833167 -1.858048,7.44495 2.684418,15.78146 4.701271,22.83516 2.282577,7.98264 3.455107,17.41129 0.784125,25.36735 -2.559348,7.62491 -9.020086,13.6189 -16.333705,16.99695 -14.61303,6.75026 -31.579522,5.71163 -46.232376,-0.82761 -6.221066,-2.77669 -13.145187,-6.18758 -17.011289,-11.94557 -1.1948325,-1.77968 -1.5481296,-3.33847 -1.8085239,-5.40307 -0.2333974,-1.8513 -0.9788477,-3.31879 -1.871218,-4.95131 C 0.6439959,146.69213 -0.13819652,142.68415 0.01976625,138.65605 0.6344858,123.01112 12.233624,108.46374 24.956247,99.971732 27.97076,97.959918 30.618144,95.911522 31.249382,92.19986 31.908618,88.325468 31.110785,84.213388 30.501199,80.361309 29.899036,76.554385 28.963825,72.762625 28.888791,68.901998 28.810539,64.857873 29.933429,61.157378 31.848202,57.618672 35.445256,50.971566 41.227457,45.929903 47.869576,42.247103 54.267249,38.699698 61.261614,35.69249 64.392784,28.715007 67.711803,21.320006 65.747355,12.560873 71.200258,5.9643208 73.458172,3.232793 76.6252,0.8074086 80.261553,0.18227321 83.74893,-0.41734572 87.558444,0.56999666 90.892332,1.5822735 Z"
             inkscape:connector-curvature="0"
             style="fill:#dde3e9" />
          <path
             id="path3109"
             d="m 83.651254,13.810881 c 0.502947,-0.967065 1.932574,-1.041471 2.735348,-0.370458 1.056598,0.883407 0.527882,2.015989 0.04564,3.020013 -1.482019,3.086249 -2.379962,6.328677 -2.980162,9.69874 -1.248415,7.006497 -0.967551,14.103295 -1.389132,21.182151 -0.421306,7.072894 -2.128153,13.805346 -6.289332,19.624101 -3.923201,5.486369 -8.490443,10.496275 -12.446255,15.977171 -3.486601,4.830679 -7.174114,9.920106 -7.811779,16.011509 -0.614359,5.863162 1.191274,11.671702 1.772655,17.479742 1.203632,12.02309 -1.084037,23.73733 -5.59988,34.82338 -2.097284,5.1478 -4.499654,10.21483 -7.867225,14.67625 -1.938782,2.56902 -4.553852,6.04322 -7.857707,6.93595 -1.523515,0.41171 -3.577935,-0.13066 -3.921891,-1.90583 -0.323484,-1.66537 1.321277,-3.2818 2.200204,-4.5083 3.805263,-5.30908 6.695828,-11.18222 9.033534,-17.25711 2.264607,-5.88424 4.135056,-11.93362 4.777666,-18.23471 0.596138,-5.8476 0.100281,-11.56216 -0.894815,-17.35736 -1.013845,-5.90561 -2.143181,-11.87462 -1.009485,-17.825529 1.150953,-6.044224 4.646615,-11.152472 8.401506,-15.904226 3.971347,-5.026135 8.322777,-9.686651 12.742855,-14.327235 4.307252,-4.521808 7.243163,-9.311017 8.672595,-15.423566 2.82431,-12.076257 1.825092,-25.047316 7.685656,-36.314683 z"
             inkscape:connector-curvature="0"
             style="fill:#c5cfd6" />
        </g>
        <g
           transform="translate(0,57)"
           id="g3117">
          <path
             id="path3113"
             d="m 13.305977,0 c 5.894289,0 11.076355,3.1243612 14.647112,7.5579337 4.179911,5.1901263 5.024124,11.5283023 6.721448,17.7140093 0.844584,3.078366 2.297208,6.134279 4.842824,8.225758 2.315375,1.902068 5.254734,2.282699 8.02614,3.212004 5.538734,1.85716 10.011171,6.330933 11.777456,11.789782 2.154838,6.658689 -0.12754,13.373874 0.265462,20.122017 0.360746,6.197295 6.471187,10.063724 11.38742,13.034529 4.847644,2.929518 9.214786,5.6718 10.674826,11.37873 1.54828,6.052793 2.06771,12.808907 -0.07675,18.788177 -3.570386,9.9558 -14.019421,14.33976 -24.115867,15.01953 -9.16288,0.61676 -20.684144,-0.35166 -27.565387,-7.00274 -4.117624,-3.98015 -5.608807,-9.54656 -5.4238,-15.08472 0.114935,-3.44379 0.797127,-6.855703 1.679157,-10.183599 0.625096,-2.358753 1.46968,-4.707366 1.710301,-7.144708 C 28.495877,80.942214 22.502596,79.696743 17.400984,77.91636 10.918304,75.65358 6.3798712,71.37972 3.2239905,65.425434 0.28500238,59.881477 -0.94813429,53.658106 0.81370139,47.554248 1.7135278,44.437492 3.3455987,41.60974 5.559016,39.204631 6.5333645,38.146035 7.9066472,37.263086 8.786082,36.150891 9.6069373,35.112214 9.4282325,33.766424 9.1453452,32.549926 7.8373157,26.930639 3.7619584,22.277597 2.3045139,16.668451 0.98869854,11.605443 1.766546,5.304207 6.395443,2.0378788 8.3953045,0.62653818 10.861578,0.01557291 13.305977,0 Z"
             inkscape:connector-curvature="0"
             style="fill:#c5cfd6" />
          <path
             id="path3115"
             d="m 21.337691,14.641377 c 6.247316,6.654646 7.945412,15.683597 8.44377,24.434774 0.279154,4.907236 -0.0114,10.083192 1.430343,14.84303 1.233575,4.073911 4.125523,7.188104 7.106478,10.131359 6.000527,5.924899 12.692503,11.948304 14.447607,20.52311 1.029818,5.03218 0.334691,10.229866 1.757678,15.206636 1.293892,4.523714 3.571996,8.968114 6.342942,12.788144 2.231026,3.07617 5.137686,5.43128 7.576516,8.29885 0.744043,0.87533 1.809904,2.16389 1.502798,3.39957 -0.359333,1.44718 -2.202707,1.90531 -3.510575,1.67788 -3.049364,-0.52984 -5.616185,-3.44159 -7.609985,-5.5584 -2.915488,-3.09536 -5.392935,-6.42468 -7.406596,-10.15924 -2.23544,-4.14743 -4.035415,-8.54837 -4.804468,-13.201374 C 45.81609,92.198517 46.213306,87.167785 44.390896,82.535065 41.324246,74.739985 33.88602,70.139859 28.508165,64.064302 21.807729,56.49376 22.80702,47.071505 23.49332,37.758984 23.870307,32.641335 24.245087,26.862023 21.659141,22.189466 20.671988,20.405839 18.47112,18.742812 18.046688,16.715453 c -0.388756,-1.857506 1.733036,-3.734569 3.291003,-2.074076 z"
             inkscape:connector-curvature="0"
             style="fill:#afb9c5" />
        </g>
        <path
           id="Base-4"
           d="m 28,181 c 3.8e-4,38.05849 6.211229,58 39.000093,58 C 99.788957,239 105.99981,219.05849 106,181 Z"
           inkscape:connector-curvature="0"
           style="fill:#89c5cc" />
      </g>
      <g
         transform="translate(220.66303,426.88437)"
         id="Table">
        <g
           transform="translate(23)"
           id="g3125">
          <rect
             rx="2"
             height="9"
             width="38"
             y="144"
             x="21"
             id="rect3121"
             style="fill:#afb9c5" />
          <path
             id="Lamp-Body"
             d="m 22.388116,57.368338 c 4.29314,-13.91453 6.69876,-28.581197 7.21685,-44 h 2.78315 1.78314 c 0.51809,15.418803 2.923706,30.08547 7.216856,44 h 6.5 c 8.56041,0 15.499996,6.93959 15.499996,15.5 0,8.56041 -6.939586,15.5 -15.499996,15.5 H 14.888116 c -8.5604155,0 -15.49999554,-6.93959 -15.49999554,-15.5 0,-8.56041 6.93958004,-15.5 15.49999554,-15.5 z"
             inkscape:connector-curvature="0"
             style="fill:#dde3e9" />
          <path
             id="Shade-7"
             d="m -3.9896595,-55.953047 c 11.45926,-1.119076 22.9185155,-1.678615 34.3777755,-1.678615 11.459246,0 22.918506,0.559539 34.377762,1.678615 l 4.62223,79.454445 c -12.999996,1.244627 -25.999996,1.86694 -38.999992,1.86694 -13,0 -25.9999955,-0.622313 -39.0000005,-1.86694 z"
             inkscape:connector-curvature="0"
             style="fill:#c5cfd6" />
        </g>
        <path
           id="path3127"
           d="M 12.38812,95.368338 H 95.388104 116.3881 V 199.36834 H 95.388104 v -82 H 12.38812 v 82 H -8.6118845 V 95.368338 Z"
           inkscape:connector-curvature="0"
           style="fill:#f2f2f2" />
      </g>
      <g
         transform="translate(678.85148,335.22195)"
         id="Plant-2">
        <g
           transform="translate(13)"
           id="Succulents">
          <path
             id="Thi-Succs!"
             d="M 3.3809241,0.20818701 C 12.213925,21.197225 27.229201,35.780534 35.181895,57.604883 c 4.715872,12.942481 6.681657,27.014623 6.800889,41.427065 0.06478,7.828302 -0.07149,15.661642 -0.108135,23.489952 -0.03561,7.6341 -0.24311,15.21939 -0.891145,22.80468 -0.651133,7.62549 -1.380205,15.16016 -1.701771,22.83268 -0.250336,5.9782 -0.364665,12.93171 -2.391099,18.38475 -1.611443,4.33665 -5.707152,4.97202 -6.793921,-0.28753 -0.603904,-2.92377 -0.527771,-6.1882 -0.461187,-9.1931 0.08542,-3.85528 0.309695,-7.70482 0.424023,-11.55938 0.459639,-15.4678 -0.136265,-30.93847 0.175236,-46.41237 C 30.53906,103.9731 32.482392,88.871087 30.33208,73.853431 28.556499,61.45191 24.045542,50.802498 18.861516,40.593177 13.873887,30.77082 8.4454601,21.187174 5.0749526,10.014391 4.1071575,6.8056033 3.3589874,3.4805112 3,0.0301404 3.1569118,-0.04272947 3.2838866,0.01649974 3.3809241,0.20818701 Z"
             inkscape:connector-curvature="0"
             style="fill:#c1dee2" />
          <path
             id="path3131"
             d="m 0.9735884,41.616956 c 1.749076,1.263036 2.7264234,3.110621 3.9086379,4.933594 1.4701561,2.26641 3.1985575,4.312537 4.6683376,6.580587 3.0647361,4.728489 5.7573281,9.747407 8.5510381,14.667465 5.303989,9.338838 9.331037,19.292171 11.325577,30.096279 2.067466,11.196679 2.62493,22.753519 3.492138,34.117159 0.919834,12.04417 1.846059,24.17613 1.967851,36.26665 0.05451,5.41682 0.347335,11.16715 -0.302977,16.54582 -0.404848,3.34854 -1.915977,6.20237 -5.322785,6.1753 -7.236506,-0.0574 -10.633916,-8.07252 -12.053325,-14.64614 -2.089268,-9.67931 -2.506144,-19.96081 -2.17535,-29.85958 0.399585,-11.93588 2.471186,-23.69249 3.367714,-35.58243 C 19.349975,98.324781 18.813562,85.960234 14.486169,74.108861 12.299917,68.119796 9.7625731,62.274305 7.4842259,56.325031 6.5140206,53.791985 5.719362,51.190024 4.4089646,48.831317 2.9512133,46.207614 1.141617,43.825936 0,41 c 0.32440417,0.205925 0.64918424,0.41144 0.9735884,0.616956 z"
             inkscape:connector-curvature="0"
             style="fill:#89c5cc" />
          <path
             id="path3133"
             d="M 84.334143,16.51767 C 84.556013,16.345237 84.778157,16.17284 85,16 c -0.63906,2.692657 -1.793441,4.879894 -2.675846,7.341307 -0.793195,2.21282 -1.19524,4.716918 -1.729489,7.135643 -1.254523,5.680807 -2.704238,11.233566 -3.88916,16.962767 -2.34561,11.337035 -1.901977,23.550467 -0.363621,36.128435 1.452867,11.881474 3.750594,23.744558 4.845461,35.623458 0.907575,9.85146 1.297664,20.01013 0.431948,29.40939 -0.588308,6.38337 -2.516738,14.00499 -7.771155,13.36076 -2.473676,-0.30326 -3.764071,-3.28063 -4.283949,-6.64156 -0.835078,-5.39856 -1.009889,-11.0744 -1.335393,-16.44251 -0.726441,-11.98178 -0.871147,-23.92672 -1.01458,-35.78519 -0.135802,-11.188493 -0.509697,-22.598658 0.237901,-33.50523 0.72107,-10.524215 2.976371,-20.007531 6.200961,-28.757545 1.698376,-4.609904 3.316613,-9.327675 5.224838,-13.721285 0.915118,-2.107446 2.033117,-3.969689 2.948619,-6.075472 0.736163,-1.693802 1.321803,-3.43187 2.507608,-4.515298 z"
             inkscape:connector-curvature="0"
             style="fill:#c1dee2" />
          <path
             id="path3135"
             d="m 3.2088077,76.301822 c 0.9569139,-1.606497 3.0632575,3.691587 3.383825,4.357953 -0.1355828,-0.331467 -0.2717048,-0.662458 -0.4090306,-0.993161 1.8993856,3.158313 3.6370227,6.446115 4.7173809,10.067538 1.069067,3.584961 1.987318,7.242386 2.990427,10.852828 1.88218,6.77402 4.310256,13.35578 6.015553,20.19082 1.661619,6.66042 2.080583,13.20809 1.678335,20.0974 -0.418059,7.16029 -0.673824,14.43044 -0.18611,21.58687 0.232928,3.41795 1.343535,6.6017 2.104731,9.89224 0.762123,3.29379 1.362375,6.6315 2.263359,9.88445 0.206817,-0.42376 0.233163,0.99294 0.232716,1.10049 -0.0057,0.81267 -0.11913,1.49413 -0.380592,2.26471 -0.671865,1.98158 -1.928782,3.66503 -3.841428,4.21159 -3.456458,0.98757 -6.66573,-2.15652 -7.780374,-5.47654 -1.599025,-4.76373 -2.480153,-10.02806 -3.242198,-15.03495 -0.698638,-4.59128 -0.8639609,-9.20997 -0.656401,-13.86447 0.408865,-9.17894 2.069963,-18.23771 2.519302,-27.41385 C 13.107352,118.03572 11.128041,108.64928 9.470824,98.924826 8.6725832,94.239192 7.9097436,89.597768 6.3563044,85.133667 5.7273694,83.325991 4.9073676,81.730716 4.0475942,80.061431 3.5583829,79.111708 2.5690513,77.417615 3.2088077,76.301822 Z"
             inkscape:connector-curvature="0"
             style="fill:#c1dee2" />
          <path
             id="path3137"
             d="m 31.252093,60.697048 c -0.396455,11.444771 -1.080071,22.802726 -2.605905,34.126898 -1.557252,11.556334 -3.345861,23.072994 -4.844234,34.639544 -1.458576,11.25896 -2.98741,22.70491 -2.783586,34.12101 0.150111,8.40896 -1.244227,22.6342 8.095001,26.78447 9.458716,4.20291 11.487652,-13.74559 12.108746,-19.66989 1.190222,-11.36621 0.804891,-22.85223 0.227262,-34.2805 C 40.856365,124.6894 39.866432,113.01993 38.639547,101.33357 37.276835,88.352823 36.207608,75.313546 35.349463,62.295875 34.92489,55.856963 34.820295,49.428659 34.937439,42.988176 35.048171,36.91067 34.817261,30.770311 32.656494,25 c -0.113217,0.0821 -0.225681,0.164204 -0.338905,0.245913"
             inkscape:connector-curvature="0"
             style="fill:#69a1ac" />
          <path
             id="path3139"
             d="m 80.082747,96.955225 c -1.701063,2.47807 -3.415803,4.932025 -5.022237,7.556965 -2.874371,4.69638 -5.473589,9.9194 -6.255526,16.63463 -1.636349,14.05354 -0.323561,29.23214 -0.0067,43.71586 0.06481,2.95976 -0.309521,5.8302 0.857047,8.64694 1.057699,2.55424 3.035205,4.50075 4.920186,4.49034 4.035298,-0.023 3.419623,-9.90461 3.426273,-14.25411 0.01217,-7.62327 -0.842656,-15.32381 -0.769082,-22.93996 0.07346,-7.54546 0.532323,-15.11174 1.626302,-22.27797 1.107571,-7.25337 2.729563,-14.21849 4.870136,-20.718358 0.297049,-0.902013 2.428807,-7.872065 0.414762,-6.670842"
             inkscape:connector-curvature="0"
             style="fill:#89c5cc" />
          <path
             id="path3141"
             d="m 62.262195,22 c -2.653044,0 -2.636779,13.225997 -2.71659,14.924813 -0.288226,6.130581 -0.220519,12.262802 -0.402836,18.394613 -0.399053,13.381404 -0.889265,26.880081 -2.899284,40.106899 -1.082173,7.120425 -2.336827,14.209285 -3.686422,21.275585 -1.353378,7.08681 -3.170111,14.165 -4.060511,21.34161 -0.854844,6.899 -0.37182,13.93373 -0.254562,20.86677 0.117257,6.97486 0.327942,13.96367 1.241794,20.87744 0.225437,1.7066 0.489833,3.40706 0.772764,5.10341 0.23565,1.41343 0.09834,3.16637 0.49702,4.50968 0.639242,2.1515 3.379283,2.85555 5.224386,2.51931 4.992518,-0.91153 8.181542,-7.18029 9.88707,-11.76049 2.177962,-5.84847 3.333515,-12.19228 4.473938,-18.35566 1.292101,-6.98266 2.049357,-14.07192 2.404534,-21.18087 C 73.465574,126.17518 72.538862,111.71167 71.503971,97.310071 70.928275,89.300664 70.263312,81.326522 69.24582,73.366731 68.232489,65.440974 66.932445,57.55048 66.085922,49.60135 65.470888,43.824638 64.864931,38.040135 64.466635,32.241281 64.371316,30.858609 64.291127,22 62.262195,22"
             inkscape:connector-curvature="0"
             style="fill:#69a1ac" />
          <path
             id="path3143"
             d="M 58.940793,118.1387 C 58.508355,104.2527 52.926529,43.258908 51.656581,26.467132 51.339009,22.26417 48.281539,4.7646391 47.884912,0 c -1.075351,1.346742 -0.983458,22.309445 -0.971634,27.126194 0.0125,4.764639 -0.578385,9.450259 -0.882443,14.189271 -0.309801,4.835542 -7.458539,67.285415 -8.386253,71.931745 -1.845631,9.24352 -3.080781,18.72923 -4.033496,28.18035 -0.928052,9.21192 -2.370975,18.93041 -1.129068,28.1906 0.285477,2.13181 0.737171,4.22945 1.472654,6.18784 0.794604,2.116 1.339205,4.07269 1.977051,6.28693 1.026364,3.56654 2.883144,6.69655 5.73622,8.16887 5.849397,3.01896 8.990314,-3.81513 10.582564,-9.76506 2.542937,-9.50194 4.175052,-19.15893 4.940264,-29.13797 0.846632,-11.04047 2.09631,-22.10357 1.750022,-33.22007"
             inkscape:connector-curvature="0"
             style="fill:#89c5cc" />
        </g>
        <g
           transform="translate(0,159)"
           id="Planter">
          <rect
             rx="2"
             height="91"
             width="91"
             y="0"
             x="10"
             id="Vase"
             style="fill:#ffffff" />
          <rect
             rx="2"
             height="113"
             width="10"
             y="10"
             x="0"
             id="Leg"
             style="fill:#c5cfd6" />
          <rect
             rx="2"
             height="113"
             width="10"
             y="10"
             x="50"
             id="rect3148"
             style="fill:#c5cfd6" />
          <rect
             rx="2"
             height="113"
             width="10"
             y="10"
             x="101"
             id="rect3150"
             style="fill:#c5cfd6" />
        </g>
      </g>
    </g>
    <g
       transform="matrix(0.82493957,0,0,0.82493957,28.254266,43.443791)"
       id="layer1-9"
       inkscape:label="Layer 1">
      <g
         style="fill:none;fill-rule:evenodd;stroke:none;stroke-width:1"
         transform="matrix(-0.21225714,0,0,0.21225714,134.56076,190.90585)"
         id="humaaans/standing-13">
        <g
           id="humaaan-5"
           transform="translate(28,1)">
          <g
             id="Head/Front/Long"
             transform="rotate(-15,169.17363,-161.40329)">
            <path
               style="fill:#191847"
               inkscape:connector-curvature="0"
               d="m 103.66577,48.385803 c 3.74211,13.514577 8.69503,44.502523 3.70042,49.33936 H 75.9527 C 75.9495,97.669493 75.9463,97.613972 75.9432,97.55859 64.300031,96.270063 55.244418,86.398422 55.244418,74.411729 V 52.277535 c 0,-12.862333 10.426981,-23.289313 23.289314,-23.289313 h 2.166448 c 11.536285,0 21.11348,8.387857 22.96559,19.397581 z"
               id="Hair-Back" />
            <g
               style="fill:#b28b67;stroke-width:1"
               id="Head-8"
               transform="translate(58.49409,33.282773)">
              <path
                 inkscape:connector-curvature="0"
                 d="M 8.9498924,37.029905 C 3.9584948,31.222865 0.5802124,24.106258 1.1447254,16.131896 2.7712444,-6.8444633 35.040701,-1.789957 41.317779,9.806536 47.594856,21.403029 46.848976,50.818495 38.736413,52.891112 35.501134,53.717669 28.609027,51.692936 21.594471,47.502361 l 4.402902,30.873201 H 0 Z"
                 id="path1546" />
            </g>
            <path
               style="fill:#191847"
               inkscape:connector-curvature="0"
               d="m 74.471604,66.431163 c 1.197804,12.752677 0.717928,27.315956 -2.851799,30.772922 H 40.206312 C 38.456046,67.06316 55.371446,78.735076 55.371446,50.356613 c 1.05461,-1.021297 2.051131,-2.032147 3.037197,-2.903904 l -0.03492,-0.834602 C 63.813316,35.580608 70.71437,30.061859 79.07688,30.061859 c 12.543766,0 16.503097,5.785107 19.874193,10.696746 -2.520833,8.573094 -12.303528,9.844294 -20.996064,15.188138 -1.024607,-0.825098 -2.331125,-1.319607 -3.754173,-1.319607 -3.290364,0 -5.957731,2.643763 -5.957731,5.905009 0,3.261245 2.667367,5.905008 5.957731,5.905008 0.09074,0 0.181014,-0.002 0.270768,-0.006 z"
               id="Hair-Front" />
          </g>
          <g
             id="Bottom/Standing/Skirt"
             transform="translate(0,218.45249)">
            <path
               style="fill:#b36017;fill-opacity:1"
               inkscape:connector-curvature="0"
               d="m 105.51448,105.84111 c 25.98584,7.24021 48.40563,10.86031 67.25938,10.86031 18.85375,0 36.36599,-5.5749 52.53671,-16.724688 -25.42951,-7.431413 -46.37183,-11.14712 -62.82699,-11.14712 -16.45515,0 -35.44485,5.670499 -56.9691,17.011498 z"
               id="Skirt-Shadow" />
            <path
               style="fill:#997659"
               inkscape:connector-curvature="0"
               d="m 195.26934,127.13734 c -0.25056,-0.37522 -0.46217,-0.7834 -0.63001,-1.22554 C 191.16587,116.76145 135.5296,18.047546 129.98687,0 h 62.63859 c 4.21422,13.721804 23.182,99.832665 25.8514,117.01305 8.42242,27.1002 25.76334,114.86785 27.97705,120.94812 2.32879,6.39635 -10.77452,13.05969 -14.26625,5.19617 -5.55592,-12.51217 -18.79402,-47.13315 -24.6884,-68.27247 -5.52596,-19.81807 -10.02557,-37.64751 -12.22992,-47.74753 z"
               id="Leg-0" />
            <path
               style="fill:#b28b67"
               inkscape:connector-curvature="0"
               d="m 144.02226,139.18945 c -25.43599,6.40398 -118.475477,17.98124 -124.860254,19.79711 -6.567944,1.86796 -12.3267741,-11.61778 -4.208441,-14.53902 12.917639,-4.64818 48.511582,-15.38801 70.092319,-19.77072 17.358236,-3.52518 33.197846,-6.40173 43.832136,-8.08621 C 127.97711,86.834186 123.8588,15.42333 126.55812,0 h 55.42349 c -2.58846,14.789936 -24.4699,122.70614 -28.53688,133.50825 -1.29066,3.85642 -5.14172,5.56067 -9.42247,5.6812 z"
               id="path1553" />
            <g
               style="fill:#e4e4e4"
               id="Accessories/Shoe/Flat-Sneaker-0"
               transform="rotate(80,-58.299031,91.62237)">
              <path
                 inkscape:connector-curvature="0"
                 d="m 2.9010163,27.515971 c -1.2118616,3.235034 -1.8177924,5.655587 -1.8177924,7.261659 0,1.953362 0.3254158,4.803804 0.9762475,8.551325 2.2660378,0 22.6313016,0 61.0957906,0 1.587663,-5.248753 0.671171,-8.082386 -2.749474,-8.500899 -3.420645,-0.418513 -6.262233,-0.796396 -8.524764,-1.13365 L 23.484286,21.034998 c -0.54641,-0.243592 -1.186833,0.0019 -1.430425,0.5483 -0.0042,0.0093 -0.0082,0.01875 -0.0121,0.02822 l -1.825321,4.427775 c -3.166623,1.477471 -5.739833,2.216206 -7.719629,2.216206 -1.608538,0 -3.8299428,-0.649637 -6.6642139,-1.94891 l 5.9e-6,-1.3e-5 c -1.0876658,-0.498603 -2.3735905,-0.02107 -2.8721933,1.066593 -0.021491,0.04688 -0.0413,0.09451 -0.059391,0.142806 z"
                 id="shoe-5" />
            </g>
            <g
               style="fill:#e4e4e4"
               id="g1559"
               transform="translate(225.31057,214.72927)">
              <path
                 inkscape:connector-curvature="0"
                 d="m 2.9010163,27.515971 c -1.2118616,3.235034 -1.8177924,5.655587 -1.8177924,7.261659 0,1.953362 0.3254158,4.803804 0.9762475,8.551325 2.2660378,0 22.6313016,0 61.0957906,0 1.587663,-5.248753 0.671171,-8.082386 -2.749474,-8.500899 -3.420645,-0.418513 -6.262233,-0.796396 -8.524764,-1.13365 L 23.484286,21.034998 c -0.54641,-0.243592 -1.186833,0.0019 -1.430425,0.5483 -0.0042,0.0093 -0.0082,0.01875 -0.0121,0.02822 l -1.825321,4.427775 c -3.166623,1.477471 -5.739833,2.216206 -7.719629,2.216206 -1.608538,0 -3.8299428,-0.649637 -6.6642139,-1.94891 l 5.9e-6,-1.3e-5 c -1.0876658,-0.498603 -2.3735905,-0.02107 -2.8721933,1.066593 -0.021491,0.04688 -0.0413,0.09451 -0.059391,0.142806 z"
                 id="path1557" />
            </g>
            <path
               style="fill:#e87613;fill-opacity:1"
               inkscape:connector-curvature="0"
               d="m 126.7372,0 c 24.42327,-6.9606155 47.53205,-6.9606155 69.32632,0 7.58257,34.461855 26.00706,48.139792 29.24705,100.97555 C 188.48096,119.20466 142.98555,87.974751 105.07272,105.7518 94.240478,80.88615 109.40561,21.003024 126.7372,0 Z"
               id="Skirt" />
          </g>
          <g
             id="Body/Pointing-Forward-0"
             transform="rotate(-10,755.731,24.08949)">
            <path
               style="fill:#997659"
               inkscape:connector-curvature="0"
               d="m 171.84051,46.02606 37.59847,-20.49109 c 6.25239,-7.388166 12.41274,-13.126112 18.48105,-17.2138379 1.85428,-0.7703177 5.09694,-1.2365689 2.06443,4.1193179 -3.0325,5.355886 -5.98018,11.125186 -4.43524,12.775219 1.54495,1.650033 5.3974,-0.65499 7.24049,2.086553 1.22873,1.827696 -5.35288,4.71494 -19.74483,8.661734 l -27.31987,24.891048 z m 58.88618,17.288897 16.5154,-9.027993 c 2.31734,-8.774325 5.08744,-13.188985 8.3103,-13.243979 2.47583,-1.146303 -1.83581,9.940876 2.85758,8.979398 4.69339,-0.961478 16.1486,-9.439165 18.12239,-7.717874 2.92009,2.546539 0.31636,10.365888 -2.75146,14.255596 -5.73375,7.269858 -10.48105,9.75593 -22.21474,13.011457 -6.13498,1.702157 -12.76798,5.113985 -19.89899,10.235484 z"
               id="Skin-3" />
            <path
               style="fill:#e87613;fill-opacity:1"
               inkscape:connector-curvature="0"
               d="m 154.74361,37.436545 c 13.02892,1.923414 30.80713,1.936947 51.16613,-6.821721 l 4.7137,17.28007 c -14.76273,10.584867 -34.35348,18.099866 -49.97935,15.175361 -12.31404,-2.30467 -16.2776,-18.193323 -5.90048,-25.63371 z"
               id="Sleeve-7"
               transform="rotate(-9,179.70675,47.160725)" />
            <path
               style="fill:#ff9b21;fill-opacity:1"
               inkscape:connector-curvature="0"
               d="m 171.26232,67.649569 c 13.98094,3.469582 37.42612,-0.622014 70.33553,-12.274785 8.16289,16.804377 11.9364,28.784608 11.3205,35.940695 -28.23142,14.674361 -52.42819,21.216911 -72.3631,21.648811 0.63351,11.77036 -0.80625,22.97013 -5.64283,33.20373 -9.94318,21.03853 -68.16606,1.5545 -87.742374,5.38944 C 74.910782,111.94007 98.61444,95.839727 98.633512,70.490215 98.654398,42.729798 121.05505,0 124.35085,0 h 30.05594 c 1.65837,21.200996 10.00537,44.566331 16.85553,67.649569 z"
               id="Clothes-5" />
          </g>
        </g>
      </g>
      <g
         style="fill:none;fill-rule:evenodd;stroke:none;stroke-width:1"
         transform="matrix(0.21225714,0,0,0.21225714,-7.5700248,190.69712)"
         id="humaaans/standing-19">
        <g
           id="humaaan-3"
           transform="translate(28,2)">
          <g
             id="Head/Front/Short-Beard-5"
             transform="rotate(-15,169.14495,-161.35641)">
            <g
               style="fill:#b28b67;stroke-width:1"
               id="Head-2"
               transform="translate(58.49409,33.282773)">
              <path
                 inkscape:connector-curvature="0"
                 d="M 8.9498924,37.029905 C 3.9584948,31.222865 0.5802124,24.106258 1.1447254,16.131896 2.7712444,-6.8444633 35.040701,-1.789957 41.317779,9.806536 47.594856,21.403029 46.848976,50.818495 38.736413,52.891112 35.501134,53.717669 28.609027,51.692936 21.594471,47.502361 l 4.402902,30.873201 H 0 Z"
                 id="path1601" />
            </g>
            <path
               style="fill:#191847"
               inkscape:connector-curvature="0"
               d="m 81.388357,51.952185 c 0.995141,13.739533 3.62755,20.609299 7.897229,20.609299 6.404893,0 11.838994,-4.03006 14.649304,-4.03006 2.04862,0 1.59123,2.540975 0.23329,4.424927 -1.12034,1.554321 -6.576297,3.052501 -6.576297,5.46222 0,2.40972 4.310667,0.545453 4.310667,1.97461 0,2.364001 0.75759,6.808746 -3.382012,6.808746 -4.189411,0 -16.201196,-1.513191 -18.259691,-7.675992 -1.328492,-3.977292 -2.187457,-12.218984 -2.576897,-24.725076 -0.254143,-0.02993 -0.512784,-0.04533 -0.775054,-0.04533 -3.589488,0 -6.499343,2.884104 -6.499343,6.441827 0,1.806093 0.749907,3.438586 1.957943,4.608283 -1.50386,2.103903 -3.189255,4.301711 -5.120539,6.569564 -7.255413,-4.314431 -12.639342,-16.944387 -5.545998,-29.077239 1.960623,-5.943695 6.399198,-9.118446 11.641262,-10.592585 4.246342,-1.760539 8.654447,-1.959041 12.375515,-0.903614 7.294324,0.620125 13.807806,2.824679 15.653784,4.133909 0,6.844682 -1.3381,8.875479 -12.767266,8.696472 -2.808331,1.470008 -4.967235,4.00136 -7.215897,7.320039 z"
               id="Hair-4" />
          </g>
          <g
             id="Bottom/Standing/Baggy-Pants"
             transform="translate(0,218.43588)">
            <polygon
               style="fill:#997659"
               id="Leg-7"
               points="248.05827,247.37059 193.54361,5.4927305e-013 145.152,0 198.31841,134.046 233.97733,247.37059 " />
            <path
               style="fill:#b28b67"
               inkscape:connector-curvature="0"
               d="m 134.4461,0 c -0.56615,47.104684 -8.82264,110.52349 -10.14175,113.45976 -0.87941,1.95751 -31.237916,26.85067 -91.075532,74.67948 l 9.698339,10.3383 C 113.53,157.47033 150.465,134.23206 153.73215,128.76271 158.63288,120.55868 174.58796,45.06416 187.39773,0 Z"
               id="path1607" />
            <g
               style="fill:#e4e4e4"
               id="Accessories/Shoe/Flat-Sneaker-1"
               transform="rotate(50,-151.12184,137.15114)">
              <path
                 inkscape:connector-curvature="0"
                 d="m 2.9010163,27.515971 c -1.2118616,3.235034 -1.8177924,5.655587 -1.8177924,7.261659 0,1.953362 0.3254158,4.803804 0.9762475,8.551325 2.2660378,0 22.6313016,0 61.0957906,0 1.587663,-5.248753 0.671171,-8.082386 -2.749474,-8.500899 -3.420645,-0.418513 -6.262233,-0.796396 -8.524764,-1.13365 L 23.484286,21.034998 c -0.54641,-0.243592 -1.186833,0.0019 -1.430425,0.5483 -0.0042,0.0093 -0.0082,0.01875 -0.0121,0.02822 l -1.825321,4.427775 c -3.166623,1.477471 -5.739833,2.216206 -7.719629,2.216206 -1.608538,0 -3.8299428,-0.649637 -6.6642139,-1.94891 l 5.9e-6,-1.3e-5 c -1.0876658,-0.498603 -2.3735905,-0.02107 -2.8721933,1.066593 -0.021491,0.04688 -0.0413,0.09451 -0.059391,0.142806 z"
                 id="shoe-2" />
            </g>
            <g
               style="fill:#e4e4e4"
               id="g1613"
               transform="translate(225.31057,214.72927)">
              <path
                 inkscape:connector-curvature="0"
                 d="m 2.9010163,27.515971 c -1.2118616,3.235034 -1.8177924,5.655587 -1.8177924,7.261659 0,1.953362 0.3254158,4.803804 0.9762475,8.551325 2.2660378,0 22.6313016,0 61.0957906,0 1.587663,-5.248753 0.671171,-8.082386 -2.749474,-8.500899 -3.420645,-0.418513 -6.262233,-0.796396 -8.524764,-1.13365 L 23.484286,21.034998 c -0.54641,-0.243592 -1.186833,0.0019 -1.430425,0.5483 -0.0042,0.0093 -0.0082,0.01875 -0.0121,0.02822 l -1.825321,4.427775 c -3.166623,1.477471 -5.739833,2.216206 -7.719629,2.216206 -1.608538,0 -3.8299428,-0.649637 -6.6642139,-1.94891 l 5.9e-6,-1.3e-5 c -1.0876658,-0.498603 -2.3735905,-0.02107 -2.8721933,1.066593 -0.021491,0.04688 -0.0413,0.09451 -0.059391,0.142806 z"
                 id="path1611" />
            </g>
            <polygon
               style="fill:#69a1ac"
               id="Pant"
               points="138.26711,2.8421709e-014 180.89839,235.69816 247.84646,228.46043 198.22997,2.8421709e-014 " />
            <path
               style="fill:#89c5cc"
               inkscape:connector-curvature="0"
               d="m 47.076865,171.46022 43.913942,51.77833 C 137.24441,172.91637 164.21039,140.08113 171.88873,124.73285 179.56707,109.38457 186.46951,67.806951 192.59604,0 h -67.50735 c -3.34663,59.653598 -5.60249,90.868383 -6.76758,93.644357 -1.16509,2.775974 -24.91317,28.714593 -71.244245,77.815863 z"
               id="path1616" />
          </g>
          <g
             id="Body/Hoodie"
             transform="rotate(-10,755.65058,24.107546)">
            <path
               style="fill:#b28b67"
               inkscape:connector-curvature="0"
               d="m 206.65876,99.393636 34.55297,25.248014 c 9.37147,2.5163 17.20104,5.64701 23.48869,9.39212 1.48526,1.34672 3.28033,4.07405 -2.87938,3.6027 -6.1597,-0.47135 -12.66009,-0.69148 -13.51001,1.39915 -0.84992,2.09063 2.8776,4.5908 1.15954,7.4116 -1.14537,1.88054 -6.55657,-2.83484 -16.23359,-14.14614 l -34.2165,-14.11882 z m -132.665981,0.871374 22.636554,0.0886 c -13.977027,44.89798 -21.522545,68.72057 -22.636554,71.46776 -2.506519,6.18119 2.797612,15.59503 5.065869,20.65395 -7.387637,3.28947 -6.600476,-8.89276 -15.919782,-4.57845 -8.50623,3.93791 -14.976898,11.07313 -24.804618,5.039 -1.20826,-0.74186 -2.532317,-3.5351 0.666771,-5.71787 7.970095,-5.43808 19.455485,-14.95569 21.007342,-18.08849 2.116234,-4.27213 6.777707,-27.22696 13.984418,-68.86448 z"
               id="Skin-7" />
            <path
               style="fill:#ed2945;fill-opacity:1"
               inkscape:connector-curvature="0"
               d="m 132.97336,10.34818 9.19179,-2.4089735 c 37.2249,26.7314595 56.44708,82.6607065 101.5339,109.2350135 l -9.112,13.4922 C 160.17296,128.03695 135.82421,59.895643 132.97336,10.34818 Z"
               id="Coat-Back-9"
               transform="rotate(5,188.33621,69.302813)" />
            <path
               style="fill:#dde3e9"
               inkscape:connector-curvature="0"
               d="m 97.49015,122.87921 c 37.55727,0 65.18362,0 82.87903,0 3.78715,0 3.07353,-5.44157 2.52608,-8.18741 C 176.57696,83.001421 151.91273,48.84073 151.91273,3.730279 L 128.00652,0 C 108.23301,31.645069 101.39498,70.606556 97.49015,122.87921 Z"
               id="Shirt-4" />
            <path
               style="fill:#ed2945;fill-opacity:1"
               inkscape:connector-curvature="0"
               d="M 98.156161,31.105642 C 94.684083,30.112508 91.934557,27.79621 89.907583,24.156749 81.169819,8.4679683 84.325434,-0.16986734 93.663333,-3.0091727 103.00123,-5.848478 111.32868,0 126.20645,0 c 0.80923,0 1.55039,0.05048022 2.22348,0.15144065 l 7.48389,0.42494902 C 157.38592,72.989383 163.30779,121.3022 153.67945,145.51485 H 88.447195 c -3.864941,8.96789 -7.563364,16.51311 -11.095268,22.63565 H 59.577314 C 57.904473,114.32842 70.764089,68.646805 98.156161,31.105642 Z"
               id="Coat-Front-0" />
            <path
               style="fill:#000000;fill-opacity:0.1"
               inkscape:connector-curvature="0"
               d="m 102.65196,108.32518 c 2.05154,17.08063 5.38598,29.47718 10.00332,37.18967 H 88.447195 c 4.508347,-10.46079 9.243268,-22.85735 14.204765,-37.18968 z"
               id="Shade" />
          </g>
        </g>
      </g>
    </g>
  </g>
</svg>
