<?xml version="1.0" encoding="UTF-8" standalone="no"?>
<!-- Created with Inkscape (http://www.inkscape.org/) -->

<svg
   xmlns:dc="http://purl.org/dc/elements/1.1/"
   xmlns:cc="http://creativecommons.org/ns#"
   xmlns:rdf="http://www.w3.org/1999/02/22-rdf-syntax-ns#"
   xmlns:svg="http://www.w3.org/2000/svg"
   xmlns="http://www.w3.org/2000/svg"
   xmlns:sodipodi="http://sodipodi.sourceforge.net/DTD/sodipodi-0.dtd"
   xmlns:inkscape="http://www.inkscape.org/namespaces/inkscape"
   width="550"
   height="400"
   viewBox="0 0 145.52081 105.83332"
   version="1.1"
   id="svg8"
   inkscape:version="0.92.3 (2405546, 2018-03-11)"
   sodipodi:docname="help.svg">
  <defs
     id="defs2" />
  <sodipodi:namedview
     id="base"
     pagecolor="#ffffff"
     bordercolor="#666666"
     borderopacity="1.0"
     inkscape:pageopacity="0.0"
     inkscape:pageshadow="2"
     inkscape:zoom="1.009145"
     inkscape:cx="209.97839"
     inkscape:cy="211.28072"
     inkscape:document-units="mm"
     inkscape:current-layer="layer1"
     showgrid="false"
     units="px"
     inkscape:pagecheckerboard="true"
     inkscape:window-width="1680"
     inkscape:window-height="987"
     inkscape:window-x="-8"
     inkscape:window-y="-8"
     inkscape:window-maximized="1"
     showguides="true"
     inkscape:guide-bbox="true">
    <sodipodi:guide
       position="79.020996,15.569056"
       orientation="0,1"
       id="guide3568"
       inkscape:locked="false" />
  </sodipodi:namedview>
  <metadata
     id="metadata5">
    <rdf:RDF>
      <cc:Work
         rdf:about="">
        <dc:format>image/svg+xml</dc:format>
        <dc:type
           rdf:resource="http://purl.org/dc/dcmitype/StillImage" />
        <dc:title></dc:title>
      </cc:Work>
    </rdf:RDF>
  </metadata>
  <g
     inkscape:label="Layer 1"
     inkscape:groupmode="layer"
     id="layer1"
     transform="translate(0,-191.16666)">
    <g
       id="Scene/Plants"
       transform="matrix(0.16779224,0,0,0.16779224,9.6126711,189.32931)"
       style="fill:none;fill-rule:evenodd;stroke:none;stroke-width:1">
      <g
         transform="translate(55,337)"
         id="Background-Shape-2"
         style="opacity:0.50451074;fill:#f2f2f2">
        <path
           id="Background-Shape"
           d="M 630.15996,153.79549 C 639.34963,222.53553 416.48454,267.37231 224.65938,236.0818 32.834231,204.79129 -55.166053,82.598339 36.369711,17.489129 127.90548,-47.620081 620.97029,85.055443 630.15996,153.79549 Z"
           inkscape:connector-curvature="0" />
      </g>
      <path
         transform="matrix(-0.99862953,-0.05233596,-0.05233596,0.99862953,1005.3579,26.326223)"
         id="Leaf-Bottom"
         d="m 582.66329,177.55341 c 5.03655,-2.17693 11.43276,0.98916 8.36557,7.28111 -3.28538,6.73767 -14.10159,6.25618 -20.20043,5.7996 0.61282,0 2.91196,-6.21596 3.63574,-7.13552 2.13457,-2.71269 5.10263,-4.60417 8.19912,-5.94519 z m -63.03516,120.58303 c -1.294,0.994 -0.106,0.094 0,0 z m 66.13064,-89.16738 c 2.75762,2.34653 2.69144,6.23087 0.20727,8.73224 -2.95802,2.97783 -8.05434,2.59667 -11.84708,2.09263 -1.71563,-0.22819 -10.87627,-1.44691 -8.61686,-2.83802 -0.17106,0.0545 -0.52942,0.18995 -0.91525,0.37928 -0.24036,0.72659 -0.49071,1.45004 -0.74981,2.16974 0.0525,0.0345 0.0968,0.0708 0.15296,0.10532 -0.0612,-0.0307 -0.10364,-0.0627 -0.15733,-0.0934 -2.59529,7.19318 -6.10896,13.98764 -10.57347,20.28245 1.57454,-0.5266 3.19652,-0.90275 4.82786,-1.02249 4.83099,-0.35546 14.73144,3.90315 9.02829,10.01177 -5.46842,5.85598 -13.13756,-1.13596 -18.93186,-2.34841 -6.08088,7.61133 -12.72551,14.86281 -19.6567,21.84535 0.39457,0.14669 0.73295,0.42692 0.91338,0.84507 2.69643,-1.19489 5.53334,-2.95776 7.99129,-3.34645 3.54675,-0.55983 10.76326,-0.63381 13.24993,2.64494 3.05854,4.03166 -0.60122,6.98442 -4.4926,7.52293 -5.6426,0.78113 -12.81229,-2.33148 -18.09091,-4.45734 -0.62057,0.0765 -1.28235,-0.13854 -1.65756,-0.65136 -0.11675,-0.0451 -0.2335,-0.0896 -0.34713,-0.1329 -7.01235,6.94241 -14.26569,13.63093 -21.46909,20.1671 0.073,0 0.14609,-6.2e-4 0.22226,-6.2e-4 1.84611,-1.07704 3.81084,-1.93716 5.9123,-2.33149 4.86158,-0.91842 10.50979,-0.62816 14.22324,3.0493 3.6991,3.66179 4.75669,9.78232 0.53879,13.45539 -8.44267,7.35242 -19.35265,-10.99226 -23.36702,-11.94454 -7.3164,6.56878 -15.00802,12.6611 -22.80826,18.61676 0.86156,-0.21378 1.74122,-0.35797 2.64461,-0.39621 7.35948,-0.31722 24.07688,9.56102 14.62718,17.92276 -8.23477,7.28659 -16.52261,-8.00315 -22.56227,-13.51495 -7.34699,5.54691 -14.7302,11.05119 -21.92672,16.79495 3.80272,-0.79931 7.43501,-0.75606 11.39195,0.66954 4.09429,1.477 10.64277,4.97015 7.71846,10.44935 -2.97426,5.57199 -10.89937,2.55028 -15.00302,0.51658 -2.23818,-1.10901 -6.65462,-4.68804 -10.61218,-6.30547 -11.51619,9.78483 -21.61893,20.69747 -29.51907,33.7623 -4.93212,8.15736 -8.81101,16.9454 -11.6935,26.03561 -1.83987,5.80207 -5.37539,15.52358 -5.17248,23.21139 -2.07649,-15.47593 4.09491,-33.60871 10.42176,-47.01269 5.81741,-12.3257 14.11524,-22.9788 23.67731,-32.45833 -1.91104,-6.94241 -20.49078,-17.78484 -8.74297,-23.52609 6.23758,-3.03425 12.15488,2.85307 13.17127,8.81312 0.69799,4.09561 -0.95521,9.10902 -2.63275,12.96076 3.00297,-2.88505 6.11333,-5.66665 9.3086,-8.34607 4.41581,-3.70316 8.92651,-7.28721 13.47593,-10.82111 -6.81882,-7.11356 -12.59689,-26.73087 -2.81568,-29.37706 14.443,-3.89437 6.22883,22.02088 4.9802,26.89324 -0.2822,0.002 -0.49696,-0.0947 -0.64867,-0.28525 0.0562,0.45514 0.12361,0.94225 0.21039,1.43437 8.70551,-6.72612 17.52714,-13.30493 26.08656,-20.21036 -0.70798,-0.58302 -1.76994,-2.72455 -2.63213,-3.87995 -1.946,-2.60481 -3.79648,-5.31621 -5.09569,-8.31221 -2.05214,-4.73444 -3.8789,-12.21035 2.34432,-14.60578 6.76824,-2.61046 9.47467,5.87855 9.26053,10.84682 -0.14859,3.4361 -1.25489,6.64964 -1.91854,9.99045 -0.20727,1.04193 0.13111,5.8052 -1.19245,3.69439 0.0281,0.75417 0.009,1.29833 -0.0443,1.682 1.53707,-1.2463 3.06353,-2.50764 4.58125,-3.77902 -0.0581,-0.17365 -0.098,-0.36173 -0.098,-0.57738 0,-1.48453 1.5196,-1.97665 2.54161,-1.48829 2.00469,-1.7146 3.99189,-3.45303 5.94726,-5.22969 4.14423,-3.76398 8.35152,-7.63829 12.53571,-11.60099 -0.8216,-0.78427 -0.42578,-1.78983 -1.18933,-2.61673 -0.76229,-0.82501 -2.32184,-1.34096 -3.22835,-2.1177 -2.28002,-1.95471 -4.11052,-4.72441 -5.39787,-7.42326 -2.12518,-4.45922 -4.68864,-13.71431 2.29188,-15.42076 7.19528,-1.76225 10.33186,7.18189 10.50043,12.67991 0.0331,1.06512 -1.26175,10.57912 -2.05152,14.0171 7.74406,-7.36621 15.38261,-15.02957 22.35001,-22.86846 -1.98159,-0.12225 -7.38944,-4.47866 -8.46764,-5.64659 -2.63088,-2.84869 -6.72517,-9.05322 -1.69878,-11.95958 4.46888,-2.57724 9.58331,1.76287 11.22464,5.80645 0.26971,0.66578 1.02389,6.77064 0.9652,9.48892 2.8881,-3.32764 5.65259,-6.68224 8.23789,-10.05753 1.72375,-2.24372 3.34573,-4.55451 4.87407,-6.9211 -0.32715,-0.20876 -0.62682,-0.55858 -0.90464,-0.98864 -7.14409,-1.60113 -15.74471,-13.32938 -7.07292,-16.79871 4.12863,-1.6494 8.29908,2.4205 10.10898,5.66853 0.37085,0.66453 0.85657,3.93324 1.25613,6.51235 4.45265,-7.87212 7.98005,-16.26834 10.78325,-24.91971 -0.61933,-0.1887 -1.12565,-0.69588 -1.1525,-1.52402 -3.39505,-2.17852 -6.0715,-3.98465 -8.31343,-7.94924 -1.39286,-2.4625 -3.84082,-8.05016 0.688,-9.13911 5.89357,-1.41682 9.07448,7.63829 9.32046,12.02917 0.0287,0.50968 -0.0506,1.98355 -0.14047,3.33329 0.2029,-0.0169 0.40643,-0.003 0.60434,0.0426 1.61761,-5.36323 2.96989,-10.81046 4.1049,-16.27837 -3.11411,-1.18549 -2.79008,-17.84942 -0.55689,-20.10755 4.99205,-5.05667 7.91637,2.7791 7.4525,6.81515 -0.54753,4.75888 -2.93868,8.98865 -5.7169,12.70811 -0.2978,0.3937 -0.21788,0.37803 -0.25971,-0.19434 -0.0543,0.27898 -0.1592,0.48147 -0.30654,0.62441 10e-4,2.52018 0.12548,5.10681 -0.1155,7.3242 -0.6905,6.34998 -1.76807,12.71689 -3.17467,18.94713 -0.34212,1.51525 -0.72171,3.01607 -1.13688,4.50185 2.6596,-2.03558 6.19325,-3.78278 7.568,-4.31503 3.56798,-1.37983 9.0289,-2.78536 12.35278,0.0433 z M 398.82843,420.86815 c 0.0453,2.22934 0.3395,4.28382 1,6 -0.46115,-1.9387 -0.78769,-3.94553 -1,-6 z"
         inkscape:connector-curvature="0"
         style="fill:#f2f2f2" />
      <path
         transform="rotate(-3,173.12296,126.71407)"
         id="Leaf-Top"
         d="m 236.70239,42.658046 c 3.59753,-1.554947 8.16625,0.706545 5.9754,5.200792 -2.3467,4.812626 -10.07256,4.468704 -14.42887,4.142572 0.43772,0 2.07997,-4.439968 2.59695,-5.096795 1.52469,-1.93764 3.64474,-3.288696 5.85652,-4.246569 z m -45.07368,87.568204 c -1.294,0.994 -0.106,0.094 0,0 z m 47.95135,-64.502014 c 2.0135,1.696721 1.96518,4.505398 0.15135,6.314085 -2.15983,2.153199 -5.88095,1.877589 -8.65026,1.513132 -1.25268,-0.165003 -7.9414,-1.046228 -6.29167,-2.052112 -0.1249,0.03944 -0.38656,0.137352 -0.66828,0.27425 -0.1755,0.52538 -0.3583,1.048494 -0.54748,1.568888 0.0383,0.02493 0.0707,0.05122 0.11169,0.07616 -0.0447,-0.02221 -0.0757,-0.04533 -0.11488,-0.06754 -1.89497,5.201221 -4.46051,10.11414 -7.72031,14.665775 1.14966,-0.380776 2.33396,-0.652759 3.52511,-0.73934 3.52738,-0.257024 10.75628,2.822277 6.59208,7.23928 -3.99282,4.234322 -9.5925,-0.821388 -13.82327,-1.69808 -4.44,5.503575 -9.29163,10.746956 -14.3525,15.795866 0.28809,0.10607 0.53516,0.3087 0.66691,0.61106 1.96882,-0.864 4.04021,-2.1387 5.8349,-2.41975 2.5897,-0.4048 7.8589,-0.45829 9.67456,1.9125 2.23322,2.9152 -0.43899,5.05027 -3.28032,5.43966 -4.11999,0.56482 -9.355,-1.68584 -13.20923,-3.223 -0.45311,0.0553 -0.93632,-0.10018 -1.21028,-0.47099 -0.0853,-0.0326 -0.17049,-0.0648 -0.25346,-0.0961 -5.12013,5.01989 -10.41622,9.8562 -15.67584,14.58236 0.0533,0 0.10667,-4.5e-4 0.16228,-4.5e-4 1.34795,-0.77878 2.78252,-1.40071 4.31692,-1.68584 3.54972,-0.66409 7.67382,-0.45421 10.38523,2.20487 2.70092,2.64776 3.47313,7.07337 0.3934,9.72929 -6.16449,5.31636 -14.13051,-7.94825 -17.06164,-8.63682 -5.34213,4.74973 -10.95823,9.15494 -16.65365,13.46134 0.62908,-0.15458 1.27137,-0.25884 1.93099,-0.28649 5.37359,-0.22937 17.57994,6.91336 10.68016,12.95954 -6.01269,5.26876 -12.06413,-5.78689 -16.47404,-9.77235 -5.36447,4.01084 -10.75538,7.99086 -16.00999,12.14404 2.7766,-0.57796 5.42875,-0.54669 8.31794,0.48413 2.98948,1.06799 7.77091,3.5938 5.6357,7.55569 -2.17168,4.02897 -7.95827,1.84404 -10.95459,0.37352 -1.63423,-0.8019 -4.85893,-3.38982 -7.74857,-4.55934 -8.40865,7.07518 -15.78525,14.96586 -21.55361,24.41274 -3.60123,5.8984 -6.43344,12.25283 -8.53811,18.82575 -1.3434,4.19534 -3.92489,11.22474 -3.77674,16.78362 -1.51616,-11.19029 2.98994,-24.30168 7.60955,-33.99379 4.24763,-8.91243 10.30636,-16.61544 17.28819,-23.46987 -1.39536,-5.0199 -14.96153,-12.85981 -6.38375,-17.01117 4.55442,-2.194 8.87498,2.06299 9.61711,6.37256 0.50964,2.96144 -0.69745,6.58652 -1.92233,9.37162 2.19265,-2.08611 4.46371,-4.09742 6.79676,-6.03484 3.22424,-2.67768 6.51777,-5.26922 9.83957,-7.8245 -4.97882,-5.14365 -9.19773,-19.32847 -2.05589,-21.24187 10.54568,-2.81593 4.54803,15.92279 3.63633,19.44587 -0.20605,0.001 -0.36286,-0.0685 -0.47363,-0.20625 0.041,0.3291 0.0903,0.68132 0.15362,1.03716 6.3564,-4.86351 12.7976,-9.62049 19.04733,-14.61364 -0.51694,-0.42158 -1.29234,-1.97007 -1.92187,-2.80551 -1.42089,-1.88348 -2.77204,-3.84402 -3.72067,-6.01037 -1.49839,-3.42336 -2.83221,-8.82902 1.71173,-10.5611 4.94189,-1.88756 6.91801,4.25064 6.76165,7.84309 -0.10849,2.48456 -0.91626,4.8082 -1.40083,7.22386 -0.15134,0.7534 0.0957,4.19761 -0.87068,2.67133 0.0205,0.54533 0.007,0.93879 -0.0324,1.21622 1.1223,-0.90117 2.23686,-1.81322 3.34504,-2.73252 -0.0424,-0.12557 -0.0716,-0.26156 -0.0716,-0.4175 0,-1.07342 1.10954,-1.42927 1.85577,-1.07614 1.46375,-1.23979 2.91472,-2.49681 4.34245,-3.78147 3.02595,-2.72165 6.09794,-5.52307 9.15306,-8.38841 -0.5999,-0.56709 -0.31089,-1.29419 -0.8684,-1.8921 -0.55659,-0.59655 -1.69531,-0.96962 -2.35721,-1.53126 -1.66477,-1.41341 -3.00133,-3.41611 -3.9413,-5.36759 -1.55172,-3.22435 -3.42345,-9.916498 1.67343,-11.150394 5.2537,-1.274241 7.5439,5.193061 7.66698,9.168544 0.0242,0.77017 -0.92127,7.64953 -1.49793,10.13545 5.65439,-5.32633 11.23175,-10.86753 16.31906,-16.535661 -1.44688,-0.0884 -5.39547,-3.238411 -6.18273,-4.082918 -1.92096,-2.059818 -4.91044,-6.546177 -1.24037,-8.647698 3.26299,-1.863537 6.99733,1.274693 8.19577,4.19851 0.19692,0.48141 0.74759,4.895694 0.70474,6.861224 2.10878,-2.406143 4.12729,-4.831778 6.01497,-7.272371 1.25861,-1.622379 2.44292,-3.293261 3.55884,-5.004487 -0.23886,-0.150951 -0.45767,-0.403895 -0.66053,-0.714862 -5.21631,-1.157741 -11.49614,-9.63817 -5.16435,-12.14676 3.01455,-1.192645 6.05965,1.750211 7.38116,4.098784 0.27078,0.480503 0.62543,2.844035 0.91718,4.708932 3.25113,-5.692151 5.8267,-11.763264 7.87348,-18.018872 -0.45221,-0.136445 -0.8219,-0.503169 -0.84151,-1.101985 -2.47892,-1.575235 -4.43316,-2.881206 -6.07013,-5.747907 -1.017,-1.780581 -2.8044,-5.820889 0.50235,-6.608279 4.30325,-1.024469 6.62582,5.523067 6.80542,8.698015 0.021,0.368537 -0.0369,1.434257 -0.10257,2.410223 0.14816,-0.01224 0.29676,-0.0023 0.44127,0.03082 1.18111,-3.878024 2.16849,-7.81679 2.99723,-11.770516 -2.27379,-0.8572 -2.03721,-12.906499 -0.40662,-14.539303 3.64499,-3.656358 5.7802,2.009501 5.44151,4.927878 -0.39979,3.441038 -2.1457,6.499486 -4.17424,9.188945 -0.21744,0.284675 -0.1591,0.273343 -0.18964,-0.140525 -0.0397,0.201721 -0.11624,0.348138 -0.22382,0.451492 9.1e-4,1.822286 0.0916,3.692622 -0.0843,5.295962 -0.50418,4.591526 -1.29098,9.195291 -2.31801,13.700235 -0.24981,1.095638 -0.52697,2.180851 -0.83011,3.255183 1.94193,-1.471881 4.52206,-2.735242 5.52584,-3.120098 2.6052,-0.997724 6.59254,-2.014034 9.01949,0.03128 z M 102.99701,218.48457 c 0.0453,1.48623 0.3395,2.85588 1,4 -0.46115,-1.29246 -0.78769,-2.63035 -1,-4 z"
         inkscape:connector-curvature="0"
         style="opacity:0.2;fill:#c1dee2" />
      <g
         transform="translate(526.65071,154.25861)"
         id="Plant-Right"
         style="opacity:0.7">
        <path
           transform="matrix(-0.9945219,0.10452846,0.10452846,0.9945219,95.472974,-5.0035266)"
           id="Leaf-Me-Alone!"
           d="m 79.904753,113.04038 c -13.651708,0.72264 -29.610417,10.41287 -29.507811,25.32393 0.07485,10.83417 1.524567,21.49265 1.021537,32.37136 -0.40276,8.6944 -2.293301,17.19873 -5.230065,25.38858 -2.823875,7.8754 -9.645284,15.0436 -10.752225,23.25621 -0.705633,5.23293 0.743947,12.33748 2.981231,17.14844 2.720706,5.84932 1.563255,5.48607 -2.05185,11.01402 -7.083865,10.83311 -13.331425,21.83524 -17.257364,34.29701 -5.655191,17.94943 -8.43676,38.52803 -3.693395,57.0268 0.603062,2.34913 1.920561,10.86785 5.26911,11.12103 3.739938,0.28345 1.509347,-4.43334 1.14717,-5.99466 -2.309406,-9.96235 -4.34613,-18.66859 -3.917511,-29.07815 1.654316,-40.16354 27.289922,-69.20548 42.237382,-104.71663 0.833719,-1.83789 2.544617,-6.18546 3.749612,-9.0617 1.902403,-4.54094 3.409923,-12.95953 6.261565,-16.47806 5.370452,-6.62847 1.120872,6.00901 0.193511,8.43377 -1.172372,3.06709 -2.473526,6.3326 -3.720342,9.04321 -5.688852,12.55504 -12.069278,26.2779 -17.947119,39.22137 31.704221,3.80041 49.597806,-35.71524 55.334671,-61.06092 4.72679,-20.88206 7.96307,-68.8832 -24.118107,-67.25561"
           inkscape:connector-curvature="0"
           style="fill:#69a1ac" />
        <path
           id="path3503"
           d="m 210.80537,78.1212 c -22.82274,1.810806 -37.47443,16.870553 -44.29484,37.93433 -3.67596,11.35143 -4.0973,23.01265 -6.14006,34.67808 -3.07297,17.55076 -9.68482,30.85106 -22.6066,43.35497 -4.00226,3.87248 -6.95161,7.84851 -9.04819,12.10234 -4.16205,4.24711 -7.78503,9.05319 -10.44676,14.92927 -3.40011,7.50419 -4.3622,16.50771 -0.43647,23.98918 1.05544,2.01117 3.68858,6.04865 6.41758,7.88303 -10.21716,21.75998 -15.83496,45.59174 -15.2017,69.3932 0.38265,14.36775 1.08403,28.74139 1.90232,43.09147 0.22034,3.85312 1.47509,10.21577 3.35974,3.75378 1.72487,-5.91059 -0.43815,-15.18939 -0.63831,-21.36432 -0.97386,-30.08077 -1.80644,-57.43144 10.57627,-85.53556 1.29849,-2.94561 2.67518,-5.86765 4.10907,-8.76612 0.0841,-0.0488 0.16231,-0.10775 0.24136,-0.165 0.0547,0.0421 0.10428,0.0876 0.15895,0.1288 0.0917,-0.16331 0.21697,-0.35778 0.36331,-0.57498 0.41124,-0.42429 0.77034,-0.96054 1.11178,-1.55909 1.09833,-1.52206 2.34131,-3.31013 2.34804,-4.2892 0,-0.008 -0.004,-0.0194 -0.004,-0.0269 7.6656,-12.51316 16.44552,-24.33686 25.41382,-35.92905 -0.0673,0.0842 9.7277,-13.25231 8.21309,-5.87692 -0.72998,3.55427 -7.93473,10.32269 -10.84455,14.08742 -6.43692,8.37551 -13.99572,18.98779 -20.27706,29.24987 -0.84519,0.48574 -2.0394,2.87069 -2.90309,4.64698 -0.47684,0.89993 -0.92172,1.80744 -1.35904,2.59793 22.25675,7.35351 39.57017,-7.45874 51.37597,-24.68708 0.0143,-0.0202 0.0269,-0.0412 0.0404,-0.0614 3.5927,-4.76063 7.27287,-9.48758 11.87055,-13.25063 7.67065,-6.27931 15.88542,-7.38718 24.92941,-10.47759 24.66366,-8.42685 35.14994,-40.39083 38.48025,-64.1081 3.75754,-26.75717 -14.62226,-67.786959 -46.711,-65.14862"
           inkscape:connector-curvature="0"
           style="fill:#89c5cc" />
        <path
           transform="rotate(-8,140,158.5)"
           id="path3505"
           d="M 187.08728,8.2818784 C 160.49848,29.163511 144.58611,61.07338 131.2885,91.305359 116.43664,125.07145 104.87305,159.85285 99.484323,196.37211 c -3.539948,23.99335 -7.589711,48.06798 -9.559287,72.2536 -0.700053,8.58944 -1.05019,17.24324 -0.884335,25.86098 0.01389,0.70818 0.390346,19.95093 3.89734,15.97216 1.994507,-2.26264 -0.353269,-19.95631 -0.313028,-22.84269 0.229831,-16.25678 2.023085,-32.41403 4.382537,-48.48931 3.88452,-26.46741 6.80735,-52.9317 13.20153,-78.94708 0.95406,-3.88434 1.85252,-7.97867 3.3303,-11.70209 1.5697,-3.95872 0.0526,-2.34758 3.5178,-3.51509 3.3671,-1.1353 7.22235,-0.36376 10.76404,-1.88383 14.04858,-6.03044 23.50455,-25.26311 30.51788,-37.76866 8.02142,-14.3006 13.87153,-29.930045 18.97082,-45.449075 3.7451,-11.40244 6.88151,-22.817869 9.39689,-34.546727 0.79262,-3.696549 1.35737,-7.599252 2.60728,-11.167837 0.33681,-0.96266 1.57508,-2.575312 1.66238,-3.45748 C 191.16114,8.8219432 190.19407,7.5727246 190.32156,6 c -1.0938,0.7373788 -2.17292,1.4985159 -3.23428,2.2818784"
           inkscape:connector-curvature="0"
           style="fill:#89c5cc" />
        <path
           id="Base"
           d="m 38,328 c 0,40.31679 32.683213,73 73,73 40.31679,0 73,-32.68321 73,-73"
           inkscape:connector-curvature="0"
           style="fill:#89c5cc" />
        <path
           id="path3508"
           d="M 116.85729,328.23237 H 113 c 0.26764,-4.83953 0.62115,-9.67058 1.43019,-14.45622 3.09437,-18.30285 12.76975,-45.18494 33.99009,-48.15568 0.78285,-0.11072 3.66257,-0.12931 7.15089,0.0752 1.65325,-0.92377 3.50516,-1.48242 5.45639,-1.61088 18.06705,-1.33198 38.24359,13.24369 46.9585,28.41183 7.02547,12.2295 5.84193,28.28844 1.50257,41.28113 -2.90581,8.69841 -9.24775,21.10033 -19.82383,21.22119 -13.23188,0.15128 -13.86995,-16.20262 -14.12585,-25.7631 -0.34008,-12.7104 -1.94619,-23.78288 -11.96164,-32.44664 -2.33425,-2.01825 -4.88568,-3.79393 -7.24349,-5.78429 -3.69203,-3.11527 -7.77212,-6.30492 -8.24773,-11.45872 -0.65658,-7.11035 3.35701,-8.38993 9.48514,-7.06894 1.04465,0.22481 11.56769,4.94674 10.00956,1.2145 -0.4756,-1.14012 -2.21303,-2.0436 -4.40585,-2.72058 -5.67442,-0.61697 -12.44146,-1.33282 -14.38765,-0.90517 -20.99558,4.60614 -29.17007,33.68903 -31.34102,52.16682 -0.23429,1.99448 -0.42376,3.99547 -0.58898,5.99953 z"
           inkscape:connector-curvature="0"
           style="fill:#69a1ac" />
      </g>
      <g
         transform="translate(-25.25796,14.908384)"
         id="Plant-Left"
         style="opacity:0.5">
        <path
           id="Leaf"
           d="m 178.22298,111.44452 c 4.20233,-5.99201 12.00065,-21.209747 17.91535,-23.350872 3.80961,-1.379082 2.69886,12.886462 2.74591,15.606592 0.18321,10.52375 -0.84131,20.98076 -2.10651,31.41615 -2.2794,18.82018 -9.7328,35.58098 -19.95571,51.59889 -5.26049,8.24219 -11.43062,16.58432 -19.97655,21.72705 -3.9337,2.36833 -8.66693,2.76487 -12.5517,4.80538 -4.52439,2.37542 -2.06042,0.45514 -4.0994,5.16978 -2.83157,6.54564 -3.73726,14.99022 -5.04739,21.97466 -6.01543,32.06236 -20.57868,201.55236 -18.05397,234.16591 0.22424,2.89072 -3.8065,3.582 -4.00772,0.053 -1.0695,-18.71157 8.18515,-148.28891 12.85427,-190.66443 4.66913,-42.37551 9.39407,-79.81216 14.13176,-94.47276 5.74753,-17.78643 16.12789,-39.17598 24.76882,-55.76259 4.01364,-7.70577 8.38859,-15.14607 13.38284,-22.26679 z"
           inkscape:connector-curvature="0"
           style="fill:#69a1ac" />
        <path
           id="path3512"
           d="m 209.41413,319.27776 c 10.93504,-8.02806 22.77139,7.1233 12.87631,15.1526 -5.47023,4.43811 -11.18905,2.85935 -14.40858,-0.83916 -2.08999,2.54759 -4.04615,5.21134 -5.92577,7.46129 -5.72671,6.85601 -11.13932,13.87566 -16.31221,21.05899 -10.74587,14.92318 -19.95489,30.68921 -29.58357,46.16694 -9.50225,15.27568 -18.92852,30.6296 -27.54124,46.2923 C 121.22288,467.84083 111.49799,483.45204 109,498 c 3.79011,-30.8537 18.17186,-60.50956 35.29802,-87.70946 16.9868,-26.97645 36.48113,-56.43773 62.78301,-77.72696 -2.67689,-3.93654 -2.7512,-9.55565 2.3331,-13.28582 z"
           inkscape:connector-curvature="0"
           style="fill:#c1dee2" />
        <path
           id="path3514"
           d="m 1.9131966,244.03077 c 6.119244,1.19672 16.1180194,15.0394 21.1621014,20.31357 5.994552,6.26762 11.433099,12.948 16.559569,19.94738 11.036241,15.06587 20.906218,31.08402 29.299057,47.78814 13.682523,27.23106 24.644004,55.18469 32.599216,84.8378 4.86968,18.15173 8.02259,36.9653 9.89118,55.64749 0.35289,3.52335 4.04688,30.6877 -1.27593,31.41986 -4.78731,0.65926 -3.30869,-20.62645 -3.53964,-23.52183 -2.61068,-32.66531 -10.431516,-64.44839 -21.310229,-95.23708 -2.369539,-6.70702 -4.570926,-14.92193 -8.360379,-20.9576 -2.728937,-4.3474 -0.01957,-2.83132 -4.815318,-4.47661 -4.117914,-1.41358 -8.809691,-1.06816 -13.026528,-2.7985 C 49.935634,353.23666 42.600572,345.94373 36.170888,338.60791 23.675758,324.35137 13.774003,308.92804 8.6126365,290.66039 5.7494672,280.53158 3.1183607,270.34385 1.6582582,259.90183 1.2805551,257.20288 -2.0281623,243.25997 1.9131966,244.03077 Z"
           inkscape:connector-curvature="0"
           style="fill:#69a1ac" />
        <path
           id="path3516"
           d="m 26.061363,13.716032 c 23.049925,39.97438 41.991409,83.885187 54.222062,128.360198 7.410316,26.94692 12.592572,54.59843 17.741556,82.05019 7.972269,42.50563 15.513129,85.00798 17.658149,128.26863 2.15802,43.51136 6.42537,93.69661 -7.8223,135.60495 7.11678,-42.54835 0.34113,-87.83776 -0.85857,-130.65018 -0.5733,-20.43796 -2.23463,-40.67609 -4.41399,-60.99462 -2.11485,-19.71006 -5.56991,-39.32627 -8.787353,-58.88141 -1.567275,-9.52371 -3.213268,-19.03309 -4.889117,-28.53726 -0.500299,-2.83558 -0.711635,-11.24975 -2.510362,-13.18686 -1.810375,-1.94987 -11.04715,-2.74476 -13.947069,-4.17545 -5.839442,-2.8816 -11.332225,-6.9747 -16.19348,-11.29958 C 46.941798,171.98395 38.834658,161.15116 32.435855,150.47249 17.630684,125.76373 11.711583,95.610044 12.010759,66.994155 12.068241,61.438242 21.003398,1.6099513 17.414895,0.78606626 17.630954,0.53302938 17.835328,0.27176118 18.028036,0 c 2.716804,4.5487845 5.382776,9.1283956 8.033327,13.716032 z"
           inkscape:connector-curvature="0"
           style="fill:#89c5cc" />
        <path
           id="path3518"
           d="m 274.84616,157.88729 c 0.35565,-0.51299 2.67039,-4.08063 1.50476,-3.85262 2.37326,-0.46423 -3.26427,3.93473 2.64908,1.23555 -2.8077,2.65169 -1.18728,6.09627 -1.14981,9.66516 0.0611,5.79428 -0.90833,11.54105 -1.99963,17.21101 -1.72443,8.96248 -4.29337,17.67663 -8.02213,26.01281 -8.12696,18.16643 -21.92695,35.65495 -38.3101,47.01247 -8.08791,5.60766 -16.01442,7.51687 -25.23869,10.09842 -5.82643,1.63094 -6.28848,4.64487 -9.38117,10.29877 -6.43874,11.77587 -12.76281,23.50939 -18.44121,35.68258 -6.78038,14.53607 -13.3625,29.08816 -19.57135,43.88012 -20.91649,49.82593 -37.94057,101.44633 -46.8811,154.86844 -0.2189,-31.48149 7.06382,-63.90472 16.25028,-93.91181 6.69178,-21.86249 15.40322,-42.93727 24.69483,-63.79869 2.25154,-5.05393 5.66355,-11.55499 6.61971,-17.13474 0.6695,-3.90946 -1.37737,-7.6692 -2.31453,-11.78751 -3.6536,-16.03744 -3.3921,-34.00454 -0.1837,-50.12774 3.53751,-17.77887 13.76783,-26.03066 31.07373,-28.54892 6.32911,-0.92115 14.37358,-0.58355 20.17707,-3.28216 6.32281,-2.93871 8.93106,-12.59819 12.52644,-18.79882 9.65708,-16.65621 21.13108,-32.63053 34.3064,-46.66476 3.64812,-3.88626 7.57134,-7.4716 11.73343,-10.79476 2.62461,-2.09674 8.16903,-4.67991 9.95769,-7.2628 z"
           inkscape:connector-curvature="0"
           style="fill:#89c5cc" />
        <path
           id="path3520"
           d="m 80.791453,476 h 61.417097 c 2.76142,0 5,2.23858 5,5 0,0.24414 -0.0179,0.48795 -0.0535,0.72948 l -4.74699,32.18846 C 140.96096,523.73048 132.54074,531 122.62207,531 h -22.24414 c -9.918669,0 -18.33889,-7.26952 -19.785992,-17.08206 l -4.746984,-32.18846 c -0.402883,-2.73187 1.48514,-5.2731 4.217016,-5.67598 C 80.303499,476.01788 80.547312,476 80.791453,476 Z"
           inkscape:connector-curvature="0"
           style="fill:#c1dee2" />
      </g>
      <g
         transform="translate(-4.3740295,460.82916)"
         id="Maceta"
         style="fill:#f2f2f2">
        <path
           id="path3523"
           d="M 15.417722,48.455696 C 15.417722,69.743127 17.097605,87 39.64557,87 62.193534,87 63.873418,69.743127 63.873418,48.455696"
           inkscape:connector-curvature="0" />
        <path
           id="Fill-27"
           d="m 46.353417,35.174166 c -0.826498,1.429039 -1.563454,2.886658 -2.214403,4.36616 -0.02297,-3.046978 0.145506,-6.116285 0.605588,-9.22757 0.78644,-5.32942 1.987602,-10.631153 3.116306,-15.924401 C 48.672089,10.584433 48.620838,3.7518432 51.699441,0.72049533 52.543612,0.06537051 52.74685,1.350612 52.74685,1.9083836 52.75745,2.0262793 52.74445,-0.36825336 51.925064,0.04884725 47.054438,2.5644016 45.476257,10.47413 43.916926,14.434352 41.641847,20.214813 39.706085,26.123887 38.909041,32.137906 38.707571,33.657153 38.598,35.175953 38.572669,36.692073 38.407134,36.286584 38.251613,35.877968 38.079598,35.473818 35.268443,28.880592 31.474681,22.447239 26.743081,16.51405 25.578443,15.054198 10.934166,0.64948999 9.7877898,2.8542284 c 0.1131059,0.320194 0.3499212,0.5859058 0.7110362,0.7971355 0.02121,0.024115 0.0218,0.010718 0.0094,-0.025008 0.860077,1.3892933 3.305404,3.5350839 4.067102,4.7524461 1.916911,3.063501 3.406728,6.314564 4.920699,9.503552 3.198778,6.739256 6.166042,13.546392 9.042586,20.367818 0.6698,1.588912 1.367875,3.168893 2.08009,4.743961 C 23.276854,32.404511 13.482585,22.790655 0,17.28707 c 4.6049445,2.34273 7.624049,6.750421 10.733874,10.125185 3.750759,4.070527 7.70122,8.031642 11.459048,12.097704 4.43234,4.796656 9.647586,9.847861 13.910856,15.155846 4.129546,8.669798 8.142451,17.348974 10.61959,26.462666 -1.015008,-3.148797 -0.07953,-7.500219 -0.25331,-10.80487 -0.137848,-2.630324 -0.445355,-5.239213 -0.866557,-7.843189 0.520759,1.174491 0.969648,2.349875 1.172885,3.44309 -0.185564,-1.833635 -0.399405,-3.655659 -0.629152,-5.468305 0.589683,-1.696983 1.168762,-3.280536 1.55992,-4.584981 2.004686,-6.691472 4.391693,-13.267729 7.642311,-19.677413 3.007912,-5.92917 6.458233,-11.782869 10.217828,-17.457938 1.753732,-2.645954 3.531616,-5.282083 5.298308,-7.922679 C 72.021991,9.0834965 73.123007,6.3156276 74.733,4.6592826 64.326073,14.174 52.955978,23.757489 46.353417,35.174166"
           inkscape:connector-curvature="0" />
      </g>
    </g>
    <g
       transform="matrix(0.84465018,0,0,0.84465018,22.302016,35.884908)"
       id="layer1-0"
       inkscape:label="Layer 1">
      <g
         style="fill:none;fill-rule:evenodd;stroke:none;stroke-width:1"
         transform="matrix(0.22693176,0,0,0.22693176,-12.696689,186.86987)"
         id="humaaans/standing-11">
        <g
           id="A-Human/Standing"
           transform="translate(40,27)">
          <g
             id="Head/Front/Short-Beard"
             transform="translate(82)">
            <g
               style="fill:#b28b67;stroke-width:1"
               id="Head"
               transform="translate(54,31)">
              <path
                 inkscape:connector-curvature="0"
                 d="M 8.2622739,34.490127 C 3.6543643,29.081376 0.53563479,22.452877 1.0567763,15.025454 2.5583302,-6.3750206 32.348531,-1.6671889 38.143341,9.1339329 43.938152,19.935055 43.249578,47.332996 35.760301,49.263458 32.773588,50.033323 26.411001,48.147461 19.935372,44.244306 L 24,73 H 0 Z"
                 id="path830" />
            </g>
            <path
               style="fill:#191847"
               inkscape:connector-curvature="0"
               d="m 75.135305,48.388929 c 0.918684,12.797176 3.348846,19.195765 7.290486,19.195765 5.912807,0 10.929403,-3.75365 13.5238,-3.75365 1.891228,0 1.468975,2.366696 0.215371,4.121434 -1.034265,1.447714 -6.071045,2.843138 -6.071045,5.087581 0,2.244444 3.979474,0.508042 3.979474,1.839177 0,2.201861 0.699387,6.341753 -3.122167,6.341753 -3.86754,0 -14.956462,-1.409405 -16.856802,-7.149517 C 72.867997,70.366972 72.075026,62.690555 71.715507,51.04222 71.48089,51.014341 71.24212,51 71,51 c -3.313709,0 -6,2.686292 -6,6 0,1.682218 0.692292,3.202743 1.807515,4.292214 -1.388319,1.959602 -2.944226,4.006669 -4.727129,6.118976 -6.697981,-4.018516 -11.668263,-15.782219 -5.1199,-27.082912 1.809988,-5.536033 5.907549,-8.493037 10.746866,-9.866069 3.920096,-1.639789 7.989527,-1.824676 11.424706,-0.841638 6.733903,0.577593 12.746955,2.630942 14.451103,3.850376 0,6.375224 -1.235291,8.266734 -11.786355,8.100005 -2.592568,1.369184 -4.585603,3.726918 -6.661501,6.817977 z"
               id="Hair" />
          </g>
          <g
             id="Bottom/Standing/Skinny-Jeans"
             transform="translate(0,187)">
            <polygon
               style="fill:#1f28cf;fill-opacity:1"
               id="Leg-5"
               points="181.89097,9.9475983e-014 128,9.9475983e-014 164.25496,127.22691 190.70696,221 210,221 " />
            <path
               style="fill:#2b44ff;fill-opacity:1"
               inkscape:connector-curvature="0"
               d="m 118.30434,0 c -0.83857,65.574224 -3.69809,101.34019 -4.57856,107.29789 C 112.84531,113.2556 99.532172,151.1563 73.786361,221 H 93.772647 C 126.54903,153.9969 144.84565,116.0962 148.6625,107.29789 152.47935,98.499584 164.25851,62.73362 182,0 Z"
               id="path836" />
            <g
               style="fill:#191847"
               id="Accessories/Shoe/Flat-Pointy"
               transform="translate(72,199)">
              <path
                 inkscape:connector-curvature="0"
                 d="M 0,40 1,19 h 21 c 9.957603,7 22.957603,12.666667 39,17 v 4 H 23 L 10,38 v 2 z"
                 id="Shoe" />
            </g>
            <g
               style="fill:#191847"
               id="g842"
               transform="translate(188,199)">
              <path
                 inkscape:connector-curvature="0"
                 d="M 0,40 1,19 h 21 c 9.957603,7 22.957603,12.666667 39,17 v 4 H 23 L 10,38 v 2 z"
                 id="path840" />
            </g>
          </g>
          <g
             id="Body/Lab-Coat"
             transform="translate(22,82)">
            <path
               style="fill:#b28b67"
               inkscape:connector-curvature="0"
               d="m 190.35887,88.610022 30.18662,25.591648 c 8.46755,2.93229 15.47536,6.3339 21.02343,10.20484 1.28064,1.342 2.75726,3.98169 -2.88484,3.1488 -5.6421,-0.8329 -11.6142,-1.45523 -12.53221,0.42488 -0.918,1.8801 2.35295,4.434 0.5882,6.93396 -1.1765,1.66664 -5.85462,-3.04581 -14.03438,-14.13737 L 182.1087,105.50664 Z M 53.667141,77.535919 71.378919,80.108135 C 52.366895,121.35766 42.174323,143.1728 40.801204,145.55355 c -3.089517,5.35669 0.543963,14.68677 1.964381,19.62589 -7.178399,2.0729 -4.885861,-9.01792 -13.962489,-6.25165 -8.284725,2.52491 -15.121393,8.24877 -23.3266505,1.44247 -1.0087882,-0.83679 -1.8585686,-3.57309 1.3478244,-5.16741 7.9882941,-3.97202 19.7169571,-11.24032 21.5401391,-13.91907 2.486233,-3.65296 10.920477,-24.90224 25.302732,-63.747861 z"
               id="Skin" />
            <path
               style="fill:#ed2945;fill-opacity:1"
               inkscape:connector-curvature="0"
               d="m 122.97927,9.2105422 10.61685,-4.5721103 c 18.07224,35.7511761 43.32694,69.6625821 82.93141,96.7076081 l -7.75924,16.56589 C 174.61584,101.62139 142.57061,89.449119 127.58307,61.832198 122.55286,52.563246 123.64558,20.761364 122.97927,9.2105422 Z"
               id="Coat-Back"
               transform="rotate(5,169.7534,61.27518)" />
            <path
               style="fill:#323337"
               inkscape:connector-curvature="0"
               d="m 90,110 c 31.43833,3.33333 56.18374,3.33333 74.23623,0 2.23659,-0.41298 2.58944,-4.15761 1.55222,-6.69903 C 149.63635,63.724403 138.5603,29.191627 138.5603,1.7026373 135.59659,3.1967882 130.40983,3.4207054 123,2.3743889 103.0862,30.702676 93.932538,63.206145 90,110 Z"
               id="Shirt" />
            <path
               style="fill:#ed2945;fill-opacity:1"
               inkscape:connector-curvature="0"
               d="m 118.0494,0 h 8.29903 c 1.93234,11.364871 8.02708,165.26259 26.84216,215.60597 H 51.385318 C 53.592428,169.48724 71.002871,114.08739 88.639809,67.72831 73.044436,81.999487 59.451785,106.18095 47.861859,140.27269 L 28.792621,135.37765 C 42.971224,74.281083 72.122448,29.374879 116.24629,0.65903686 116.34184,0.43830769 116.43694,0.21862633 116.53158,0 h 0.73442 c 0.27032,-0.17349344 0.54119,-0.34638551 0.81262,-0.51867621 z"
               id="Coat-Front" />
          </g>
        </g>
      </g>
      <g
         style="fill:none;fill-rule:evenodd;stroke:none;stroke-width:1"
         transform="matrix(0.22693176,0,0,0.22693176,58.14237,205.15409)"
         id="humaaans/sitting-2">
        <g
           id="A-Human/Sitting"
           transform="matrix(-1,0,0,1,340,24)">
          <g
             id="Head/Front/Rad"
             transform="translate(82)">
            <g
               style="fill:#b28b67;stroke-width:1"
               id="Head-4"
               transform="translate(54,31)">
              <path
                 inkscape:connector-curvature="0"
                 d="M 8.2622739,34.490127 C 3.6543643,29.081376 0.53563479,22.452877 1.0567763,15.025454 2.5583302,-6.3750206 32.348531,-1.6671889 38.143341,9.1339329 43.938152,19.935055 43.249578,47.332996 35.760301,49.263458 32.773588,50.033323 26.411001,48.147461 19.935372,44.244306 L 24,73 H 0 Z"
                 id="path882" />
            </g>
            <path
               style="fill:#191847"
               inkscape:connector-curvature="0"
               d="m 95.406618,38.901701 c 0.775178,-0.768184 1.198019,-1.864637 1.563794,-2.905764 0.379857,-1.081528 0.748946,-2.174199 1.001141,-3.299907 0.50393,-2.249226 0.508716,-4.835876 -1.095852,-6.582399 -1.28684,-1.400542 -3.217697,-2.028722 -4.999723,-2.165244 -1.18725,-0.09105 -2.406622,0.07523 -3.544722,0.449368 -1.129171,0.371156 -2.102516,1.110881 -3.197171,1.57 -0.04179,-2.423858 -0.456989,-4.960058 -1.68667,-7.029677 -1.183293,-1.991307 -3.069878,-3.108756 -5.218415,-3.404387 -2.205234,-0.303393 -4.382857,0.212643 -6.357066,1.28024 -0.494266,0.267371 -0.983929,0.54748 -1.452515,0.864505 -0.392375,0.265481 -0.800305,0.585193 -1.260699,0.693156 -0.513227,0.120502 -0.767631,-0.175926 -1.101191,-0.550365 -0.391087,-0.43902 -0.831692,-0.825699 -1.297977,-1.168495 -2.061741,-1.515472 -4.766856,-2.138576 -7.155438,-1.230189 -1.100547,0.418521 -2.170719,1.12929 -2.917364,2.108724 -0.665556,0.873063 -1.140309,2.257983 -2.058888,2.866261 -0.389798,0.258217 -0.665096,-0.08388 -1.02001,-0.336727 -0.533107,-0.379913 -1.041547,-0.799131 -1.581097,-1.168695 -0.757874,-0.51922 -1.578429,-0.907591 -2.457154,-1.110881 -1.286379,-0.297621 -3.064079,-0.227868 -3.431879,1.456962 -0.138063,0.632856 -0.03221,1.309694 0.01243,1.947326 0.06121,0.87555 0.125085,1.750802 0.201112,2.625059 0.05771,0.663802 0.130699,1.304917 0.255968,1.956779 0.06682,0.347474 0.275942,0.995256 0.126926,1.343227 -0.186201,0.434939 -1.045597,0.187668 -1.412753,0.202793 -0.725199,0.02995 -1.453435,0.157119 -2.123961,0.46698 -0.519669,0.240206 -1.066031,0.593451 -1.285367,1.189092 -0.134842,0.365883 -0.09931,0.741716 -0.03562,1.118146 0.0764,0.451755 -0.01095,0.691365 -0.06802,1.1472 -0.973989,-0.479617 -4.34917,-1.545223 -4.773852,0.200305 -0.141376,0.581213 0.180587,1.23795 0.426247,1.728115 0.430849,0.859729 0.99571,1.645525 1.573182,2.394903 1.204554,1.563333 2.642619,2.911735 4.189845,4.064906 -1.812768,0.805896 -2.285956,3.182987 -0.716455,4.599251 0.692984,0.625294 1.624725,0.764502 2.498849,0.724501 0.319938,-0.01463 0.78116,-0.137617 1.032895,-0.08189 0.135486,0.02995 0.280544,0.14478 0.468218,0.157617 1.233639,0.08448 2.626235,-0.212744 3.832169,-0.486484 2.148813,-0.487776 4.183126,-1.505819 5.844392,-3.056316 0.426155,-0.397724 0.778216,-0.626687 1.351821,-0.620816 0.502642,0.0051 0.995803,0.14289 1.497984,0.155627 1.328719,0.03393 2.526738,-0.615642 3.760561,-1.047994 0.07557,1.66682 0.550227,3.5026 1.232075,5.00215 0.556025,1.222825 1.717135,1.400542 2.858088,1.507809 3.648546,0.343295 7.309977,-0.0398 10.963125,-0.03473 -3.536346,0.799329 -7.190598,1.128792 -10.695559,2.069419 -1.584319,0.425088 -0.374518,1.492884 0.302911,2.233106 1.115457,1.218945 1.944848,2.729242 2.52011,4.320337 1.72993,-2.254997 4.787658,-3.740816 7.496639,-3.048057 2.993206,0.765298 5.100876,4.813089 3.186862,7.723132 -1.111223,1.689308 -3.117923,2.341468 -4.787657,3.067262 1.302578,1.354273 1.617638,3.354436 2.401652,5.039266 0.386669,0.830872 0.92944,1.770305 1.794175,2.059867 0.319938,0.107167 0.695102,0.116322 0.947481,0.377126 0.312666,0.322896 0.387128,0.683903 0.786407,0.961424 1.593247,1.107697 4.081971,1.022321 5.494172,-0.423198 1.277083,-1.307305 0.944811,-3.376028 -0.121772,-4.701443 1.697807,-0.707685 4.790972,-1.617863 4.116211,-4.262923 3.67892,-0.244286 12.611227,-6.210845 7.673544,-10.570785 2.709803,-1.531492 5.199363,-5.274298 3.458753,-8.573607 -1.34032,-2.540579 -4.457409,-3.676237 -7.014889,-3.810968"
               id="hair"
               transform="matrix(-1,0,0,1,140,0)" />
          </g>
          <g
             id="Bottom/Sitting/Skinny-Jeans-1"
             transform="translate(0,187)">
            <g
               style="stroke-width:1"
               id="Objects/Seat/Cube"
               transform="translate(10,42)">
              <g
                 id="Seat"
                 transform="translate(55)">
                <polygon
                   style="fill:#c5cfd6"
                   id="Seat-Stuff"
                   points="0,124 27.622642,0 104.87719,0 115,124 " />
                <polygon
                   style="fill:#000000;fill-opacity:0.1"
                   id="polygon888"
                   points="0,124 27.622642,0 51.382801,0 65.603774,124 " />
              </g>
            </g>
            <path
               style="fill:#b28b67"
               inkscape:connector-curvature="0"
               d="m 257.95329,20.756126 c 8.2368,-4.945979 22.0562,1.408589 22.04671,8.482289 -0.0284,21.164496 -19.34332,120.912685 -20.35178,127.218295 -1.00845,6.30561 -11.81157,7.97116 -12.44067,0.0207 -1.00101,-12.65058 -2.86075,-56.44425 -1,-76.714718 0.76808,-8.367224 1.59526,-16.335888 2.4096,-23.445057 C 238.4819,74.620603 222.80723,100.826 201.59313,134.93378 l -11.51656,-5.26161 c 9.0436,-29.796071 16.45921,-50.831308 22.24683,-63.105706 9.90983,-21.016749 19.20191,-39.014792 23.11264,-45.354457 6.15159,-9.972297 16.85942,-6.492814 22.51725,-0.455881 z"
               id="Skin-5" />
            <path
               style="fill:#1f28cf"
               inkscape:connector-curvature="0"
               d="m 208.81922,123.34011 5.1177,-101.510175 c 3.68844,-17.5525354 34.90673,-9.4064 34.89389,0 -0.0291,21.35544 -12.85729,95.126825 -12.86597,101.489325 z"
               id="LegLower"
               transform="rotate(20,228.82502,67.41963)" />
            <g
               style="fill:#e4e4e4"
               id="Accessories/Shoe/Flat-Sneaker"
               transform="rotate(30,-87.860871,421.7147)">
              <path
                 inkscape:connector-curvature="0"
                 d="M 2.6781318,25.401924 C 1.5593773,28.388411 1,30.622993 1,32.105671 1,33.908957 1.3004142,36.5404 1.9012426,40 c 2.0919386,0 20.8925424,0 56.4018124,0 1.465683,-4.845493 0.619606,-7.461418 -2.538232,-7.847777 -3.157838,-0.386358 -5.781107,-0.735209 -7.869809,-1.046552 L 21.679993,19.418883 c -0.50443,-0.224877 -1.095649,0.0017 -1.320526,0.506174 -0.0038,0.0086 -0.0076,0.01731 -0.01117,0.02605 l -1.685082,4.08759 c -2.923332,1.363957 -5.298842,2.045936 -7.126532,2.045936 -1.484954,0 -3.5356885,-0.599726 -6.1522031,-1.799176 l 5.5e-6,-1.2e-5 c -1.0041007,-0.460295 -2.1912281,-0.01945 -2.6515233,0.984647 -0.019839,0.04328 -0.038127,0.08725 -0.054828,0.131834 z"
                 id="shoe" />
            </g>
            <g
               style="fill:#e4e4e4"
               id="g898"
               transform="translate(242,126)">
              <path
                 inkscape:connector-curvature="0"
                 d="M 2.6781318,25.401924 C 1.5593773,28.388411 1,30.622993 1,32.105671 1,33.908957 1.3004142,36.5404 1.9012426,40 c 2.0919386,0 20.8925424,0 56.4018124,0 1.465683,-4.845493 0.619606,-7.461418 -2.538232,-7.847777 -3.157838,-0.386358 -5.781107,-0.735209 -7.869809,-1.046552 L 21.679993,19.418883 c -0.50443,-0.224877 -1.095649,0.0017 -1.320526,0.506174 -0.0038,0.0086 -0.0076,0.01731 -0.01117,0.02605 l -1.685082,4.08759 c -2.923332,1.363957 -5.298842,2.045936 -7.126532,2.045936 -1.484954,0 -3.5356885,-0.599726 -6.1522031,-1.799176 l 5.5e-6,-1.2e-5 c -1.0041007,-0.460295 -2.1912281,-0.01945 -2.6515233,0.984647 -0.019839,0.04328 -0.038127,0.08725 -0.054828,0.131834 z"
                 id="path896" />
            </g>
            <path
               style="fill:#2b44ff"
               inkscape:connector-curvature="0"
               d="M 282.77037,36.433028 C 282.77037,63 270.1536,124.97029 270.14562,130.82011 L 243,130.84096 c 3.97328,-55.295479 5.38217,-83.241067 4.22668,-83.836762 -1.73323,-0.893542 -71.05084,6.920833 -91.84032,6.920833 C 125.40783,53.925031 113.00631,35.020397 112,0 h 59.38636 c 12.09159,1.2938669 75.16246,14.015257 98.58574,18.388413 10.0279,1.872223 12.79827,10.726098 12.79827,18.044615 z"
               id="Leg-and-Butt" />
          </g>
          <g
             id="Body/Pointing-Forward"
             transform="translate(22,82)">
            <path
               style="fill:#997659"
               inkscape:connector-curvature="0"
               d="m 158.63804,42.700233 34.70978,-19.010411 c 5.77202,-6.8543 11.45908,-12.177624 17.06116,-15.9699721 1.71181,-0.7146548 4.70534,-1.1472149 1.90582,3.8216571 -2.79952,4.968872 -5.52073,10.321284 -4.09448,11.852086 1.42624,1.530802 4.98272,-0.607661 6.6842,1.93578 1.13433,1.695627 -4.94162,4.37424 -18.22784,8.035839 l -25.22089,23.09243 z M 213,58.73984 228.24652,50.364207 c 2.13931,-8.140296 4.69658,-12.235954 7.67183,-12.286975 2.28561,-1.063471 -1.69476,9.222553 2.63803,8.330551 4.33279,-0.892003 14.90791,-8.757094 16.73005,-7.160183 2.69575,2.362526 0.29205,9.616852 -2.54007,13.225491 -5.29323,6.744541 -9.67579,9.05097 -20.50798,12.071254 -5.66363,1.57916 -11.78702,4.74445 -18.37016,9.495871 z"
               id="path902" />
            <path
               style="fill:#2026a2"
               inkscape:connector-curvature="0"
               d="m 142.85799,34.750302 c 12.02801,1.775014 28.4423,1.775014 47.24557,-6.364152 l 4.33989,16.026157 c -13.63764,9.829249 -31.73074,16.814209 -46.15576,14.112389 -11.36771,-2.129183 -15.01597,-16.865151 -5.4297,-23.774394 z"
               id="Sleeve"
               transform="rotate(-9,165.89828,43.74806)" />
            <path
               style="fill:#1f28cf"
               inkscape:connector-curvature="0"
               d="m 158.10427,62.761234 c 12.90679,3.218871 34.55068,-0.577067 64.93166,-11.387813 7.53574,15.590098 11.01933,26.704642 10.45075,33.343633 -26.06241,13.613995 -48.40014,19.683776 -66.80345,20.084476 0.58483,10.91984 -0.74431,21.31032 -5.2093,30.80444 -9.17925,19.51829 -62.928872,1.44217 -81.001142,5 C 69.155401,103.85132 91.037911,88.914381 91.055518,65.396616 91.074799,39.642157 111.75441,0 114.797,0 h 27.74675 c 1.53095,19.669019 9.23665,41.345983 15.56052,62.761234 z"
               id="Clothes" />
          </g>
        </g>
      </g>
    </g>
  </g>
</svg>
