<svg id="_development--assets--img--_svg-sprites--rewe-digital" viewBox="0 0 210 37.62" xmlns="http://www.w3.org/2000/svg" width="100%" height="100%"><path class="bmst0" d="M13.97 29.31l-3.07-8.12c-1.14-3.02-1.78-3.42-3.42-3.42v11.54H0V.19h10.01c8.57 0 11.34 3.47 11.34 8.32 0 5-2.63 7.57-6.04 8.12.99.3 2.18 1.63 2.92 3.17.94 1.93 3.41 7.33 4.35 9.51h-8.61zM7.48 6.34v5.94h2.13c2.52 0 3.41-1.24 3.41-3.17 0-2.08-1.14-2.77-3.47-2.77H7.48zM25.71 29.31V.19h16.34v6.15h-8.87v4.9h7.24v5.93h-7.24v5.9h9.96v6.24zM73.31 29.31h-7.97l-1.49-8.42c-.64-3.52-1.29-7.33-1.43-9.16h-.05c-.06 1.43-.7 5.34-1.39 9.16l-1.54 8.42h-8.17L44.18.19h7.92l1.63 7.87c1.39 6.54 1.64 9.36 1.69 10.45.2-2.33.69-5.94 1.48-10.25L58.39.19h8.32l1.89 9.76c.44 2.18.99 5 1.19 8.56h.05c.15-2.63 1.04-8.26 1.58-11.09L72.91.19h7.97l-7.57 29.12zM82.96 29.31V.19h16.39v6.15h-8.91v4.9h7.28v5.93h-7.28v5.9h10v6.24z"></path><path class="bmst1" d="M207.23.19H210V29.3h-2.77zM192.97 26.93c-4.81 0-8.72-3.91-8.72-8.71 0-4.8 3.91-8.71 8.72-8.71 4.8 0 8.71 3.91 8.71 8.71 0 4.8-3.91 8.71-8.71 8.71zm0-20.2c-6.34 0-11.49 5.15-11.49 11.49s5.15 11.49 11.49 11.49c3.46 0 6.59-1.53 8.71-4.01v3.61h2.77V18.22c0-6.34-5.15-11.49-11.48-11.49z"></path><path class="bmst1" d="M166.02 7.13v22.18h2.77V9.9h5.95v19.41h2.77V9.9h5.7V7.13h-5.7V.19h-2.77v6.94zM151.75 9.5c-4.8 0-8.72 3.91-8.72 8.71 0 4.8 3.91 8.71 8.72 8.71 4.81 0 8.72-3.91 8.72-8.71 0-4.8-3.91-8.71-8.72-8.71zm11.49 16.64c0 6.34-5.15 11.49-11.49 11.49-5.59 0-10.25-4.01-11.29-9.31h2.88c.94 3.76 4.36 6.54 8.42 6.54 4.81 0 8.72-3.91 8.72-8.71v-.44c-2.13 2.47-5.25 4.01-8.72 4.01-6.34 0-11.49-5.15-11.49-11.49s5.15-11.49 11.49-11.49 11.49 5.15 11.49 11.49v7.91zM135.02 7.13h2.77v22.18h-2.77zM120.55 9.5c-4.8 0-8.71 3.91-8.71 8.71 0 4.8 3.91 8.71 8.71 8.71 4.8 0 8.71-3.91 8.71-8.71.01-4.8-3.91-8.71-8.71-8.71zm11.49 8.72c0 6.34-5.15 11.49-11.49 11.49s-11.49-5.15-11.49-11.49 5.15-11.49 11.49-11.49c3.47 0 6.58 1.53 8.71 4.01V.19h2.78v18.03zM136.4 0c.89 0 1.58.69 1.58 1.58 0 .89-.7 1.58-1.58 1.58-.9 0-1.59-.69-1.59-1.58 0-.89.7-1.58 1.59-1.58zM167.4 0c.89 0 1.59.69 1.59 1.58 0 .89-.7 1.58-1.59 1.58-.89 0-1.58-.69-1.58-1.58 0-.89.69-1.58 1.58-1.58z"></path></svg>